<?xml version="1.0" encoding="UTF-8"?>
<!DOCTYPE svg PUBLIC "-//W3C//DTD SVG 1.1//EN" "http://www.w3.org/Graphics/SVG/1.1/DTD/svg11.dtd">
<!-- Creator: CorelDRAW -->
<svg xmlns="http://www.w3.org/2000/svg" xml:space="preserve" width="12.8456mm" height="12.8456mm" version="1.1" style="shape-rendering:geometricPrecision; text-rendering:geometricPrecision; image-rendering:optimizeQuality; fill-rule:evenodd; clip-rule:evenodd"
viewBox="0 0 61.92 61.92"
 xmlns:xlink="http://www.w3.org/1999/xlink"
 xmlns:xodm="http://www.corel.com/coreldraw/odm/2003">
 <defs>
  <style type="text/css">
   <![CDATA[
    .str0 {stroke:black;stroke-width:0.96;stroke-miterlimit:22.9256}
    .str2 {stroke:black;stroke-width:0.96;stroke-miterlimit:22.9256}
    .str1 {stroke:#E6E6E6;stroke-width:0.96;stroke-miterlimit:22.9256}
    .str3 {stroke:black;stroke-width:0.37;stroke-miterlimit:22.9256}
    .fil1 {fill:none}
    .fil0 {fill:#666666}
    .fil2 {fill:white}
   ]]>
  </style>
 </defs>
 <g id="图层_x0020_1">
  <metadata id="CorelCorpID_0Corel-Layer"/>
  <g id="_2846431131344">
   <rect class="fil0 str0" x="0.48" y="0.48" width="60.96" height="60.96" rx="6.9" ry="6.9"/>
   <path class="fil1 str1" d="M4.34 49.36c0,-13.62 0,-27.24 0,-40.86 0.6,-3.51 2.23,-3.95 3.9,-4.26l39.94 0"/>
   <path class="fil1 str2" d="M57.81 12.45c0,13.62 0,27.24 0,40.86 -0.6,3.51 -2.23,3.95 -3.9,4.26l-39.94 0"/>
  </g>
  <g id="_2846431131584">
   <path class="fil2 str0" d="M37.48 43.16c-5.72,-4.37 -11.06,1.51 -13.01,-0.8 -1,-1.15 -1.32,-1.51 -2.32,-2.66l19.62 -16.63c0.98,1.17 1.34,1.62 2.32,2.78 1.64,1.99 -4.74,6.55 -1.34,12.87 3.31,4.21 3.75,3.57 7.51,7.99 3.26,3.82 3.4,6.67 1.67,8.12 -1.72,1.45 -4.65,0.95 -7.91,-2.87 -3.58,-4.2 -3,-5.24 -6.55,-8.8z"/>
   <circle class="fil2 str0" transform="matrix(-0.95768 0.80567 -0.743626 -0.87178 48.9202 51.0923)" r="1.04"/>
   <path class="fil2 str0" d="M21.34 38.5c-1.31,-1.58 -2.25,-3.33 -4.5,-4.72l-8.73 -4.82c0.76,-0.77 1.53,-2.68 2.37,-2.13l5.51 3.61 -5.27 -4.92 3.07 -3.21 3.49 3.33 5.35 5.82 0.67 -0.19 -4.03 -5.04 -4.65 -4.69 6.72 -6.66 4.57 4.36 6.76 7.3 0.19 -0.15 -4 -4.96 -6.55 -7.36 3.9 -3.41 7.73 7.87 0.72 -0.41 -7.02 -8.39 2.53 -2.14 10.4 14.72 -19.24 16.21z"/>
   <path class="fil1 str3" d="M23.82 39.81c0.51,0.6 1.01,1.06 1.52,1.66 0.49,1.38 1.83,0.22 5.47,-0.67 2.59,-0.55 4.69,-0.22 6,0.54 1.83,1.36 2.13,1.7 3.36,3.48 1.49,2.31 4.54,8.92 9.65,10.33"/>
  </g>
 </g>
</svg>
