<?xml version="1.0" encoding="UTF-8"?>
<!DOCTYPE svg PUBLIC "-//W3C//DTD SVG 1.1//EN" "http://www.w3.org/Graphics/SVG/1.1/DTD/svg11.dtd">
<!-- Creator: CorelDRAW -->
<svg xmlns="http://www.w3.org/2000/svg" xml:space="preserve" width="12.822mm" height="12.822mm" version="1.1" style="shape-rendering:geometricPrecision; text-rendering:geometricPrecision; image-rendering:optimizeQuality; fill-rule:evenodd; clip-rule:evenodd"
viewBox="0 0 68.59 68.59"
 xmlns:xlink="http://www.w3.org/1999/xlink"
 xmlns:xodm="http://www.corel.com/coreldraw/odm/2003">
 <defs>
  <style type="text/css">
   <![CDATA[
    .str2 {stroke:black;stroke-width:1.07;stroke-miterlimit:22.9256}
    .str1 {stroke:#E6E6E6;stroke-width:1.07;stroke-miterlimit:22.9256}
    .str3 {stroke:white;stroke-width:1.07;stroke-miterlimit:22.9256}
    .str0 {stroke:black;stroke-width:0.94;stroke-miterlimit:22.9256}
    .fil1 {fill:none}
    .fil0 {fill:#666666}
    .fil2 {fill:#E6E6E6}
   ]]>
  </style>
 </defs>
 <g id="图层_x0020_1">
  <metadata id="CorelCorpID_0Corel-Layer"/>
  <g id="_2845570033008">
   <rect class="fil0 str0" x="0.47" y="0.47" width="67.64" height="67.64" rx="7.66" ry="7.66"/>
   <path class="fil1 str1" d="M4.75 54.71c0,-15.11 0,-30.23 0,-45.34 0.66,-3.9 2.47,-4.38 4.32,-4.72l44.32 0"/>
   <path class="fil1 str2" d="M64.08 13.76c0,15.11 0,30.23 0,45.34 -0.66,3.9 -2.47,4.38 -4.32,4.72l-44.32 0"/>
  </g>
  <g id="_2845570032048">
   <path class="fil1 str3" d="M40.28 38.32c2.66,-1.36 4.55,-2.47 5.4,-4.8 1.14,-3.87 0.56,-6.94 -0.89,-17.01"/>
   <path class="fil1 str3" d="M46.86 12.84c2.82,13.31 3.95,17.37 1.73,22.49 -1.66,3.08 -5.33,4.55 -10.51,6.35 -2.24,1.3 -1.99,5.35 -2,9.33 0.14,3.32 0.02,4.37 2.19,4.88 2.02,0.48 4.85,1.37 10.59,2.36 0.57,0.1 0.56,0.99 -0.09,1.1 -5.18,2.35 -22.76,2.25 -27.96,0 -0.61,-0.24 -0.58,-1.05 -0.17,-1.1 5.78,-0.75 8.57,-1.89 10.59,-2.36 2.17,-0.51 2.05,-1.56 2.19,-4.88 -0,-3.97 0.26,-8.02 -1.99,-9.33 -5.18,-1.8 -8.85,-3.27 -10.51,-6.35 -2.22,-5.12 -1.09,-9.18 1.73,-22.49"/>
   <ellipse class="fil2 str3" cx="34.59" cy="13.2" rx="12.24" ry="4.02"/>
  </g>
 </g>
</svg>
