<?xml version="1.0" encoding="UTF-8"?>
<!DOCTYPE svg PUBLIC "-//W3C//DTD SVG 1.1//EN" "http://www.w3.org/Graphics/SVG/1.1/DTD/svg11.dtd">
<!-- Creator: CorelDRAW -->
<svg xmlns="http://www.w3.org/2000/svg" xml:space="preserve" width="12.822mm" height="12.822mm" version="1.1" style="shape-rendering:geometricPrecision; text-rendering:geometricPrecision; image-rendering:optimizeQuality; fill-rule:evenodd; clip-rule:evenodd"
viewBox="0 0 61.7 61.7"
 xmlns:xlink="http://www.w3.org/1999/xlink"
 xmlns:xodm="http://www.corel.com/coreldraw/odm/2003">
 <defs>
  <style type="text/css">
   <![CDATA[
    .str2 {stroke:black;stroke-width:0.96;stroke-miterlimit:22.9256}
    .str1 {stroke:#E6E6E6;stroke-width:0.96;stroke-miterlimit:22.9256}
    .str3 {stroke:white;stroke-width:0.96;stroke-miterlimit:22.9256}
    .str0 {stroke:black;stroke-width:0.85;stroke-miterlimit:22.9256}
    .fil1 {fill:none}
    .fil0 {fill:#666666}
   ]]>
  </style>
 </defs>
 <g id="图层_x0020_1">
  <metadata id="CorelCorpID_0Corel-Layer"/>
  <g id="_2882189870352">
   <rect class="fil0 str0" x="0.42" y="0.42" width="60.85" height="60.85" rx="6.89" ry="6.89"/>
   <path class="fil1 str1" d="M4.28 49.22c0,-13.6 0,-27.2 0,-40.79 0.6,-3.51 2.22,-3.94 3.89,-4.25l39.87 0"/>
   <path class="fil1 str2" d="M57.65 12.38c0,13.6 0,27.2 0,40.79 -0.6,3.51 -2.22,3.94 -3.89,4.25l-39.87 0"/>
  </g>
  <g id="_2882189868624">
   <rect class="fil1 str3" transform="matrix(0.863004 0.863004 -0.964624 0.964624 15.9221 7.45081)" width="45.45" height="8.33"/>
   <line class="fil1 str3" x1="18.47" y1="10.57" x2="14.63" y2= "14.42" />
   <line class="fil1 str3" x1="19.64" y1="11.73" x2="17.44" y2= "13.93" />
   <line class="fil1 str3" x1="20.8" y1="12.89" x2="18.6" y2= "15.09" />
   <line class="fil1 str3" x1="35.88" y1="27.98" x2="33.69" y2= "30.17" />
   <line class="fil1 str3" x1="21.96" y1="14.06" x2="19.76" y2= "16.25" />
   <line class="fil1 str3" x1="30.08" y1="22.18" x2="27.89" y2= "24.37" />
   <line class="fil1 str3" x1="23.12" y1="15.22" x2="20.92" y2= "17.41" />
   <line class="fil1 str3" x1="28.92" y1="21.02" x2="25.07" y2= "24.87" />
   <line class="fil1 str3" x1="24.28" y1="16.38" x2="21.29" y2= "19.37" />
   <line class="fil1 str3" x1="31.24" y1="23.34" x2="29.05" y2= "25.53" />
   <line class="fil1 str3" x1="25.44" y1="17.54" x2="23.25" y2= "19.73" />
   <line class="fil1 str3" x1="32.4" y1="24.5" x2="30.21" y2= "26.69" />
   <line class="fil1 str3" x1="26.6" y1="18.7" x2="24.41" y2= "20.89" />
   <line class="fil1 str3" x1="34.72" y1="26.82" x2="31.73" y2= "29.81" />
   <line class="fil1 str3" x1="37.04" y1="29.14" x2="34.85" y2= "31.33" />
   <line class="fil1 str3" x1="39.37" y1="31.46" x2="37.17" y2= "33.66" />
   <line class="fil1 str3" x1="27.76" y1="19.86" x2="25.57" y2= "22.05" />
   <line class="fil1 str3" x1="38.2" y1="30.3" x2="36.01" y2= "32.5" />
   <line class="fil1 str3" x1="40.53" y1="32.62" x2="36.68" y2= "36.47" />
   <line class="fil1 str3" x1="42.85" y1="34.95" x2="40.66" y2= "37.14" />
   <line class="fil1 str3" x1="41.69" y1="33.79" x2="39.49" y2= "35.98" />
   <line class="fil1 str3" x1="44.01" y1="36.11" x2="41.82" y2= "38.3" />
   <line class="fil1 str3" x1="33.56" y1="25.66" x2="31.37" y2= "27.85" />
   <line class="fil1 str3" x1="45.17" y1="37.27" x2="42.98" y2= "39.46" />
   <line class="fil1 str3" x1="52.13" y1="44.23" x2="48.28" y2= "48.08" />
   <line class="fil1 str3" x1="46.33" y1="38.43" x2="43.34" y2= "41.42" />
   <line class="fil1 str3" x1="47.49" y1="39.59" x2="45.3" y2= "41.78" />
   <line class="fil1 str3" x1="48.65" y1="40.75" x2="46.46" y2= "42.94" />
   <line class="fil1 str3" x1="49.81" y1="41.91" x2="47.62" y2= "44.1" />
   <line class="fil1 str3" x1="50.97" y1="43.07" x2="48.78" y2= "45.26" />
  </g>
 </g>
</svg>
