<?xml version="1.0" encoding="UTF-8"?>
<!DOCTYPE svg PUBLIC "-//W3C//DTD SVG 1.1//EN" "http://www.w3.org/Graphics/SVG/1.1/DTD/svg11.dtd">
<!-- Creator: CorelDRAW -->
<svg xmlns="http://www.w3.org/2000/svg" xml:space="preserve" width="12.8456mm" height="12.8456mm" version="1.1" style="shape-rendering:geometricPrecision; text-rendering:geometricPrecision; image-rendering:optimizeQuality; fill-rule:evenodd; clip-rule:evenodd"
viewBox="0 0 146.33 146.33"
 xmlns:xlink="http://www.w3.org/1999/xlink"
 xmlns:xodm="http://www.corel.com/coreldraw/odm/2003">
 <defs>
  <style type="text/css">
   <![CDATA[
    .str4 {stroke:#6699FF;stroke-width:6.03;stroke-miterlimit:22.9256}
    .str0 {stroke:black;stroke-width:2.28;stroke-miterlimit:22.9256}
    .str2 {stroke:black;stroke-width:2.28;stroke-miterlimit:22.9256}
    .str1 {stroke:#E6E6E6;stroke-width:2.28;stroke-miterlimit:22.9256}
    .str3 {stroke:white;stroke-width:2.28;stroke-miterlimit:22.9256}
    .fil1 {fill:none}
    .fil5 {fill:#333333}
    .fil3 {fill:#4D4D4D}
    .fil0 {fill:#666666}
    .fil4 {fill:white}
    .fil2 {fill:#6699FF;fill-rule:nonzero}
   ]]>
  </style>
 </defs>
 <g id="图层_x0020_1">
  <metadata id="CorelCorpID_0Corel-Layer"/>
  <g id="_1864368862960">
   <g>
    <rect class="fil0 str0" x="1.14" y="1.14" width="144.05" height="144.05" rx="16.3" ry="16.3"/>
    <path class="fil1 str1" d="M10.26 116.65c0,-32.19 0,-64.38 0,-96.57 1.41,-8.3 5.26,-9.33 9.21,-10.06l94.38 0"/>
    <path class="fil1 str2" d="M136.61 29.43c0,32.19 0,64.38 0,96.57 -1.41,8.3 -5.26,9.33 -9.21,10.06l-94.38 0"/>
   </g>
   <polygon class="fil2" points="69.44,46.45 42.47,46.45 42.47,40.1 58.48,21.86 43.56,21.86 43.56,15.22 68.89,15.22 68.89,22.01 53.04,39.74 69.44,39.74 "/>
   <path class="fil3 str3" d="M31.65 72.47c1.17,4.58 4.34,8.34 9.47,11.29 1.65,-3.63 11.69,-10.21 22.58,-9.99 -3.34,-2.34 -6.67,-4.67 -10.01,-7.01 2.56,-4.23 5.12,-8.45 7.68,-12.68 -17.98,3.49 -30.61,8.73 -29.71,18.39z"/>
   <path class="fil4 str3" d="M61.37 65.43c7.79,-7.79 15.57,-15.57 23.36,-23.36 0,4.01 0,8.01 0,12.02 22.83,2.04 31.27,8.18 32.04,15.35 -0.27,9.64 -7.41,11.97 -8.98,13.2 -2.99,-3.51 -13.46,-9.7 -24.06,-8.52 -0.11,3.45 -0.22,6.9 -0.33,10.35 -7.34,-6.34 -14.68,-12.68 -22.03,-19.02z"/>
   <line class="fil1 str4" x1="73.73" y1="34.55" x2="73.73" y2= "130.61" />
   <path class="fil4 str3" d="M31.65 94.1l-0 -21.63c1.66,6.58 8.49,15.85 33.95,16.41l0.29 -9.87 21.76 19.44 -22.92 21.18c0,-4.16 0,-8.32 0,-12.48 -18.16,-0.48 -28.4,-5.26 -33.08,-13.06z"/>
   <path class="fil5 str3" d="M116.76 69.43c-0.3,10.91 -8.91,15.26 -29.7,19.02 3.45,2.89 6.9,5.78 10.34,8.68 -3.67,4.34 -7.34,8.68 -11.01,13.01 12.08,-1.92 30.02,-6.54 30.34,-14.65 0.22,-8.01 -0.19,-18.05 0.03,-26.06z"/>
  </g>
 </g>
</svg>
