<?xml version="1.0" encoding="UTF-8"?>
<!DOCTYPE svg PUBLIC "-//W3C//DTD SVG 1.1//EN" "http://www.w3.org/Graphics/SVG/1.1/DTD/svg11.dtd">
<!-- Creator: CorelDRAW -->
<svg xmlns="http://www.w3.org/2000/svg" xml:space="preserve" width="12.822mm" height="12.822mm" version="1.1" style="shape-rendering:geometricPrecision; text-rendering:geometricPrecision; image-rendering:optimizeQuality; fill-rule:evenodd; clip-rule:evenodd"
viewBox="0 0 68.59 68.59"
 xmlns:xlink="http://www.w3.org/1999/xlink"
 xmlns:xodm="http://www.corel.com/coreldraw/odm/2003">
 <defs>
  <style type="text/css">
   <![CDATA[
    .str2 {stroke:black;stroke-width:1.07;stroke-miterlimit:22.9256}
    .str1 {stroke:#E6E6E6;stroke-width:1.07;stroke-miterlimit:22.9256}
    .str5 {stroke:white;stroke-width:1.07;stroke-miterlimit:22.9256}
    .str0 {stroke:black;stroke-width:0.94;stroke-miterlimit:22.9256}
    .str3 {stroke:white;stroke-width:1.89;stroke-miterlimit:22.9256;stroke-dasharray:3.774292 1.887146}
    .str4 {stroke:white;stroke-width:1.07;stroke-miterlimit:22.9256;stroke-dasharray:2.139621 1.069811}
    .fil1 {fill:none}
    .fil0 {fill:#666666}
    .fil2 {fill:white}
   ]]>
  </style>
 </defs>
 <g id="图层_x0020_1">
  <metadata id="CorelCorpID_0Corel-Layer"/>
  <g id="_2882189906256">
   <rect class="fil0 str0" x="0.47" y="0.47" width="67.64" height="67.64" rx="7.66" ry="7.66"/>
   <path class="fil1 str1" d="M4.75 54.71c0,-15.11 0,-30.23 0,-45.34 0.66,-3.9 2.47,-4.38 4.32,-4.72l44.32 0"/>
   <path class="fil1 str2" d="M64.08 13.76c0,15.11 0,30.23 0,45.34 -0.66,3.9 -2.47,4.38 -4.32,4.72l-44.32 0"/>
  </g>
  <path class="fil1 str3" d="M23.32 15.56l19.93 0c7.03,0 12.78,5.88 12.78,13.07l0 19.14"/>
  <path class="fil1 str4" d="M19.3 22.77l22.32 0c3.75,0 6.82,3.2 6.82,7.11l0 18.57m0 0c0,3.91 -3.07,7.11 -6.82,7.11l-22.32 0c-3.75,0 -6.82,-3.2 -6.82,-7.11l0 -18.57c0,-3.91 3.07,-7.11 6.82,-7.11"/>
  <polygon class="fil2 str5" points="46.99,33.64 52.94,19.43 37.65,24.31 41.55,28.16 36.49,32.64 38.35,34.65 43.13,29.82 "/>
 </g>
</svg>
