<?xml version="1.0" encoding="UTF-8"?>
<!DOCTYPE svg PUBLIC "-//W3C//DTD SVG 1.1//EN" "http://www.w3.org/Graphics/SVG/1.1/DTD/svg11.dtd">
<!-- Creator: CorelDRAW -->
<svg xmlns="http://www.w3.org/2000/svg" xml:space="preserve" width="12.822mm" height="12.822mm" version="1.1" style="shape-rendering:geometricPrecision; text-rendering:geometricPrecision; image-rendering:optimizeQuality; fill-rule:evenodd; clip-rule:evenodd"
viewBox="0 0 132.13 132.13"
 xmlns:xlink="http://www.w3.org/1999/xlink"
 xmlns:xodm="http://www.corel.com/coreldraw/odm/2003">
 <defs>
  <style type="text/css">
   <![CDATA[
    .str4 {stroke:lime;stroke-width:5.45;stroke-miterlimit:22.9256}
    .str3 {stroke:red;stroke-width:5.45;stroke-miterlimit:22.9256}
    .str5 {stroke:white;stroke-width:5.45;stroke-miterlimit:22.9256}
    .str2 {stroke:black;stroke-width:2.06;stroke-miterlimit:22.9256}
    .str1 {stroke:#E6E6E6;stroke-width:2.06;stroke-miterlimit:22.9256}
    .str0 {stroke:black;stroke-width:1.82;stroke-miterlimit:22.9256}
    .fil1 {fill:none}
    .fil0 {fill:#666666}
    .fil2 {fill:white;fill-rule:nonzero}
   ]]>
  </style>
 </defs>
 <g id="图层_x0020_1">
  <metadata id="CorelCorpID_0Corel-Layer"/>
  <path class="fil0 str0" d="M15.66 0.91l100.82 0c8.11,0 14.75,6.64 14.75,14.75l0 100.82c0,8.11 -6.64,14.75 -14.75,14.75l-100.82 0c-8.11,0 -14.75,-6.64 -14.75,-14.75l0 -100.82c0,-8.11 6.64,-14.75 14.75,-14.75z"/>
  <path class="fil1 str1" d="M9.16 105.4c0,-29.12 0,-58.24 0,-87.36 1.28,-7.51 4.76,-8.44 8.33,-9.1l85.38 0"/>
  <path class="fil1 str2" d="M123.46 26.5c0,29.12 0,58.24 0,87.36 -1.28,7.51 -4.76,8.44 -8.33,9.1l-85.38 0"/>
  <g id="_2063429381344">
   <line class="fil1 str3" x1="42.66" y1="120.01" x2="97.75" y2= "85.14" />
   <line class="fil1 str4" x1="36.82" y1="95.28" x2="110.79" y2= "107.97" />
   <path class="fil2 str5" d="M70.86 51.9l-2.39 0.02 0 -10.8c-1.62,-0.34 -2.87,-0.73 -3.76,-1.18 -0.89,-0.46 -1.73,-1.14 -2.54,-2.04 -1.74,-1.95 -2.62,-4.18 -2.62,-6.68 0,-2.83 0.98,-5.23 2.94,-7.21 1.96,-1.97 4.35,-2.96 7.15,-2.96 2.76,0 5.13,0.98 7.1,2.95 1.97,1.97 2.95,4.34 2.95,7.12 0,2.47 -0.76,4.63 -2.28,6.49 -0.79,0.98 -1.65,1.71 -2.57,2.2 -0.92,0.49 -2.24,0.92 -3.96,1.29l-0.02 10.8zm-1.15 -28.26c-2.09,0 -3.87,0.73 -5.35,2.2 -1.47,1.46 -2.21,3.23 -2.21,5.29 0,2.09 0.72,3.85 2.16,5.28 1.44,1.44 3.2,2.15 5.29,2.15 2.08,0 3.84,-0.71 5.3,-2.15 1.45,-1.43 2.17,-3.17 2.17,-5.24 0,-2.11 -0.71,-3.89 -2.14,-5.35 -1.42,-1.46 -3.17,-2.19 -5.23,-2.19z"/>
   <polyline class="fil1 str5" points="70.01,53.57 70.67,74.41 65.51,99.29 "/>
   <line class="fil1 str5" x1="76.2" y1="97.01" x2="70.67" y2= "74.41" />
   <line class="fil1 str5" x1="70.01" y1="53.57" x2="50.97" y2= "49.67" />
   <line class="fil1 str5" x1="70.01" y1="53.57" x2="89.44" y2= "43.28" />
  </g>
 </g>
</svg>
