<?xml version="1.0" encoding="UTF-8"?>
<!DOCTYPE svg PUBLIC "-//W3C//DTD SVG 1.1//EN" "http://www.w3.org/Graphics/SVG/1.1/DTD/svg11.dtd">
<!-- Creator: CorelDRAW -->
<svg xmlns="http://www.w3.org/2000/svg" xml:space="preserve" width="12.8456mm" height="12.8456mm" version="1.1" style="shape-rendering:geometricPrecision; text-rendering:geometricPrecision; image-rendering:optimizeQuality; fill-rule:evenodd; clip-rule:evenodd"
viewBox="0 0 190.96 190.96"
 xmlns:xlink="http://www.w3.org/1999/xlink"
 xmlns:xodm="http://www.corel.com/coreldraw/odm/2003">
 <defs>
  <style type="text/css">
   <![CDATA[
    .str3 {stroke:gray;stroke-width:3.93;stroke-miterlimit:22.9256}
    .str4 {stroke:white;stroke-width:3.93;stroke-miterlimit:22.9256}
    .str0 {stroke:black;stroke-width:2.97;stroke-miterlimit:22.9256}
    .str2 {stroke:black;stroke-width:2.97;stroke-miterlimit:22.9256}
    .str1 {stroke:#E6E6E6;stroke-width:2.97;stroke-miterlimit:22.9256}
    .fil1 {fill:none}
    .fil0 {fill:#666666}
   ]]>
  </style>
 </defs>
 <g id="图层_x0020_1">
  <metadata id="CorelCorpID_0Corel-Layer"/>
  <g id="_1864128830064">
   <g>
    <rect class="fil0 str0" x="1.49" y="1.49" width="187.98" height="187.98" rx="21.27" ry="21.27"/>
    <path class="fil1 str1" d="M13.39 152.22c0,-42.01 0,-84.01 0,-126.01 1.84,-10.83 6.86,-12.18 12.02,-13.13l123.16 0"/>
    <path class="fil1 str2" d="M178.27 38.41c0,42.01 0,84.01 0,126.01 -1.84,10.83 -6.86,12.18 -12.02,13.13l-123.16 0"/>
   </g>
   <g>
    <g>
     <path class="fil1 str3" d="M54.54 45.59c1.58,-2.1 4.7,-6.57 6.28,-8.67 1.43,-0.06 2.86,-0.12 4.29,-0.19 -0.67,6.53 -1.34,13.06 -2.02,19.58 0.28,7.92 0.55,15.83 0.82,23.75"/>
     <path class="fil1 str3" d="M64.9 38.69c2.92,-3.48 7.19,-8.42 10.11,-11.9 2.2,0.55 3.13,0.83 3.91,1.08 0.99,1.09 1.04,4.43 2.02,5.53 -1.81,4.33 -2.68,6.42 -4.49,10.74 -1.02,4.05 -2.04,8.1 -3.06,12.16 0.94,5.74 1.88,11.47 2.82,17.21"/>
     <path class="fil1 str3" d="M50.17 167.2c0.67,-5.91 0.14,-15.2 0.81,-21.11 0.43,-3.83 2.06,-4.3 2.49,-8.13 -4.89,-13.55 -9.78,-27.1 -14.67,-40.65 -1.7,-5.83 -5.6,-12.23 -7.3,-18.06 -1.03,-3.52 0.14,-6.48 -0.89,-10.01 2.08,-1.74 3.86,-1.45 5.41,0.27 3.07,6.64 6.14,13.28 9.21,19.93 -0.5,-9.71 -0.99,-19.42 -1.49,-29.13 1.52,-4.07 1.99,-5.34 3.51,-9.41 2.07,-0.83 5.2,-4.47 7.27,-5.29 -0.57,4.46 -1.15,8.92 -1.72,13.39 0.49,8.19 0.98,16.38 1.47,24.57"/>
     <path class="fil1 str3" d="M76.55 43.51c3.22,-5.7 7,-13.8 9.65,-17.11 2.65,-3.31 3.55,-3.01 5.49,-1.8 1.95,1.2 3.27,4.35 3.29,7.23 0.02,2.88 -1.92,4.49 -3.18,8.8 -1.27,4.32 -4.4,11.39 -4.4,17.06 0,5.68 3.13,10.21 4.42,15.84 1.28,5.63 1.81,14.24 3.28,17.91 1.47,3.67 1.76,3.39 4.91,2.57 8.87,-2.31 6.05,-5.05 9.96,-11.34 2.15,-3.47 0.43,-12.71 2.12,-15.73 1.68,-3.03 2.76,-5.78 4.82,-6.57 2.06,-0.79 3.05,-0.9 4.02,1.94 0.97,2.84 2.43,13.79 2.33,17.72 -0.12,4.67 -3.96,22.3 -5.97,25.4 -5.25,8.1 -8.58,19.51 -12.12,25.4 -3.54,5.89 -10.48,8.95 -12.27,14.05 -1.79,5.1 0.44,11.72 0.67,17.58 -0.05,-1.44 -0.11,-2.88 -0.16,-4.32"/>
    </g>
    <g>
     <path class="fil1 str4" d="M87.99 45.13c1.74,-1.97 5.21,-6.18 6.96,-8.14 1.43,0.05 2.86,0.11 4.29,0.16 -1.19,6.45 -2.38,12.91 -3.58,19.36 -0.36,7.91 -0.72,15.83 -1.08,23.74"/>
     <path class="fil1 str4" d="M98.87 39.08c3.19,-3.23 7.84,-7.82 11.03,-11.05 2.15,0.72 3.05,1.07 3.81,1.39 0.89,1.17 0.68,4.5 1.57,5.67 -2.15,4.17 -3.19,6.18 -5.34,10.35 -1.34,3.96 -2.68,7.91 -4.02,11.87 0.48,5.79 0.96,11.59 1.43,17.38"/>
     <path class="fil1 str4" d="M73.9 166c1.14,-5.84 1.36,-15.14 2.5,-20.98 0.74,-3.78 2.39,-4.12 3.13,-7.9 -3.79,-13.9 -7.58,-27.8 -11.36,-41.69 -1.23,-5.95 -4.6,-12.64 -5.83,-18.59 -0.74,-3.6 0.66,-6.45 -0.09,-10.05 2.22,-1.57 3.96,-1.13 5.37,0.7 2.53,6.87 5.06,13.73 7.59,20.6 0.28,-9.72 0.57,-19.44 0.85,-29.16 1.84,-3.94 2.41,-5.16 4.25,-9.1 2.13,-0.66 5.54,-4.03 7.67,-4.69 -0.93,4.4 -1.86,8.8 -2.79,13.2 -0.17,8.2 -0.33,16.41 -0.5,24.61"/>
     <path class="fil1 str4" d="M110.1 44.81c3.66,-5.43 8.09,-13.2 10.99,-16.28 2.9,-3.08 3.78,-2.71 5.62,-1.36 1.84,1.35 2.92,4.6 2.7,7.47 -0.21,2.87 -2.27,4.32 -3.88,8.51 -1.61,4.2 -5.3,11 -5.75,16.66 -0.45,5.66 2.3,10.43 3.14,16.15 0.83,5.71 0.66,14.34 1.83,18.12 1.17,3.78 1.48,3.52 4.69,2.95 9.03,-1.59 6.44,-4.55 10.83,-10.5 2.43,-3.28 1.45,-12.64 3.37,-15.52 1.92,-2.88 3.21,-5.54 5.33,-6.16 2.12,-0.62 3.12,-0.66 3.86,2.26 0.74,2.91 1.32,13.94 0.9,17.85 -0.5,4.65 -5.74,21.91 -7.98,24.84 -5.88,7.66 -10.12,18.76 -14.12,24.35 -4,5.59 -11.16,8.08 -13.36,13.02 -2.2,4.94 -0.5,11.72 -0.74,17.58 0.06,-1.44 0.12,-2.88 0.19,-4.32"/>
    </g>
   </g>
  </g>
 </g>
</svg>
