<?xml version="1.0" encoding="UTF-8"?>
<!DOCTYPE svg PUBLIC "-//W3C//DTD SVG 1.1//EN" "http://www.w3.org/Graphics/SVG/1.1/DTD/svg11.dtd">
<!-- Creator: CorelDRAW -->
<svg xmlns="http://www.w3.org/2000/svg" xml:space="preserve" width="12.822mm" height="12.822mm" version="1.1" style="shape-rendering:geometricPrecision; text-rendering:geometricPrecision; image-rendering:optimizeQuality; fill-rule:evenodd; clip-rule:evenodd"
viewBox="0 0 68.58 68.58"
 xmlns:xlink="http://www.w3.org/1999/xlink"
 xmlns:xodm="http://www.corel.com/coreldraw/odm/2003">
 <defs>
  <style type="text/css">
   <![CDATA[
    .str2 {stroke:black;stroke-width:1.07;stroke-miterlimit:22.9256}
    .str1 {stroke:#E6E6E6;stroke-width:1.07;stroke-miterlimit:22.9256}
    .str3 {stroke:white;stroke-width:1.07;stroke-miterlimit:22.9256}
    .str0 {stroke:black;stroke-width:0.94;stroke-miterlimit:22.9256}
    .fil1 {fill:none}
    .fil0 {fill:#666666}
    .fil2 {fill:gray}
    .fil3 {fill:white}
   ]]>
  </style>
 </defs>
 <g id="图层_x0020_1">
  <metadata id="CorelCorpID_0Corel-Layer"/>
  <g id="_2882476965696">
   <rect class="fil0 str0" x="0.47" y="0.47" width="67.64" height="67.64" rx="7.65" ry="7.65"/>
   <path class="fil1 str1" d="M4.75 54.71c0,-15.11 0,-30.23 0,-45.34 0.66,-3.9 2.47,-4.38 4.32,-4.72l44.31 0"/>
   <path class="fil1 str2" d="M64.08 13.76c0,15.11 0,30.23 0,45.34 -0.66,3.9 -2.47,4.38 -4.32,4.72l-44.31 0"/>
  </g>
  <path class="fil1" d="M53.65 43.16c-4.28,3.14 -11.1,5 -18.35,5 -12.56,0 -22.74,-5.47 -22.74,-12.22 0,-6.75 10.18,-12.22 22.74,-12.22 5.78,0 11.35,1.18 15.57,3.31"/>
  <polygon class="fil2 str3" points="56.71,41.66 47.7,54.87 14.73,50.16 27.96,39.05 "/>
  <polygon class="fil3 str3" points="51.33,35.15 39.53,10.36 28.16,34.61 37.24,34.88 36.7,45.68 41.26,45.8 41.08,34.95 "/>
  <polyline class="fil1 str1" points="14.33,52.95 48.05,58.9 57.36,45.05 "/>
 </g>
</svg>
