<?xml version="1.0" encoding="UTF-8" standalone="no"?>
<svg width="513px" height="512px" viewBox="0 0 513 512" version="1.1" xmlns="http://www.w3.org/2000/svg" xmlns:xlink="http://www.w3.org/1999/xlink" xmlns:sketch="http://www.bohemiancoding.com/sketch/ns">
    <!-- Generator: Sketch 3.3 (11970) - http://www.bohemiancoding.com/sketch -->
    <title>tb_polygon</title>
    <desc>Created with Sketch.</desc>
    <defs></defs>
    <g id="Page-1" stroke="none" stroke-width="1" fill="none" fill-rule="evenodd" sketch:type="MSPage">
        <g id="tb_polygon" sketch:type="MSArtboardGroup" transform="translate(1.000000, 0.000000)">
            <path d="M385.253128,134.253789 L411.071437,338.67733 L224.49807,426.384563 L83.3705625,276.167433 L182.723073,95.6210625 L385.253128,134.253789 L385.253128,134.253789 Z" id="Fill-1977" fill="#A09E89" sketch:type="MSShapeGroup"></path>
            <path d="M385.253128,134.254665 L411.071437,338.677221 L224.49807,426.384563 L83.3705625,276.166563 L182.723073,95.6210625 L385.253128,134.254665 L385.253128,134.254665 Z" id="Stroke-1978" stroke="#000000" stroke-width="10.4099278" stroke-linecap="round" sketch:type="MSShapeGroup"></path>
            <path d="M218.126062,253.856687 C218.126062,232.451235 235.514453,215.063437 256.920635,215.063437 C278.326817,215.063437 295.712562,232.451235 295.712562,253.856687 C295.712562,275.26214 278.326817,292.649937 256.920635,292.649937 C235.514453,292.649937 218.126062,275.26214 218.126062,253.856687 L218.126062,253.856687 Z" id="Fill-22451" fill="#FCFCFC" sketch:type="MSShapeGroup"></path>
            <path d="M343.693688,132.372563 C343.693688,110.96711 361.079433,93.5793125 382.485615,93.5793125 C403.891797,93.5793125 421.280188,110.96711 421.280188,132.372563 C421.280188,153.778015 403.891797,171.165812 382.485615,171.165812 C361.079433,171.165812 343.693688,153.778015 343.693688,132.372563 L343.693688,132.372563 Z" id="Fill-22452" fill="#FCFCFC" sketch:type="MSShapeGroup"></path>
            <path d="M255.898438,254.877563 L383.507812,135.435188" id="Stroke-22481" stroke="#FFFFFF" stroke-width="31.2297835" sketch:type="MSShapeGroup"></path>
            <path d="M83.6597073,289.352176 C64.9191037,194.595623 126.664405,102.401306 221.42596,83.659686 C316.179555,64.9188618 408.375684,126.666669 427.116288,221.423221 C445.856892,316.181631 384.11159,408.375683 289.352689,427.115977 C194.59644,445.857862 102.400311,384.110055 83.6597073,289.352176 L83.6597073,289.352176 Z" id="Stroke-23264" stroke="#FB0011" stroke-width="10.4099278" stroke-linecap="round" stroke-linejoin="round" sketch:type="MSShapeGroup"></path>
            <path d="M269.169813,243.647937 L372.278188,146.664812" id="Stroke-23290" stroke="#FB0011" stroke-width="10.4099278" stroke-linecap="round" stroke-linejoin="round" sketch:type="MSShapeGroup"></path>
            <path d="M269.189779,241.586221 C275.96899,248.362763 275.96899,259.352615 269.189779,266.129156 C262.413237,272.905698 251.423385,272.905698 244.646844,266.129156 C237.870302,259.352615 237.870302,248.362763 244.646844,241.586221 C251.423385,234.80701 262.413237,234.80701 269.189779,241.586221" id="Fill-23291" fill="#FB0011" sketch:type="MSShapeGroup"></path>
            <path d="M269.189779,241.584922 C275.96899,248.362401 275.96899,259.350974 269.189779,266.128453 C262.413237,272.905932 251.423385,272.905932 244.646844,266.128453 C237.870302,259.350974 237.870302,248.362401 244.646844,241.584922 C251.423385,234.807443 262.413237,234.807443 269.189779,241.584922" id="Stroke-23292" stroke="#FB0011" stroke-width="10.4099278" sketch:type="MSShapeGroup"></path>
            <path d="M395.057481,124.906394 C401.43659,131.285502 401.43659,141.626623 395.057481,148.005731 C388.678373,154.38484 378.337252,154.38484 371.958144,148.005731 C365.579035,141.626623 365.579035,131.285502 371.958144,124.906394 C378.337252,118.527285 388.678373,118.527285 395.057481,124.906394" id="Fill-23293" fill="#FB0011" sketch:type="MSShapeGroup"></path>
            <path d="M395.057481,124.906106 C401.43659,131.285098 401.43659,141.627094 395.057481,148.005819 C388.678373,154.38481 378.337252,154.38481 371.958144,148.005819 C365.579035,141.627094 365.579035,131.285098 371.958144,124.906106 C378.337252,118.527381 388.678373,118.527381 395.057481,124.906106" id="Stroke-23294" stroke="#FB0011" stroke-width="10.4099278" sketch:type="MSShapeGroup"></path>
        </g>
    </g>
</svg>