<?xml version="1.0" encoding="UTF-8"?>
<!DOCTYPE svg PUBLIC "-//W3C//DTD SVG 1.1//EN" "http://www.w3.org/Graphics/SVG/1.1/DTD/svg11.dtd">
<!-- Creator: CorelDRAW -->
<svg xmlns="http://www.w3.org/2000/svg" xml:space="preserve" width="12.822mm" height="12.822mm" version="1.1" style="shape-rendering:geometricPrecision; text-rendering:geometricPrecision; image-rendering:optimizeQuality; fill-rule:evenodd; clip-rule:evenodd"
viewBox="0 0 61.7 61.7"
 xmlns:xlink="http://www.w3.org/1999/xlink"
 xmlns:xodm="http://www.corel.com/coreldraw/odm/2003">
 <defs>
  <style type="text/css">
   <![CDATA[
    .str2 {stroke:black;stroke-width:0.96;stroke-miterlimit:22.9256}
    .str1 {stroke:#E6E6E6;stroke-width:0.96;stroke-miterlimit:22.9256}
    .str3 {stroke:white;stroke-width:0.96;stroke-miterlimit:22.9256}
    .str0 {stroke:black;stroke-width:0.85;stroke-miterlimit:22.9256}
    .fil1 {fill:none}
    .fil0 {fill:#666666}
    .fil2 {fill:white}
   ]]>
  </style>
 </defs>
 <g id="图层_x0020_1">
  <metadata id="CorelCorpID_0Corel-Layer"/>
  <g id="_2882184811456">
   <rect class="fil0 str0" x="0.42" y="0.42" width="60.85" height="60.85" rx="6.89" ry="6.89"/>
   <path class="fil1 str1" d="M4.28 49.22c0,-13.6 0,-27.2 0,-40.79 0.6,-3.51 2.22,-3.94 3.89,-4.25l39.87 0"/>
   <path class="fil1 str2" d="M57.65 12.38c0,13.6 0,27.2 0,40.79 -0.6,3.51 -2.22,3.94 -3.89,4.25l-39.87 0"/>
  </g>
  <path class="fil1" d="M48.23 38.63c-3.85,2.83 -9.98,4.5 -16.51,4.5 -11.3,0 -20.46,-4.92 -20.46,-10.99 0,-6.07 9.16,-10.99 20.46,-10.99 5.2,0 10.21,1.07 14.01,2.98"/>
  <path class="fil2 str3" d="M46.46 33.56c-1.55,0.48 -3.29,0.83 -5.48,0.87 3.77,-2.11 6.2,-4.99 7.69,-8.38 3.72,3.45 4.85,6.45 6,9.3 -1.45,-0.81 -2.52,-1.34 -3.78,-1.6 -0.62,5.35 -7.99,11.05 -22.59,11.42 -27.42,0.7 -29.87,-28.44 4.93,-25.83 5.08,0.38 6.23,1.37 10.47,2.92 -6.78,-2.18 -10.46,-3.38 -18.11,-2.36 -12.95,1.73 -16.74,8.34 -16.1,12.65 1.18,7.91 19.41,14.38 33.09,6.17 1.76,-1.06 2.92,-1.78 3.43,-3.61 0.23,-0.5 0.36,-1.04 0.44,-1.56z"/>
 </g>
</svg>
