<?xml version="1.0" encoding="UTF-8"?>
<!DOCTYPE svg PUBLIC "-//W3C//DTD SVG 1.1//EN" "http://www.w3.org/Graphics/SVG/1.1/DTD/svg11.dtd">
<!-- Creator: CorelDRAW -->
<svg xmlns="http://www.w3.org/2000/svg" xml:space="preserve" width="12.8456mm" height="12.8456mm" version="1.1" style="shape-rendering:geometricPrecision; text-rendering:geometricPrecision; image-rendering:optimizeQuality; fill-rule:evenodd; clip-rule:evenodd"
viewBox="0 0 61.92 61.92"
 xmlns:xlink="http://www.w3.org/1999/xlink"
 xmlns:xodm="http://www.corel.com/coreldraw/odm/2003">
 <defs>
  <style type="text/css">
   <![CDATA[
    .str3 {stroke:white;stroke-width:1.7;stroke-miterlimit:22.9256}
    .str0 {stroke:black;stroke-width:0.96;stroke-miterlimit:22.9256}
    .str2 {stroke:black;stroke-width:0.96;stroke-miterlimit:22.9256}
    .str1 {stroke:#E6E6E6;stroke-width:0.96;stroke-miterlimit:22.9256}
    .str4 {stroke:white;stroke-width:0.96;stroke-miterlimit:22.9256}
    .fil1 {fill:none}
    .fil0 {fill:#666666}
    .fil3 {fill:#E6E6E6}
    .fil2 {fill:white}
   ]]>
  </style>
 </defs>
 <g id="图层_x0020_1">
  <metadata id="CorelCorpID_0Corel-Layer"/>
  <g id="_2846428767808">
   <rect class="fil0 str0" x="0.48" y="0.48" width="60.96" height="60.96" rx="6.9" ry="6.9"/>
   <path class="fil1 str1" d="M4.34 49.36c0,-13.62 0,-27.24 0,-40.86 0.6,-3.51 2.23,-3.95 3.9,-4.26l39.94 0"/>
   <path class="fil1 str2" d="M57.81 12.45c0,13.62 0,27.24 0,40.86 -0.6,3.51 -2.23,3.95 -3.9,4.26l-39.94 0"/>
  </g>
  <g id="_2846428768480">
   <polygon class="fil1 str3" points="19.08,20.47 19.52,20.02 39.13,37.89 37.58,39.46 "/>
   <path class="fil2 str4" d="M33.42 33.42l-14.32 -13.81c3.6,-0.74 9.73,5.7 14.4,6.86 3.53,1 4.87,1.69 8.57,4.26 -5.69,0.54 -8.44,-0.06 -8.65,2.69z"/>
   <path class="fil3 str4" d="M32.97 33.89l-14.32 -13.81c-0.61,3.62 6.05,9.51 7.38,14.14 1.13,3.5 1.86,4.8 4.56,8.41 0.33,-5.71 -0.71,-8.71 2.37,-8.74z"/>
  </g>
 </g>
</svg>
