<svg width="192" height="192" viewBox="0 0 192 192" fill="none" xmlns="http://www.w3.org/2000/svg">
<path d="M62.8367 61.2176C62.3844 57.9186 60.9357 55.0466 58.4907 52.6016C55.4907 49.6015 51.8479 48.1016 47.5621 48.1016C47.0826 48.1016 46.6111 48.1203 46.1477 48.1579L62.8367 61.2176Z" fill="#BFBFC6"/>
<path d="M36.1889 53.0627C33.4853 55.9725 32.1335 59.4616 32.1335 63.5301C32.1335 67.8159 33.6335 71.4587 36.6335 74.4587C39.6336 77.4587 43.2764 78.9587 47.5621 78.9587C51.8479 78.9587 55.4907 77.4587 58.4907 74.4587C59.2472 73.7022 59.9083 72.9049 60.474 72.0666L36.1889 53.0627Z" fill="#BFBFC6"/>
<path d="M160.134 140.632V112.02L120.084 63.9141L98.6592 89.6416L160.134 140.632Z" fill="#BFBFC6"/>
<path d="M92.2599 97.326L80.0231 112.02L64.0049 95.8704L32.1335 127.907V143.914H148.426L92.2599 97.326Z" fill="#BFBFC6"/>
<path d="M181.568 157.425C181.844 156.462 181.992 155.444 181.992 154.393V37.6064C181.992 31.5313 177.067 26.6064 170.992 26.6064H22.7096L29.9957 32.6064H170.992C173.753 32.6064 175.992 34.845 175.992 37.6064V152.832L181.568 157.425Z" fill="#BFBFC6"/>
<path d="M168.227 159.393H21.0086C18.2471 159.393 16.0085 157.154 16.0085 154.393V37.6064C16.0085 36.9794 16.124 36.3793 16.3347 35.8263L11.6513 31.8207C10.6098 33.5015 10.0085 35.4838 10.0085 37.6064V154.393C10.0085 160.468 14.9334 165.393 21.0086 165.393H170.992C172.302 165.393 173.559 165.164 174.725 164.743L168.227 159.393Z" fill="#BFBFC6"/>
</svg>
