<svg width="300" height="150" viewBox="0 0 300 150" fill="none" xmlns="http://www.w3.org/2000/svg">
<rect x="0.75" y="0.75" width="298.5" height="148.5" rx="5.25" fill="white"/>
<rect x="0.75" y="0.75" width="298.5" height="148.5" rx="5.25" stroke="#99A1B8" stroke-width="1.5"/>
<path fill-rule="evenodd" clip-rule="evenodd" d="M145.104 73.7774L136.666 71.668L123.333 75.0014C123.333 80.6147 125.103 86.0456 128.334 90.5479L145.104 73.7774ZM135.675 97.4943C139.923 100.199 144.885 101.668 150 101.668C157.072 101.668 163.855 98.8585 168.856 93.8575C173.857 88.8566 176.666 82.0738 176.666 75.0014L161.666 78.3346L156.353 76.8166L135.675 97.4943Z" fill="url(#paint0_linear_43064_14721)"/>
<path fill-rule="evenodd" clip-rule="evenodd" d="M165.547 53.3331C161.171 50.1868 155.802 48.334 150 48.334C135.272 48.334 123.333 60.2731 123.333 75.0007C123.333 80.8025 125.186 86.1716 128.332 90.5485L131.205 87.6754C128.888 84.2467 127.485 80.15 127.345 75.7347C127.442 75.6941 127.544 75.6525 127.65 75.6101C128.869 75.1226 130.635 74.533 132.798 74.1399C135.951 73.5665 139.93 73.4122 144.289 74.5913L146.958 71.9225C141.338 70.0073 136.172 70.1385 132.202 70.8603C130.365 71.1943 128.78 71.6551 127.517 72.1C128.941 60.9514 138.464 52.334 150 52.334C154.695 52.334 159.056 53.7615 162.674 56.2062L165.547 53.3331ZM172.495 60.6739L169.585 63.5835C171.428 66.7383 172.531 70.3784 172.655 74.2656C172.557 74.3062 172.455 74.3477 172.349 74.3901C171.131 74.8776 169.364 75.4672 167.202 75.8603C164.453 76.36 161.077 76.5414 157.37 75.799L154.606 78.5626C159.617 79.9632 164.199 79.7942 167.798 79.1399C169.635 78.8059 171.22 78.3451 172.483 77.9001C171.059 89.0493 161.536 97.6673 150 97.6673C145.836 97.6673 141.935 96.5449 138.583 94.5862L135.673 97.4958C139.811 100.137 144.727 101.667 150 101.667C164.727 101.667 176.666 89.7282 176.666 75.0007C176.666 69.7276 175.136 64.812 172.495 60.6739Z" fill="#6A6E79"/>
<path d="M172.703 49.9551C173.633 49.0254 175.14 49.0254 176.07 49.9551C177 50.8849 177 52.3923 176.07 53.322L129.328 100.064C128.398 100.994 126.891 100.994 125.961 100.064C125.031 99.1342 125.031 97.6268 125.961 96.6971L172.703 49.9551Z" fill="#6A6E79"/>
<defs>
<linearGradient id="paint0_linear_43064_14721" x1="175" y1="76.6679" x2="131.666" y2="90.0013" gradientUnits="userSpaceOnUse">
<stop stop-color="white"/>
<stop offset="0.5" stop-color="#6C6C6C" stop-opacity="0.5"/>
<stop offset="1" stop-color="#6A6E79"/>
</linearGradient>
</defs>
</svg>
