<?xml version="1.0" encoding="UTF-8" standalone="no"?>
<svg width="512px" height="513px" viewBox="0 0 512 513" version="1.1" xmlns="http://www.w3.org/2000/svg" xmlns:xlink="http://www.w3.org/1999/xlink" xmlns:sketch="http://www.bohemiancoding.com/sketch/ns">
    <!-- Generator: Sketch 3.3.1 (12002) - http://www.bohemiancoding.com/sketch -->
    <title>shadowtoggle</title>
    <desc>Created with Sketch.</desc>
    <defs></defs>
    <g id="Page-1" stroke="none" stroke-width="1" fill="none" fill-rule="evenodd" sketch:type="MSPage">
        <g id="shadowtoggle" sketch:type="MSArtboardGroup" transform="translate(0.000000, 0.500000)">
            <path d="M464,351.139543 L296.674281,444 L211,433.553766 L380.492974,339.492285 L402.414433,275 L438.179084,319.216342 L464,351.139543 L464,351.139543 Z" id="Fill-2336" fill="#252525" sketch:type="MSShapeGroup"></path>
            <path d="M88,160 L124.15652,277.199973 L210,432 L195.299957,344.412575 L88,160 L88,160 Z" id="Fill-2337" fill="#646464" sketch:type="MSShapeGroup"></path>
            <path d="M209.702384,433 L195,345.57032 L415,232 L378.698454,339.02116 L209.702384,433 L209.702384,433 Z" id="Fill-2338" fill="#242424" sketch:type="MSShapeGroup"></path>
            <path d="M88,160.597237 L195.540966,345 L416,231.230825 L286.792924,77 L88,160.597237 L88,160.597237 Z" id="Fill-2339" fill="#FBFBFB" sketch:type="MSShapeGroup"></path>
            <path d="M195,346 L415,232" id="Stroke-2340" stroke="#000000" stroke-width="2.66666667" stroke-linecap="round" stroke-linejoin="round" sketch:type="MSShapeGroup"></path>
            <path d="M210,431 L195,344" id="Stroke-2341" stroke="#000000" stroke-width="2.66666667" stroke-linecap="round" stroke-linejoin="round" sketch:type="MSShapeGroup"></path>
            <path d="M88,160 L195,344" id="Stroke-2342" stroke="#000000" stroke-width="2.66666667" stroke-linecap="round" stroke-linejoin="round" sketch:type="MSShapeGroup"></path>
            <path d="M211,433 L380.574161,339.019914 L417,232" id="Stroke-2343" stroke="#000000" stroke-width="10.6666667" stroke-linecap="round" stroke-linejoin="round" sketch:type="MSShapeGroup"></path>
            <path d="M416,231 L286.792981,77 L88,160.472124" id="Stroke-2344" stroke="#000000" stroke-width="10.6666667" stroke-linecap="round" stroke-linejoin="round" sketch:type="MSShapeGroup"></path>
            <path d="M124,277 L88,160" id="Stroke-2345" stroke="#000000" stroke-width="10.6666667" stroke-linecap="round" stroke-linejoin="round" sketch:type="MSShapeGroup"></path>
            <path d="M125,277 L211,432" id="Stroke-2346" stroke="#000000" stroke-width="10.6666667" stroke-linecap="round" stroke-linejoin="round" sketch:type="MSShapeGroup"></path>
        </g>
    </g>
</svg>