<?xml version="1.0" encoding="UTF-8" standalone="no"?>
<svg width="24px" height="24px" viewBox="0 0 24 24" version="1.1" xmlns="http://www.w3.org/2000/svg" xmlns:xlink="http://www.w3.org/1999/xlink" xmlns:sketch="http://www.bohemiancoding.com/sketch/ns">
    <!-- Generator: Sketch 3.3.1 (12002) - http://www.bohemiancoding.com/sketch -->
    <title>tb_unknown</title>
    <desc>Created with Sketch.</desc>
    <defs></defs>
    <g id="Page-1" stroke="none" stroke-width="1" fill="none" fill-rule="evenodd" sketch:type="MSPage">
        <g id="tb_unknown" sketch:type="MSArtboardGroup">
            <g id="Group" sketch:type="MSLayerGroup" transform="translate(4.000000, 4.000000)">
                <path d="M0.265625,3.766875 L12.1907244,0.5 L15.265625,12.233125 L3.34052562,15.5 L0.265625,3.766875 L0.265625,3.766875 Z" id="Fill-20883" fill="#ABFFC0" sketch:type="MSShapeGroup"></path>
                <path d="M0.265625,3.766875 L12.1907244,0.5 L15.265625,12.233125 L3.34052562,15.5 L0.265625,3.766875 L0.265625,3.766875 Z" id="Stroke-20884" stroke="#000000" stroke-width="0.75" stroke-linecap="round" sketch:type="MSShapeGroup"></path>
                <path d="M3.640625,5.234375 L5.421875,6.21875" id="Stroke-20885" stroke="#000000" stroke-width="0.75" stroke-linecap="round" sketch:type="MSShapeGroup"></path>
                <path d="M4.015625,6.640625 L5.046875,4.859375" id="Stroke-20886" stroke="#000000" stroke-width="0.75" stroke-linecap="round" sketch:type="MSShapeGroup"></path>
                <path d="M9.125,3.734375 L10.90625,4.71875" id="Stroke-20887" stroke="#000000" stroke-width="0.75" stroke-linecap="round" sketch:type="MSShapeGroup"></path>
                <path d="M9.5,5.140625 L10.53125,3.359375" id="Stroke-20888" stroke="#000000" stroke-width="0.75" stroke-linecap="round" sketch:type="MSShapeGroup"></path>
                <path d="M6.5,7.31805277 C6.78052512,7.85128609 7.40280357,8.11479243 7.99809163,7.95243371 C8.59337968,7.79007498 9.00273394,7.24527127 8.9837407,6.640625" id="Stroke-20889" stroke="#000000" stroke-width="0.75" stroke-linecap="round" sketch:type="MSShapeGroup"></path>
                <path d="M9.35815707,10.0854257 C9.12407229,10.7392293 9.3448881,11.4720738 9.89880531,11.8788905 C10.4524722,12.2857072 11.2040471,12.2672269 11.7379356,11.8336886 C12.2718242,11.4001504 12.4578402,10.6571917 12.1932118,10.015625" id="Fill-20890" fill="#E72B2D" sketch:type="MSShapeGroup"></path>
                <path d="M9.35815707,10.0854257 C9.12407229,10.7392293 9.3448881,11.4720738 9.89880531,11.8788905 C10.4524722,12.2857072 11.2040471,12.2672269 11.7379356,11.8336886 C12.2718242,11.4001504 12.4578402,10.6571917 12.1932118,10.015625" id="Stroke-20891" stroke="#000000" stroke-width="0.75" stroke-linecap="round" sketch:type="MSShapeGroup"></path>
                <path d="M4.25,13.0625 C6.3200453,10.4726983 9.84884401,9.30402333 13.0625,10.1441636" id="Stroke-20892" stroke="#000000" stroke-width="0.75" stroke-linecap="round" sketch:type="MSShapeGroup"></path>
            </g>
        </g>
    </g>
</svg>