<?xml version="1.0" encoding="UTF-8" standalone="no"?>
<svg width="24px" height="24px" viewBox="0 0 24 24" version="1.1" xmlns="http://www.w3.org/2000/svg" xmlns:xlink="http://www.w3.org/1999/xlink" xmlns:sketch="http://www.bohemiancoding.com/sketch/ns">
    <!-- Generator: Sketch 3.3.3 (12072) - http://www.bohemiancoding.com/sketch -->
    <title>dlg_style_working</title>
    <desc>Created with Sketch.</desc>
    <defs>
        <path id="path-1" d="M5.00585209,6.60323259 L5,16.3004631 L15,18 L15,5 L5.00585209,6.60323259 Z"></path>
    </defs>
    <g id="Page-1" stroke="none" stroke-width="1" fill="none" fill-rule="evenodd" sketch:type="MSPage">
        <g id="dlg_style_working" sketch:type="MSArtboardGroup">
            <path id="Path-2389-Copy" stroke="#979797" stroke-width="0.5" sketch:type="MSShapeGroup" d="M0.0464216634,12.0815347 L24,12.0815347"></path>
            <path d="M15,5.01999998 L18.9460391,7.62123461 L19,15.3348762 L15,18.0033984" id="Path-2391-Copy" stroke="#000000" stroke-width="0.742746615" fill="#7A89FF" sketch:type="MSShapeGroup"></path>
            <g id="Path-2390-Copy">
                <use stroke="#000000" stroke-width="0.742746615" fill="#7A89FF" sketch:type="MSShapeGroup" xlink:href="#path-1"></use>
                <use stroke="none" fill="#1933FF" xlink:href="#path-1"></use>
            </g>
            <path d="M6,8.64497613 L6,7.66930823 L7.29292929,7.51066325 L7.29292929,8.5352747 L6,8.64497613 Z M8.26262626,8.44881988 L8.26262626,7.38653922 L9.55555556,7.21408145 L9.55555556,8.32788623 L8.26262626,8.44881988 Z M10.5252525,8.23287998 L10.5252525,7.07944702 L11.8181818,6.89277432 L11.8181818,8.10037473 L10.5252525,8.23287998 Z M12.7070707,8.00536001 L12.7070707,6.75962817 L14,6.55886735 L14,7.86137502 L12.7070707,8.00536001 Z M6,10.2914157 L6,9.3157478 L7.29292929,9.23969507 L7.29292929,10.2643065 L6,10.2914157 Z M8.26262626,10.2414185 L8.26262626,9.17913784 L9.55555556,9.09362702 L9.55555556,10.2074318 L8.26262626,10.2414185 Z M10.5252525,10.1792981 L10.5252525,9.02586514 L11.8181818,8.93060001 L11.8181818,10.1382004 L10.5252525,10.1792981 Z M12.7070707,10.1075325 L12.7070707,8.86180065 L14,8.75684905 L14,10.0593567 L12.7070707,10.1075325 Z M6,11.9378553 L6,10.9621874 L7.29292929,10.9687269 L7.29292929,11.9933383 L6,11.9378553 Z M8.22222222,12.0323384 L8.22222222,10.9716439 L9.51515152,10.9731728 L9.51515152,12.0853448 L8.22222222,12.0323384 Z M10.4848485,12.1241192 L10.4848485,10.9723544 L11.7777778,10.968593 L11.7777778,12.1744775 L10.4848485,12.1241192 Z M12.6666667,12.2081904 L12.6666667,10.9642077 L13.959596,10.9551648 L13.959596,12.2558745 L12.6666667,12.2081904 Z M6,13.5842948 L6,12.6086269 L7.29292929,12.6977587 L7.29292929,13.7223702 L6,13.5842948 Z M8.22222222,13.8222604 L8.22222222,12.7615659 L9.51515152,12.8499631 L9.51515152,13.9621351 L8.22222222,13.8222604 Z M10.4848485,14.0677222 L10.4848485,12.9159574 L11.7777778,13.0035231 L11.7777778,14.2094076 L10.4848485,14.0677222 Z M12.6666667,14.3074113 L12.6666667,13.0634285 L13.959596,13.1501125 L13.959596,14.4508222 L12.6666667,14.3074113 Z M6,15.2307344 L6,14.2550665 L7.29292929,14.4267905 L7.29292929,15.451402 L6,15.2307344 Z M8.22222222,15.6121824 L8.22222222,14.5514879 L9.51515152,14.7267534 L9.51515152,15.8389254 L8.22222222,15.6121824 Z M10.4848485,16.0113253 L10.4848485,14.8595605 L11.7777778,15.0384532 L11.7777778,16.2443377 L10.4848485,16.0113253 Z M12.6666667,16.4066321 L12.6666667,15.1626494 L13.959596,15.3450601 L13.959596,16.6457698 L12.6666667,16.4066321 Z" id="Rectangle-251-Copy" fill="#7A89FF" sketch:type="MSShapeGroup"></path>
        </g>
    </g>
</svg>