<?xml version="1.0" encoding="UTF-8" standalone="no"?>
<svg width="512px" height="512px" viewBox="0 0 512 512" version="1.1" xmlns="http://www.w3.org/2000/svg" xmlns:xlink="http://www.w3.org/1999/xlink" xmlns:sketch="http://www.bohemiancoding.com/sketch/ns">
  <!-- Generator: Sketch 3.3.1 (12002) - http://www.bohemiancoding.com/sketch -->
  <title>dlg_active_scene</title>
  <desc>Created with Sketch.</desc>
  <defs></defs>
  <g id="Page-1" stroke="none" stroke-width="1" fill="none" fill-rule="evenodd" sketch:type="MSPage">
    <g id="dlg_active_scene" sketch:type="MSArtboardGroup">
      <path d="M172.794375,329.523577 L349.867559,152.449187 L368.966812,171.549882 L191.893629,348.621625 L172.794375,329.523577 L172.794375,329.523577 Z" id="Fill-18667" fill="#FE0000" sketch:type="MSShapeGroup"></path>
      <path d="M375.389101,126.021812 L347.621625,153.787126 L366.610537,172.777937 L394.37775,145.012624 L375.389101,126.021812 L375.389101,126.021812 Z" id="Fill-18668" fill="#F9FAFA" sketch:type="MSShapeGroup"></path>
      <path d="M190.592128,347.605187 L93.51225,425.870875 L203.2875,360.337683 L190.592128,347.605187 L190.592128,347.605187 Z" id="Fill-18669" fill="#9DA161" sketch:type="MSShapeGroup"></path>
      <path d="M362.868187,113.162809 L394.732625,81.2985625 L407.591437,94.1575658 L375.727,126.021813 L362.868187,113.162809 L362.868187,113.162809 Z" id="Fill-18670" fill="#A6262A" sketch:type="MSShapeGroup"></path>
      <path d="M95.545125,423.838 L190.073813,348.39915 L170.981864,329.309313 L95.545125,423.838 L95.545125,423.838 Z" id="Fill-18671" fill="#E6E8AE" sketch:type="MSShapeGroup"></path>
      <path d="M395.8754,144.317687 L367.950375,172.245575 L380.683115,184.975187 L408.607875,157.049946 L395.8754,144.317687 L395.8754,144.317687 Z" id="Fill-18672" fill="#4E5152" sketch:type="MSShapeGroup"></path>
      <path d="M159.580688,316.557696 L336.904084,139.2355 L349.6545,151.987116 L172.330838,329.309313 L159.580688,316.557696 L159.580688,316.557696 Z" id="Fill-18673" fill="#AA0000" sketch:type="MSShapeGroup"></path>
      <path d="M191.09025,351.116393 L368.415288,173.794375 L381.164062,186.546169 L203.839024,363.868187 L191.09025,351.116393 L191.09025,351.116393 Z" id="Fill-18674" fill="#830101" sketch:type="MSShapeGroup"></path>
      <path d="M376.081875,126.174818 L413.843592,88.413625 L433.002375,107.572932 L395.240658,145.334125 L376.081875,126.174818 L376.081875,126.174818 Z" id="Fill-18675" fill="#E47073" sketch:type="MSShapeGroup"></path>
      <path d="M364.368416,112.808125 L336.440812,140.735184 L349.170709,153.465625 L377.098313,125.541213 L364.368416,112.808125 L364.368416,112.808125 Z" id="Fill-18676" fill="#8C9191" sketch:type="MSShapeGroup"></path>
      <path d="M95.545125,423.838 L170.7615,328.881546 L95.545125,423.838 L158.072473,316.095625 L170.7615,328.881546 L95.545125,423.838 L95.545125,423.838 Z" id="Fill-18677" fill="#D3D881" sketch:type="MSShapeGroup"></path>
      <path d="M394.37775,144.672372 L426.243938,112.808125 L439.101,125.667128 L407.234545,157.531375 L394.37775,144.672372 L394.37775,144.672372 Z" id="Fill-18678" fill="#65171A" sketch:type="MSShapeGroup"></path>
      <path d="M141.284813,391.119484 L124.622664,374.032562 L95.545125,423.838 L141.284813,391.119484 L141.284813,391.119484 Z" id="Fill-18679" fill="#000000" sketch:type="MSShapeGroup"></path>
      <path d="M159.580688,316.095625 L204.303938,360.818875" id="Stroke-18680" stroke="#000000" stroke-width="5.20496259" stroke-linecap="round" sketch:type="MSShapeGroup"></path>
      <path d="M336.440812,139.2355 L381.164063,183.95875" id="Stroke-18681" stroke="#000000" stroke-width="5.20496259" stroke-linecap="round" sketch:type="MSShapeGroup"></path>
      <path d="M191.09025,349.638063 L368.434872,172.288079 L396.410625,144.317687" id="Stroke-18682" stroke="#000000" stroke-width="2.60248129" stroke-linecap="round" sketch:type="MSShapeGroup"></path>
      <path d="M394.37775,143.30125 L429.953063,107.725938" id="Stroke-18683" stroke="#000000" stroke-width="5.20496259" stroke-linecap="round" sketch:type="MSShapeGroup"></path>
      <path d="M190.073813,347.605187 L121.9725,404.525688" id="Stroke-18684" stroke="#000000" stroke-width="2.60248129" stroke-linecap="round" sketch:type="MSShapeGroup"></path>
      <path d="M362.868187,112.808125 L407.591437,157.531375" id="Stroke-18685" stroke="#000000" stroke-width="5.20496259" stroke-linecap="round" sketch:type="MSShapeGroup"></path>
      <path d="M172.794375,330.32575 L408.607875,94.51225" id="Stroke-18686" stroke="#000000" stroke-width="2.60248129" stroke-linecap="round" sketch:type="MSShapeGroup"></path>
      <path d="M389.295562,87.0416521 C413.634738,82.2408966 435.932344,104.272986 433.88839,131.104" id="Stroke-18687" stroke="#000000" stroke-width="10.4099252" stroke-linecap="round" sketch:type="MSShapeGroup"></path>
      <path d="M434.018813,130.876803 L202.679915,362.215802 L95.545125,424.854438 L158.184359,317.720541 L389.524313,86.38075" id="Stroke-18688" stroke="#000000" stroke-width="10.4099252" stroke-linecap="round" sketch:type="MSShapeGroup"></path>
    </g>
  </g>
</svg>