<?xml version="1.0" encoding="UTF-8" standalone="no"?>
<svg width="1280px" height="720px" viewBox="0 0 1280 720" version="1.1" xmlns="http://www.w3.org/2000/svg" xmlns:xlink="http://www.w3.org/1999/xlink" xmlns:sketch="http://www.bohemiancoding.com/sketch/ns">
    <!-- Generator: Sketch 3.3.2 (12043) - http://www.bohemiancoding.com/sketch -->
    <title>dlg_preview</title>
    <desc>Created with Sketch.</desc>
    <defs>
        <filter x="-50%" y="-50%" width="200%" height="200%" filterUnits="objectBoundingBox" id="filter-1">
            <feOffset dx="0" dy="4" in="SourceAlpha" result="shadowOffsetOuter1"></feOffset>
            <feGaussianBlur stdDeviation="0" in="shadowOffsetOuter1" result="shadowBlurOuter1"></feGaussianBlur>
            <feColorMatrix values="0 0 0 0 0   0 0 0 0 0   0 0 0 0 0  0 0 0 0.7 0" in="shadowBlurOuter1" type="matrix" result="shadowMatrixOuter1"></feColorMatrix>
            <feMerge>
                <feMergeNode in="shadowMatrixOuter1"></feMergeNode>
                <feMergeNode in="SourceGraphic"></feMergeNode>
            </feMerge>
        </filter>
        <filter x="-50%" y="-50%" width="200%" height="200%" filterUnits="objectBoundingBox" id="filter-2">
            <feOffset dx="0" dy="4" in="SourceAlpha" result="shadowOffsetOuter1"></feOffset>
            <feGaussianBlur stdDeviation="0" in="shadowOffsetOuter1" result="shadowBlurOuter1"></feGaussianBlur>
            <feColorMatrix values="0 0 0 0 0   0 0 0 0 0   0 0 0 0 0  0 0 0 0.7 0" in="shadowBlurOuter1" type="matrix" result="shadowMatrixOuter1"></feColorMatrix>
            <feMerge>
                <feMergeNode in="shadowMatrixOuter1"></feMergeNode>
                <feMergeNode in="SourceGraphic"></feMergeNode>
            </feMerge>
        </filter>
        <filter x="-50%" y="-50%" width="200%" height="200%" filterUnits="objectBoundingBox" id="filter-3">
            <feOffset dx="0" dy="4" in="SourceAlpha" result="shadowOffsetOuter1"></feOffset>
            <feGaussianBlur stdDeviation="0" in="shadowOffsetOuter1" result="shadowBlurOuter1"></feGaussianBlur>
            <feColorMatrix values="0 0 0 0 0   0 0 0 0 0   0 0 0 0 0  0 0 0 0.7 0" in="shadowBlurOuter1" type="matrix" result="shadowMatrixOuter1"></feColorMatrix>
            <feMerge>
                <feMergeNode in="shadowMatrixOuter1"></feMergeNode>
                <feMergeNode in="SourceGraphic"></feMergeNode>
            </feMerge>
        </filter>
        <filter x="-50%" y="-50%" width="200%" height="200%" filterUnits="objectBoundingBox" id="filter-4">
            <feOffset dx="0" dy="4" in="SourceAlpha" result="shadowOffsetOuter1"></feOffset>
            <feGaussianBlur stdDeviation="0" in="shadowOffsetOuter1" result="shadowBlurOuter1"></feGaussianBlur>
            <feColorMatrix values="0 0 0 0 0   0 0 0 0 0   0 0 0 0 0  0 0 0 0.7 0" in="shadowBlurOuter1" type="matrix" result="shadowMatrixOuter1"></feColorMatrix>
            <feMerge>
                <feMergeNode in="shadowMatrixOuter1"></feMergeNode>
                <feMergeNode in="SourceGraphic"></feMergeNode>
            </feMerge>
        </filter>
        <filter x="-50%" y="-50%" width="200%" height="200%" filterUnits="objectBoundingBox" id="filter-5">
            <feOffset dx="0" dy="4" in="SourceAlpha" result="shadowOffsetOuter1"></feOffset>
            <feGaussianBlur stdDeviation="0" in="shadowOffsetOuter1" result="shadowBlurOuter1"></feGaussianBlur>
            <feColorMatrix values="0 0 0 0 0   0 0 0 0 0   0 0 0 0 0  0 0 0 0.7 0" in="shadowBlurOuter1" type="matrix" result="shadowMatrixOuter1"></feColorMatrix>
            <feMerge>
                <feMergeNode in="shadowMatrixOuter1"></feMergeNode>
                <feMergeNode in="SourceGraphic"></feMergeNode>
            </feMerge>
        </filter>
    </defs>
    <g id="Page-1" stroke="none" stroke-width="1" fill="none" fill-rule="evenodd" sketch:type="MSPage">
        <g id="dlg_preview" sketch:type="MSArtboardGroup">
            <rect id="Rectangle-306" fill="#3D913A" sketch:type="MSShapeGroup" x="0" y="0" width="1280" height="720"></rect>
            <path d="M164.651886,267.625 L164.651886,270.359375 L156.906346,270.359375 L156.906346,290.578125 L153.74554,290.578125 L153.74554,270.359375 L146,270.359375 L146,267.625 L164.651886,267.625 Z M169.180288,267.625 L172.325447,267.625 L172.325447,277.109375 L184.280179,277.109375 L184.280179,267.625 L187.425338,267.625 L187.425338,290.578125 L184.280179,290.578125 L184.280179,279.84375 L172.325447,279.84375 L172.325447,290.578125 L169.180288,290.578125 L169.180288,267.625 Z M194.144398,267.625 L210.90293,267.625 L210.90293,270.4375 L197.180024,270.4375 L197.180024,277.40625 L209.870191,277.40625 L209.870191,280.0625 L197.180024,280.0625 L197.180024,287.84375 L211.137643,287.84375 L211.137643,290.578125 L194.144398,290.578125 L194.144398,267.625 Z M227.627037,267.625 L243.571896,267.625 L243.571896,270.4375 L230.740901,270.4375 L230.740901,277.40625 L242.022788,277.40625 L242.022788,280.140625 L230.740901,280.140625 L230.740901,290.578125 L227.627037,290.578125 L227.627037,267.625 Z M267.440677,270.90625 C268.963713,272.93751 269.72522,275.536443 269.72522,278.703125 C269.72522,282.130225 268.854182,284.979155 267.112078,287.25 C265.067454,289.91668 262.151822,291.25 258.365095,291.25 C254.82873,291.25 252.048709,290.083345 250.024948,287.75 C248.220254,285.499989 247.317921,282.656267 247.317921,279.21875 C247.317921,276.114568 248.089859,273.458344 249.633759,271.25 C251.615793,268.416652 254.547072,267 258.427685,267 C262.485638,267 265.489939,268.30207 267.440677,270.90625 L267.440677,270.90625 Z M264.694531,285.523438 C265.920262,283.559886 266.533119,281.302096 266.533119,278.75 C266.533119,276.05207 265.826378,273.880217 264.412875,272.234375 C262.999372,270.588533 261.066918,269.765625 258.615456,269.765625 C256.237016,269.765625 254.296738,270.580721 252.794565,272.210938 C251.292392,273.841154 250.541317,276.244776 250.541317,279.421875 C250.541317,281.963554 251.185469,284.106762 252.47379,285.851562 C253.762112,287.596363 255.85104,288.46875 258.740636,288.46875 C261.484188,288.46875 263.4688,287.486989 264.694531,285.523438 L264.694531,285.523438 Z M275.036,267.625 L278.149864,267.625 L278.149864,287.84375 L289.791645,287.84375 L289.791645,290.578125 L275.036,290.578125 L275.036,267.625 Z M294.460876,267.625 L297.574739,267.625 L297.574739,287.84375 L309.21652,287.84375 L309.21652,290.578125 L294.460876,290.578125 L294.460876,267.625 Z M332.819293,270.90625 C334.342329,272.93751 335.103836,275.536443 335.103836,278.703125 C335.103836,282.130225 334.232797,284.979155 332.490694,287.25 C330.44607,289.91668 327.530438,291.25 323.743711,291.25 C320.207346,291.25 317.427324,290.083345 315.403564,287.75 C313.59887,285.499989 312.696537,282.656267 312.696537,279.21875 C312.696537,276.114568 313.468475,273.458344 315.012375,271.25 C316.994408,268.416652 319.925688,267 323.806301,267 C327.864254,267 330.868554,268.30207 332.819293,270.90625 L332.819293,270.90625 Z M330.073147,285.523438 C331.298878,283.559886 331.911735,281.302096 331.911735,278.75 C331.911735,276.05207 331.204994,273.880217 329.791491,272.234375 C328.377988,270.588533 326.445534,269.765625 323.994072,269.765625 C321.615631,269.765625 319.675354,270.580721 318.173181,272.210938 C316.671008,273.841154 315.919933,276.244776 315.919933,279.421875 C315.919933,281.963554 316.564084,284.106762 317.852406,285.851562 C319.140728,287.596363 321.229656,288.46875 324.119252,288.46875 C326.862804,288.46875 328.847416,287.486989 330.073147,285.523438 L330.073147,285.523438 Z M341.932429,267.625 L346.266802,286.296875 L351.46179,267.625 L354.841662,267.625 L360.036651,286.296875 L364.371023,267.625 L367.78219,267.625 L361.742234,290.578125 L358.471895,290.578125 L353.167374,271.546875 L347.831557,290.578125 L344.561218,290.578125 L338.552557,267.625 L341.932429,267.625 Z M372.96779,267.625 L376.112949,267.625 L376.112949,290.578125 L372.96779,290.578125 L372.96779,267.625 Z M382.769419,267.625 L386.446594,267.625 L398.057081,286.21875 L398.057081,267.625 L401.014468,267.625 L401.014468,290.578125 L397.525064,290.578125 L385.742454,272 L385.742454,290.578125 L382.769419,290.578125 L382.769419,267.625 Z M423.052485,268.28125 C425.33704,269.479173 426.734874,271.57811 427.24603,274.578125 L424.163462,274.578125 C423.787919,272.901033 423.010765,271.679691 421.831976,270.914062 C420.653188,270.148434 419.166685,269.765625 417.372423,269.765625 C415.244345,269.765625 413.452718,270.562492 411.997488,272.15625 C410.542258,273.750008 409.814654,276.124984 409.814654,279.28125 C409.814654,282.01043 410.414471,284.231762 411.614122,285.945312 C412.813774,287.658863 414.769699,288.515625 417.481956,288.515625 C419.557875,288.515625 421.276481,287.914069 422.637825,286.710938 C423.999169,285.507806 424.695479,283.562513 424.726774,280.875 L417.528898,280.875 L417.528898,278.296875 L427.621572,278.296875 L427.621572,290.578125 L425.618685,290.578125 L424.867602,287.625 C423.813995,288.781256 422.880366,289.583331 422.066689,290.03125 C420.700129,290.802087 418.963268,291.1875 416.856054,291.1875 C414.133365,291.1875 411.791471,290.3073 409.830301,288.546875 C407.691791,286.338531 406.622552,283.307311 406.622552,279.453125 C406.622552,275.609356 407.665712,272.552095 409.752063,270.28125 C411.734097,268.114573 414.30027,267.03125 417.450661,267.03125 C419.610034,267.03125 421.47729,267.447913 423.052485,268.28125 L423.052485,268.28125 Z" id="THE-FOLLOWING" fill="#FFFFFF" filter="url(#filter-1)" sketch:type="MSShapeGroup"></path>
            <path d="M470.908317,263.242198 C469.961031,262.466527 468.634067,262.078697 466.927386,262.078697 L460.186813,262.078697 L460.186813,272.383989 L466.927386,272.383989 C468.634067,272.383989 469.961031,271.9645 470.908317,271.125509 C471.855603,270.286518 472.329239,268.956816 472.329239,267.136364 C472.329239,265.315911 471.855603,264.017869 470.908317,263.242198 L470.908317,263.242198 Z M476.392372,275.850746 C474.325566,277.560388 471.374148,278.415197 467.538031,278.415197 L460.186813,278.415197 L460.186813,291 L453,291 L453,256 L468.078216,256 C471.554208,256 474.325566,256.902298 476.392372,258.70692 C478.459179,260.511542 479.492566,263.305499 479.492566,267.088874 C479.492566,271.220509 478.459179,274.141104 476.392372,275.850746 L476.392372,275.850746 Z M492.151691,262.078697 L492.151691,271.481682 L500.348416,271.481682 C501.976809,271.481682 503.198085,271.291725 504.012282,270.911805 C505.452783,270.246944 506.173023,268.933072 506.173023,266.970149 C506.173023,264.848927 505.476269,263.424246 504.082741,262.696065 C503.29986,262.284485 502.125555,262.078697 500.559793,262.078697 L492.151691,262.078697 Z M507.664404,256.902307 C508.971816,257.456357 510.079576,258.271591 510.987718,259.348033 C511.739284,260.234514 512.334265,261.21596 512.772678,262.292402 C513.211092,263.368843 513.430295,264.595651 513.430295,265.972863 C513.430295,267.635015 513.015374,269.26944 512.18552,270.876187 C511.355666,272.482934 509.985645,273.618721 508.075415,274.283582 C509.672492,274.932613 510.803739,275.854698 511.469188,277.049864 C512.134637,278.245031 512.467356,280.069413 512.467356,282.523066 L512.467356,284.873813 C512.467356,286.472645 512.529986,287.556985 512.655247,288.126866 C512.843138,289.029177 513.281545,289.694028 513.97048,290.121438 L513.97048,291 L506.008619,291 C505.789412,290.224329 505.632838,289.599053 505.538892,289.124152 C505.351001,288.142691 505.249228,287.137499 505.23357,286.108548 L505.186598,282.855495 C505.155282,280.623462 504.752105,279.135463 503.977052,278.391452 C503.202,277.647441 501.749777,277.275441 499.62034,277.275441 L492.151691,277.275441 L492.151691,291 L485.08231,291 L485.08231,256 L502.062917,256 C504.489849,256.04749 506.356993,256.348256 507.664404,256.902307 L507.664404,256.902307 Z M545.254256,262.197422 L526.934928,262.197422 L526.934928,269.629579 L543.751131,269.629579 L543.751131,275.708277 L526.934928,275.708277 L526.934928,284.707598 L546.099763,284.707598 L546.099763,291 L519.865546,291 L519.865546,256 L545.254256,256 L545.254256,262.197422 Z M572.005171,256 L579.520793,256 L567.707175,291 L560.872657,291 L549.176471,256 L556.903469,256 L564.419091,282.570556 L572.005171,256 Z M590.441931,291 L583.255117,291 L583.255117,256 L590.441931,256 L590.441931,291 Z M622.78259,262.197422 L604.463262,262.197422 L604.463262,269.629579 L621.279466,269.629579 L621.279466,275.708277 L604.463262,275.708277 L604.463262,284.707598 L623.628097,284.707598 L623.628097,291 L597.393881,291 L597.393881,256 L622.78259,256 L622.78259,262.197422 Z M633.985563,256 L638.565395,276.040706 L639.551821,281.62076 L640.561732,276.15943 L644.460461,256 L652.093514,256 L656.20362,276.040706 L657.260504,281.62076 L658.317388,276.25441 L662.944193,256 L670.29541,256 L660.548589,291 L653.643611,291 L649.463047,270.531886 L648.241758,263.764586 L647.02047,270.531886 L642.839905,291 L636.122818,291 L626.305538,256 L633.985563,256 Z" id="PREVIEW" fill="#FFFFFF" filter="url(#filter-2)" sketch:type="MSShapeGroup"></path>
            <path d="M686,267.625 L689.142576,267.625 L689.142576,277.109375 L701.087492,277.109375 L701.087492,267.625 L704.230068,267.625 L704.230068,290.578125 L701.087492,290.578125 L701.087492,279.84375 L689.142576,279.84375 L689.142576,290.578125 L686,290.578125 L686,267.625 Z M722.435121,281.171875 L718.948581,271.03125 L715.243156,281.171875 L722.435121,281.171875 Z M717.322572,267.625 L720.840381,267.625 L729.17368,290.578125 L725.765314,290.578125 L723.435742,283.703125 L714.351978,283.703125 L711.866059,290.578125 L708.676579,290.578125 L717.322572,267.625 Z M735.637068,283.171875 C735.71003,284.473965 736.01751,285.531246 736.559515,286.34375 C737.591411,287.864591 739.410231,288.625 742.016028,288.625 C743.183425,288.625 744.246575,288.458335 745.205508,288.125 C747.060836,287.479163 747.988486,286.322925 747.988486,284.65625 C747.988486,283.406244 747.597622,282.515628 746.815883,281.984375 C746.023721,281.463539 744.78338,281.010419 743.094823,280.625 L739.983516,279.921875 C737.950994,279.463539 736.512616,278.958336 735.668337,278.40625 C734.209091,277.447912 733.479478,276.015635 733.479478,274.109375 C733.479478,272.046865 734.193456,270.354173 735.621433,269.03125 C737.04941,267.708327 739.071479,267.046875 741.687699,267.046875 C744.095456,267.046875 746.140977,267.627598 747.824322,268.789062 C749.507667,269.950527 750.349327,271.807279 750.349327,274.359375 L747.425637,274.359375 C747.269289,273.130202 746.935752,272.187503 746.425016,271.53125 C745.476505,270.333327 743.866147,269.734375 741.593891,269.734375 C739.75941,269.734375 738.440896,270.119788 737.63831,270.890625 C736.835725,271.661462 736.434438,272.557287 736.434438,273.578125 C736.434438,274.703131 736.903474,275.526039 737.841561,276.046875 C738.45653,276.38021 739.848005,276.796873 742.016028,277.296875 L745.236778,278.03125 C746.789833,278.385418 747.988482,278.869789 748.83276,279.484375 C750.292007,280.557297 751.021619,282.114573 751.021619,284.15625 C751.021619,286.697929 750.096575,288.51562 748.246459,289.609375 C746.396343,290.70313 744.246592,291.25 741.797142,291.25 C738.941188,291.25 736.705447,290.520841 735.089853,289.0625 C733.474259,287.614576 732.682108,285.651054 732.713378,283.171875 L735.637068,283.171875 Z M775.69006,277.328125 C777.003382,277.328125 778.024839,277.145835 778.754463,276.78125 C779.901014,276.20833 780.47428,275.177091 780.47428,273.6875 C780.47428,272.187493 779.864533,271.177086 778.64502,270.65625 C777.957089,270.364582 776.935632,270.21875 775.580617,270.21875 L770.030296,270.21875 L770.030296,277.328125 L775.69006,277.328125 Z M776.737585,287.921875 C778.645029,287.921875 780.005235,287.369797 780.818244,286.265625 C781.32898,285.567705 781.584345,284.723963 781.584345,283.734375 C781.584345,282.0677 780.839098,280.932295 779.348581,280.328125 C778.556419,280.005207 777.508904,279.84375 776.206005,279.84375 L770.030296,279.84375 L770.030296,287.921875 L776.737585,287.921875 Z M766.981528,267.625 L776.847028,267.625 C779.536211,267.625 781.448838,268.427075 782.584966,270.03125 C783.25205,270.979171 783.585587,272.07291 783.585587,273.3125 C783.585587,274.760424 783.173877,275.947912 782.350445,276.875 C781.923094,277.364586 781.308135,277.812498 780.50555,278.21875 C781.68337,278.666669 782.564117,279.171872 783.147815,279.734375 C784.179711,280.73438 784.695651,282.114575 784.695651,283.875 C784.695651,285.354174 784.231826,286.692702 783.304162,287.890625 C781.917878,289.682301 779.713406,290.578125 776.690681,290.578125 L766.981528,290.578125 L766.981528,267.625 Z M790.314765,267.625 L807.059536,267.625 L807.059536,270.4375 L793.347898,270.4375 L793.347898,277.40625 L806.027645,277.40625 L806.027645,280.0625 L793.347898,280.0625 L793.347898,287.84375 L807.294057,287.84375 L807.294057,290.578125 L790.314765,290.578125 L790.314765,267.625 Z M813.272769,267.625 L830.01754,267.625 L830.01754,270.4375 L816.305902,270.4375 L816.305902,277.40625 L828.985649,277.40625 L828.985649,280.0625 L816.305902,280.0625 L816.305902,287.84375 L830.25206,287.84375 L830.25206,290.578125 L813.272769,290.578125 L813.272769,267.625 Z M835.933713,267.625 L839.607869,267.625 L851.208822,286.21875 L851.208822,267.625 L854.163781,267.625 L854.163781,290.578125 L850.677242,290.578125 L838.904307,272 L838.904307,290.578125 L835.933713,290.578125 L835.933713,267.625 Z M881.193063,281.171875 L877.706523,271.03125 L874.001098,281.171875 L881.193063,281.171875 Z M876.080514,267.625 L879.598323,267.625 L887.931621,290.578125 L884.523255,290.578125 L882.193684,283.703125 L873.109919,283.703125 L870.624001,290.578125 L867.434521,290.578125 L876.080514,267.625 Z M892.659557,267.625 L902.994098,267.625 C905.037043,267.625 906.683883,268.200515 907.934666,269.351562 C909.185448,270.50261 909.81083,272.119781 909.81083,274.203125 C909.81083,275.994801 909.253198,277.554681 908.137917,278.882812 C907.022635,280.210944 905.308046,280.875 902.994098,280.875 L895.770864,280.875 L895.770864,290.578125 L892.659557,290.578125 L892.659557,267.625 Z M904.792089,270.78125 C904.104159,270.458332 903.160874,270.296875 901.962208,270.296875 L895.770864,270.296875 L895.770864,278.25 L901.962208,278.25 C903.358915,278.25 904.49242,277.953128 905.362756,277.359375 C906.233093,276.765622 906.668254,275.718757 906.668254,274.21875 C906.668254,272.531242 906.042872,271.38542 904.792089,270.78125 L904.792089,270.78125 Z M915.617561,267.625 L925.952102,267.625 C927.995047,267.625 929.641886,268.200515 930.892669,269.351562 C932.143452,270.50261 932.768834,272.119781 932.768834,274.203125 C932.768834,275.994801 932.211202,277.554681 931.09592,278.882812 C929.980639,280.210944 928.26605,280.875 925.952102,280.875 L918.728867,280.875 L918.728867,290.578125 L915.617561,290.578125 L915.617561,267.625 Z M927.750093,270.78125 C927.062163,270.458332 926.118878,270.296875 924.920211,270.296875 L918.728867,270.296875 L918.728867,278.25 L924.920211,278.25 C926.316919,278.25 927.450424,277.953128 928.32076,277.359375 C929.191096,276.765622 929.626258,275.718757 929.626258,274.21875 C929.626258,272.531242 929.000876,271.38542 927.750093,270.78125 L927.750093,270.78125 Z M948.95701,278.140625 C950.416256,278.140625 951.570607,277.848961 952.420097,277.265625 C953.269587,276.682289 953.694326,275.630216 953.694326,274.109375 C953.694326,272.47395 953.100213,271.359378 951.911969,270.765625 C951.276155,270.453123 950.426678,270.296875 949.363512,270.296875 L941.765045,270.296875 L941.765045,278.140625 L948.95701,278.140625 Z M938.653738,267.625 L949.285339,267.625 C951.036435,267.625 952.480025,267.880206 953.616152,268.390625 C955.773753,269.369797 956.852537,271.17707 956.852537,273.8125 C956.852537,275.187507 956.568509,276.312496 956.000445,277.1875 C955.432381,278.062504 954.637625,278.765622 953.616152,279.296875 C954.512547,279.66146 955.187438,280.140622 955.640847,280.734375 C956.094256,281.328128 956.347014,282.29166 956.39913,283.625 L956.508573,286.703125 C956.539843,287.578129 956.612804,288.229165 956.727459,288.65625 C956.915077,289.38542 957.248614,289.854166 957.72808,290.0625 L957.72808,290.578125 L953.913212,290.578125 C953.80898,290.380207 953.725596,290.125002 953.663057,289.8125 C953.600517,289.499998 953.548402,288.895838 953.506709,288 L953.319093,284.171875 C953.246131,282.671868 952.688498,281.666669 951.646179,281.15625 C951.052058,280.874999 950.119196,280.734375 948.847567,280.734375 L941.765045,280.734375 L941.765045,290.578125 L938.653738,290.578125 L938.653738,267.625 Z M981.921226,270.90625 C983.443012,272.93751 984.203893,275.536443 984.203893,278.703125 C984.203893,282.130225 983.33357,284.979155 981.592897,287.25 C979.549952,289.91668 976.636714,291.25 972.853096,291.25 C969.319634,291.25 966.541896,290.083345 964.519797,287.75 C962.716585,285.499989 961.814993,282.656267 961.814993,279.21875 C961.814993,276.114568 962.586297,273.458344 964.128929,271.25 C966.109336,268.416652 969.038208,267 972.915635,267 C976.970256,267 979.972089,268.30207 981.921226,270.90625 L981.921226,270.90625 Z M979.177335,285.523438 C980.40206,283.559886 981.014413,281.302096 981.014413,278.75 C981.014413,276.05207 980.308252,273.880217 978.89591,272.234375 C977.483568,270.588533 975.552701,269.765625 973.103251,269.765625 C970.726764,269.765625 968.78808,270.580721 967.28714,272.210938 C965.786201,273.841154 965.035742,276.244776 965.035742,279.421875 C965.035742,281.963554 965.679365,284.106762 966.966629,285.851562 C968.253893,287.596363 970.341105,288.46875 973.228329,288.46875 C975.969628,288.46875 977.95261,287.486989 979.177335,285.523438 L979.177335,285.523438 Z M991.323939,267.625 L997.921785,287.171875 L1004.44146,267.625 L1007.928,267.625 L999.547795,290.578125 L996.248871,290.578125 L987.884303,267.625 L991.323939,267.625 Z M1012.76538,267.625 L1029.51015,267.625 L1029.51015,270.4375 L1015.79851,270.4375 L1015.79851,277.40625 L1028.47826,277.40625 L1028.47826,280.0625 L1015.79851,280.0625 L1015.79851,287.84375 L1029.74467,287.84375 L1029.74467,290.578125 L1012.76538,290.578125 L1012.76538,267.625 Z M1044.24429,287.921875 C1045.29704,287.921875 1046.16215,287.812501 1046.83966,287.59375 C1048.04875,287.187498 1049.03893,286.406256 1049.81025,285.25 C1050.42522,284.322912 1050.8682,283.135424 1051.1392,281.6875 C1051.29555,280.822912 1051.37372,280.020837 1051.37372,279.28125 C1051.37372,276.437486 1050.80827,274.229175 1049.67736,272.65625 C1048.54644,271.083325 1046.72501,270.296875 1044.21303,270.296875 L1038.69397,270.296875 L1038.69397,287.921875 L1044.24429,287.921875 Z M1035.56703,267.625 L1044.86968,267.625 C1048.02791,267.625 1050.47732,268.74478 1052.218,270.984375 C1053.77105,273.005218 1054.54757,275.593734 1054.54757,278.75 C1054.54757,281.187512 1054.08895,283.390615 1053.17171,285.359375 C1051.55612,288.838559 1048.77838,290.578125 1044.83841,290.578125 L1035.56703,290.578125 L1035.56703,267.625 Z M1070.94525,267.625 L1086.87701,267.625 L1086.87701,270.4375 L1074.05655,270.4375 L1074.05655,277.40625 L1085.32918,277.40625 L1085.32918,280.140625 L1074.05655,280.140625 L1074.05655,290.578125 L1070.94525,290.578125 L1070.94525,267.625 Z M1110.7262,270.90625 C1112.24798,272.93751 1113.00886,275.536443 1113.00886,278.703125 C1113.00886,282.130225 1112.13854,284.979155 1110.39787,287.25 C1108.35492,289.91668 1105.44168,291.25 1101.65807,291.25 C1098.1246,291.25 1095.34687,290.083345 1093.32477,287.75 C1091.52156,285.499989 1090.61996,282.656267 1090.61996,279.21875 C1090.61996,276.114568 1091.39127,273.458344 1092.9339,271.25 C1094.91431,268.416652 1097.84318,267 1101.7206,267 C1105.77523,267 1108.77706,268.30207 1110.7262,270.90625 L1110.7262,270.90625 Z M1107.9823,285.523438 C1109.20703,283.559886 1109.81938,281.302096 1109.81938,278.75 C1109.81938,276.05207 1109.11322,273.880217 1107.70088,272.234375 C1106.28854,270.588533 1104.35767,269.765625 1101.90822,269.765625 C1099.53173,269.765625 1097.59305,270.580721 1096.09211,272.210938 C1094.59117,273.841154 1093.84071,276.244776 1093.84071,279.421875 C1093.84071,281.963554 1094.48433,284.106762 1095.7716,285.851562 C1097.05886,287.596363 1099.14608,288.46875 1102.0333,288.46875 C1104.7746,288.46875 1106.75758,287.486989 1107.9823,285.523438 L1107.9823,285.523438 Z M1128.99379,278.140625 C1130.45303,278.140625 1131.60739,277.848961 1132.45688,277.265625 C1133.30637,276.682289 1133.7311,275.630216 1133.7311,274.109375 C1133.7311,272.47395 1133.13699,271.359378 1131.94875,270.765625 C1131.31293,270.453123 1130.46346,270.296875 1129.40029,270.296875 L1121.80182,270.296875 L1121.80182,278.140625 L1128.99379,278.140625 Z M1118.69052,267.625 L1129.32212,267.625 C1131.07321,267.625 1132.5168,267.880206 1133.65293,268.390625 C1135.81053,269.369797 1136.88931,271.17707 1136.88931,273.8125 C1136.88931,275.187507 1136.60529,276.312496 1136.03722,277.1875 C1135.46916,278.062504 1134.6744,278.765622 1133.65293,279.296875 C1134.54932,279.66146 1135.22422,280.140622 1135.67762,280.734375 C1136.13103,281.328128 1136.38379,282.29166 1136.43591,283.625 L1136.54535,286.703125 C1136.57662,287.578129 1136.64958,288.229165 1136.76424,288.65625 C1136.95185,289.38542 1137.28539,289.854166 1137.76486,290.0625 L1137.76486,290.578125 L1133.94999,290.578125 C1133.84576,290.380207 1133.76237,290.125002 1133.69983,289.8125 C1133.6373,289.499998 1133.58518,288.895838 1133.54349,288 L1133.35587,284.171875 C1133.28291,282.671868 1132.72528,281.666669 1131.68296,281.15625 C1131.08884,280.874999 1130.15597,280.734375 1128.88434,280.734375 L1121.80182,280.734375 L1121.80182,290.578125 L1118.69052,290.578125 L1118.69052,267.625 Z" id="HAS-BEEN-APPROVED-FO" fill="#FFFFFF" filter="url(#filter-3)" sketch:type="MSShapeGroup"></path>
            <path d="M449.890932,373.79846 L458.662547,373.79846 L454.3471,360.02439 L449.890932,373.79846 Z M450.336549,352.021181 L458.498373,352.021181 L470.741108,387.026316 L462.907634,387.026316 L460.67955,379.830552 L447.944291,379.830552 L445.552032,387.026316 L438,387.026316 L450.336549,352.021181 Z M476.728009,352.021181 L483.951692,352.021181 L483.951692,380.732991 L501.072758,380.732991 L501.072758,387.026316 L476.728009,387.026316 L476.728009,352.021181 Z M507.66945,352.021181 L514.893133,352.021181 L514.893133,380.732991 L532.014199,380.732991 L532.014199,387.026316 L507.66945,387.026316 L507.66945,352.021181 Z M560.405462,373.79846 L569.177077,373.79846 L564.86163,360.02439 L560.405462,373.79846 Z M560.851079,352.021181 L569.012902,352.021181 L581.255638,387.026316 L573.422163,387.026316 L571.194079,379.830552 L558.45882,379.830552 L556.066562,387.026316 L548.51453,387.026316 L560.851079,352.021181 Z M587.242538,352.021181 L594.583489,352.021181 L594.583489,373.537227 C594.583489,375.943743 594.864928,377.701107 595.427815,378.809371 C596.303418,380.772581 598.210951,381.754172 601.150473,381.754172 C604.074359,381.754172 605.974075,380.772581 606.849677,378.809371 C607.412565,377.701107 607.694004,375.943743 607.694004,373.537227 L607.694004,352.021181 L615.034954,352.021181 L615.034954,373.537227 C615.034954,377.257828 614.464258,380.155103 613.322848,382.22914 C611.196385,386.028902 607.138967,387.928755 601.150473,387.928755 C595.161979,387.928755 591.096743,386.028902 588.954645,382.22914 C587.813235,380.155103 587.242538,377.257828 587.242538,373.537227 L587.242538,352.021181 Z M630.543983,358.10077 L630.543983,380.946727 L637.204781,380.946727 C640.613376,380.946727 642.989975,379.244775 644.33465,375.840822 C645.06953,373.972605 645.436965,371.748194 645.436965,369.167522 C645.436965,365.605245 644.885813,362.870249 643.783492,360.962452 C642.681171,359.054655 640.48829,358.10077 637.204781,358.10077 L630.543983,358.10077 Z M643.771765,352.78113 C646.195308,353.588579 648.157565,355.068881 649.658598,357.22208 C650.862551,358.963637 651.683416,360.847658 652.121217,362.874198 C652.559018,364.900738 652.777915,366.832254 652.777915,368.668806 C652.777915,373.323515 651.85542,377.265709 650.010401,380.495507 C647.50868,384.849401 643.646706,387.026316 638.424364,387.026316 L623.531381,387.026316 L623.531381,352.021181 L638.424364,352.021181 C640.566462,352.052846 642.348912,352.306159 643.771765,352.78113 L643.771765,352.78113 Z M666.434116,387.026316 L659.25734,387.026316 L659.25734,352.021181 L666.434116,352.021181 L666.434116,387.026316 Z M700.3307,358.219512 L682.036958,358.219512 L682.036958,365.65276 L698.829675,365.65276 L698.829675,371.732349 L682.036958,371.732349 L682.036958,380.732991 L701.175027,380.732991 L701.175027,387.026316 L674.97745,387.026316 L674.97745,352.021181 L700.3307,352.021181 L700.3307,358.219512 Z M708.287696,352.021181 L715.863182,352.021181 L729.630396,376.45828 L729.630396,352.021181 L736.361555,352.021181 L736.361555,387.026316 L729.137872,387.026316 L715.018855,362.161746 L715.018855,387.026316 L708.287696,387.026316 L708.287696,352.021181 Z M748.04766,355.678434 C750.862096,352.796948 754.44263,351.356226 758.78937,351.356226 C764.605871,351.356226 768.858733,353.287743 771.548083,357.150834 C773.033479,359.319865 773.830891,361.49678 773.940341,363.681643 L766.716658,363.681643 C766.247586,362.003415 765.645618,360.736846 764.910738,359.8819 C763.597334,358.361995 761.650712,357.602054 759.070812,357.602054 C756.444005,357.602054 754.372299,358.674679 752.855631,360.819961 C751.338962,362.965244 750.58064,366.00105 750.58064,369.927471 C750.58064,373.853892 751.38196,376.794706 752.984625,378.75 C754.58729,380.705294 756.623816,381.682927 759.094266,381.682927 C761.627258,381.682927 763.558245,380.843825 764.887284,379.165597 C765.622165,378.263153 766.23195,376.909508 766.716658,375.104621 L773.869981,375.104621 C773.24455,378.920216 771.645818,382.023309 769.073737,384.413992 C766.501655,386.804676 763.206469,388 759.18808,388 C754.21591,388 750.307029,386.385125 747.461322,383.155327 C744.615615,379.909697 743.192782,375.460876 743.192782,369.808729 C743.192782,363.697445 744.811059,358.987394 748.04766,355.678434 L748.04766,355.678434 Z M806.546982,358.219512 L788.25324,358.219512 L788.25324,365.65276 L805.045957,365.65276 L805.045957,371.732349 L788.25324,371.732349 L788.25324,380.732991 L807.391309,380.732991 L807.391309,387.026316 L781.193732,387.026316 L781.193732,352.021181 L806.546982,352.021181 L806.546982,358.219512 Z M819.85138,376.220796 C820.070281,377.819863 820.500257,379.015186 821.141323,379.806804 C822.314005,381.247547 824.323169,381.967908 827.168877,381.967908 C828.873174,381.967908 830.256918,381.777922 831.320149,381.397946 C833.337162,380.669658 834.345653,379.316013 834.345653,377.33697 C834.345653,376.181209 833.845316,375.286696 832.844628,374.653402 C831.843939,374.03594 830.27257,373.489733 828.130471,373.014763 L824.471723,372.183569 C820.875499,371.360287 818.389451,370.465773 817.013505,369.5 C814.683777,367.885101 813.518931,365.35988 813.518931,361.924262 C813.518931,358.789458 814.644688,356.185077 816.896237,354.11104 C819.147786,352.037003 822.454698,351 826.817074,351 C830.460205,351 833.567765,351.977632 836.139847,353.932927 C838.711928,355.888221 840.060492,358.726126 840.185578,362.446727 L833.243337,362.446727 C833.118251,360.341025 832.211391,358.844891 830.52273,357.95828 C829.396955,357.372483 827.997576,357.079589 826.32455,357.079589 C824.463895,357.079589 822.978521,357.45956 821.868382,358.219512 C820.758244,358.979465 820.203183,360.040216 820.203183,361.401797 C820.203183,362.652552 820.750426,363.586646 821.844929,364.204108 C822.548538,364.615749 824.049548,365.098628 826.348004,365.65276 L832.305197,367.101412 C834.916368,367.734706 836.886444,368.581723 838.215483,369.64249 C840.279402,371.289054 841.311347,373.671786 841.311347,376.790757 C841.311347,379.988891 840.103503,382.644726 837.687779,384.758344 C835.272055,386.871962 831.859602,387.928755 827.450319,387.928755 C822.947222,387.928755 819.405776,386.887794 816.825876,384.805841 C814.245977,382.723888 812.956046,379.862235 812.956046,376.220796 L819.85138,376.220796 Z" id="ALL-AUDIENCES" fill="#FFFFFF" filter="url(#filter-4)" sketch:type="MSShapeGroup"></path>
            <path d="M212.622847,427.625 L212.622847,430.359375 L204.889366,430.359375 L204.889366,450.578125 L201.733481,450.578125 L201.733481,430.359375 L194,430.359375 L194,427.625 L212.622847,427.625 Z M217.144199,427.625 L220.284461,427.625 L220.284461,437.109375 L232.220581,437.109375 L232.220581,427.625 L235.360843,427.625 L235.360843,450.578125 L232.220581,450.578125 L232.220581,439.84375 L220.284461,439.84375 L220.284461,450.578125 L217.144199,450.578125 L217.144199,427.625 Z M242.069443,427.625 L258.801883,427.625 L258.801883,430.4375 L245.100342,430.4375 L245.100342,437.40625 L257.770752,437.40625 L257.770752,440.0625 L245.100342,440.0625 L245.100342,447.84375 L259.036231,447.84375 L259.036231,450.578125 L242.069443,450.578125 L242.069443,427.625 Z M277.234127,443.171875 C277.307036,444.473965 277.614289,445.531246 278.155896,446.34375 C279.187032,447.864591 281.004512,448.625 283.60839,448.625 C284.774928,448.625 285.837294,448.458335 286.795522,448.125 C288.649483,447.479163 289.57645,446.322925 289.57645,444.65625 C289.57645,443.406244 289.185874,442.515628 288.404711,441.984375 C287.613132,441.463539 286.373704,441.010419 284.686391,440.625 L281.577375,439.921875 C279.54635,439.463539 278.10903,438.958336 277.265374,438.40625 C275.807202,437.447912 275.078126,436.015635 275.078126,434.109375 C275.078126,432.046865 275.791579,430.354173 277.218504,429.03125 C278.64543,427.708327 280.666009,427.046875 283.280303,427.046875 C285.686287,427.046875 287.730301,427.627598 289.412407,428.789062 C291.094512,429.950527 291.935553,431.807279 291.935553,434.359375 L289.014015,434.359375 C288.857783,433.130202 288.524491,432.187503 288.014131,431.53125 C287.066319,430.333327 285.457146,429.734375 283.186564,429.734375 C281.353433,429.734375 280.035891,430.119788 279.233896,430.890625 C278.431901,431.661462 278.03091,432.557287 278.03091,433.578125 C278.03091,434.703131 278.499601,435.526039 279.436998,436.046875 C280.051513,436.38021 281.441963,436.796873 283.60839,437.296875 L286.826768,438.03125 C288.37868,438.385418 289.576446,438.869789 290.420103,439.484375 C291.878275,440.557297 292.60735,442.114573 292.60735,444.15625 C292.60735,446.697929 291.682987,448.51562 289.834233,449.609375 C287.985479,450.70313 285.837311,451.25 283.389666,451.25 C280.535815,451.25 278.30172,450.520841 276.687315,449.0625 C275.072911,447.614576 274.281343,445.651054 274.31259,443.171875 L277.234127,443.171875 Z M298.14421,427.625 L301.175109,427.625 L301.175109,438.8125 L312.361316,427.625 L316.657694,427.625 L307.111923,436.875 L316.923289,450.578125 L312.876882,450.578125 L304.84656,439.0625 L301.175109,442.578125 L301.175109,450.578125 L298.14421,450.578125 L298.14421,427.625 Z M321.382148,427.625 L338.114589,427.625 L338.114589,430.4375 L324.413048,430.4375 L324.413048,437.40625 L337.083458,437.40625 L337.083458,440.0625 L324.413048,440.0625 L324.413048,447.84375 L338.348937,447.84375 L338.348937,450.578125 L321.382148,450.578125 L321.382148,427.625 Z M360.727599,427.625 L360.727599,430.359375 L352.994119,430.359375 L352.994119,450.578125 L349.838233,450.578125 L349.838233,430.359375 L342.104752,430.359375 L342.104752,427.625 L360.727599,427.625 Z M381.606436,429.296875 C383.210425,430.828133 384.100938,432.567699 384.278002,434.515625 L381.247102,434.515625 C380.90339,433.036451 380.21858,431.864588 379.192652,431 C378.166724,430.135412 376.726801,429.703125 374.872839,429.703125 C372.612672,429.703125 370.787381,430.497388 369.39691,432.085938 C368.006438,433.674487 367.311213,436.109359 367.311213,439.390625 C367.311213,442.078138 367.938739,444.257804 369.193808,445.929688 C370.448878,447.601571 372.321038,448.4375 374.810346,448.4375 C377.10176,448.4375 378.846332,447.5573 380.044116,445.796875 C380.679463,444.869787 381.153361,443.651049 381.465827,442.140625 L384.496726,442.140625 C384.225923,444.557304 383.330202,446.583325 381.809537,448.21875 C379.986822,450.18751 377.528797,451.171875 374.43539,451.171875 C371.769018,451.171875 369.529716,450.364591 367.717416,448.75 C365.332264,446.614573 364.139705,443.317731 364.139705,438.859375 C364.139705,435.473941 365.035426,432.697927 366.826894,430.53125 C368.76418,428.177072 371.435719,427 374.841593,427 C377.747521,427 380.002446,427.765617 381.606436,429.296875 L381.606436,429.296875 Z M389.95547,427.625 L393.095732,427.625 L393.095732,437.109375 L405.031852,437.109375 L405.031852,427.625 L408.172114,427.625 L408.172114,450.578125 L405.031852,450.578125 L405.031852,439.84375 L393.095732,439.84375 L393.095732,450.578125 L389.95547,450.578125 L389.95547,427.625 Z M417.958483,427.625 L417.958483,441.8125 C417.958483,443.479175 418.270944,444.864578 418.895875,445.96875 C419.822855,447.635425 421.385159,448.46875 423.582833,448.46875 C426.217958,448.46875 428.009399,447.567717 428.957211,445.765625 C429.467572,444.786453 429.722748,443.468758 429.722748,441.8125 L429.722748,427.625 L432.878633,427.625 L432.878633,440.515625 C432.878633,443.338556 432.498472,445.510409 431.73814,447.03125 C430.342461,449.802097 427.707375,451.1875 423.832804,451.1875 C419.958232,451.1875 417.328354,449.802097 415.943091,447.03125 C415.182758,445.510409 414.802598,443.338556 414.802598,440.515625 L414.802598,427.625 L417.958483,427.625 Z M439.587232,427.625 L449.914163,427.625 C451.955604,427.625 453.601231,428.200515 454.851093,429.351562 C456.100954,430.50261 456.725876,432.119781 456.725876,434.203125 C456.725876,435.994801 456.168654,437.554681 455.054194,438.882812 C453.939734,440.210944 452.226408,440.875 449.914163,440.875 L442.696248,440.875 L442.696248,450.578125 L439.587232,450.578125 L439.587232,427.625 Z M451.710831,430.78125 C451.023407,430.458332 450.080817,430.296875 448.883033,430.296875 L442.696248,430.296875 L442.696248,438.25 L448.883033,438.25 C450.278712,438.25 451.411382,437.953128 452.281077,437.359375 C453.150773,436.765622 453.585614,435.718757 453.585614,434.21875 C453.585614,432.531242 452.960693,431.38542 451.710831,430.78125 L451.710831,430.78125 Z M488.297226,427.625 L488.297226,430.359375 L480.563745,430.359375 L480.563745,450.578125 L477.40786,450.578125 L477.40786,430.359375 L469.674379,430.359375 L469.674379,427.625 L488.297226,427.625 Z M493.037303,427.625 L509.769744,427.625 L509.769744,430.4375 L496.068203,430.4375 L496.068203,437.40625 L508.738613,437.40625 L508.738613,440.0625 L496.068203,440.0625 L496.068203,447.84375 L510.004091,447.84375 L510.004091,450.578125 L493.037303,450.578125 L493.037303,427.625 Z M527.461448,441.171875 L523.977476,431.03125 L520.274779,441.171875 L527.461448,441.171875 Z M522.352664,427.625 L525.867882,427.625 L534.195045,450.578125 L530.789188,450.578125 L528.461333,443.703125 L519.384257,443.703125 L516.900169,450.578125 L513.713038,450.578125 L522.352664,427.625 Z M538.544542,427.625 L542.997152,427.625 L549.59014,447.03125 L556.136258,427.625 L560.541999,427.625 L560.541999,450.578125 L557.589215,450.578125 L557.589215,437.03125 C557.589215,436.562498 557.59963,435.786464 557.620461,434.703125 C557.641292,433.619786 557.651708,432.45834 557.651708,431.21875 L551.10559,450.578125 L548.02782,450.578125 L541.434833,431.21875 L541.434833,431.921875 C541.434833,432.484378 541.447852,433.34114 541.473891,434.492188 C541.499929,435.643235 541.512949,436.489581 541.512949,437.03125 L541.512949,450.578125 L538.544542,450.578125 L538.544542,427.625 Z M587.395144,441.171875 L583.911172,431.03125 L580.208475,441.171875 L587.395144,441.171875 Z M582.28636,427.625 L585.801578,427.625 L594.128741,450.578125 L590.722884,450.578125 L588.395029,443.703125 L579.317953,443.703125 L576.833865,450.578125 L573.646734,450.578125 L582.28636,427.625 Z M612.898446,427.625 L612.898446,430.359375 L605.164965,430.359375 L605.164965,450.578125 L602.00908,450.578125 L602.00908,430.359375 L594.275599,430.359375 L594.275599,427.625 L612.898446,427.625 Z M643.407419,427.625 L643.407419,430.359375 L635.673938,430.359375 L635.673938,450.578125 L632.518052,450.578125 L632.518052,430.359375 L624.784572,430.359375 L624.784572,427.625 L643.407419,427.625 Z M658.521296,438.140625 C659.979468,438.140625 661.132969,437.848961 661.981834,437.265625 C662.830698,436.682289 663.255124,435.630216 663.255124,434.109375 C663.255124,432.47395 662.661448,431.359378 661.47408,430.765625 C660.838733,430.453123 659.989882,430.296875 658.927499,430.296875 L651.334627,430.296875 L651.334627,438.140625 L658.521296,438.140625 Z M648.225612,427.625 L658.849383,427.625 C660.59919,427.625 662.041717,427.880206 663.177008,428.390625 C665.333019,429.369797 666.411009,431.17707 666.411009,433.8125 C666.411009,435.187507 666.127191,436.312496 665.559545,437.1875 C664.991899,438.062504 664.197728,438.765622 663.177008,439.296875 C664.072742,439.66146 664.747137,440.140622 665.200212,440.734375 C665.653286,441.328128 665.905859,442.29166 665.957936,443.625 L666.067299,446.703125 C666.098545,447.578129 666.171453,448.229165 666.286024,448.65625 C666.473503,449.38542 666.806794,449.854166 667.285908,450.0625 L667.285908,450.578125 L663.473849,450.578125 C663.369693,450.380207 663.286371,450.125002 663.223878,449.8125 C663.161384,449.499998 663.109308,448.895838 663.067646,448 L662.880167,444.171875 C662.807259,442.671868 662.250037,441.666669 661.208486,441.15625 C660.614801,440.874999 659.682627,440.734375 658.411934,440.734375 L651.334627,440.734375 L651.334627,450.578125 L648.225612,450.578125 L648.225612,427.625 Z M673.260217,427.625 L676.400479,427.625 L676.400479,450.578125 L673.260217,450.578125 L673.260217,427.625 Z M682.96847,427.625 L687.42108,427.625 L694.014068,447.03125 L700.560186,427.625 L704.965927,427.625 L704.965927,450.578125 L702.013143,450.578125 L702.013143,437.03125 C702.013143,436.562498 702.023558,435.786464 702.044389,434.703125 C702.06522,433.619786 702.075636,432.45834 702.075636,431.21875 L695.529518,450.578125 L692.451748,450.578125 L685.858761,431.21875 L685.858761,431.921875 C685.858761,432.484378 685.87178,433.34114 685.897819,434.492188 C685.923857,435.643235 685.936877,436.489581 685.936877,437.03125 L685.936877,450.578125 L682.96847,450.578125 L682.96847,427.625 Z M719.923572,437.328125 C721.235927,437.328125 722.256632,437.145835 722.985718,436.78125 C724.131425,436.20833 724.70427,435.177091 724.70427,433.6875 C724.70427,432.187493 724.094971,431.177086 722.876356,430.65625 C722.188932,430.364582 721.168227,430.21875 719.81421,430.21875 L714.267976,430.21875 L714.267976,437.328125 L719.923572,437.328125 Z M720.970326,447.921875 C722.876366,447.921875 724.23557,447.369797 725.04798,446.265625 C725.55834,445.567705 725.813516,444.723963 725.813516,443.734375 C725.813516,442.0677 725.068818,440.932295 723.5794,440.328125 C722.787821,440.005207 721.741077,439.84375 720.439138,439.84375 L714.267976,439.84375 L714.267976,447.921875 L720.970326,447.921875 Z M711.221454,427.625 L721.079689,427.625 C723.766892,427.625 725.67811,428.427075 726.813401,430.03125 C727.479994,430.979171 727.813285,432.07291 727.813285,433.3125 C727.813285,434.760424 727.401879,435.947912 726.579053,436.875 C726.152017,437.364586 725.537511,437.812498 724.735516,438.21875 C725.912469,438.666669 726.792567,439.171872 727.375836,439.734375 C728.406972,440.73438 728.922532,442.114575 728.922532,443.875 C728.922532,445.354174 728.459049,446.692702 727.532068,447.890625 C726.146804,449.682301 723.943956,450.578125 720.923457,450.578125 L711.221454,450.578125 L711.221454,427.625 Z M734.240667,427.625 L737.349683,427.625 L737.349683,447.84375 L748.973339,447.84375 L748.973339,450.578125 L734.240667,450.578125 L734.240667,427.625 Z M753.932141,427.625 L770.664581,427.625 L770.664581,430.4375 L756.96304,430.4375 L756.96304,437.40625 L769.63345,437.40625 L769.63345,440.0625 L756.96304,440.0625 L756.96304,447.84375 L770.898929,447.84375 L770.898929,450.578125 L753.932141,450.578125 L753.932141,427.625 Z M787.06581,427.625 L790.737261,427.625 L802.32967,446.21875 L802.32967,427.625 L805.282454,427.625 L805.282454,450.578125 L801.798482,450.578125 L790.034217,432 L790.034217,450.578125 L787.06581,450.578125 L787.06581,427.625 Z M823.552217,441.171875 L820.068245,431.03125 L816.365548,441.171875 L823.552217,441.171875 Z M818.443432,427.625 L821.958651,427.625 L830.285813,450.578125 L826.879957,450.578125 L824.552101,443.703125 L815.475026,443.703125 L812.990938,450.578125 L809.803806,450.578125 L818.443432,427.625 Z M834.166615,427.625 L840.759602,447.171875 L847.274474,427.625 L850.758446,427.625 L842.384415,450.578125 L839.087921,450.578125 L830.729512,427.625 L834.166615,427.625 Z M855.998466,427.625 L859.138728,427.625 L859.138728,450.578125 L855.998466,450.578125 L855.998466,427.625 Z M881.298666,428.28125 C883.579663,429.479173 884.975321,431.57811 885.485682,434.578125 L882.407912,434.578125 C882.032954,432.901033 881.25701,431.679691 880.080057,430.914062 C878.903103,430.148434 877.418915,429.765625 875.627446,429.765625 C873.502681,429.765625 871.713844,430.562492 870.260879,432.15625 C868.807915,433.750008 868.081444,436.124984 868.081444,439.28125 C868.081444,442.01043 868.680327,444.231762 869.878111,445.945312 C871.075895,447.658863 873.028775,448.515625 875.736809,448.515625 C877.809496,448.515625 879.525426,447.914069 880.884651,446.710938 C882.243876,445.507806 882.939101,443.562513 882.970347,440.875 L875.783678,440.875 L875.783678,438.296875 L885.860638,438.296875 L885.860638,450.578125 L883.860869,450.578125 L883.110956,447.625 C882.058989,448.781256 881.126815,449.583331 880.314404,450.03125 C878.949972,450.802087 877.215815,451.1875 875.111881,451.1875 C872.393432,451.1875 870.055184,450.3073 868.097067,448.546875 C865.961886,446.338531 864.894312,443.307311 864.894312,439.453125 C864.894312,435.609356 865.935848,432.552095 868.018951,430.28125 C869.997899,428.114573 872.560077,427.03125 875.705562,427.03125 C877.861574,427.03125 879.725923,427.447913 881.298666,428.28125 L881.298666,428.28125 Z M904.052285,441.171875 L900.568313,431.03125 L896.865616,441.171875 L904.052285,441.171875 Z M898.943501,427.625 L902.458719,427.625 L910.785882,450.578125 L907.380025,450.578125 L905.05217,443.703125 L895.975094,443.703125 L893.491006,450.578125 L890.303875,450.578125 L898.943501,427.625 Z M929.555587,427.625 L929.555587,430.359375 L921.822106,430.359375 L921.822106,450.578125 L918.666221,450.578125 L918.666221,430.359375 L910.93274,430.359375 L910.93274,427.625 L929.555587,427.625 Z M934.701867,427.625 L937.842129,427.625 L937.842129,450.578125 L934.701867,450.578125 L934.701867,427.625 Z M963.3923,430.90625 C964.912965,432.93751 965.673286,435.536443 965.673286,438.703125 C965.673286,442.130225 964.803604,444.979155 963.064213,447.25 C961.022772,449.91668 958.111679,451.25 954.330847,451.25 C950.799988,451.25 948.024295,450.083345 946.003685,447.75 C944.201801,445.499989 943.300873,442.656267 943.300873,439.21875 C943.300873,436.114568 944.071609,433.458344 945.613105,431.25 C947.592053,428.416652 950.518769,427 954.39334,427 C958.444975,427 961.444599,428.30207 963.3923,430.90625 L963.3923,430.90625 Z M960.650429,445.523438 C961.874252,443.559886 962.486155,441.302096 962.486155,438.75 C962.486155,436.05207 961.780514,433.880217 960.369212,432.234375 C958.95791,430.588533 957.028464,429.765625 954.580818,429.765625 C952.206081,429.765625 950.268825,430.580721 948.76899,432.210938 C947.269156,433.841154 946.519251,436.244776 946.519251,439.421875 C946.519251,441.963554 947.162399,444.106762 948.448715,445.851562 C949.735031,447.596363 951.820706,448.46875 954.705804,448.46875 C957.445084,448.46875 959.426606,447.486989 960.650429,445.523438 L960.650429,445.523438 Z M970.975798,427.625 L974.647249,427.625 L986.239658,446.21875 L986.239658,427.625 L989.192442,427.625 L989.192442,450.578125 L985.70847,450.578125 L973.944205,432 L973.944205,450.578125 L970.975798,450.578125 L970.975798,427.625 Z M995.901041,453.84375 C996.619712,453.718749 997.124857,453.213546 997.416491,452.328125 C997.572724,451.859373 997.650839,451.406252 997.650839,450.96875 C997.650839,450.895833 997.648235,450.830729 997.643028,450.773438 C997.63782,450.716146 997.624801,450.651042 997.60397,450.578125 L995.901041,450.578125 L995.901041,447.171875 L999.244405,447.171875 L999.244405,450.328125 C999.244405,451.567715 998.994436,452.656245 998.494492,453.59375 C997.994547,454.531255 997.130072,455.109374 995.901041,455.328125 L995.901041,453.84375 Z M1016.66114,427.625 L1019.77016,427.625 L1019.77016,447.84375 L1031.39381,447.84375 L1031.39381,450.578125 L1016.66114,450.578125 L1016.66114,427.625 Z M1050.39787,427.625 L1050.39787,430.359375 L1042.66439,430.359375 L1042.66439,450.578125 L1039.5085,450.578125 L1039.5085,430.359375 L1031.77502,430.359375 L1031.77502,427.625 L1050.39787,427.625 Z M1063.65258,447.921875 C1064.70455,447.921875 1065.56903,447.812501 1066.24603,447.59375 C1067.45423,447.187498 1068.44369,446.406256 1069.21444,445.25 C1069.82896,444.322912 1070.27161,443.135424 1070.54241,441.6875 C1070.69864,440.822912 1070.77676,440.020837 1070.77676,439.28125 C1070.77676,436.437486 1070.21173,434.229175 1069.08164,432.65625 C1067.95156,431.083325 1066.13148,430.296875 1063.62134,430.296875 L1058.10635,430.296875 L1058.10635,447.921875 L1063.65258,447.921875 Z M1054.98171,427.625 L1064.27751,427.625 C1067.43341,427.625 1069.88102,428.74478 1071.62041,430.984375 C1073.17232,433.005218 1073.94827,435.593734 1073.94827,438.75 C1073.94827,441.187512 1073.48999,443.390615 1072.57343,445.359375 C1070.95902,448.838559 1068.18333,450.578125 1064.24626,450.578125 L1054.98171,450.578125 L1054.98171,427.625 Z M1079.84446,447.171875 L1083.10971,447.171875 L1083.10971,450.578125 L1079.84446,450.578125 L1079.84446,447.171875 Z" id="THE-SKETCHUP-TEAM-AT" fill="#FFFFFF" filter="url(#filter-5)" sketch:type="MSShapeGroup"></path>
        </g>
    </g>
</svg>