<svg width="25" height="24" viewBox="0 0 25 24" fill="none" xmlns="http://www.w3.org/2000/svg">
<path fill-rule="evenodd" clip-rule="evenodd" d="M12.5 3C7.52944 3 3.5 7.02944 3.5 12C3.5 16.9706 7.52944 21 12.5 21C17.4706 21 21.5 16.9706 21.5 12C21.5 7.02944 17.4706 3 12.5 3ZM2.5 12C2.5 6.47715 6.97715 2 12.5 2C18.0228 2 22.5 6.47715 22.5 12C22.5 17.5228 18.0228 22 12.5 22C6.97715 22 2.5 17.5228 2.5 12ZM12.5 5.5C12.7761 5.5 13 5.72386 13 6V11.5H18.5C18.7761 11.5 19 11.7239 19 12C19 12.2761 18.7761 12.5 18.5 12.5H13V18C13 18.2761 12.7761 18.5 12.5 18.5C12.2239 18.5 12 18.2761 12 18V12.5H6.5C6.22386 12.5 6 12.2761 6 12C6 11.7239 6.22386 11.5 6.5 11.5H12V6C12 5.72386 12.2239 5.5 12.5 5.5Z" fill="#363545"/>
</svg>
