<svg width="24" height="25" viewBox="0 0 24 25" fill="none" xmlns="http://www.w3.org/2000/svg">
<path fill-rule="evenodd" clip-rule="evenodd" d="M13.2149 1.53494C13.3256 1.46683 13.4705 1.50134 13.5386 1.61201C14.142 2.59248 15.662 4.08825 17.8088 4.08825C19.9556 4.08825 21.4756 2.59248 22.079 1.61201C22.1471 1.50134 22.292 1.46683 22.4027 1.53494C22.5133 1.60304 22.5479 1.74797 22.4798 1.85864C21.8282 2.91737 20.1796 4.55883 17.8088 4.55883C15.438 4.55883 13.7894 2.91737 13.1379 1.85864C13.0698 1.74797 13.1043 1.60304 13.2149 1.53494Z" fill="#0E416C"/>
<path fill-rule="evenodd" clip-rule="evenodd" d="M13.9752 2.27483C14.0671 2.36671 14.0671 2.51569 13.9752 2.60758L13.2693 3.31346C13.1775 3.40534 13.0285 3.40534 12.9366 3.31346C12.8447 3.22157 12.8447 3.07259 12.9366 2.9807L13.6425 2.27483C13.7344 2.18294 13.8833 2.18294 13.9752 2.27483Z" fill="#0E416C"/>
<path fill-rule="evenodd" clip-rule="evenodd" d="M21.6424 2.27483C21.7343 2.18294 21.8833 2.18294 21.9752 2.27483L22.681 2.9807C22.7729 3.07259 22.7729 3.22157 22.681 3.31346C22.5891 3.40534 22.4402 3.40534 22.3483 3.31346L21.6424 2.60758C21.5505 2.51569 21.5505 2.36671 21.6424 2.27483Z" fill="#0E416C"/>
<path fill-rule="evenodd" clip-rule="evenodd" d="M15.7964 3.6425C15.9126 3.70062 15.9597 3.84195 15.9016 3.95818L15.431 4.89935C15.3729 5.01558 15.2316 5.06269 15.1154 5.00458C14.9991 4.94646 14.952 4.80513 15.0101 4.6889L15.4807 3.74773C15.5388 3.6315 15.6802 3.58439 15.7964 3.6425Z" fill="#0E416C"/>
<path fill-rule="evenodd" clip-rule="evenodd" d="M19.8212 3.6425C19.9374 3.58439 20.0788 3.6315 20.1369 3.74773L20.6075 4.6889C20.6656 4.80513 20.6185 4.94646 20.5023 5.00458C20.386 5.06269 20.2447 5.01558 20.1866 4.89935L19.716 3.95818C19.6579 3.84195 19.705 3.70062 19.8212 3.6425Z" fill="#0E416C"/>
<path fill-rule="evenodd" clip-rule="evenodd" d="M17.8088 4.08825C17.9388 4.08825 18.0441 4.19359 18.0441 4.32354V5.26471C18.0441 5.39466 17.9388 5.5 17.8088 5.5C17.6789 5.5 17.5735 5.39466 17.5735 5.26471V4.32354C17.5735 4.19359 17.6789 4.08825 17.8088 4.08825Z" fill="#0E416C"/>
<path d="M14.25 9C14.25 7.20507 12.7949 5.75 11 5.75H5C3.20507 5.75 1.75 7.20507 1.75 9V15.25H11C12.7949 15.25 14.25 13.7949 14.25 12V9Z" stroke="#0E416C" stroke-width="1.5"/>
<path d="M7 15.4845V17.5C7 19.7091 8.79086 21.5 11 21.5H21V14.5C21 12.2909 19.2091 10.5 17 10.5H14.3402" stroke="#0E416C" stroke-width="1.5"/>
</svg>
