<svg width="24" height="24" viewBox="0 0 24 24" fill="none" xmlns="http://www.w3.org/2000/svg">
<path d="M18.9844 13.1562C19.4249 12.6768 20.3017 11.6904 20.4435 11.0338C20.5853 10.3772 20.5964 9.69915 20.4762 9.03828C20.3559 8.37742 20.1067 7.74671 19.7427 7.18216C19.3787 6.61762 18.9071 6.1303 18.3547 5.74803C17.8024 5.36575 17.1802 5.09601 16.5236 4.95421C15.867 4.8124 15.1889 4.80131 14.5281 4.92156C13.8672 5.04181 13.2365 5.38403 12.672 5.74803C12.1074 6.11203 11.404 6.93753 11.0684 7.50085" stroke="#0E416C"/>
<path d="M19.3609 12.9898C21.0559 12.9898 22.5661 14.3971 22.5661 16.092C22.5661 17.787 21.192 19.1611 19.497 19.1611H4.87793" stroke="#0E416C"/>
<path d="M5.36009 11.4488C5.29104 10.71 5.29511 9.49192 5.61614 8.82299C5.93717 8.15405 6.43403 7.58499 7.05356 7.17669C7.6731 6.7684 8.39199 6.53623 9.13331 6.50504C9.87463 6.47384 10.715 6.65154 11.3023 7.07103" stroke="#0E416C"/>
<path d="M4.88398 19.1585C4.14087 19.1585 3.20001 18.751 2.66665 18.1577C2.0845 17.6116 1.73507 16.8028 1.54824 16.0268C1.36141 15.2508 1.40562 14.437 1.67544 13.6858C1.94525 12.9346 2.42888 12.2787 3.06676 11.7989C3.70465 11.319 4.51288 10.9933 5.30946 10.9424" stroke="#0E416C"/>
</svg>
