<svg width="24" height="24" viewBox="0 0 24 24" fill="none" xmlns="http://www.w3.org/2000/svg">
<mask id="path-1-inside-1_12030_136495" fill="white">
<path d="M8 14C8 11.7909 9.79086 10 12 10H18C20.2091 10 22 11.7909 22 14V21H12C9.79086 21 8 19.2091 8 17V14Z"/>
</mask>
<path d="M8 14C8 11.7909 9.79086 10 12 10H18C20.2091 10 22 11.7909 22 14V21H12C9.79086 21 8 19.2091 8 17V14Z" fill="#EBEBEB"/>
<path d="M22 21V22H23V21H22ZM12 11H18V9H12V11ZM21 14V21H23V14H21ZM22 20H12V22H22V20ZM9 17V14H7V17H9ZM12 20C10.3431 20 9 18.6569 9 17H7C7 19.7614 9.23858 22 12 22V20ZM18 11C19.6569 11 21 12.3431 21 14H23C23 11.2386 20.7614 9 18 9V11ZM12 9C9.23858 9 7 11.2386 7 14H9C9 12.3431 10.3431 11 12 11V9Z" fill="#0E416C" mask="url(#path-1-inside-1_12030_136495)"/>
<mask id="path-3-inside-2_12030_136495" fill="white">
<path d="M16 7C16 4.79086 14.2091 3 12 3H6C3.79086 3 2 4.79086 2 7V14H12C14.2091 14 16 12.2091 16 10V7Z"/>
</mask>
<path d="M16 7C16 4.79086 14.2091 3 12 3H6C3.79086 3 2 4.79086 2 7V14H12C14.2091 14 16 12.2091 16 10V7Z" fill="#EBEBEB"/>
<path d="M2 14V15H1V14H2ZM12 4H6V2H12V4ZM3 7V14H1V7H3ZM2 13H12V15H2V13ZM15 10V7H17V10H15ZM12 13C13.6569 13 15 11.6569 15 10H17C17 12.7614 14.7614 15 12 15V13ZM6 4C4.34315 4 3 5.34315 3 7H1C1 4.23858 3.23858 2 6 2V4ZM12 2C14.7614 2 17 4.23858 17 7H15C15 5.34315 13.6569 4 12 4V2Z" fill="#0E416C" mask="url(#path-3-inside-2_12030_136495)"/>
</svg>
