<?xml version="1.0" encoding="UTF-8" standalone="no"?>
<svg width="24px" height="24px" viewBox="0 0 24 24" version="1.1" xmlns="http://www.w3.org/2000/svg" xmlns:xlink="http://www.w3.org/1999/xlink" xmlns:sketch="http://www.bohemiancoding.com/sketch/ns">
    <!-- Generator: Sketch 3.3.2 (12043) - http://www.bohemiancoding.com/sketch -->
    <title>dlg_eyedropper</title>
    <desc>Created with Sketch.</desc>
    <defs></defs>
    <g id="Page-1" stroke="none" stroke-width="1" fill="none" fill-rule="evenodd" sketch:type="MSPage">
        <g id="dlg_eyedropper" sketch:type="MSArtboardGroup">
            <g id="Group" sketch:type="MSLayerGroup" transform="translate(4.000000, 4.000000)">
                <path d="M10.4540416,2.56433977 L12.3738807,0.627626027 C13.203424,-0.209208676 14.5482991,-0.209208676 15.3778425,0.627626027 L15.3778425,0.627626027 C16.2073858,1.46446073 16.2073858,2.82115673 15.3778425,3.65786688 L13.4580034,5.59470517 C12.62846,6.43141533 11.2834615,6.43141533 10.4540416,5.59458063 L10.4540416,5.59458063 C9.62449822,4.75787047 9.62449822,3.40117447 10.4540416,2.56433977 L10.4540416,2.56433977 Z" id="Fill-26082" fill="#33302D" sketch:type="MSShapeGroup"></path>
                <path d="M10.4540416,2.5643408 L12.3738807,0.627599746 C13.203424,-0.209198462 14.5482991,-0.209198462 15.3778425,0.627591027 L15.3778425,0.627591027 C16.2073858,1.46438052 16.2073858,2.82109987 15.3778425,3.65789933 L13.4580034,5.59464287 C12.62846,6.43141742 11.2834615,6.43141742 10.4540416,5.59463042 L10.4540416,5.59463042 C9.62449822,4.75784342 9.62449822,3.40113154 10.4540416,2.5643408 L10.4540416,2.5643408 Z" id="Stroke-26083" stroke="#FFFFFF" stroke-width="1.5" stroke-linecap="round" sketch:type="MSShapeGroup"></path>
                <path d="M11.2982301,3.11583058 L12.920681,1.47919779 C13.3917511,1.00401009 14.1553375,1.00401009 14.6264076,1.47919779 L14.6264076,1.47919779 C15.0974777,1.95438548 15.0974777,2.7247712 14.6264076,3.19983408 L13.0039566,4.83659169 C12.5328866,5.31177938 11.7691764,5.31177938 11.2982301,4.83659169 L11.2982301,4.83659169 C10.82716,4.36140399 10.82716,3.59101827 11.2982301,3.11583058 L11.2982301,3.11583058 Z" id="Fill-26084" fill="#544E47" sketch:type="MSShapeGroup"></path>
                <path d="M11.2982301,3.11588083 L12.920681,1.47917266 C13.3917511,1.00401285 14.1553375,1.00402159 14.6264076,1.47918015 L14.6264076,1.47918015 C15.0974777,1.9543487 15.0974777,2.72473869 14.6264076,3.1998985 L13.0039566,4.83661416 C12.5328866,5.31177397 11.7691764,5.31177397 11.2982301,4.83660168 L11.2982301,4.83660168 C10.82716,4.36144187 10.82716,3.59104064 11.2982301,3.11588083 L11.2982301,3.11588083 Z" id="Stroke-26085" stroke="#FFFFFF" stroke-width="1.5" stroke-linecap="round" sketch:type="MSShapeGroup"></path>
                <path d="M8.38421978,5.98830409 L3.23113612,11.1865305 L0.185507246,15.5073079 L0.627532761,15.9532164 L4.91068445,12.8808329 L10.0637681,7.68260655" id="Fill-26086" fill="#BBBBBB" sketch:type="MSShapeGroup"></path>
                <path d="M8.38421978,5.98830409 L3.23113612,11.1865604 L0.185507246,15.5073731 L0.627532761,15.9532164 L4.91068445,12.8808647 L10.0637681,7.68260842" id="Stroke-26087" stroke="#FFFFFF" stroke-width="1.5" stroke-linecap="round" sketch:type="MSShapeGroup"></path>
                <path d="M8.07580005,4.07644374 L8.07580005,4.07644374 C8.51681944,3.63143883 9.23202604,3.63143883 9.67316882,4.07644374 L11.9590905,6.38237826 C12.4001099,6.82738317 12.4001099,7.54885127 11.9590905,7.9937317 L11.9590905,7.9937317 C11.5179477,8.43873661 10.8027411,8.43873661 10.3615984,7.9937317 L8.07567666,5.68779718 C7.63465727,5.24279227 7.63465727,4.52132417 8.07580005,4.07644374 L8.07580005,4.07644374 Z" id="Fill-26088" fill="#33302D" sketch:type="MSShapeGroup"></path>
                <path d="M8.07580005,4.07640337 L8.07580005,4.07640337 C8.51681944,3.63144191 9.23202604,3.63145436 9.67316882,4.07642827 L11.9590905,6.38240811 C12.4001099,6.82739446 12.4001099,7.54882305 11.9590905,7.99377207 L11.9590905,7.99377207 C11.5179477,8.43873352 10.8027411,8.43872108 10.3615984,7.99374717 L8.07567666,5.68775488 C7.63465727,5.24278097 7.63465727,4.52136483 8.07580005,4.07640337 L8.07580005,4.07640337 Z" id="Stroke-26089" stroke="#FFFFFF" stroke-width="1.5" stroke-linecap="round" sketch:type="MSShapeGroup"></path>
                <path d="M8.38421978,5.98830409 L3.23113612,11.1865604 L0.185507246,15.5073731 L0.627532761,15.9532164 L4.91068445,12.8808647 L10.0637681,7.68260842" id="Stroke-26090" stroke="#FFFFFF" stroke-width="1.5" stroke-linecap="round" sketch:type="MSShapeGroup"></path>
                <path d="M8.89787074,4.90573205 L8.89787074,4.90573205 C9.13670099,4.66495091 9.52368987,4.66495091 9.76239675,4.90573205 L11.1832887,6.33909533 C11.4219956,6.57987647 11.4219956,6.97035255 11.1832887,7.21113369 L11.1832887,7.21113369 C10.9444584,7.45203926 10.5574695,7.45203926 10.3186393,7.21113369 L8.89787074,5.77789484 C8.65916386,5.53711371 8.65916386,5.14663763 8.89787074,4.90573205 L8.89787074,4.90573205 Z" id="Fill-26091" fill="#544E47" sketch:type="MSShapeGroup"></path>
                <path d="M8.89787074,4.90576756 L8.89787074,4.90575512 C9.13670099,4.66493286 9.52368987,4.6649453 9.76239675,4.90578001 L11.1832887,6.33906631 C11.4219956,6.57990101 11.4219956,6.9703708 11.1832887,7.21118061 L11.1832887,7.21119306 C10.9444584,7.45202776 10.5574695,7.45201532 10.3186393,7.21118061 L8.89787074,5.77788187 C8.65916386,5.53704717 8.65916386,5.14660227 8.89787074,4.90576756 L8.89787074,4.90576756 Z" id="Stroke-26092" stroke="#FFFFFF" stroke-width="1.5" stroke-linecap="round" sketch:type="MSShapeGroup"></path>
                <path d="M0.185507246,15.5536009 L3.22593229,11.2280702 L6.44637681,11.3625277 L4.90261092,12.9242366 L0.626777507,16 L0.185507246,15.5536009 L0.185507246,15.5536009 Z" id="Fill-26093" fill="#FFBF00" sketch:type="MSShapeGroup"></path>
                <path d="M0.185507246,15.5536635 L3.22593229,11.2280702 L6.44637681,11.3625152 L4.90261092,12.9242491 L0.626777507,16 L0.185507246,15.5536635 L0.185507246,15.5536635 Z" id="Stroke-26094" stroke="#FFFFFF" stroke-width="1.5" stroke-linecap="round" stroke-linejoin="round" sketch:type="MSShapeGroup"></path>
                <path d="M8.30144928,7.34502924 L3.29275362,12.3976608" id="Fill-26095" fill="#FFBF00" sketch:type="MSShapeGroup"></path>
                <path d="M8.30144928,7.34502924 L3.29275362,12.3976608" id="Stroke-26096" stroke="#FFFFFF" stroke-width="1.5" stroke-linecap="round" stroke-linejoin="round" sketch:type="MSShapeGroup"></path>
                <path d="M8.85797101,4.86549708 L9.87826087,5.94152047" id="Fill-26097" fill="#FFBF00" sketch:type="MSShapeGroup"></path>
                <path d="M8.85797101,4.86549708 L9.87826087,5.94152047" id="Stroke-26098" stroke="#FFFFFF" stroke-width="1.5" stroke-linecap="round" stroke-linejoin="round" sketch:type="MSShapeGroup"></path>
                <path d="M10.4540416,2.56433977 L12.3738807,0.627626027 C13.203424,-0.209208676 14.5482991,-0.209208676 15.3778425,0.627626027 L15.3778425,0.627626027 C16.2073858,1.46446073 16.2073858,2.82115673 15.3778425,3.65786688 L13.4580034,5.59470517 C12.62846,6.43141533 11.2834615,6.43141533 10.4540416,5.59458063 L10.4540416,5.59458063 C9.62449822,4.75787047 9.62449822,3.40117447 10.4540416,2.56433977 L10.4540416,2.56433977 Z" id="Fill-27556" fill="#33302D" sketch:type="MSShapeGroup"></path>
                <path d="M10.4540416,2.5643408 L12.3738807,0.627599746 C13.203424,-0.209198462 14.5482991,-0.209198462 15.3778425,0.627591027 L15.3778425,0.627591027 C16.2073858,1.46438052 16.2073858,2.82109987 15.3778425,3.65789933 L13.4580034,5.59464287 C12.62846,6.43141742 11.2834615,6.43141742 10.4540416,5.59463042 L10.4540416,5.59463042 C9.62449822,4.75784342 9.62449822,3.40113154 10.4540416,2.5643408 L10.4540416,2.5643408 Z" id="Stroke-27557" stroke="#000000" stroke-width="0.5" stroke-linecap="round" sketch:type="MSShapeGroup"></path>
                <path d="M11.2982301,3.11583058 L12.920681,1.47919779 C13.3917511,1.00401009 14.1553375,1.00401009 14.6264076,1.47919779 L14.6264076,1.47919779 C15.0974777,1.95438548 15.0974777,2.7247712 14.6264076,3.19983408 L13.0039566,4.83659169 C12.5328866,5.31177938 11.7691764,5.31177938 11.2982301,4.83659169 L11.2982301,4.83659169 C10.82716,4.36140399 10.82716,3.59101827 11.2982301,3.11583058 L11.2982301,3.11583058 Z" id="Fill-27558" fill="#544E47" sketch:type="MSShapeGroup"></path>
                <path d="M8.38421978,5.98830409 L3.23113612,11.1865305 L0.185507246,15.5073079 L0.627532761,15.9532164 L4.91068445,12.8808329 L10.0637681,7.68260655" id="Fill-27559" fill="#BBBBBB" sketch:type="MSShapeGroup"></path>
                <path d="M8.38421978,5.98830409 L3.23113612,11.1865604 L0.185507246,15.5073731 L0.627532761,15.9532164 L4.91068445,12.8808647 L10.0637681,7.68260842" id="Stroke-27560" stroke="#000000" stroke-width="0.5" stroke-linecap="round" sketch:type="MSShapeGroup"></path>
                <path d="M8.07580005,4.07644374 L8.07580005,4.07644374 C8.51681944,3.63143883 9.23202604,3.63143883 9.67316882,4.07644374 L11.9590905,6.38237826 C12.4001099,6.82738317 12.4001099,7.54885127 11.9590905,7.9937317 L11.9590905,7.9937317 C11.5179477,8.43873661 10.8027411,8.43873661 10.3615984,7.9937317 L8.07567666,5.68779718 C7.63465727,5.24279227 7.63465727,4.52132417 8.07580005,4.07644374 L8.07580005,4.07644374 Z" id="Fill-27561" fill="#33302D" sketch:type="MSShapeGroup"></path>
                <path d="M8.07580005,4.07640337 L8.07580005,4.07640337 C8.51681944,3.63144191 9.23202604,3.63145436 9.67316882,4.07642827 L11.9590905,6.38240811 C12.4001099,6.82739446 12.4001099,7.54882305 11.9590905,7.99377207 L11.9590905,7.99377207 C11.5179477,8.43873352 10.8027411,8.43872108 10.3615984,7.99374717 L8.07567666,5.68775488 C7.63465727,5.24278097 7.63465727,4.52136483 8.07580005,4.07640337 L8.07580005,4.07640337 Z" id="Stroke-27562" stroke="#000000" stroke-width="0.5" stroke-linecap="round" sketch:type="MSShapeGroup"></path>
                <path d="M8.19871253,5.84795322 L3.04562887,11.0462095 L0,15.3670222 L0.442025515,15.8128655 L4.72517721,12.7405138 L9.87826087,7.54225755" id="Stroke-27563" stroke="#000000" stroke-width="0.5" stroke-linecap="round" sketch:type="MSShapeGroup"></path>
                <path d="M8.89787074,4.90573205 L8.89787074,4.90573205 C9.13670099,4.66495091 9.52368987,4.66495091 9.76239675,4.90573205 L11.1832887,6.33909533 C11.4219956,6.57987647 11.4219956,6.97035255 11.1832887,7.21113369 L11.1832887,7.21113369 C10.9444584,7.45203926 10.5574695,7.45203926 10.3186393,7.21113369 L8.89787074,5.77789484 C8.65916386,5.53711371 8.65916386,5.14663763 8.89787074,4.90573205 L8.89787074,4.90573205 Z" id="Fill-27564" fill="#544E47" sketch:type="MSShapeGroup"></path>
                <path d="M0.185507246,15.5536009 L3.22593229,11.2280702 L6.44637681,11.3625277 L4.90261092,12.9242366 L0.626777507,16 L0.185507246,15.5536009 L0.185507246,15.5536009 Z" id="Fill-27565" fill="#FFBF00" sketch:type="MSShapeGroup"></path>
                <path d="M0.185507246,15.5536635 L3.22593229,11.2280702 L6.44637681,11.3625152 L4.90261092,12.9242491 L0.626777507,16 L0.185507246,15.5536635 L0.185507246,15.5536635 Z" id="Stroke-27566" stroke="#000000" stroke-width="0.5" stroke-linecap="round" stroke-linejoin="round" sketch:type="MSShapeGroup"></path>
                <path d="M8.30144928,7.34502924 L3.29275362,12.3976608" id="Fill-27567" fill="#FFBF00" sketch:type="MSShapeGroup"></path>
                <path d="M8.30144928,7.34502924 L3.29275362,12.3976608" id="Stroke-27568" stroke="#FFFFFF" stroke-width="0.5" stroke-linecap="round" stroke-linejoin="round" sketch:type="MSShapeGroup"></path>
                <path d="M8.85797101,4.86549708 L9.87826087,5.94152047" id="Fill-27569" fill="#FFBF00" sketch:type="MSShapeGroup"></path>
                <path d="M8.85797101,4.86549708 L9.87826087,5.94152047" id="Stroke-27570" stroke="#939393" stroke-width="0.5" stroke-linecap="round" stroke-linejoin="round" sketch:type="MSShapeGroup"></path>
                <path d="M11.6869565,3.60233918 L13.1710145,2.10526316" id="Stroke-29175" stroke="#939393" stroke-width="0.75" stroke-linecap="round" stroke-linejoin="round" sketch:type="MSShapeGroup"></path>
            </g>
        </g>
    </g>
</svg>