<svg width="24" height="24" viewBox="0 0 24 24" fill="none" xmlns="http://www.w3.org/2000/svg">
<line x1="18.3469" y1="2.25843" x2="6.97193" y2="21.9605" stroke="#009AD9" stroke-width="1.25" stroke-linecap="round"/>
<path fill-rule="evenodd" clip-rule="evenodd" d="M11.1342 6.48604C12.1425 5.27332 14.0169 4.41858 15.7187 4.41858L15.1093 5.35608C13.5922 5.35608 12.5064 6.2503 11.6904 7.40234L11.4331 7.7657L11.0424 7.55201C10.545 7.27987 9.97406 7.12497 9.36548 7.12497C7.43248 7.12497 5.86548 8.69197 5.86548 10.625C5.86548 10.739 5.87092 10.8516 5.88152 10.9626L5.93025 11.4726L5.41928 11.5089C3.60444 11.6381 2.17188 13.1519 2.17188 15C2.17188 16.933 3.73888 18.5 5.67188 18.5L7.59369 18.5L6.98431 19.5L5.67188 19.5C3.18659 19.5 1.17188 17.4853 1.17188 15C1.17188 12.7898 2.76497 10.9521 4.86578 10.572C4.89415 8.11114 6.89787 6.12497 9.36548 6.12497C9.9927 6.12497 10.5909 6.25357 11.1342 6.48604ZM18.0586 5.20344C19.7328 6.14528 20.8655 7.94002 20.8655 9.99997C20.8655 10.9445 20.627 11.8342 20.2071 12.6113C21.7147 13.0013 22.8281 14.3706 22.8281 16C22.8281 17.93 21.2659 19.4951 19.337 19.5L19.3287 19.5H19.3274L19.3204 19.5L9.82806 19.5L10.3906 18.5L19.3204 18.5L19.3274 18.5H19.3287L19.3345 18.5M19.3345 18.5C20.7119 18.4962 21.8281 17.3783 21.8281 16C21.8281 14.6298 20.7257 13.517 19.3595 13.5002L18.3738 13.4881L18.9659 12.6999C19.5309 11.9478 19.8655 11.0137 19.8655 9.99997C19.8655 8.31574 18.9404 6.84691 17.5683 6.07499L18.0586 5.20344" fill="#0E416C"/>
</svg>
