<svg width="24" height="24" viewBox="0 0 24 24" fill="none" xmlns="http://www.w3.org/2000/svg">
<g clip-path="url(#clip0_9252_41880)">
<path d="M18.8994 17.9993C19.2958 17.8888 19.7183 17.9192 20.0948 18.0852C20.4713 18.2512 20.7786 18.5426 20.9643 18.9098C21.15 19.277 21.2027 19.6973 21.1133 20.0989C21.0239 20.5006 20.798 20.8589 20.4741 21.1127C20.1502 21.3664 19.7483 21.5001 19.3369 21.4908C18.9255 21.4815 18.5301 21.3298 18.218 21.0616C17.9059 20.7935 17.6964 20.4254 17.6253 20.0201C17.5542 19.6148 17.6258 19.1974 17.8279 18.8389L18.1988 19.0481C18.0451 19.3207 17.9906 19.6382 18.0447 19.9465C18.0988 20.2547 18.2581 20.5347 18.4955 20.7387C18.7329 20.9426 19.0337 21.058 19.3466 21.0651C19.6595 21.0721 19.9651 20.9705 20.2115 20.7775C20.4579 20.5844 20.6297 20.312 20.6977 20.0065C20.7656 19.7009 20.7256 19.3813 20.5843 19.102C20.4431 18.8227 20.2093 18.6011 19.923 18.4748C19.6366 18.3485 19.3153 18.3254 19.0138 18.4095L18.8994 17.9993Z" fill="#0E416C"/>
<path d="M10.7507 12.5763C10.2444 13.4034 9.9917 14.363 10.0271 15.3356C10.0653 16.3867 10.438 17.3982 11.0908 18.2229C11.7437 19.0476 12.6427 19.6424 13.657 19.9208C14.6713 20.1992 15.748 20.1467 16.7304 19.7708C17.7128 19.395 18.5496 18.7154 19.1191 17.8311C19.6885 16.9467 19.9609 15.9037 19.8966 14.8539C19.8323 13.804 19.4346 12.8021 18.7614 11.9939C18.0889 11.1863 17.1763 10.6143 16.1565 10.3609L2.05814 7.02981L1.7987 7.99807L10.415 11.5366C10.8385 11.7106 10.9725 12.2141 10.7507 12.5763Z" stroke="#0E416C"/>
<circle cx="3.50468" cy="3.50468" r="3.10468" transform="matrix(-0.965926 -0.258819 -0.258819 0.965926 19.2556 12.6779)" stroke="#0E416C" stroke-width="0.8"/>
</g>
<defs>
<clipPath id="clip0_9252_41880">
<rect width="24" height="24" fill="white"/>
</clipPath>
</defs>
</svg>
