<svg width="24" height="24" viewBox="0 0 24 24" fill="none" xmlns="http://www.w3.org/2000/svg">
<path d="M14.1647 13.3061V11.5465L12.7101 12.4126L12.71 14.1523L14.1647 13.3061Z" fill="#252A2E"/>
<path d="M9.80078 13.3061V11.5465L11.2553 12.4126L11.2555 14.1523L9.80078 13.3061Z" fill="#252A2E"/>
<path fill-rule="evenodd" clip-rule="evenodd" d="M17.0888 8.99999L17.1163 14.0035C17.1163 14.0119 17.1163 14.0204 17.1163 14.029C17.1167 14.4757 17.1173 15.0564 15.9387 15.75L12.0199 18.1229C12.0199 18.1229 8.70941 16.2382 7.81755 15.6191C6.92569 15 6.88867 14.3662 6.88867 14.0035V8.99999L10.9273 6.56752C11.2383 6.39243 11.6969 6.30243 11.9825 6.30243C12.2681 6.30243 12.7077 6.37606 13.0187 6.55115L17.0888 8.99999ZM11.9688 16.3386L15.6286 14.1523V9.84302L11.9571 7.8785L8.35592 9.84302V14.1523L11.9688 16.3386Z" fill="#252A2E"/>
<path d="M10.4639 10.3178L11.982 11.2265L13.4367 10.2748L11.982 9.40912L10.4639 10.3178Z" fill="#252A2E"/>
<path d="M5.43705 13.6661L5.43697 8.93652L3.98242 8.18652C3.98242 8.18652 3.98265 14.1106 3.98265 14.5136C3.98265 14.9165 4.0651 15.5796 4.7194 16.5603C5.37369 17.5411 6.31937 18.1645 6.31937 18.1645L11.2552 21L11.2841 19.3832L7.6387 17.186C6.86992 16.7207 6.25765 16.1941 5.91224 15.5842C5.50692 14.8686 5.43705 14.0743 5.43705 13.6661Z" fill="#252A2E"/>
<path d="M18.557 13.6661L18.5571 8.93652L20.0116 8.18652C20.0116 8.18652 20.0114 14.1106 20.0114 14.5136C20.0114 14.9165 19.929 15.5796 19.2747 16.5603C18.6204 17.5411 17.6747 18.1645 17.6747 18.1645L12.7389 21L12.71 19.3832L16.3554 17.186C17.1241 16.7207 17.7364 16.1941 18.0818 15.5842C18.4872 14.8686 18.557 14.0743 18.557 13.6661Z" fill="#252A2E"/>
<path d="M10.4561 5.1489C10.956 4.84944 11.5272 4.74144 12.0048 4.72508C12.4825 4.74144 13.0108 4.85435 13.5091 5.15217L17.8001 7.6767L19.2546 6.8112L14.0695 3.72852C14.0695 3.72852 13.1937 3.25562 11.9544 3.25562C10.7151 3.25562 9.79634 3.74652 9.79634 3.74652L4.71875 6.8112L6.17344 7.68815L10.4561 5.1489Z" fill="#252A2E"/>
</svg>
