<svg xmlns="http://www.w3.org/2000/svg" width="24" height="24" viewBox="0 0 24 24">
  <g fill="none" fill-rule="evenodd">
    <rect width="5" height="5" x="6" y="6" fill="#AEAEB6"/>
    <rect width="5" height="5" x="6" y="12" fill="#AEAEB6"/>
    <rect width="5" height="5" x="12" y="12" fill="#AEAEB6"/>
    <rect width="5" height="5" x="12" y="6" fill="#AEAEB6"/>
    <g transform="translate(15 10)">
      <path fill="#FFFFFF" fill-rule="nonzero" d="M2.58220332,5.7821221 L2.03768162,5.78392959 L2.03732393,9.43999867 L6.03731413,9.46638593 L6.03350463,5.77066576 L5.44505398,5.77261908 L5.42533098,3.21249922 L6.42530131,3.20479551 L5.43716429,3.35837033 L5.40354109,3.14203066 L6.39167811,2.98845584 L5.43653872,3.28461244 C5.43308882,3.27348612 5.42944983,3.26219331 5.42562567,3.25075039 C5.42258418,3.24164941 5.41942555,3.23245348 5.41615178,3.22317082 C5.36936794,3.09051728 5.29906735,2.94015358 5.21101058,2.79610964 C5.10714477,2.62620517 5.00565439,2.51414116 4.90098766,2.44435052 C4.51092437,2.18426055 4.36269448,2.13344956 4.04508063,2.13344956 C3.70188502,2.13344956 3.5616029,2.17850231 3.12136348,2.44929173 C3.00042584,2.52367996 2.89338228,2.63278444 2.79690586,2.78386553 C2.70116564,2.93379375 2.63452415,3.08773916 2.59861327,3.22128811 C2.59152982,3.24885654 2.5895364,3.25723299 2.58767105,3.26551359 L1.61211735,3.04575241 L2.6057355,3.15854858 L2.58740838,3.31999162 L1.59379023,3.20719545 L2.59378009,3.21169924 L2.58220332,5.7821221 Z M0.593800373,3.20269165 L0.600172083,3.09439928 L0.618499201,2.93295623 L0.636563649,2.82599122 C0.718943494,2.46029442 0.878001878,2.07276347 1.11127237,1.70746425 C1.36422627,1.311341 1.6841475,0.985260307 2.07352552,0.745755526 C2.81115771,0.292041065 3.30496889,0.133449559 4.04508063,0.133449559 C4.78549147,0.133449559 5.31001382,0.313247994 6.01052914,0.780343997 C6.37580374,1.02390514 6.67098953,1.34984446 6.91741649,1.75295152 C7.10764433,2.06412766 7.25337297,2.39092977 7.34681751,2.69229924 L7.37981514,2.83488102 L7.41343833,3.05122069 L7.42527164,3.19709181 L7.42965463,3.76602032 L8.03143727,3.76402275 L8.03939042,11.4796368 L0.037129536,11.4268473 L0.0378766262,3.79055678 L0.591160995,3.78872019 L0.593800373,3.20269165 Z M2.08219077,5.78378185 L2.09406427,3.14747625 L2.14569758,2.99427329 C2.1987497,2.8368605 2.27695627,2.66907976 2.37549749,2.51476521 C2.50356021,2.3142203 2.66108165,2.14539492 2.85940399,2.02340768 C3.36416081,1.71293388 3.58360029,1.63344956 4.04508063,1.63344956 C4.48799432,1.63344956 4.72349029,1.72503802 5.17837303,2.02834889 C5.36639561,2.1537203 5.50995103,2.32649126 5.63761206,2.53532011 C5.72368549,2.67611968 5.79791008,2.82757068 5.85537147,2.97188131 L5.92483612,3.14633736 L5.94505603,5.77095936 L2.08219077,5.78378185 Z M4.06883156,3.69235541 C4.04169014,3.67425781 4.02278872,3.66067942 4.01016654,3.65059465 C4.01791501,3.64337352 4.02484049,3.63639581 4.03103468,3.62968003 L3.95061459,3.6025764 C3.96862866,3.62074407 4.00181689,3.64767076 4.06883156,3.69235541 Z M4.08670965,4.78494567 L4.09331586,3.31815205 L3.093326,3.31364826 L3.94401222,3.60035123 C3.96370696,3.63537348 3.98297627,3.6758882 3.99725327,3.71174397 L4.92631237,3.34181264 L3.92634204,3.34951635 L3.93737782,4.78200257 L4.93402874,3.77430437 L3.08340039,3.78044739 L4.08670965,4.78494567 Z"/>
      <path fill="#000000" d="M1.58668216,4.78542114 L1.59379023,3.20719545 L1.61211735,3.04575241 C1.66116468,2.82802374 1.76519218,2.54147558 1.95408912,2.24566489 C2.12185332,1.98294785 2.33288354,1.76025396 2.5974445,1.59752363 C3.184941,1.236157 3.50210964,1.13344956 4.04508063,1.13344956 C4.58089255,1.13344956 4.91766281,1.25355097 5.4557584,1.61234726 C5.70177502,1.77638847 5.89815523,2.00289116 6.06421353,2.27453058 C6.227144,2.54105347 6.3326481,2.79807722 6.39167811,2.98845584 L6.42530131,3.20479551 L6.4373543,4.7693197 L7.03247095,4.76734425 L7.03835227,10.4730114 L1.03722673,10.433423 L1.03777912,4.78724319 L1.58668216,4.78542114 Z M3.0867198,4.78044188 L4.93734815,4.77429886 L4.92631237,3.34181264 C4.8938148,3.26019706 4.84513075,3.1562281 4.7844091,3.05689918 C4.72242272,2.95550139 4.66229761,2.88615377 4.62360229,2.86035215 C4.31487293,2.65449476 4.25586114,2.63344956 4.04508063,2.63344956 C3.80132235,2.63344956 3.74850727,2.65055245 3.38332297,2.87517578 C3.32916598,2.90848752 3.27215944,2.96864482 3.21831424,3.05296585 C3.15907185,3.14573883 3.11693299,3.24360313 3.093326,3.31364826 L3.0867198,4.78044188 Z M3.51495297,5.89506011 L3.51388069,8.32979167 L4.54736869,8.335118 L4.53765314,5.906012 L3.51495297,5.89506011 Z"/>
    </g>
  </g>
</svg>
