<svg width="24" height="25" viewBox="0 0 24 25" fill="none" xmlns="http://www.w3.org/2000/svg">
<path d="M12 22.5C17.5228 22.5 22 18.0228 22 12.5C22 6.97715 17.5228 2.5 12 2.5C6.47715 2.5 2 6.97715 2 12.5C2 18.0228 6.47715 22.5 12 22.5Z" stroke="#0E416C" stroke-linecap="round" stroke-linejoin="round"/>
<path d="M12.5 6.5H11.5C11.2239 6.5 11 6.72386 11 7V8C11 8.27614 11.2239 8.5 11.5 8.5H12.5C12.7761 8.5 13 8.27614 13 8V7C13 6.72386 12.7761 6.5 12.5 6.5Z" fill="#0E416C"/>
<path d="M12.5 9.5H11.5C11.2239 9.5 11 9.72386 11 10V18C11 18.2761 11.2239 18.5 11.5 18.5H12.5C12.7761 18.5 13 18.2761 13 18V10C13 9.72386 12.7761 9.5 12.5 9.5Z" fill="#0E416C"/>
</svg>
