<?xml version="1.0" encoding="UTF-8" standalone="no"?>
<svg width="24px" height="24px" viewBox="0 0 24 24" version="1.1" xmlns="http://www.w3.org/2000/svg" xmlns:xlink="http://www.w3.org/1999/xlink" xmlns:sketch="http://www.bohemiancoding.com/sketch/ns">
    <!-- Generator: Sketch 3.3.2 (12043) - http://www.bohemiancoding.com/sketch -->
    <title>dlg_unknown_style</title>
    <desc>Created with Sketch.</desc>
    <defs>
        <linearGradient x1="0%" y1="50%" x2="100%" y2="50%" id="linearGradient-1">
            <stop stop-color="#171597" offset="0%"></stop>
            <stop stop-color="#4F4DC9" offset="68.9178467%"></stop>
            <stop stop-color="#171597" offset="100%"></stop>
        </linearGradient>
    </defs>
    <g id="Page-1" stroke="none" stroke-width="1" fill="none" fill-rule="evenodd" sketch:type="MSPage">
        <g id="dlg_unknown_style" sketch:type="MSArtboardGroup">
            <g id="Group" sketch:type="MSLayerGroup" transform="translate(2.000000, 2.000000)">
                <path d="M0.137726426,6.96003846 L0.137726426,15.5458652 L5.42541599,17.9179689 L5.72175086,8.92023125 L0.137726426,6.96003846 Z" id="Path-2656" stroke="#000000" stroke-width="0.75" fill="#CFCFA4" sketch:type="MSShapeGroup"></path>
                <path d="M0.137726426,6.96003846 L0.137726426,15.5458652 L5.60672247,17.9281571 L5.77302039,8.61513224 L0.137726426,6.96003846 Z" id="Path-2656-Copy" fill="#CFCFA4" sketch:type="MSShapeGroup"></path>
                <path d="M6.08151568,8.53965196 L6.08151568,17.3706532 L13.1747177,7.63573119 L13.4013672,2.4950839 L6.08151568,8.53965196 Z" id="Path-2657" stroke="#000000" stroke-width="0.75" fill="#D5D5AB" sketch:type="MSShapeGroup"></path>
                <path d="M6.10375451,8.49867972 L5.96550137,17.6186763 L13.1747177,7.63573119 L13.4013672,2.4950839 L6.10375451,8.49867972 Z" id="Path-2657-Copy" fill="#D5D5AB" sketch:type="MSShapeGroup"></path>
                <path d="M17.9900864,16.7747362 C17.9965855,16.7403712 18,16.7049163 18,16.6686704 L18,7.75130396 C18,7.4304032 17.7648352,7.11702761 17.4747448,7.03710439 C17.4747448,7.03710439 16.6391471,6.70807158 14.426111,6.70807158 C12.2130749,6.70807158 10.8151607,7.06713735 10.8151607,7.06713735 C10.5160805,7.12747342 10.2727273,7.43678565 10.2727273,7.75130396 L10.2727273,16.6686704 C10.2727273,16.7055502 10.2760135,16.7414748 10.2822965,16.7761766 C10.2759526,16.802952 10.2727273,16.8299818 10.2727273,16.8572343 C10.2727273,17.4883664 12.0025362,18 14.1363636,18 C16.2701911,18 18,17.4883664 18,16.8572343 C18,16.829493 17.996658,16.8019825 17.9900864,16.7747362 Z" id="Rectangle-252" stroke="#000000" stroke-width="0.75" fill="url(#linearGradient-1)" sketch:type="MSShapeGroup"></path>
                <path d="M14.1363636,8.85384345 C16.2701911,8.85384345 18.074044,7.94167886 18.074044,7.51491337 C18.074044,7.08814789 16.2701911,6.21870806 14.1363636,6.21870806 C12.0025362,6.21870806 10.289034,7.23936302 10.289034,7.66612851 C10.289034,8.092894 12.0025362,8.85384345 14.1363636,8.85384345 Z" id="Oval-96" stroke="#000000" stroke-width="0.5" fill="#171597" sketch:type="MSShapeGroup"></path>
                <path d="M6.01244562,8.37392356 L0.539997014,6.39387976 L7.99623801,1.05876576 L12.9941573,1.91223699 L6.01244562,8.37392356 Z" id="Path-2655" stroke="#000000" stroke-width="0.75" fill="#8E8F6F" sketch:type="MSShapeGroup"></path>
                <path d="M0.136302257,6.59972569 L5.87468364,8.32011172 L13.5286705,1.91982433 L7.95571112,0.9300327 L0.136302257,6.59972569 Z" id="Path-2658" fill="#ADAD88" sketch:type="MSShapeGroup"></path>
            </g>
            <path d="M7.75390631,20.4796007 L1.75509983,17.8106554 L1.75509983,8.46462658 L9.89887196,2.6685113 L15.8338762,3.68912759 L15.5959201,7.97580281 C15.5959201,7.97580281 17.3839107,7.91977253 18.3690792,8.19219961 C19.3542476,8.4646267 19.9434467,8.81005151 20.1575313,9.08685293 C20.3716159,9.36365436 20.3741451,9.6951293 20.3741451,9.6951293 L20.3741451,19.1903085 C20.3741451,19.1903085 19.9522834,19.6266698 19.6486812,19.8128671 C19.345079,19.9990644 17.5184661,20.4017334 15.9772335,20.4017343 C14.4360008,20.4017351 12.8547969,19.9001473 12.4835811,19.7188729 C12.1123653,19.5375985 11.8343495,19.2260003 11.8343502,18.9553842 C11.8343508,18.6847681 11.8343502,14.9176024 11.8343502,14.9176024 L7.75390631,20.4796007 Z" id="Path-7654" fill-opacity="0.599999964" fill="#FFFFFF" sketch:type="MSShapeGroup"></path>
            <path d="M9.94512195,15.4719562 L9.94512195,18 L12.8170732,18 L12.8170732,15.4719562 L9.94512195,15.4719562 Z M7,10.0547196 L9.68902439,10.0547196 C9.68902439,9.75923245 9.72560939,9.48290142 9.79878049,9.22571819 C9.87195159,8.96853497 9.98475534,8.744187 10.1371951,8.55266758 C10.2896349,8.36114815 10.4847549,8.20793491 10.722561,8.09302326 C10.960367,7.9781116 11.2439008,7.92065663 11.5731707,7.92065663 C12.060978,7.92065663 12.4420718,8.04103847 12.7164634,8.28180575 C12.990855,8.52257302 13.1280488,8.89466233 13.1280488,9.39808482 C13.140244,9.69357193 13.0823177,9.9398075 12.9542683,10.1367989 C12.8262189,10.3337903 12.6585376,10.5143631 12.4512195,10.6785226 C12.2439014,10.8426821 12.0182939,11.0068391 11.7743902,11.1709986 C11.5304866,11.3351581 11.2987816,11.5294106 11.0792683,11.753762 C10.859755,11.9781133 10.6676838,12.2489724 10.5030488,12.5663475 C10.3384138,12.8837225 10.2378051,13.2776994 10.2012195,13.74829 L10.2012195,14.4870041 L12.6707317,14.4870041 L12.6707317,13.8632011 C12.7195124,13.5348821 12.8384137,13.261287 13.027439,13.0424077 C13.2164644,12.8235283 13.4329256,12.6292758 13.6768293,12.4596443 C13.9207329,12.2900128 14.1798767,12.1203839 14.4542683,11.9507524 C14.7286599,11.7811209 14.9786574,11.5759246 15.2042683,11.3351573 C15.4298792,11.09439 15.6189017,10.8043793 15.7713415,10.4651163 C15.9237812,10.1258533 16,9.69357308 16,9.16826265 C16,8.85088761 15.9237812,8.50889376 15.7713415,8.14227086 C15.6189017,7.77564796 15.3658554,7.43365412 15.0121951,7.11627907 C14.6585348,6.79890402 14.1920761,6.5335168 13.6128049,6.32010944 C13.0335337,6.10670208 12.3109799,6 11.445122,6 C10.7743869,6 10.1676856,6.10123018 9.625,6.30369357 C9.08231436,6.50615696 8.61890436,6.78795989 8.2347561,7.14911081 C7.85060784,7.51026172 7.55183034,7.93707004 7.33841463,8.42954856 C7.12499893,8.92202709 7.01219518,9.46374534 7,10.0547196 L7,10.0547196 Z" id="?" stroke="#FFFFFF" stroke-width="0.6336" fill="#000000" sketch:type="MSShapeGroup"></path>
        </g>
    </g>
</svg>