<svg width="13" height="13" viewBox="0 0 13 13" fill="none" xmlns="http://www.w3.org/2000/svg">
<circle cx="6.5" cy="6" r="6" fill="#E0E1E9"/>
<path fill-rule="evenodd" clip-rule="evenodd" d="M9.5263 3.37844C9.60947 3.26134 9.60361 3.10361 9.50525 3.00525C9.3946 2.8946 9.2088 2.90101 9.09025 3.01956L6.5 5.60981L3.89544 3.00525L3.8562 2.97247C3.74578 2.89597 3.5931 2.9069 3.49475 3.00525C3.3841 3.1159 3.3841 3.2953 3.49475 3.40595L6.09931 6.01051L3.50916 8.60066L3.4738 8.64247C3.39063 8.75957 3.39649 8.91731 3.49485 9.01566C3.60549 9.12631 3.7913 9.1199 3.90985 9.00135L6.5 6.4112L9.10446 9.01566L9.1437 9.04845C9.25413 9.12494 9.4068 9.11401 9.50515 9.01566C9.6158 8.90501 9.6158 8.72562 9.50515 8.61497L6.90069 6.01051L9.49094 3.42026L9.5263 3.37844Z" fill="white"/>
</svg>
