<svg width="24" height="24" viewBox="0 0 24 24" fill="none" xmlns="http://www.w3.org/2000/svg">
<path d="M19.3657 13.0002L18.9659 12.6999L18.3738 13.4881L19.3595 13.5002L19.3657 13.0002ZM19.3358 19L19.3364 19.5L19.337 19.5L19.3358 19ZM19.3281 19L19.3274 19.5L19.3287 19.5L19.3281 19ZM19.3204 19L19.321 18.5H19.3204V19ZM5.38379 11.0102L5.41928 11.509L5.93025 11.4726L5.88152 10.9627L5.38379 11.0102ZM11.2824 7.11339L11.0424 7.55204L11.4331 7.76573L11.6904 7.40237L11.2824 7.11339ZM19.7654 13.3006C20.456 12.3812 20.8655 11.2377 20.8655 10H19.8655C19.8655 11.0137 19.5309 11.9478 18.9659 12.6999L19.7654 13.3006ZM22.8281 16C22.8281 14.0816 21.2847 12.5238 19.3718 12.5003L19.3595 13.5002C20.7257 13.517 21.8281 14.6298 21.8281 16H22.8281ZM19.337 19.5C21.2659 19.4951 22.8281 17.93 22.8281 16H21.8281C21.8281 17.3786 20.7122 18.4965 19.3345 18.5L19.337 19.5ZM19.3287 19.5L19.3364 19.5L19.3351 18.5L19.3274 18.5L19.3287 19.5ZM19.3198 19.5L19.3274 19.5L19.3287 18.5L19.321 18.5L19.3198 19.5ZM5.67188 19.5H19.3204V18.5H5.67188V19.5ZM5.67188 18.5C3.73888 18.5 2.17188 16.933 2.17188 15H1.17188C1.17188 17.4853 3.18659 19.5 5.67188 19.5V18.5ZM2.17188 15C2.17188 13.152 3.60444 11.6381 5.41928 11.509L5.34829 10.5115C3.0138 10.6776 1.17188 12.6235 1.17188 15H2.17188ZM4.86548 10.625C4.86548 10.7708 4.87243 10.9152 4.88606 11.0578L5.88152 10.9627C5.87092 10.8517 5.86548 10.739 5.86548 10.625H4.86548ZM9.36548 6.125C6.8802 6.125 4.86548 8.13972 4.86548 10.625H5.86548C5.86548 8.692 7.43248 7.125 9.36548 7.125V6.125ZM11.5224 6.67473C10.8814 6.32412 10.146 6.125 9.36548 6.125V7.125C9.97406 7.125 10.545 7.2799 11.0424 7.55204L11.5224 6.67473ZM15.3655 4.5C13.5103 4.5 11.8697 5.41902 10.8744 6.8244L11.6904 7.40237C12.5064 6.25033 13.8483 5.5 15.3655 5.5V4.5ZM20.8655 10C20.8655 6.96243 18.403 4.5 15.3655 4.5V5.5C17.8508 5.5 19.8655 7.51472 19.8655 10H20.8655Z" fill="#0E416C"/>
<circle cx="12.8007" cy="17.8007" r="5.80072" fill="white"/>
<path d="M13.2422 18.5156H11.8594L11.4844 10.5781H13.6172L13.2422 18.5156ZM11.3906 21.0312C11.3906 20.6042 11.5 20.3047 11.7188 20.1328C11.9427 19.9557 12.2161 19.8672 12.5391 19.8672C12.8568 19.8672 13.1276 19.9557 13.3516 20.1328C13.5755 20.3047 13.6875 20.6042 13.6875 21.0312C13.6875 21.4479 13.5755 21.75 13.3516 21.9375C13.1276 22.1198 12.8568 22.2109 12.5391 22.2109C12.2161 22.2109 11.9427 22.1198 11.7188 21.9375C11.5 21.75 11.3906 21.4479 11.3906 21.0312Z" fill="#FF0404"/>
</svg>
