<svg width="24" height="24" viewBox="0 0 24 24" fill="none" xmlns="http://www.w3.org/2000/svg">
<path fill-rule="evenodd" clip-rule="evenodd" d="M5.76667 16.4062C5.2625 16.4062 4.8309 16.2265 4.47188 15.8669C4.11285 15.5074 3.93333 15.0752 3.93333 14.5703V6.49219C3.93333 5.9873 4.11285 5.5551 4.47188 5.19556C4.8309 4.83602 5.2625 4.65625 5.76667 4.65625H18.2333C18.7375 4.65625 19.1691 4.83602 19.5281 5.19556C19.8872 5.5551 20.0667 5.9873 20.0667 6.49219V14.5703C20.0667 15.0752 19.8872 15.5074 19.5281 15.8669C19.1691 16.2265 18.7375 16.4062 18.2333 16.4062H5.76667ZM5.4 6.49219V14.5703C5.4 14.6698 5.43628 14.7558 5.50885 14.8285C5.58142 14.9012 5.66736 14.9375 5.76667 14.9375H18.2333C18.3326 14.9375 18.4186 14.9012 18.4911 14.8285C18.5637 14.7558 18.6 14.6698 18.6 14.5703V6.49219C18.6 6.39274 18.5637 6.30668 18.4911 6.23401C18.4186 6.16134 18.3326 6.125 18.2333 6.125H5.76667C5.66736 6.125 5.58142 6.16134 5.50885 6.23401C5.43628 6.30668 5.4 6.39274 5.4 6.49219ZM21.1667 17.1406H23V18.2422C23 18.5482 22.8205 18.8083 22.4615 19.0224C22.1024 19.2366 21.6708 19.3437 21.1667 19.3437H2.83333C2.32916 19.3437 1.89757 19.2366 1.53854 19.0224C1.17951 18.8083 1 18.5482 1 18.2422V17.1406H2.83333H21.1667ZM12.9167 18.2422C13.0389 18.2422 13.1 18.181 13.1 18.0586C13.1 17.9362 13.0389 17.875 12.9167 17.875H11.0833C10.9611 17.875 10.9 17.9362 10.9 18.0586C10.9 18.181 10.9611 18.2422 11.0833 18.2422H12.9167Z" fill="#252A2E"/>
</svg>
