<?xml version="1.0" encoding="UTF-8" standalone="no"?>
<svg width="512px" height="512px" viewBox="0 0 512 512" version="1.1" xmlns="http://www.w3.org/2000/svg" xmlns:xlink="http://www.w3.org/1999/xlink" xmlns:sketch="http://www.bohemiancoding.com/sketch/ns">
    <!-- Generator: Sketch 3.3.1 (12002) - http://www.bohemiancoding.com/sketch -->
    <title>SOIGridStyleAbove</title>
    <desc>Created with Sketch.</desc>
    <defs></defs>
    <g id="Page-1" stroke="none" stroke-width="1" fill="none" fill-rule="evenodd" sketch:type="MSPage">
        <g id="SOIGridStyleAbove" sketch:type="MSArtboardGroup">
            <path d="M64,64 L448,64 L448,448 L64,448 L64,64 L64,64 Z" id="Stroke-635" stroke-opacity="0.498" stroke="#3094FF" stroke-width="2.66666667" stroke-dasharray="12,6" sketch:type="MSShapeGroup"></path>
            <path d="M0,0 L512,0 L512,512 L0,512 L0,0 L0,0 Z" id="Stroke-637" stroke-opacity="0.498" stroke="#3094FF" stroke-width="2.66666667" stroke-dasharray="12,6" sketch:type="MSShapeGroup"></path>
            <path d="M255.378906,69.7792969 L433.078125,126.845703 L406.388672,325.509766 L262.808594,438.806641 L104.013672,325.751953 L78.0664062,131.578125 L255.378906,69.7792969 Z" id="Path-2520" stroke="#000000" stroke-width="15" sketch:type="MSShapeGroup"></path>
            <path d="M152.408203,106.330078 L326.03125,193.179688 L317.357422,395.861328" id="Path-2524" stroke="#000000" stroke-width="15" sketch:type="MSShapeGroup"></path>
            <path d="M212.103516,84.9414062 L382.761719,157.722656 L367.5625,355.386719" id="Path-2525" stroke="#000000" stroke-width="15" sketch:type="MSShapeGroup"></path>
            <path d="M365.597656,104.552734 L196.681641,194.238281 L199.458984,392.257812" id="Path-2526" stroke="#000000" stroke-width="15" sketch:type="MSShapeGroup"></path>
            <path d="M151.011719,359.121094 L135.556641,162.535156 L309.919922,86.7714844" id="Path-2527" stroke="#000000" stroke-width="15" sketch:type="MSShapeGroup"></path>
            <path d="M87.8515625,198.050781 L263.287109,304.201172 L424.216797,197.472656" id="Path-2528" stroke="#000000" stroke-width="15" sketch:type="MSShapeGroup"></path>
            <path d="M96.6347656,265.289062 L262.960938,372.371094 L415.320312,262.013672" id="Path-2529" stroke="#000000" stroke-width="15" sketch:type="MSShapeGroup"></path>
            <path d="M78.2910156,132.103516 L262.533203,229.996094" id="green" stroke="#27A827" stroke-width="15" sketch:type="MSShapeGroup"></path>
            <path d="M262.533203,230.496094 L433.060547,127.638672" id="red" stroke="#AA4040" stroke-width="15" sketch:type="MSShapeGroup"></path>
            <path d="M263.273438,230.203125 L262.662109,438.763672" id="blue" stroke="#3434B6" stroke-width="15" sketch:type="MSShapeGroup"></path>
            <circle id="Oval-78" fill="#3434B6" sketch:type="MSShapeGroup" cx="263" cy="228" r="10"></circle>
            <circle id="Oval-78-Copy-3" fill="#3434B6" sketch:type="MSShapeGroup" cx="263" cy="439" r="10"></circle>
            <circle id="Oval-78-Copy" fill="#AA4040" sketch:type="MSShapeGroup" cx="433" cy="128" r="10"></circle>
            <circle id="Oval-78-Copy-2" fill="#27A827" sketch:type="MSShapeGroup" cx="78" cy="132" r="10"></circle>
        </g>
    </g>
</svg>