<svg width="28" height="28" viewBox="0 0 28 28" fill="none" xmlns="http://www.w3.org/2000/svg">
<circle cx="14" cy="14" r="4.5" fill="#FEC157" stroke="#FBAD26"/>
<path d="M14.9646 7.31837L15.25 7.35919V7.07089V4C15.25 3.69239 15.132 2.91835 14.9487 2.22869C14.8566 1.88203 14.7437 1.5396 14.6126 1.27884C14.5475 1.14929 14.4716 1.02686 14.3821 0.933384C14.2946 0.841937 14.1662 0.75 14 0.75C13.8338 0.75 13.7054 0.841937 13.6179 0.933384C13.5284 1.02686 13.4525 1.14929 13.3874 1.27884C13.2563 1.5396 13.1434 1.88203 13.0513 2.22869C12.868 2.91835 12.75 3.69239 12.75 4V7.07089V7.35919L13.0354 7.31837C13.3503 7.27332 13.6724 7.25 14 7.25C14.3276 7.25 14.6497 7.27332 14.9646 7.31837ZM9.95771 8.5937L10.1886 8.42079L9.98462 8.21682L8.51995 6.75215C8.03179 6.26399 7.24033 6.26399 6.75218 6.75215C6.26402 7.2403 6.26402 8.03176 6.75218 8.51991L8.21685 9.98459L8.42081 10.1885L8.59373 9.95768C8.98097 9.44063 9.44066 8.98094 9.95771 8.5937ZM7.31837 13.0354L7.35919 12.75H7.07089H4C3.69239 12.75 2.91835 12.868 2.22869 13.0513C1.88203 13.1434 1.5396 13.2563 1.27884 13.3874C1.14929 13.4525 1.02686 13.5284 0.933384 13.6179C0.841937 13.7054 0.75 13.8338 0.75 14C0.75 14.1662 0.841937 14.2946 0.933384 14.3821C1.02686 14.4716 1.14929 14.5475 1.27884 14.6126C1.5396 14.7437 1.88203 14.8566 2.22869 14.9487C2.91835 15.132 3.69239 15.25 4 15.25H7.07089H7.35919L7.31837 14.9646C7.27332 14.6497 7.25 14.3276 7.25 14C7.25 13.6724 7.27332 13.3503 7.31837 13.0354ZM8.59373 18.0423L8.42081 17.8114L8.21685 18.0154L6.75218 19.4801C6.26402 19.9682 6.26402 20.7597 6.75218 21.2479C7.24033 21.736 8.03179 21.736 8.51995 21.2479L9.98462 19.7832L10.1886 19.5792L9.95771 19.4063C9.44066 19.0191 8.98097 18.5594 8.59373 18.0423ZM13.0354 20.6816L12.75 20.6408V20.9291V24C12.75 24.3076 12.868 25.0816 13.0513 25.7713C13.1434 26.118 13.2563 26.4604 13.3874 26.7212C13.4525 26.8507 13.5284 26.9731 13.6179 27.0666C13.7054 27.1581 13.8338 27.25 14 27.25C14.1662 27.25 14.2946 27.1581 14.3821 27.0666C14.4716 26.9731 14.5475 26.8507 14.6126 26.7212C14.7437 26.4604 14.8566 26.118 14.9487 25.7713C15.132 25.0816 15.25 24.3076 15.25 24V20.9291V20.6408L14.9646 20.6816C14.6497 20.7267 14.3276 20.75 14 20.75C13.6724 20.75 13.3503 20.7267 13.0354 20.6816ZM18.0423 19.4063L17.8114 19.5792L18.0154 19.7831L19.4801 21.2478C19.9683 21.736 20.7597 21.736 21.2479 21.2478C21.736 20.7597 21.736 19.9682 21.2479 19.4801L19.7832 18.0154L19.5792 17.8114L19.4063 18.0423C19.0191 18.5593 18.5594 19.019 18.0423 19.4063ZM20.6816 14.9646L20.6408 15.25H20.9291H24C24.3076 15.25 25.0816 15.132 25.7713 14.9487C26.118 14.8566 26.4604 14.7437 26.7212 14.6126C26.8507 14.5475 26.9731 14.4716 27.0666 14.3821C27.1581 14.2946 27.25 14.1662 27.25 14C27.25 13.8338 27.1581 13.7054 27.0666 13.6179C26.9731 13.5284 26.8507 13.4525 26.7212 13.3874C26.4604 13.2563 26.118 13.1434 25.7713 13.0513C25.0816 12.868 24.3076 12.75 24 12.75H20.9291H20.6408L20.6816 13.0354C20.7267 13.3503 20.75 13.6724 20.75 14C20.75 14.3276 20.7267 14.6497 20.6816 14.9646ZM19.4063 9.95771L19.5792 10.1886L19.7832 9.98462L21.2479 8.51993C21.736 8.03177 21.736 7.24032 21.2479 6.75216C20.7597 6.26401 19.9683 6.26401 19.4801 6.75216L18.0154 8.21685L17.8114 8.42081L18.0423 8.59373C18.5594 8.98097 19.0191 9.44066 19.4063 9.95771Z" fill="#FEC157" stroke="white" stroke-width="0.5"/>
</svg>
