<?xml version="1.0" encoding="UTF-8" standalone="no"?>
<svg width="25px" height="24px" viewBox="0 0 25 24" version="1.1" xmlns="http://www.w3.org/2000/svg" xmlns:xlink="http://www.w3.org/1999/xlink" xmlns:sketch="http://www.bohemiancoding.com/sketch/ns">
    <!-- Generator: Sketch 3.3.2 (12043) - http://www.bohemiancoding.com/sketch -->
    <title>dlg_no_scene_thumbnail</title>
    <desc>Created with Sketch.</desc>
    <defs></defs>
    <g id="Page-1" stroke="none" stroke-width="1" fill="none" fill-rule="evenodd" sketch:type="MSPage">
        <g id="dlg_no_scene_thumbnail" sketch:type="MSArtboardGroup" transform="translate(1.000000, 0.000000)">
            <g id="Group" sketch:type="MSLayerGroup" transform="translate(4.000000, 4.000000)">
                <path d="M0,2.53776285 L15.9406677,0 L16,1.73315084 L1.42968687,4 L0,4 L0,2.53776285 Z" id="Path-2624" stroke="#BCBCBC" fill="#DEDEDE" sketch:type="MSShapeGroup"></path>
                <path d="M0,4 L16,4.04824121 L15.9760033,15.996608 L0.053810844,16 L0,4 Z" id="Path-2625" stroke="#BCBCBC" fill="#DFDEDE" sketch:type="MSShapeGroup"></path>
                <path d="M0.117848539,5.9683376 L2,4 L0.128656443,4 L0.117848539,5.9683376 Z" id="Path-2626" fill="#FFFFFF" sketch:type="MSShapeGroup"></path>
                <path d="M4.06545185,4.02404785 L2.40830575,6.02404785 L4.68188477,6.02404785 L6.40830575,4.03514621 L4.06545185,4.02404785 Z" id="Path-2627" fill="#FFFFFF" sketch:type="MSShapeGroup"></path>
                <path d="M8.66276134,3.98364258 L7.00561523,5.98364258 L9.27919425,5.98364258 L11.0056152,3.99474093 L8.66276134,3.98364258 Z" id="Path-2627-Copy" fill="#FFFFFF" sketch:type="MSShapeGroup"></path>
                <path d="M13.6571461,4 L12,6 L14.273579,6 L16,4.01109835 L13.6571461,4 Z" id="Path-2627-Copy-3" fill="#FFFFFF" sketch:type="MSShapeGroup"></path>
                <circle id="Oval-92" fill="#8D8D8D" sketch:type="MSShapeGroup" cx="0.375" cy="4.375" r="0.375"></circle>
                <path d="M0,2.42837048 L1.66569193,4 L4,3.62416144 L2.19194394,2 L0,2.42837048 Z" id="Path-2631" fill="#FFFFFF" sketch:type="MSShapeGroup"></path>
                <path d="M4.03450338,1.82644177 L5.70019531,3.39807129 L8.03450338,3.02223273 L6.22644732,1.39807129 L4.03450338,1.82644177 Z" id="Path-2631-Copy" fill="#FFFFFF" sketch:type="MSShapeGroup"></path>
                <path d="M8.39916992,1.12586432 L10.0648619,2.69749384 L12.3991699,2.32165527 L10.5911139,0.697493837 L8.39916992,1.12586432 Z" id="Path-2631-Copy-2" fill="#FFFFFF" sketch:type="MSShapeGroup"></path>
                <path d="M12,0.395123956 L13.8467033,2 L16,1.6907273 L14.12436,0 L12,0.395123956 Z" id="Path-2631-Copy-3" fill="#FFFFFF" sketch:type="MSShapeGroup"></path>
                <path id="Path-2635" stroke="#F0F0F0" sketch:type="MSShapeGroup" d="M0,4.09187977 L16,4.10812023"></path>
            </g>
        </g>
    </g>
</svg>
