<?xml version="1.0" encoding="UTF-8" standalone="no"?>
<svg width="24px" height="24px" viewBox="0 0 24 24" version="1.1" xmlns="http://www.w3.org/2000/svg" xmlns:xlink="http://www.w3.org/1999/xlink" xmlns:sketch="http://www.bohemiancoding.com/sketch/ns">
    <!-- Generator: Sketch 3.3.2 (12043) - http://www.bohemiancoding.com/sketch -->
    <title>dlg_mixed_material</title>
    <desc>Created with Sketch.</desc>
    <defs></defs>
    <g id="Page-1" stroke="none" stroke-width="1" fill="none" fill-rule="evenodd" sketch:type="MSPage">
        <g id="dlg_mixed_material" sketch:type="MSArtboardGroup" fill="#979797">
            <g id="?-+-Stroke-635-+-Stroke-637" sketch:type="MSLayerGroup" transform="translate(10.000000, 5.000000)">
                <path d="M3.08239746,9.21824646 L2.54727173,9.21824646 C2.42495666,9.21824646 2.34214041,9.19149044 2.2988205,9.1379776 C2.25550058,9.08446476 2.23384094,8.91500997 2.23384094,8.62960815 C2.23384094,7.67656994 2.36634694,6.85350383 2.63136292,6.16038513 C2.79954613,5.72718594 2.92058526,5.39209866 2.99448395,5.15511322 C3.06838263,4.91812778 3.10533142,4.53462484 3.10533142,4.0045929 L3.09768677,3.24777222 L3.09768677,2.80438232 C3.09768677,2.26925392 3.04672292,1.93544073 2.9447937,1.80293274 C2.84286448,1.67042475 2.70781029,1.60417175 2.53962708,1.60417175 C2.34596156,1.60417175 2.19689231,1.68443981 2.09241486,1.84497833 C1.9879374,2.00551685 1.93569946,2.19280899 1.93569946,2.40686035 C1.93569946,2.51388603 1.95863319,2.70500046 2.00450134,2.98020935 C2.03508011,3.16368195 2.05036926,3.30638072 2.05036926,3.40830994 C2.05036926,4.03517464 1.7089115,4.34860229 1.02598572,4.34860229 C0.348156401,4.34860229 0.00924682617,3.94343972 0.00924682617,3.13310242 C0.00924682617,2.39921203 0.261517863,1.78891998 0.766067505,1.30220795 C1.27061715,0.815495919 1.95862907,0.572143555 2.8301239,0.572143555 C3.74239043,0.572143555 4.48773667,0.854992899 5.066185,1.42070007 C5.64463332,1.98640725 5.93385315,2.69225651 5.93385315,3.53826904 C5.93385315,3.97146823 5.852311,4.38682357 5.68922424,4.78434753 C5.52613749,5.18187149 5.11333034,5.69915453 4.45079041,6.33621216 C4.01249476,6.75921842 3.74366047,7.08411294 3.64427948,7.31090546 C3.54489849,7.53769797 3.48756416,7.87533345 3.47227478,8.32382202 C3.4569854,8.77231059 3.42895528,9.0335003 3.38818359,9.10739899 C3.34741191,9.18129767 3.24548421,9.21824646 3.08239746,9.21824646 L3.08239746,9.21824646 Z M2.82247925,10.0897369 C3.20471383,10.0897369 3.51814148,10.2388062 3.76277161,10.5369492 C4.00740174,10.8350921 4.12971497,11.1982095 4.12971497,11.6263123 C4.12971497,12.0391256 4.00230535,12.4073394 3.7474823,12.7309647 C3.49265925,13.0545899 3.18432798,13.2164001 2.82247925,13.2164001 C2.47082344,13.2164001 2.17905542,13.0724273 1.94716644,12.7844772 C1.71527747,12.4965272 1.59933472,12.135958 1.59933472,11.7027588 C1.59933472,11.2695596 1.71018108,10.8924271 1.93187714,10.5713501 C2.15357319,10.2502731 2.45043759,10.0897369 2.82247925,10.0897369 L2.82247925,10.0897369 Z" id="?" sketch:type="MSShapeGroup"></path>
            </g>
        </g>
    </g>
</svg>