<?xml version="1.0" encoding="UTF-8" standalone="no"?>
<svg width="513px" height="512px" viewBox="0 0 513 512" version="1.1" xmlns="http://www.w3.org/2000/svg" xmlns:xlink="http://www.w3.org/1999/xlink" xmlns:sketch="http://www.bohemiancoding.com/sketch/ns">
    <!-- Generator: Sketch 3.3.1 (12002) - http://www.bohemiancoding.com/sketch -->
    <title>PickFromScreen</title>
    <desc>Created with Sketch.</desc>
    <defs></defs>
    <g id="Page-1" stroke="none" stroke-width="1" fill="none" fill-rule="evenodd" sketch:type="MSPage">
        <g id="PickFromScreen" sketch:type="MSArtboardGroup" transform="translate(0.000000, 0.000000)">
            <g id="Group" sketch:type="MSLayerGroup" transform="translate(66.000000, 170.000000)">
                <path d="M89.6656891,196.28655 L184.935484,196.28655 L184.935484,255.573099 L89.6656891,255.573099 L89.6656891,196.28655 L89.6656891,196.28655 Z" id="Fill-25017" fill="#626564" sketch:type="MSShapeGroup"></path>
                <path d="M89.6656891,196.28655 L184.935484,196.28655 L184.935484,255.573099 L89.6656891,255.573099 L89.6656891,196.28655 L89.6656891,196.28655 Z" id="Stroke-25019" stroke="#FFFFFF" stroke-width="25.6" stroke-linecap="round" sketch:type="MSShapeGroup"></path>
                <path d="M24.0085833,0 L248.991417,0 C262.250557,0 273,10.7797738 273,24.0763261 L273,184.227767 C273,197.52432 262.250557,208.304094 248.991417,208.304094 L24.0085833,208.304094 C10.749443,208.304094 0,197.52432 0,184.227767 L0,24.0763261 C0,10.7797738 10.749443,0 24.0085833,0 L24.0085833,0 Z" id="Fill-25020" fill="#323333" sketch:type="MSShapeGroup"></path>
                <path d="M24.0085833,0 L248.991417,0 C262.250557,0 273,10.7795708 273,24.0763509 L273,184.227743 C273,197.524309 262.250557,208.304094 248.991417,208.304094 L24.0085833,208.304094 C10.749443,208.304094 0,197.524309 0,184.227743 L0,24.0763509 C0,10.7795708 10.749443,0 24.0085833,0 L24.0085833,0 Z" id="Stroke-25021" stroke="#FFFFFF" stroke-width="25.6" stroke-linecap="round" sketch:type="MSShapeGroup"></path>
                <path d="M42.2435424,249.964912 L101.862029,249.964912 C108.391137,249.964912 113.683284,255.344935 113.683284,261.982456 L113.683284,261.982456 C113.683284,268.619978 108.391137,274 101.862029,274 L42.2435424,274 C35.714435,274 30.4222874,268.619978 30.4222874,261.982456 L30.4222874,261.982456 C30.4222874,255.344935 35.714435,249.964912 42.2435424,249.964912 L42.2435424,249.964912 Z" id="Fill-25022" fill="#323333" sketch:type="MSShapeGroup"></path>
                <path d="M42.2435424,249.964912 L101.862029,249.964912 C108.391137,249.964912 113.683284,255.344935 113.683284,261.982456 L113.683284,261.982456 C113.683284,268.619978 108.391137,274 101.862029,274 L42.2435424,274 C35.714435,274 30.4222874,268.619978 30.4222874,261.982456 L30.4222874,261.982456 C30.4222874,255.344935 35.714435,249.964912 42.2435424,249.964912 L42.2435424,249.964912 Z" id="Stroke-25023" stroke="#FFFFFF" stroke-width="25.6" stroke-linecap="round" sketch:type="MSShapeGroup"></path>
                <path d="M171.936432,249.964912 L231.557044,249.964912 C238.086152,249.964912 243.378299,255.344935 243.378299,261.982456 L243.378299,261.982456 C243.378299,268.619978 238.086152,274 231.557044,274 L171.936432,274 C165.40945,274 160.117302,268.619978 160.117302,261.982456 L160.117302,261.982456 C160.117302,255.344935 165.40945,249.964912 171.936432,249.964912 L171.936432,249.964912 Z" id="Fill-25024" fill="#323333" sketch:type="MSShapeGroup"></path>
                <path d="M171.936432,249.964912 L231.557044,249.964912 C238.086152,249.964912 243.378299,255.344935 243.378299,261.982456 L243.378299,261.982456 C243.378299,268.619978 238.086152,274 231.557044,274 L171.936432,274 C165.40945,274 160.117302,268.619978 160.117302,261.982456 L160.117302,261.982456 C160.117302,255.344935 165.40945,249.964912 171.936432,249.964912 L171.936432,249.964912 Z" id="Stroke-25025" stroke="#FFFFFF" stroke-width="25.6" stroke-linecap="round" sketch:type="MSShapeGroup"></path>
                <path d="M17.6129032,189.877193 L17.6129032,16.8245614 L255.387097,16.8245614 L255.387097,189.877193 L17.6129032,189.877193 L17.6129032,189.877193 Z" id="Fill-25026" fill="#3094FF" sketch:type="MSShapeGroup"></path>
                <path d="M17.6129032,189.877193 L17.6129032,16.8245614 L255.387097,16.8245614 L255.387097,189.877193 L17.6129032,189.877193 L17.6129032,189.877193 Z" id="Stroke-25027" stroke="#FFFFFF" stroke-width="25.6" stroke-linecap="round" sketch:type="MSShapeGroup"></path>
                <path d="M17.6129032,189.877193 C45.2003186,85.2719094 144.101182,13.3491146 255.387097,16.9542085 L255.387097,189.877193 L17.6129032,189.877193 L29.4999029,189.877193" id="Fill-25028" fill="#2270C4" sketch:type="MSShapeGroup"></path>
                <path d="M17.6129032,189.877193 C45.2003186,85.2720646 144.101182,13.3485238 255.387097,16.9542518 L255.387097,189.877193 L17.6129032,189.877193 L29.4999029,189.877193" id="Stroke-25029" stroke="#FFFFFF" stroke-width="25.6" stroke-linecap="round" sketch:type="MSShapeGroup"></path>
                <path d="M24.8271206,16.8245614 L248.172879,16.8245614 C252.157265,16.8245614 255.387097,20.0485721 255.387097,24.0253 L255.387097,182.676454 C255.387097,186.653396 252.157265,189.877193 248.172879,189.877193 L24.8271206,189.877193 C20.8427351,189.877193 17.6129032,186.653396 17.6129032,182.676454 L17.6129032,24.0253 C17.6129032,20.0485721 20.8427351,16.8245614 24.8271206,16.8245614 L24.8271206,16.8245614 Z" id="Stroke-25030" stroke="#FFFFFF" stroke-width="25.6" stroke-linecap="round" sketch:type="MSShapeGroup"></path>
                <path d="M89.6656891,196.28655 L184.935484,196.28655 L184.935484,255.573099 L89.6656891,255.573099 L89.6656891,196.28655 L89.6656891,196.28655 Z" id="Fill-25031" fill="#626564" sketch:type="MSShapeGroup"></path>
                <path d="M89.6656891,196.28655 L184.935484,196.28655 L184.935484,255.573099 L89.6656891,255.573099 L89.6656891,196.28655 L89.6656891,196.28655 Z" id="Stroke-25032" stroke="#000000" stroke-width="8.53333333" stroke-linecap="round" sketch:type="MSShapeGroup"></path>
                <path d="M24.0085833,0 L248.991417,0 C262.250557,0 273,10.7797738 273,24.0763261 L273,184.227767 C273,197.52432 262.250557,208.304094 248.991417,208.304094 L24.0085833,208.304094 C10.749443,208.304094 0,197.52432 0,184.227767 L0,24.0763261 C0,10.7797738 10.749443,0 24.0085833,0 L24.0085833,0 Z" id="Fill-25033" fill="#323333" sketch:type="MSShapeGroup"></path>
                <path d="M24.0085833,0 L248.991417,0 C262.250557,0 273,10.7795708 273,24.0763509 L273,184.227743 C273,197.524309 262.250557,208.304094 248.991417,208.304094 L24.0085833,208.304094 C10.749443,208.304094 0,197.524309 0,184.227743 L0,24.0763509 C0,10.7795708 10.749443,0 24.0085833,0 L24.0085833,0 Z" id="Stroke-25034" stroke="#000000" stroke-width="8.53333333" stroke-linecap="round" sketch:type="MSShapeGroup"></path>
                <path d="M42.2435424,249.964912 L101.862029,249.964912 C108.391137,249.964912 113.683284,255.344935 113.683284,261.982456 L113.683284,261.982456 C113.683284,268.619978 108.391137,274 101.862029,274 L42.2435424,274 C35.714435,274 30.4222874,268.619978 30.4222874,261.982456 L30.4222874,261.982456 C30.4222874,255.344935 35.714435,249.964912 42.2435424,249.964912 L42.2435424,249.964912 Z" id="Fill-25035" fill="#323333" sketch:type="MSShapeGroup"></path>
                <path d="M42.2435424,249.964912 L101.862029,249.964912 C108.391137,249.964912 113.683284,255.344935 113.683284,261.982456 L113.683284,261.982456 C113.683284,268.619978 108.391137,274 101.862029,274 L42.2435424,274 C35.714435,274 30.4222874,268.619978 30.4222874,261.982456 L30.4222874,261.982456 C30.4222874,255.344935 35.714435,249.964912 42.2435424,249.964912 L42.2435424,249.964912 Z" id="Stroke-25036" stroke="#000000" stroke-width="8.53333333" stroke-linecap="round" sketch:type="MSShapeGroup"></path>
                <path d="M171.936432,249.964912 L231.557044,249.964912 C238.086152,249.964912 243.378299,255.344935 243.378299,261.982456 L243.378299,261.982456 C243.378299,268.619978 238.086152,274 231.557044,274 L171.936432,274 C165.40945,274 160.117302,268.619978 160.117302,261.982456 L160.117302,261.982456 C160.117302,255.344935 165.40945,249.964912 171.936432,249.964912 L171.936432,249.964912 Z" id="Fill-25037" fill="#323333" sketch:type="MSShapeGroup"></path>
                <path d="M171.936432,249.964912 L231.557044,249.964912 C238.086152,249.964912 243.378299,255.344935 243.378299,261.982456 L243.378299,261.982456 C243.378299,268.619978 238.086152,274 231.557044,274 L171.936432,274 C165.40945,274 160.117302,268.619978 160.117302,261.982456 L160.117302,261.982456 C160.117302,255.344935 165.40945,249.964912 171.936432,249.964912 L171.936432,249.964912 Z" id="Stroke-25038" stroke="#000000" stroke-width="8.53333333" stroke-linecap="round" sketch:type="MSShapeGroup"></path>
                <path d="M17.6129032,189.877193 L17.6129032,16.8245614 L255.387097,16.8245614 L255.387097,189.877193 L17.6129032,189.877193 L17.6129032,189.877193 Z" id="Fill-25039" fill="#3094FF" sketch:type="MSShapeGroup"></path>
                <path d="M17.6129032,189.877193 C45.2003186,85.2719094 144.101182,13.3491146 255.387097,16.9542085 L255.387097,189.877193 L17.6129032,189.877193 L29.4999029,189.877193" id="Fill-25040" fill="#2270C4" sketch:type="MSShapeGroup"></path>
                <path d="M24.8271206,16.8245614 L248.172879,16.8245614 C252.157265,16.8245614 255.387097,20.0485721 255.387097,24.0253 L255.387097,182.676454 C255.387097,186.653396 252.157265,189.877193 248.172879,189.877193 L24.8271206,189.877193 C20.8427351,189.877193 17.6129032,186.653396 17.6129032,182.676454 L17.6129032,24.0253 C17.6129032,20.0485721 20.8427351,16.8245614 24.8271206,16.8245614 L24.8271206,16.8245614 Z" id="Stroke-25041" stroke="#000000" stroke-width="8.53333333" stroke-linecap="round" sketch:type="MSShapeGroup"></path>
            </g>
            <g id="Group" sketch:type="MSLayerGroup" transform="translate(251.000000, 71.000000)">
                <path d="M122.181611,29.6501786 L144.619731,7.25692594 C154.315019,-2.41897531 170.033246,-2.41897531 179.728534,7.25692594 L179.728534,7.25692594 C189.423822,16.9328272 189.423822,32.6196247 179.728534,42.2940859 L157.290414,64.6887786 C147.595126,74.3632397 131.875456,74.3632397 122.181611,64.6873385 L122.181611,64.6873385 C112.486323,55.0128773 112.486323,39.3260798 122.181611,29.6501786 L122.181611,29.6501786 Z" id="Fill-26082" fill="#33302D" sketch:type="MSShapeGroup"></path>
                <path d="M122.181611,29.6501905 L144.619731,7.25662206 C154.315019,-2.41885722 170.033246,-2.41885722 179.728534,7.25652125 L179.728534,7.25652125 C189.423822,16.9318997 189.423822,32.6189673 179.728534,42.294461 L157.290414,64.6880582 C147.595126,74.3632639 131.875456,74.3632639 122.181611,64.6879142 L122.181611,64.6879142 C112.486323,55.0125645 112.486323,39.3255834 122.181611,29.6501905 L122.181611,29.6501905 Z" id="Stroke-26083" stroke="#FFFFFF" stroke-width="32" stroke-linecap="round" sketch:type="MSShapeGroup"></path>
                <path d="M132.048064,36.0267911 L151.01046,17.1032244 C156.516091,11.6088667 165.440507,11.6088667 170.946139,17.1032244 L170.946139,17.1032244 C176.45177,22.5975821 176.45177,31.505167 170.946139,36.9980815 L151.983743,55.9230914 C146.478112,61.4174491 137.552249,61.4174491 132.048064,55.9230914 L132.048064,55.9230914 C126.542433,50.4287337 126.542433,41.5211488 132.048064,36.0267911 L132.048064,36.0267911 Z" id="Fill-26084" fill="#544E47" sketch:type="MSShapeGroup"></path>
                <path d="M132.048064,36.0273721 L151.01046,17.1029339 C156.516091,11.6088986 165.440507,11.6089996 170.946139,17.1030205 L170.946139,17.1030205 C176.45177,22.5971568 176.45177,31.5047911 170.946139,36.9988264 L151.983743,55.9233512 C146.478112,61.4173865 137.552249,61.4173865 132.048064,55.9232069 L132.048064,55.9232069 C126.542433,50.4291716 126.542433,41.5214074 132.048064,36.0273721 L132.048064,36.0273721 Z" id="Stroke-26085" stroke="#FFFFFF" stroke-width="32" stroke-linecap="round" sketch:type="MSShapeGroup"></path>
                <path d="M97.9905687,69.2397661 L37.7639034,129.344259 L2.16811594,179.303247 L7.33428915,184.459064 L57.3936245,148.934631 L117.62029,88.8301383" id="Fill-26086" fill="#BBBBBB" sketch:type="MSShapeGroup"></path>
                <path d="M97.9905687,69.2397661 L37.7639034,129.344604 L2.16811594,179.304002 L7.33428915,184.459064 L57.3936245,148.934998 L117.62029,88.8301599" id="Stroke-26087" stroke="#FFFFFF" stroke-width="32" stroke-linecap="round" sketch:type="MSShapeGroup"></path>
                <path d="M94.3859131,47.1338807 L94.3859131,47.1338807 C99.5403272,41.9885115 107.899304,41.9885115 113.055161,47.1338807 L139.771871,73.7962487 C144.926285,78.9416179 144.926285,87.2835928 139.771871,92.4275228 L139.771871,92.4275228 C134.616014,97.572892 126.257037,97.572892 121.101181,92.4275228 L94.3844709,65.7651548 C89.2300568,60.6197856 89.2300568,52.2778107 94.3859131,47.1338807 L94.3859131,47.1338807 Z" id="Fill-26088" fill="#33302D" sketch:type="MSShapeGroup"></path>
                <path d="M94.3859131,47.133414 L94.3859131,47.133414 C99.5403272,41.9885471 107.899304,41.9886911 113.055161,47.1337019 L139.771871,73.7965938 C144.926285,78.9417485 144.926285,87.2832666 139.771871,92.4279895 L139.771871,92.4279895 C134.616014,97.5728564 126.257037,97.5727125 121.101181,92.4277016 L94.3844709,65.7646658 C89.2300568,60.619655 89.2300568,52.2782809 94.3859131,47.133414 L94.3859131,47.133414 Z" id="Stroke-26089" stroke="#FFFFFF" stroke-width="32" stroke-linecap="round" sketch:type="MSShapeGroup"></path>
                <path d="M97.9905687,69.2397661 L37.7639034,129.344604 L2.16811594,179.304002 L7.33428915,184.459064 L57.3936245,148.934998 L117.62029,88.8301599" id="Stroke-26090" stroke="#FFFFFF" stroke-width="32" stroke-linecap="round" sketch:type="MSShapeGroup"></path>
                <path d="M103.993864,56.7225269 L103.993864,56.7225269 C106.785193,53.9384949 111.308125,53.9384949 114.098012,56.7225269 L130.704686,73.2957897 C133.494573,76.0798217 133.494573,80.5947013 130.704686,83.3787332 L130.704686,83.3787332 C127.913358,86.1642039 123.390425,86.1642039 120.599097,83.3787332 L103.993864,66.8069091 C101.203978,64.0228772 101.203978,59.5079976 103.993864,56.7225269 L103.993864,56.7225269 Z" id="Fill-26091" fill="#544E47" sketch:type="MSShapeGroup"></path>
                <path d="M103.993864,56.7229374 L103.993864,56.7227936 C106.785193,53.9382862 111.308125,53.93843 114.098012,56.7230813 L130.704686,73.2954542 C133.494573,76.0801054 133.494573,80.5949123 130.704686,83.3792759 L130.704686,83.3794197 C127.913358,86.164071 123.390425,86.1639271 120.599097,83.3792759 L103.993864,66.8067591 C101.203978,64.0221078 101.203978,59.5075887 103.993864,56.7229374 L103.993864,56.7229374 Z" id="Stroke-26092" stroke="#FFFFFF" stroke-width="32" stroke-linecap="round" sketch:type="MSShapeGroup"></path>
                <path d="M2.16811594,179.838511 L37.7030837,129.824561 L75.342029,131.379227 L57.2992651,149.436485 L7.32546212,185 L2.16811594,179.838511 L2.16811594,179.838511 Z" id="Fill-26093" fill="#FFBF00" sketch:type="MSShapeGroup"></path>
                <path d="M2.16811594,179.839234 L37.7030837,129.824561 L75.342029,131.379082 L57.2992651,149.43663 L7.32546212,185 L2.16811594,179.839234 L2.16811594,179.839234 Z" id="Stroke-26094" stroke="#FFFFFF" stroke-width="32" stroke-linecap="round" stroke-linejoin="round" sketch:type="MSShapeGroup"></path>
                <path d="M97.0231884,84.9269006 L38.484058,143.347953" id="Fill-26095" fill="#FFBF00" sketch:type="MSShapeGroup"></path>
                <path d="M97.0231884,84.9269006 L38.484058,143.347953" id="Stroke-26096" stroke="#FFFFFF" stroke-width="32" stroke-linecap="round" stroke-linejoin="round" sketch:type="MSShapeGroup"></path>
                <path d="M103.527536,56.2573099 L115.452174,68.6988304" id="Fill-26097" fill="#FFBF00" sketch:type="MSShapeGroup"></path>
                <path d="M103.527536,56.2573099 L115.452174,68.6988304" id="Stroke-26098" stroke="#FFFFFF" stroke-width="32" stroke-linecap="round" stroke-linejoin="round" sketch:type="MSShapeGroup"></path>
                <path d="M122.181611,29.6501786 L144.619731,7.25692594 C154.315019,-2.41897531 170.033246,-2.41897531 179.728534,7.25692594 L179.728534,7.25692594 C189.423822,16.9328272 189.423822,32.6196247 179.728534,42.2940859 L157.290414,64.6887786 C147.595126,74.3632397 131.875456,74.3632397 122.181611,64.6873385 L122.181611,64.6873385 C112.486323,55.0128773 112.486323,39.3260798 122.181611,29.6501786 L122.181611,29.6501786 Z" id="Fill-27556" fill="#33302D" sketch:type="MSShapeGroup"></path>
                <path d="M122.181611,29.6501905 L144.619731,7.25662206 C154.315019,-2.41885722 170.033246,-2.41885722 179.728534,7.25652125 L179.728534,7.25652125 C189.423822,16.9318997 189.423822,32.6189673 179.728534,42.294461 L157.290414,64.6880582 C147.595126,74.3632639 131.875456,74.3632639 122.181611,64.6879142 L122.181611,64.6879142 C112.486323,55.0125645 112.486323,39.3255834 122.181611,29.6501905 L122.181611,29.6501905 Z" id="Stroke-27557" stroke="#000000" stroke-width="10.6666667" stroke-linecap="round" sketch:type="MSShapeGroup"></path>
                <path d="M132.048064,36.0267911 L151.01046,17.1032244 C156.516091,11.6088667 165.440507,11.6088667 170.946139,17.1032244 L170.946139,17.1032244 C176.45177,22.5975821 176.45177,31.505167 170.946139,36.9980815 L151.983743,55.9230914 C146.478112,61.4174491 137.552249,61.4174491 132.048064,55.9230914 L132.048064,55.9230914 C126.542433,50.4287337 126.542433,41.5211488 132.048064,36.0267911 L132.048064,36.0267911 Z" id="Fill-27558" fill="#544E47" sketch:type="MSShapeGroup"></path>
                <path d="M97.9905687,69.2397661 L37.7639034,129.344259 L2.16811594,179.303247 L7.33428915,184.459064 L57.3936245,148.934631 L117.62029,88.8301383" id="Fill-27559" fill="#BBBBBB" sketch:type="MSShapeGroup"></path>
                <path d="M97.9905687,69.2397661 L37.7639034,129.344604 L2.16811594,179.304002 L7.33428915,184.459064 L57.3936245,148.934998 L117.62029,88.8301599" id="Stroke-27560" stroke="#000000" stroke-width="10.6666667" stroke-linecap="round" sketch:type="MSShapeGroup"></path>
                <path d="M94.3859131,47.1338807 L94.3859131,47.1338807 C99.5403272,41.9885115 107.899304,41.9885115 113.055161,47.1338807 L139.771871,73.7962487 C144.926285,78.9416179 144.926285,87.2835928 139.771871,92.4275228 L139.771871,92.4275228 C134.616014,97.572892 126.257037,97.572892 121.101181,92.4275228 L94.3844709,65.7651548 C89.2300568,60.6197856 89.2300568,52.2778107 94.3859131,47.1338807 L94.3859131,47.1338807 Z" id="Fill-27561" fill="#33302D" sketch:type="MSShapeGroup"></path>
                <path d="M94.3859131,47.133414 L94.3859131,47.133414 C99.5403272,41.9885471 107.899304,41.9886911 113.055161,47.1337019 L139.771871,73.7965938 C144.926285,78.9417485 144.926285,87.2832666 139.771871,92.4279895 L139.771871,92.4279895 C134.616014,97.5728564 126.257037,97.5727125 121.101181,92.4277016 L94.3844709,65.7646658 C89.2300568,60.619655 89.2300568,52.2782809 94.3859131,47.133414 L94.3859131,47.133414 Z" id="Stroke-27562" stroke="#000000" stroke-width="10.6666667" stroke-linecap="round" sketch:type="MSShapeGroup"></path>
                <path d="M95.8224527,67.6169591 L35.5957874,127.721797 L0,177.681195 L5.16617321,182.836257 L55.2255086,147.312191 L115.452174,87.2073529" id="Stroke-27563" stroke="#000000" stroke-width="10.6666667" stroke-linecap="round" sketch:type="MSShapeGroup"></path>
                <path d="M103.993864,56.7225269 L103.993864,56.7225269 C106.785193,53.9384949 111.308125,53.9384949 114.098012,56.7225269 L130.704686,73.2957897 C133.494573,76.0798217 133.494573,80.5947013 130.704686,83.3787332 L130.704686,83.3787332 C127.913358,86.1642039 123.390425,86.1642039 120.599097,83.3787332 L103.993864,66.8069091 C101.203978,64.0228772 101.203978,59.5079976 103.993864,56.7225269 L103.993864,56.7225269 Z" id="Fill-27564" fill="#544E47" sketch:type="MSShapeGroup"></path>
                <path d="M2.16811594,179.838511 L37.7030837,129.824561 L75.342029,131.379227 L57.2992651,149.436485 L7.32546212,185 L2.16811594,179.838511 L2.16811594,179.838511 Z" id="Fill-27565" fill="#FFBF00" sketch:type="MSShapeGroup"></path>
                <path d="M2.16811594,179.839234 L37.7030837,129.824561 L75.342029,131.379082 L57.2992651,149.43663 L7.32546212,185 L2.16811594,179.839234 L2.16811594,179.839234 Z" id="Stroke-27566" stroke="#000000" stroke-width="10.6666667" stroke-linecap="round" stroke-linejoin="round" sketch:type="MSShapeGroup"></path>
                <path d="M97.0231884,84.9269006 L38.484058,143.347953" id="Fill-27567" fill="#FFBF00" sketch:type="MSShapeGroup"></path>
                <path d="M97.0231884,84.9269006 L38.484058,143.347953" id="Stroke-27568" stroke="#FFFFFF" stroke-width="10.6666667" stroke-linecap="round" stroke-linejoin="round" sketch:type="MSShapeGroup"></path>
                <path d="M103.527536,56.2573099 L115.452174,68.6988304" id="Fill-27569" fill="#FFBF00" sketch:type="MSShapeGroup"></path>
                <path d="M103.527536,56.2573099 L115.452174,68.6988304" id="Stroke-27570" stroke="#939393" stroke-width="10.6666667" stroke-linecap="round" stroke-linejoin="round" sketch:type="MSShapeGroup"></path>
                <path d="M136.591304,41.6520468 L153.936232,24.3421053" id="Stroke-29175" stroke="#939393" stroke-width="16" stroke-linecap="round" stroke-linejoin="round" sketch:type="MSShapeGroup"></path>
            </g>
        </g>
    </g>
</svg>