<svg width="24" height="24" viewBox="0 0 24 24" fill="none" xmlns="http://www.w3.org/2000/svg">
<g clip-path="url(#clip0_26533_18155)">
<path d="M7.40622 19H5.67188C3.46274 19 1.67188 17.2091 1.67188 15C1.67188 12.8877 3.30912 11.1579 5.38379 11.0102C5.37168 10.8834 5.36548 10.7549 5.36548 10.625C5.36548 8.41586 7.15634 6.625 9.36548 6.625C10.06 6.625 10.7132 6.80201 11.2824 7.11339C12.1881 5.83467 13.6793 5 15.3655 5C18.1269 5 20.3655 7.23858 20.3655 10C20.3655 11.1257 19.9935 12.1645 19.3657 13.0002C21.0052 13.0204 22.3281 14.3557 22.3281 16C22.3281 17.6543 20.9891 18.9958 19.3358 19L19.3281 19L19.3204 19H18.0937" stroke="#0E416C"/>
<rect x="9.5" y="17.5" width="7" height="5" fill="#0E416C"/>
<rect x="10.5" y="16" width="1.13409" height="1.5" fill="#0E416C"/>
<rect x="12.5" y="18.5" width="0.990906" height="2" fill="white"/>
<path d="M10.5 16C10.5 15.6717 10.5647 15.3466 10.6903 15.0433C10.8159 14.74 11.0001 14.4644 11.2322 14.2322C11.4644 14.0001 11.74 13.8159 12.0433 13.6903C12.3466 13.5647 12.6717 13.5 13 13.5C13.3283 13.5 13.6534 13.5647 13.9567 13.6903C14.26 13.8159 14.5356 14.0001 14.7678 14.2322C14.9999 14.4644 15.1841 14.74 15.3097 15.0433C15.4353 15.3466 15.5 15.6717 15.5 16L14.3616 16C14.3616 15.8212 14.3264 15.6441 14.258 15.4789C14.1895 15.3137 14.0892 15.1636 13.9628 15.0372C13.8364 14.9108 13.6863 14.8105 13.5211 14.742C13.3559 14.6736 13.1788 14.6384 13 14.6384C12.8212 14.6384 12.6441 14.6736 12.4789 14.742C12.3137 14.8105 12.1636 14.9108 12.0372 15.0372C11.9108 15.1636 11.8105 15.3137 11.742 15.4789C11.6736 15.6441 11.6384 15.8212 11.6384 16L10.5 16Z" fill="#0E416C"/>
<rect x="14.3682" y="16" width="1.13153" height="1.5" fill="#0E416C"/>
</g>
<defs>
<clipPath id="clip0_26533_18155">
<rect width="24" height="24" fill="white"/>
</clipPath>
</defs>
</svg>
