<svg width="25" height="24" viewBox="0 0 25 24" fill="none" xmlns="http://www.w3.org/2000/svg">
<path fill-rule="evenodd" clip-rule="evenodd" d="M16.9504 8.12936C17.0727 7.95715 17.0641 7.72519 16.9194 7.58055C16.7567 7.41783 16.4835 7.42725 16.3091 7.60159L12.5 11.4107L8.66984 7.58055L8.61213 7.53234C8.44974 7.41984 8.22522 7.43591 8.08058 7.58055C7.91786 7.74327 7.91786 8.00709 8.08058 8.16981L11.9107 12L8.10163 15.8091L8.04963 15.8706C7.92732 16.0428 7.93594 16.2747 8.08058 16.4194C8.2433 16.5821 8.51654 16.5727 8.69088 16.3983L12.5 12.5892L16.3302 16.4194L16.3879 16.4676C16.5503 16.5801 16.7748 16.564 16.9194 16.4194C17.0821 16.2567 17.0821 15.9928 16.9194 15.8301L13.0893 12L16.8984 8.19085L16.9504 8.12936Z" fill="#252A2E"/>
</svg>
