<?xml version="1.0" encoding="UTF-8" standalone="no"?>
<svg width="513px" height="513px" viewBox="0 0 513 513" version="1.1" xmlns="http://www.w3.org/2000/svg" xmlns:xlink="http://www.w3.org/1999/xlink" xmlns:sketch="http://www.bohemiancoding.com/sketch/ns">
    <!-- Generator: Sketch 3.3.1 (12002) - http://www.bohemiancoding.com/sketch -->
    <title>StyleWatermark</title>
    <desc>Created with Sketch.</desc>
    <defs></defs>
    <g id="Page-1" stroke="none" stroke-width="1" fill="none" fill-rule="evenodd" sketch:type="MSPage">
        <g id="StyleWatermark" sketch:type="MSArtboardGroup" transform="translate(0.000000, 0.500000)">
            <path d="M-4,252.243607 L512,252.243607" id="Path-2389" stroke="#979797" stroke-width="6" sketch:type="MSShapeGroup"></path>
            <path d="M406.279197,169 L239,206.783089 L239,315.679924 L408,336 L406.279197,169 Z" id="Path-2393-Copy" stroke="#000000" stroke-width="16" sketch:type="MSShapeGroup"></path>
            <path d="M109,147 L256,211.162321 L256,314.040003 L109.323846,357 L109,147 Z" id="Path-2393" stroke="#000000" stroke-width="16" sketch:type="MSShapeGroup"></path>
            <path d="M323.469708,111 L406.839842,167.786908 L408,335.113595 L322,393 L323.469708,111 Z" id="Path-2391" stroke="#000000" stroke-width="16" fill="#A18F73" sketch:type="MSShapeGroup"></path>
            <path d="M110.125235,145.777815 L110,356.133123 L324,393 L324,111 L110.125235,145.777815 Z" id="Path-2390" stroke="#000000" stroke-width="16" fill="#D9C29B" sketch:type="MSShapeGroup"></path>
            <circle id="Oval-76" fill-opacity="0.8" fill="#FFFFFF" sketch:type="MSShapeGroup" cx="324" cy="350" r="95"></circle>
            <ellipse id="Oval-77" stroke="#000000" stroke-width="15" sketch:type="MSShapeGroup" cx="293.5" cy="362.5" rx="18.5" ry="32.5"></ellipse>
            <path d="M333.574219,283.875 L334.316406,402.59375" id="Path-2398" stroke="#000000" stroke-width="15" sketch:type="MSShapeGroup"></path>
            <path d="M370.382812,324.648438 L336.730469,362.042969 L370.382812,397.179688" id="Path-2399" stroke="#000000" stroke-width="15" sketch:type="MSShapeGroup"></path>
        </g>
    </g>
</svg>