<svg xmlns="http://www.w3.org/2000/svg" width="24" height="24" viewBox="0 0 24 24">
  <g fill="#D0021B">
    <polygon points="7 11.484 18 11.484 18 12.516 7 12.516"/>
    <path d="M12,17.7510681 C12,17.9746576 11.7289301,18.0858043 11.5719634,17.9265758 L6.06646729,12.1854248 C6.01660537,12.1348444 5.99803949,12.0658903 6,12 C6.00181217,11.9390951 6.02037805,11.8557133 6.06646729,11.80896 L11.5719634,6.08285411 C11.7289301,5.92362565 12,6.03477236 12,6.25836182 L12,8.19999981 C9.7921536,8.19999981 8,9.79340254 8,12 C8,14.2065975 9.7921536,15.8000002 12,15.8000002 L12,17.7510681 Z"/>
    <path d="M11.5,8.73683824 C9.70276933,8.73683824 8.24165488,10.1989709 8.24165488,12 C8.24165488,13.8010291 9.70276933,15.2631618 11.5,15.2631618 C13.2972834,15.2631618 14.7583451,13.8010578 14.7583451,12 C14.7583451,10.1989422 13.2972834,8.73683824 11.5,8.73683824 Z M11.5,8 C13.7079066,8 15.5,9.79337175 15.5,12 C15.5,14.2066282 13.7079066,16 11.5,16 C9.2921536,16 7.5,14.2065975 7.5,12 C7.5,9.79340254 9.2921536,8 11.5,8 Z"/>
  </g>
</svg>
