<?xml version="1.0" encoding="UTF-8" standalone="no"?>
<svg width="24px" height="24px" viewBox="0 0 24 24" version="1.1" xmlns="http://www.w3.org/2000/svg" xmlns:xlink="http://www.w3.org/1999/xlink" xmlns:sketch="http://www.bohemiancoding.com/sketch/ns">
    <!-- Generator: Sketch 3.3.2 (12043) - http://www.bohemiancoding.com/sketch -->
    <title>dlg_external_texture_editor</title>
    <desc>Created with Sketch.</desc>
    <defs>
        <linearGradient x1="1.3611711%" y1="69.7913826%" x2="100%" y2="69.9457525%" id="linearGradient-1">
            <stop stop-color="#794F17" offset="0%"></stop>
            <stop stop-color="#D98E2B" offset="15.4541762%"></stop>
            <stop stop-color="#D98E2B" offset="39.1848689%"></stop>
            <stop stop-color="#D98E2B" offset="58.8030856%"></stop>
            <stop stop-color="#D98E2B" offset="62.0874522%"></stop>
            <stop stop-color="#D98E2B" offset="100%"></stop>
        </linearGradient>
    </defs>
    <g id="Page-1" stroke="none" stroke-width="1" fill="none" fill-rule="evenodd" sketch:type="MSPage">
        <g id="dlg_external_texture_editor" sketch:type="MSArtboardGroup">
            <path d="M5.05688477,7.08959961 L5.28747559,15.6787109 L12.8150635,19.9888916 L12.8150635,10.9881592 L5.05688477,7.08959961 Z" id="Path-2256-Copy" stroke="#000000" stroke-width="0.5625" fill="#8C8268" sketch:type="MSShapeGroup"></path>
            <path d="M19,7 L13,11.1533948 L13,20 L18.8207897,14.694527 L19,7 Z" id="Path-2257" stroke="#000000" stroke-width="0.5625" fill="#5E5846" sketch:type="MSShapeGroup"></path>
            <path d="M19,6.60406626 L11.1613284,4 L5.20495605,6.93066406 L12.7924194,11 L19,6.60406626 Z" id="Path-2253" stroke="#000000" stroke-width="0.5625" fill="#FFF8C5" sketch:type="MSShapeGroup"></path>
            <path d="M7,5.95589375 L14.9545898,9.27758789 L17,7.75800726 L8.82854112,5 L7,5.95589375 Z" id="Path-2257" fill="#000000" sketch:type="MSShapeGroup"></path>
            <path d="M5,11.3784142 L12.8502197,15.7977295 L12.8502197,13.2493896 L5,9 L5,11.3784142 Z" id="Path-2257-Copy" fill="#000000" sketch:type="MSShapeGroup"></path>
            <path d="M13,13.1647949 L19.1899414,8.39941406 L19.1899414,6.67687988 L13,10.7152753 L13,13.1647949 Z" id="Path-2257-Copy-3" fill="#000000" sketch:type="MSShapeGroup"></path>
            <path d="M13,18 L19,12.8495546 L19,11 L13,15.9649762 L13,18 Z" id="Path-2257-Copy-4" fill="#000000" sketch:type="MSShapeGroup"></path>
            <path d="M5.30041504,15.6975098 L12.8459473,20.1779785 L12.8459473,17.8138428 L5.30041504,13.7385254 L5.30041504,15.6975098 Z" id="Path-2257-Copy-2" fill="#000000" sketch:type="MSShapeGroup"></path>
            <path d="M11.0383301,4.01293945 L4.89428711,6.9375 L5.29077148,15.7248535 L9.76562862,18.4152305 L12.970459,20.342041 L18.9841309,14.8779297 L19.2902832,6.61206055 L11.0383301,4.01293945 Z" id="Path-2256" stroke="#000000" stroke-width="0.5" sketch:type="MSShapeGroup"></path>
            <g id="Arrow" sketch:type="MSLayerGroup" transform="translate(14.778062, 7.588967) scale(1, -1) rotate(-49.000000) translate(-14.778062, -7.588967) translate(7.778062, 1.088967)" stroke="#393939" stroke-width="0.2" fill="url(#linearGradient-1)">
                <path d="M0.0418646013,0.917568242 C0.943214027,3.32833675 3.24527119,5.56750777 4.63427779,6.2005352 C6.36720603,6.99030187 8.65605903,7.75470958 8.65605903,7.75470958 L8.65605903,5.75470958 L13.656059,9.75470958 L8.65605903,12.7547096 L8.65605903,10.7547096 C8.65605903,10.7547096 7.15986368,10.6301416 4.43697688,9.02207222 C1.71409008,7.4140028 1.46879959,5.75470958 1.46879959,5.75470958 C1.46879959,5.75470958 0.0418646004,0.91756824 0.0418646013,0.917568242 Z" id="Path-7798-Copy" sketch:type="MSShapeGroup"></path>
            </g>
        </g>
    </g>
</svg>