<svg xmlns="http://www.w3.org/2000/svg" width="24" height="24" viewBox="0 0 24 24">
  <g fill="#000000" fill-rule="evenodd">
    <path fill-rule="nonzero" d="M6,6 L6,18 L18,18 L18,6 L6,6 Z M5,5 L19,5 L19,19 L5,19 L5,5 Z"/>
    <path d="M11.25,14.5 L11.25,16 L12.7340625,16 L12.7340625,14.5 L11.25,14.5 Z M10.9939024,10.2341782 C10.9939024,10.0512504 11.0142274,9.88018168 11.054878,9.72096679 C11.0955287,9.5617519 11.1581974,9.4228644 11.2428862,9.30430012 C11.3275749,9.18573584 11.4359749,9.09088584 11.5680894,9.01974728 C11.7002039,8.94860871 11.8577227,8.91303996 12.0406504,8.91303996 C12.3116545,8.91303996 12.5233732,8.98756496 12.675813,9.1366172 C12.8282528,9.28566943 12.9044715,9.51601943 12.9044715,9.82767411 C12.9112466,10.0106018 12.8790654,10.1630393 12.8079268,10.2849912 C12.7367883,10.406943 12.643632,10.5187305 12.5284553,10.620357 C12.4132786,10.7219836 12.2879411,10.8236086 12.152439,10.9252351 C12.016937,11.0268616 11.888212,11.1471179 11.7662602,11.2860074 C11.6443083,11.424897 11.5376021,11.5925783 11.4461382,11.7890562 C11.3546743,11.9855342 11.3540077,12.2422657 11.3336824,12.5335951 L11.3336824,13.6833036 L12.675813,13.6833036 L12.675813,12.5335951 C12.7029134,12.3303421 12.7435632,12.2192737 12.8485772,12.0837717 C12.9535913,11.9482696 13.0738476,11.8280134 13.2093496,11.7229993 C13.3448516,11.6179852 13.4888204,11.5129727 13.6412602,11.4079587 C13.7936999,11.3029446 13.9325874,11.1759133 14.0579268,11.0268611 C14.1832662,10.8778089 14.2882787,10.6982714 14.3729675,10.4882432 C14.4576562,10.2782151 14.5,10.0106026 14.5,9.68539768 C14.5,9.48891974 14.4576562,9.27720099 14.3729675,9.05023508 C14.2882787,8.82326918 14.1476975,8.61155043 13.9512195,8.41507248 C13.7547416,8.21859453 13.4955978,8.05430078 13.1737805,7.9221863 C12.8519632,7.79007182 12.4505444,7.72401557 11.9695122,7.72401557 C11.5968816,7.72401557 11.2598254,7.78668432 10.9583333,7.9120237 C10.6568413,8.03736308 10.3993913,8.21181933 10.1859756,8.43539768 C9.97255991,8.65897604 9.80657241,8.92320104 9.68800813,9.22808061 C9.56944385,9.53296018 9.5067751,9.86832268 9.5,10.2341782 L10.9939024,10.2341782 Z"/>
  </g>
</svg>
