<?xml version="1.0" encoding="UTF-8" standalone="no"?>
<svg width="512px" height="512px" viewBox="0 0 512 512" version="1.1" xmlns="http://www.w3.org/2000/svg" xmlns:xlink="http://www.w3.org/1999/xlink" xmlns:sketch="http://www.bohemiancoding.com/sketch/ns">
    <!-- Generator: Sketch 3.3.1 (12002) - http://www.bohemiancoding.com/sketch -->
    <title>SOI_RB_Plane</title>
    <desc>Created with Sketch.</desc>
    <defs></defs>
    <g id="Page-1" stroke="none" stroke-width="1" fill="none" fill-rule="evenodd" sketch:type="MSPage">
        <g id="SOI_RB_Plane" sketch:type="MSArtboardGroup">
            <path d="M243.168442,79.7264799 L243.16844,255.999994 L89.9912113,343.790048 L82.0683594,133.470704 L243.168442,79.7264799 Z" id="Path-2470" stroke="#000000" stroke-width="10" fill="#D0011B" sketch:type="MSShapeGroup"></path>
            <path d="M248.0039,262.759766 L399.886062,347.048498 L255.815678,434.120284 L95.6152344,351.923828 L248.0039,262.759766 Z" id="Path-2471" stroke="#000000" stroke-width="10" sketch:type="MSShapeGroup"></path>
            <path d="M251.027609,255.999998 L251.027609,79.3954298 L410.94912,125.947888 L404.815006,338.90878 L251.027609,255.999998 Z" id="Path-2472" stroke="#000000" stroke-width="10" fill="#FFFFFF" sketch:type="MSShapeGroup"></path>
            <g id="Group" sketch:type="MSLayerGroup" transform="translate(165.500000, 207.000000) scale(-1, 1) translate(-165.500000, -207.000000) translate(84.000000, 96.000000)">
                <path d="M53.321289,5.34765625 L104.094727,22.1835938 L104.094727,80.0820313 L53.321289,59.2597656 L53.321289,5.34765625 Z" id="Path-2477" fill="#1919F8" sketch:type="MSShapeGroup"></path>
                <path d="M106.928223,83.8789063 L157.839842,105.01172 L154.753596,177.36598 L106.928223,153.255371 L106.928223,83.8789063 Z" id="Path-2477-Copy" fill="#1919F8" sketch:type="MSShapeGroup"></path>
                <path d="M8.81567815,44.0823119 L52.9781351,62.0576775 L52.9781351,124.411524 L8.81567815,101.14263 L8.81567815,44.0823119 Z" id="Path-2479" fill="#1919F8" sketch:type="MSShapeGroup"></path>
                <path d="M53.6254883,127.248047 L104.259277,153.895508 L104.856934,212.070313 L53.6254883,183.297852 L53.6254883,127.248047 Z" id="Path-2480" fill="#1919F8" sketch:type="MSShapeGroup"></path>
                <path d="M52.5,1.71725119 L52.5,190.499997" id="Path-2475" stroke="#000000" stroke-width="3" sketch:type="MSShapeGroup"></path>
                <path d="M105.5,17.0390726 L105.5,220.499995" id="Path-2476" stroke="#000000" stroke-width="3" sketch:type="MSShapeGroup"></path>
                <path d="M2.11238128,40.0218047 L162.926979,105.588427" id="Path-2473" stroke="#000000" stroke-width="3" sketch:type="MSShapeGroup"></path>
                <path d="M0.197153599,98.4362489 L159.161051,180.791039" id="Path-2474" stroke="#000000" stroke-width="3" sketch:type="MSShapeGroup"></path>
            </g>
            <path d="M248.06125,73.7675781 L415.437935,122.183187 L409.083977,345.050781 L256.399224,439 L85.9785156,352.005859 L78.7021484,132.8125 L248.06125,73.7675781 Z" id="Path-2481" stroke="#000000" stroke-width="8" sketch:type="MSShapeGroup"></path>
        </g>
    </g>
</svg>