<?xml version="1.0" encoding="UTF-8" standalone="no"?>
<svg width="24px" height="24px" viewBox="0 0 24 24" version="1.1" xmlns="http://www.w3.org/2000/svg" xmlns:xlink="http://www.w3.org/1999/xlink" xmlns:sketch="http://www.bohemiancoding.com/sketch/ns">
    <!-- Generator: Sketch 3.3.2 (12043) - http://www.bohemiancoding.com/sketch -->
    <title>dlg_help</title>
    <desc>Created with Sketch.</desc>
    <defs></defs>
    <g id="Page-1" stroke="none" stroke-width="1" fill="none" fill-rule="evenodd" sketch:type="MSPage">
        <g id="dlg_help" sketch:type="MSArtboardGroup">
            <g id="Group" sketch:type="MSLayerGroup" transform="translate(3.000000, 3.000000)">
                <path d="M0.75,9.0234375 C0.75,4.45826575 4.45829372,0.75 9.02337508,0.75 C13.5885813,0.75 17.296875,4.45826575 17.296875,9.0234375 C17.296875,13.5886093 13.5885813,17.296875 9.02337508,17.296875 C4.45829372,17.296875 0.75,13.5886093 0.75,9.0234375 L0.75,9.0234375 Z" id="Fill-1524" fill="#144689" sketch:type="MSShapeGroup"></path>
                <path d="M0.75,9.0234375 C0.75,4.45826575 4.45829372,0.75 9.02337508,0.75 C13.5885813,0.75 17.296875,4.45826575 17.296875,9.0234375 C17.296875,13.5886093 13.5885813,17.296875 9.02337508,17.296875 C4.45829372,17.296875 0.75,13.5886093 0.75,9.0234375 L0.75,9.0234375 Z" id="Stroke-1526" stroke="#000000" stroke-width="0.625" stroke-linecap="round" stroke-linejoin="round" sketch:type="MSShapeGroup"></path>
            </g>
            <path d="M10.8607178,14.8786621 C10.8555094,14.5922023 10.8529053,14.4177249 10.8529053,14.3552246 C10.8529053,13.709388 10.959675,13.1781434 11.1732178,12.7614746 C11.3867605,12.3448059 11.8138396,11.8760605 12.4544678,11.3552246 C13.095096,10.8343887 13.4779046,10.4932463 13.6029053,10.3317871 C13.7956146,10.0765775 13.8919678,9.79533031 13.8919678,9.48803711 C13.8919678,9.06095164 13.7213966,8.69506988 13.380249,8.39038086 C13.0391015,8.08569184 12.5794707,7.93334961 12.0013428,7.93334961 C11.4440483,7.93334961 10.9779071,8.09220219 10.6029053,8.40991211 C10.2279034,8.72762203 9.97009348,9.21199219 9.82946777,9.86303711 L7.81384277,9.61303711 C7.87113473,8.68074078 8.26826617,7.88908203 9.00524902,7.23803711 C9.74223187,6.58699219 10.7096701,6.26147461 11.9075928,6.26147461 C13.1680157,6.26147461 14.1706099,6.5908984 14.9154053,7.24975586 C15.6602007,7.90861332 16.0325928,8.67553273 16.0325928,9.55053711 C16.0325928,10.0349145 15.8958754,10.4932433 15.6224365,10.9255371 C15.3489977,11.3578309 14.7643681,11.9463667 13.8685303,12.6911621 C13.4049863,13.0765807 13.1172287,13.3864734 13.005249,13.6208496 C12.8932693,13.8552258 12.8424886,14.2744924 12.8529053,14.8786621 L10.8607178,14.8786621 Z M10.8239746,17.9976807 L10.8239746,15.8023682 L13.0192871,15.8023682 L13.0192871,17.9976807 L10.8239746,17.9976807 Z" id="?" stroke="#000000" stroke-width="0.5" fill="#FFFFFF" sketch:type="MSShapeGroup"></path>
        </g>
    </g>
</svg>