<?xml version="1.0" encoding="UTF-8" standalone="no"?>
<svg width="24px" height="24px" viewBox="0 0 24 24" version="1.1" xmlns="http://www.w3.org/2000/svg" xmlns:xlink="http://www.w3.org/1999/xlink" xmlns:sketch="http://www.bohemiancoding.com/sketch/ns">
    <!-- Generator: Sketch 3.3.2 (12043) - http://www.bohemiancoding.com/sketch -->
    <title>dlg_unknown_material</title>
    <desc>Created with Sketch.</desc>
    <defs></defs>
    <g id="Page-1" stroke="none" stroke-width="1" fill="none" fill-rule="evenodd" sketch:type="MSPage">
        <g id="dlg_unknown_material" sketch:type="MSArtboardGroup">
            <path d="M5.05688477,7.08959961 L5.28747559,15.6787109 L12.8150635,19.9888916 L12.8150635,10.9881592 L5.05688477,7.08959961 Z" id="Path-2256-Copy" stroke="#000000" stroke-width="0.5625" fill="#8C8268" sketch:type="MSShapeGroup"></path>
            <path d="M19,7 L13,11.1533948 L13,20 L18.8207897,14.694527 L19,7 Z" id="Path-2257" stroke="#000000" stroke-width="0.5625" fill="#5E5846" sketch:type="MSShapeGroup"></path>
            <path d="M19,6.60406626 L11.1613284,4 L5.20495605,6.93066406 L12.7924194,11 L19,6.60406626 Z" id="Path-2253" stroke="#000000" stroke-width="0.5625" fill="#FFF8C5" sketch:type="MSShapeGroup"></path>
            <path d="M7,5.95589375 L14.9545898,9.27758789 L17,7.75800726 L8.82854112,5 L7,5.95589375 Z" id="Path-2257" fill="#000000" sketch:type="MSShapeGroup"></path>
            <path d="M5,11.3784142 L12.8502197,15.7977295 L12.8502197,13.2493896 L5,9 L5,11.3784142 Z" id="Path-2257-Copy" fill="#000000" sketch:type="MSShapeGroup"></path>
            <path d="M13,13.1647949 L19.1899414,8.39941406 L19.1899414,6.67687988 L13,10.7152753 L13,13.1647949 Z" id="Path-2257-Copy-3" fill="#000000" sketch:type="MSShapeGroup"></path>
            <path d="M13,18 L19,12.8495546 L19,11 L13,15.9649762 L13,18 Z" id="Path-2257-Copy-4" fill="#000000" sketch:type="MSShapeGroup"></path>
            <path d="M5.30041504,15.6975098 L12.8459473,20.1779785 L12.8459473,17.8138428 L5.30041504,13.7385254 L5.30041504,15.6975098 Z" id="Path-2257-Copy-2" fill="#000000" sketch:type="MSShapeGroup"></path>
            <path d="M11.0383301,4.01293945 L4.89428711,6.9375 L5.29077148,15.7248535 L9.76562862,18.4152305 L12.970459,20.342041 L18.9841309,14.8779297 L19.2902832,6.61206055 L11.0383301,4.01293945 Z" id="Path-2256" stroke="#000000" stroke-width="0.5" sketch:type="MSShapeGroup"></path>
            <path d="M9.94512195,15.4719562 L9.94512195,18 L12.8170732,18 L12.8170732,15.4719562 L9.94512195,15.4719562 Z M7,10.0547196 L9.68902439,10.0547196 C9.68902439,9.75923245 9.72560939,9.48290142 9.79878049,9.22571819 C9.87195159,8.96853497 9.98475534,8.744187 10.1371951,8.55266758 C10.2896349,8.36114815 10.4847549,8.20793491 10.722561,8.09302326 C10.960367,7.9781116 11.2439008,7.92065663 11.5731707,7.92065663 C12.060978,7.92065663 12.4420718,8.04103847 12.7164634,8.28180575 C12.990855,8.52257302 13.1280488,8.89466233 13.1280488,9.39808482 C13.140244,9.69357193 13.0823177,9.9398075 12.9542683,10.1367989 C12.8262189,10.3337903 12.6585376,10.5143631 12.4512195,10.6785226 C12.2439014,10.8426821 12.0182939,11.0068391 11.7743902,11.1709986 C11.5304866,11.3351581 11.2987816,11.5294106 11.0792683,11.753762 C10.859755,11.9781133 10.6676838,12.2489724 10.5030488,12.5663475 C10.3384138,12.8837225 10.2378051,13.2776994 10.2012195,13.74829 L10.2012195,14.4870041 L12.6707317,14.4870041 L12.6707317,13.8632011 C12.7195124,13.5348821 12.8384137,13.261287 13.027439,13.0424077 C13.2164644,12.8235283 13.4329256,12.6292758 13.6768293,12.4596443 C13.9207329,12.2900128 14.1798767,12.1203839 14.4542683,11.9507524 C14.7286599,11.7811209 14.9786574,11.5759246 15.2042683,11.3351573 C15.4298792,11.09439 15.6189017,10.8043793 15.7713415,10.4651163 C15.9237812,10.1258533 16,9.69357308 16,9.16826265 C16,8.85088761 15.9237812,8.50889376 15.7713415,8.14227086 C15.6189017,7.77564796 15.3658554,7.43365412 15.0121951,7.11627907 C14.6585348,6.79890402 14.1920761,6.5335168 13.6128049,6.32010944 C13.0335337,6.10670208 12.3109799,6 11.445122,6 C10.7743869,6 10.1676856,6.10123018 9.625,6.30369357 C9.08231436,6.50615696 8.61890436,6.78795989 8.2347561,7.14911081 C7.85060784,7.51026172 7.55183034,7.93707004 7.33841463,8.42954856 C7.12499893,8.92202709 7.01219518,9.46374534 7,10.0547196 L7,10.0547196 Z" id="?" stroke="#FFFFFF" stroke-width="0.6336" fill="#000000" sketch:type="MSShapeGroup"></path>
        </g>
    </g>
</svg>