<?xml version="1.0" encoding="UTF-8" standalone="no"?>
<svg width="12" height="8" viewBox="0 0 12 8" fill="none" xmlns="http://www.w3.org/2000/svg">
<path 
   d="M9.23529 1.9C9.23529 1.40296 9.63034 1 10.1176 1C10.605 1 11 1.40296 11 1.9C11 2.39704 10.605 2.8 10.1176 2.8C9.63034 2.8 9.23529 2.39704 9.23529 1.9ZM9.23529 6.1C9.23529 5.60294 9.63034 5.2 10.1176 5.2C10.605 5.2 11 5.60294 11 6.1C11 6.59706 10.605 7 10.1176 7C9.63034 7 9.23529 6.59706 9.23529 6.1ZM5.11765 1.9C5.11765 1.40296 5.51271 1 6 1C6.48729 1 6.88235 1.40296 6.88235 1.9C6.88235 2.39704 6.48729 2.8 6 2.8C5.51271 2.8 5.11765 2.39704 5.11765 1.9ZM5.11765 6.1C5.11765 5.60294 5.51271 5.2 6 5.2C6.48729 5.2 6.88235 5.60294 6.88235 6.1C6.88235 6.59706 6.48729 7 6 7C5.51271 7 5.11765 6.59706 5.11765 6.1ZM0.999999 1.9C0.999999 1.40296 1.39506 1 1.88235 1C2.36965 1 2.76471 1.40296 2.76471 1.9C2.76471 2.39704 2.36965 2.8 1.88235 2.8C1.39506 2.8 0.999999 2.39704 0.999999 1.9ZM0.999999 6.1C0.999999 5.60294 1.39506 5.2 1.88235 5.2C2.36965 5.2 2.7647 5.60294 2.7647 6.1C2.7647 6.59706 2.36965 7 1.88235 7C1.39506 7 0.999999 6.59706 0.999999 6.1Z" 
   fill="#B7B9C3"/>
</svg>
