<svg xmlns="http://www.w3.org/2000/svg" width="24" height="24" viewBox="0 0 24 24">
  <g fill="none" fill-rule="evenodd">
    <path fill="#000CC9" d="M6,6 L17,6 L17,17 L6,17 L6,6 Z M7,7 L7,16 L16,16 L16,7 L7,7 Z"/>
    <rect width="1" height="1" x="18" y="4" fill="#009AD9"/>
    <rect width="1" height="1" x="18" y="6" fill="#009AD9"/>
    <rect width="1" height="1" x="16" y="4" fill="#009AD9"/>
    <rect width="1" height="1" x="14" y="4" fill="#009AD9"/>
    <rect width="1" height="1" x="12" y="4" fill="#009AD9"/>
    <rect width="1" height="1" x="10" y="4" fill="#009AD9"/>
    <rect width="1" height="1" x="8" y="4" fill="#009AD9"/>
    <rect width="1" height="1" x="16" y="18" fill="#009AD9"/>
    <rect width="1" height="1" x="18" y="18" fill="#009AD9"/>
    <rect width="1" height="1" x="14" y="18" fill="#009AD9"/>
    <rect width="1" height="1" x="12" y="18" fill="#009AD9"/>
    <rect width="1" height="1" x="10" y="18" fill="#009AD9"/>
    <rect width="1" height="1" x="8" y="18" fill="#009AD9"/>
    <rect width="1" height="1" x="4" y="4" fill="#009AD9"/>
    <rect width="1" height="1" x="6" y="4" fill="#009AD9"/>
    <rect width="1" height="1" x="4" y="6" fill="#009AD9"/>
    <rect width="1" height="1" x="4" y="8" fill="#009AD9"/>
    <rect width="1" height="1" x="4" y="10" fill="#009AD9"/>
    <rect width="1" height="1" x="4" y="12" fill="#009AD9"/>
    <rect width="1" height="1" x="4" y="14" fill="#009AD9"/>
    <rect width="1" height="1" x="4" y="16" fill="#009AD9"/>
    <rect width="1" height="1" x="18" y="8" fill="#009AD9"/>
    <rect width="1" height="1" x="18" y="10" fill="#009AD9"/>
    <rect width="1" height="1" x="18" y="12" fill="#009AD9"/>
    <rect width="1" height="1" x="18" y="14" fill="#009AD9"/>
    <rect width="1" height="1" x="18" y="16" fill="#009AD9"/>
    <rect width="1" height="1" x="4" y="18" fill="#009AD9"/>
    <rect width="1" height="1" x="6" y="18" fill="#009AD9"/>
  </g>
</svg>
