<?xml version="1.0" encoding="UTF-8" standalone="no"?>
<svg width="24px" height="24px" viewBox="0 0 24 24" version="1.1" xmlns="http://www.w3.org/2000/svg" xmlns:xlink="http://www.w3.org/1999/xlink" xmlns:sketch="http://www.bohemiancoding.com/sketch/ns">
    <!-- Generator: Sketch 3.3.1 (12002) - http://www.bohemiancoding.com/sketch -->
    <title>tb_open</title>
    <desc>Created with Sketch.</desc>
    <defs></defs>
    <g id="Page-1" stroke="none" stroke-width="1" fill="none" fill-rule="evenodd" sketch:type="MSPage">
        <g id="tb_open" sketch:type="MSArtboardGroup">
            <g id="Group" sketch:type="MSLayerGroup" transform="translate(3.000000, 3.000000)">
                <g transform="translate(0.000000, 3.000000)" sketch:type="MSShapeGroup">
                    <path d="M13.8029047,2.34140647 L13.8347008,2.38230868 L13.8621705,2.42919658 L13.8848628,2.48132195 L13.9024,2.5380613 L13.9145384,2.5980429 L13.9210585,2.66064323 L13.921875,2.72461529 L13.8525793,4.90278271 L13.3600993,4.96875 L13.265625,2.26770766 L13.5994048,2.25 L13.6438023,2.25187053 L13.6870665,2.26222078 L13.728466,2.28092606 L13.767294,2.30748756 L13.8029047,2.34140647 Z" id="Fill-1635" stroke="#000000" stroke-width="0.5" fill="#A4A28D"></path>
                    <path d="M2.58398438,9.10864258 L1.49511719,2.38586426 L11.90625,0.192016602 L13.2348633,1.62353516 L13.3669434,4.77636719" id="Path-4050" stroke="#000000" stroke-width="0.5"></path>
                    <path d="M4.44626913,5.56669914 L4.46619977,5.64981872 L4.49668121,5.70335124 L4.53591388,5.72855039 L4.58206127,5.72692059 L4.62608864,5.7031005 L4.65786427,5.65370516 L4.69623414,5.4245308 L4.73345773,5.15674283 L4.79852505,4.96116734 L4.84581873,4.88770117 L4.90521623,4.82877778 L5.06684302,4.75042222 L5.15958151,4.734375 L5.24582437,4.74014197 L5.32447461,4.76747239 L5.39444755,4.81561405 L5.45464623,4.88444158 L5.50403527,4.9738296 L5.54155468,5.08302592 L5.56616908,5.21190515 L5.578125,5.51065924 L5.53886767,5.78822599 L5.21408572,5.8284694 L5.27392695,5.54889675 L5.27546766,5.29815895 L5.23499009,5.18495083 L5.20300492,5.16326201 L5.1655718,5.16401423 L5.12754704,5.18570305 L5.09901307,5.23371934 L5.05807945,5.46189074 L5.01890841,5.73695011 L4.95326178,5.93026895 L4.90626392,6.00172923 L4.89003098,6.01740034 L4.40844159,6.08158922 L4.34221565,6.09375 L4.32642644,6.08334438 L4.2624561,6.01063042 L4.2098254,5.91472321 L4.14027153,5.654332 L4.125,5.4709173 L4.13041098,5.29239198 L4.18675171,4.97633698 L4.53018244,4.9383502 L4.4808427,5.10145514 L4.4497573,5.26669136 L4.43793697,5.42478154 L4.44626913,5.56669914" id="Fill-1638" fill="#000000"></path>
                    <path d="M0.894963374,2.9125136 L0.990192718,2.88738217 L1.08740472,2.87562916 L1.39580653,2.859375 L2.578125,9.5460868 L0.803426713,14.3338623 L0.375,3.70696698 L0.375594796,3.60369054 L0.3892875,3.5011643 L0.415867453,3.40138876 L0.454826602,3.3058643 L0.505471017,3.21671648 L0.566858938,3.13519561 L0.637862731,3.06280208 L0.717206061,3.00091123 L0.803426722,2.95052333 L0.894963374,2.9125136 Z" id="Fill-1640" stroke="#000000" stroke-width="0.3" fill="#A4A28D"></path>
                    <path d="M11.2734375,5.14294329 L10.8248787,5.203125 L10.9394077,5.00447542 L10.6171875,3.28505154 L10.9229838,3 L11.2734375,5.14294329" id="Fill-1642" fill="#FFFFFF"></path>
                    <path d="M10.9248811,3.01393994 L10.6116674,3.30000627 L10.9417034,5.02555133 L10.8243963,5.22490811 L10.3402787,5.28868724 L10.374896,5.23894203 L10.0119636,3.577552 L9.63306944,3.87539679 L9.8695042,4.76066118 L9.55075374,5.11088255 L9.62508852,5.38266436 L7.78190751,5.625 L7.48615207,4.8458671 L7.4765625,4.75577437 L9.03463761,3.64220825 L11.0905101,2.625 L11.5078125,5.13506599 L11.2838355,5.16451215 L10.9248811,3.01393994 M8.94528872,4.20043229 L8.54429737,4.49802648 L8.83674821,5.39895372 L9.19978031,5.04058767 L8.94528872,4.20043229" id="Fill-1643" fill="#FE0011"></path>
                    <path d="M9.91227159,4.77684428 L9.67021164,3.90328249 L10.0581204,3.609375 L10.4296875,5.24880258 L10.3942467,5.2978902 L9.66204084,5.390625 L9.5859375,5.12243596 L9.91227159,4.77684428" id="Fill-1644" fill="#FFFFFF"></path>
                    <path d="M8.6015625,4.56824196 L9.0030231,4.265625 L9.2578125,5.11996047 L8.89435557,5.484375 L8.6015625,4.56824196" id="Fill-1646" fill="#FFFFFF"></path>
                    <path d="M4.546875,4.64345997 L4.05946791,4.78125 L3.984375,4.25792245 L4.47572296,4.125 L4.546875,4.64345997" id="Fill-1647" fill="#000000"></path>
                    <path d="M3.40207662,6.90249264 L3.43711071,6.81381123 L3.48662055,6.72412919 L3.54980681,6.63507254 L3.62555787,6.54826732 L3.71251234,6.46533957 L3.80909651,6.38791533 L3.91352431,6.31712029 L4.02384734,6.25470559 L4.13802973,6.20154678 L4.25392323,6.15864449 L4.36941706,6.12662412 L4.41527987,6.11836887 L4.48238794,6.10623615 L4.97039214,6.04219542 L7.83302041,5.66708181 L9.67911064,5.42517794 L10.3954297,5.33136827 L10.8803114,5.26770277 L11.3404757,5.20741443 L11.5648062,5.17802073 L13.310428,4.94925021 L13.8151436,4.88308312 L17.7931048,4.36175151 L17.8364946,4.359375 L17.8738643,4.36450326 L17.9045894,4.37701122 L17.9281827,4.39639855 L17.9442572,4.42254018 L17.9526004,4.45481071 L17.953125,4.49270981 L17.9458684,4.53548702 L17.930993,4.58239186 L17.9087985,4.63267384 L17.8797095,4.68533234 L17.8442258,4.73961687 L13.6244358,10.7498149 L0.984375,14.578125 L2.57001397,9.54417298 L3.40207662,6.90249264" id="Fill-1641" stroke="#000000" stroke-width="0.5" fill="#848372"></path>
                </g>
                <path d="M0.890625,0.984375 L1.80411338,5.39360215 L2.64652706,4.65549255 L4.5025474,6.75 L6.1875,5.27353168 L4.33161743,3.17889967 L5.17409374,2.4404164 L0.890625,0.984375 L0.890625,0.984375 Z" id="Stroke-23228" stroke="#FFFFFF" stroke-width="1.5" stroke-linecap="round" stroke-linejoin="round" sketch:type="MSShapeGroup"></path>
                <path d="M0.890625,0.984375 L1.80411338,5.39360215 L2.64652706,4.65549255 L4.5025474,6.75 L6.1875,5.27353168 L4.33161743,3.17889967 L5.17409374,2.4404164 L0.890625,0.984375 L0.890625,0.984375 Z" id="Stroke-23230" stroke="#000000" stroke-width="0.5" stroke-linecap="round" stroke-linejoin="round" fill="#0A8400" sketch:type="MSShapeGroup"></path>
            </g>
        </g>
    </g>
</svg>