<?xml version="1.0" encoding="UTF-8" standalone="no"?>
<svg width="513px" height="512px" viewBox="0 0 513 512" version="1.1" xmlns="http://www.w3.org/2000/svg" xmlns:xlink="http://www.w3.org/1999/xlink" xmlns:sketch="http://www.bohemiancoding.com/sketch/ns">
    <!-- Generator: Sketch 3.3.1 (12002) - http://www.bohemiancoding.com/sketch -->
    <title>Edit_4</title>
    <desc>Created with Sketch.</desc>
    <defs></defs>
    <g id="Page-1" stroke="none" stroke-width="1" fill="none" fill-rule="evenodd" sketch:type="MSPage">
        <g id="Edit_4" sketch:type="MSArtboardGroup" transform="translate(1.000000, 0.000000)">
            <g id="Group" sketch:type="MSLayerGroup" transform="translate(99.000000, 95.000000)">
                <rect id="Rectangle-67-Copy" fill="#000000" sketch:type="MSShapeGroup" transform="translate(198.915000, 69.420000) rotate(45.000000) translate(-198.915000, -69.420000) " x="181.56" y="29.37" width="34.71" height="80.1"></rect>
                <rect id="Rectangle-67-Copy-2" fill="#000000" sketch:type="MSShapeGroup" transform="translate(68.085000, 197.580000) rotate(45.000000) translate(-68.085000, -197.580000) " x="50.73" y="157.53" width="34.71" height="80.1"></rect>
                <rect id="Rectangle-67-Copy" fill="#000000" sketch:type="MSShapeGroup" transform="translate(69.420000, 68.085000) rotate(-45.000000) translate(-69.420000, -68.085000) " x="52.065" y="28.035" width="34.71" height="80.1"></rect>
                <rect id="Rectangle-67-Copy-2" fill="#000000" sketch:type="MSShapeGroup" transform="translate(197.580000, 198.915000) rotate(-45.000000) translate(-197.580000, -198.915000) " x="180.225" y="158.865" width="34.71" height="80.1"></rect>
                <rect id="Rectangle-67-Copy" fill="#000000" sketch:type="MSShapeGroup" x="117.088988" y="1.88320737" width="34.71" height="80.1"></rect>
                <rect id="Rectangle-67-Copy-2" fill="#000000" sketch:type="MSShapeGroup" x="115.201012" y="185.016793" width="34.71" height="80.1"></rect>
                <rect id="Rectangle-67-Copy" fill="#000000" sketch:type="MSShapeGroup" transform="translate(41.933207, 132.556012) rotate(-90.000000) translate(-41.933207, -132.556012) " x="24.5782074" y="92.5060124" width="34.71" height="80.1"></rect>
                <rect id="Rectangle-67-Copy-2" fill="#000000" sketch:type="MSShapeGroup" transform="translate(225.066793, 134.443988) rotate(-90.000000) translate(-225.066793, -134.443988) " x="207.711793" y="94.3939876" width="34.71" height="80.1"></rect>
                <circle id="Oval-27" stroke="#000000" stroke-width="42.6666667" sketch:type="MSShapeGroup" cx="133.5" cy="133.5" r="64.08"></circle>
            </g>
            <g id="Group-Copy" sketch:type="MSLayerGroup" transform="translate(282.000000, 284.500000)">
                <rect id="Rectangle-67-Copy-2" fill="#000000" sketch:type="MSShapeGroup" x="57.4795918" y="0" width="16.0408163" height="30.3853846"></rect>
                <rect id="Rectangle-67-Copy-3" fill="#000000" sketch:type="MSShapeGroup" x="57.4795918" y="101.08" width="16.0408163" height="30.3853846"></rect>
                <rect id="Rectangle-67-Copy-2" fill="#000000" sketch:type="MSShapeGroup" transform="translate(28.253505, 29.441159) rotate(-45.000000) translate(-28.253505, -29.441159) " x="20.2330966" y="14.2484665" width="16.0408163" height="30.3853846"></rect>
                <rect id="Rectangle-67-Copy-3" fill="#000000" sketch:type="MSShapeGroup" transform="translate(101.655864, 102.473704) rotate(-45.000000) translate(-101.655864, -102.473704) " x="93.6354554" y="87.2810119" width="16.0408163" height="30.3853846"></rect>
                <rect id="Rectangle-67-Copy-2" fill="#000000" sketch:type="MSShapeGroup" transform="translate(16.606358, 66.500000) rotate(-90.000000) translate(-16.606358, -66.500000) " x="8.58594976" y="51.3073077" width="16.0408163" height="30.3853846"></rect>
                <rect id="Rectangle-67-Copy-3" fill="#000000" sketch:type="MSShapeGroup" transform="translate(115.524725, 66.500000) rotate(-90.000000) translate(-115.524725, -66.500000) " x="107.504317" y="51.3073077" width="16.0408163" height="30.3853846"></rect>
                <rect id="Rectangle-67-Copy-2" fill="#000000" sketch:type="MSShapeGroup" transform="translate(30.926974, 100.898841) rotate(-135.000000) translate(-30.926974, -100.898841) " x="22.906566" y="85.7061488" width="16.0408163" height="30.3853846"></rect>
                <rect id="Rectangle-67-Copy-3" fill="#000000" sketch:type="MSShapeGroup" transform="translate(101.655864, 30.526296) rotate(-135.000000) translate(-101.655864, -30.526296) " x="93.6354554" y="15.3336035" width="16.0408163" height="30.3853846"></rect>
                <ellipse id="Oval-27" stroke="#000000" stroke-width="13.3333333" sketch:type="MSShapeGroup" cx="65.5" cy="65.17" rx="38.7653061" ry="38.57"></ellipse>
            </g>
        </g>
    </g>
</svg>