<svg width="24" height="24" viewBox="0 0 24 24" fill="none" xmlns="http://www.w3.org/2000/svg">
<path d="M14.1758 13.74V12.0348L12.7221 12.8741L12.722 14.5601L14.1758 13.74Z" fill="#005F9E"/>
<path d="M9.8146 13.74V12.0348L11.2683 12.8741L11.2684 14.5601L9.8146 13.74Z" fill="#005F9E"/>
<path fill-rule="evenodd" clip-rule="evenodd" d="M17.0982 9.56692L17.1257 14.4158C17.1257 14.424 17.1257 14.4323 17.1257 14.4406C17.1262 14.8734 17.1267 15.4362 15.9488 16.1084L12.0325 18.408C12.0325 18.408 8.72399 16.5815 7.83267 15.9815C6.94135 15.3816 6.90436 14.7674 6.90436 14.4158V9.56692L10.9405 7.2096C11.2513 7.03992 11.7096 6.9527 11.9951 6.9527C12.2805 6.9527 12.7198 7.02406 13.0306 7.19374L17.0982 9.56692ZM11.9814 16.6788L15.6391 14.5601V10.3839L11.9698 8.4801L8.37079 10.3839V14.5601L11.9814 16.6788Z" fill="#005F9E"/>
<path d="M10.478 10.844L11.9951 11.7246L13.4489 10.8023L11.9951 9.96341L10.478 10.844Z" fill="#005F9E"/>
<path d="M18.5464 13.742V9.50857L20 8.78174L19.9903 14.8058C19.9903 14.8058 19.7949 15.5741 19.1748 16.6477C18.5548 17.7213 17.6646 18.1014 17.6646 18.1014L12.3587 21.1962V19.4919L16.3461 17.1531C18.0159 16.173 18.5464 14.4746 18.5464 13.742Z" fill="#005F9E"/>
<path d="M5.45366 13.7388V9.50539L4 8.77856C4 8.77856 4.00015 14.1696 4.00015 14.5601C4.00015 14.9506 4.08254 15.5932 4.73644 16.5436C5.39034 17.494 6.33544 18.0982 6.33544 18.0982L11.6413 21.193V19.4888L7.65396 17.1499C6.88565 16.699 6.27376 16.1887 5.92855 15.5976C5.52348 14.9041 5.45366 14.1343 5.45366 13.7388Z" fill="#005F9E"/>
<path d="M10.4703 5.83479C10.9698 5.54459 11.5407 5.43992 12.018 5.42407C12.4954 5.43992 13.0234 5.54934 13.5214 5.83796L17.8097 8.2845L19.2634 7.44574L14.0815 4.4583C14.0815 4.4583 13.2061 4 11.9676 4C10.7291 4 9.81091 4.47574 9.81091 4.47574L4.73642 7.44574L6.19022 8.2956L10.4703 5.83479Z" fill="#005F9E"/>
<path d="M17.1258 22.076C19.5499 22.076 21.5151 20.1109 21.5151 17.6867C21.5151 15.2626 19.5499 13.2974 17.1258 13.2974C14.7016 13.2974 12.7365 15.2626 12.7365 17.6867C12.7365 20.1109 14.7016 22.076 17.1258 22.076Z" fill="#F9F9FB"/>
<path d="M17.1258 22.076C19.5499 22.076 21.5151 20.1109 21.5151 17.6867C21.5151 15.2626 19.5499 13.2974 17.1258 13.2974C14.7016 13.2974 12.7365 15.2626 12.7365 17.6867C12.7365 20.1109 14.7016 22.076 17.1258 22.076Z" stroke="#005F9E" stroke-miterlimit="10" stroke-linecap="round" stroke-linejoin="round"/>
<path fill-rule="evenodd" clip-rule="evenodd" d="M17.2781 15.7919C17.7123 15.3577 18.4144 15.3577 18.8485 15.7919C19.2827 16.226 19.2827 16.9281 18.8485 17.3623C18.7022 17.5086 18.5232 17.6047 18.3288 17.6554C17.9657 17.7428 17.5635 17.6437 17.2775 17.3616C16.8439 16.9274 16.8442 16.2258 17.2781 15.7919ZM19.2624 15.378C18.5996 14.7153 17.527 14.7153 16.8643 15.378C16.2566 15.9857 16.2061 16.9381 16.7129 17.603L16.4806 17.8357C16.2639 17.7489 16.0038 17.7923 15.8231 17.9661L14.0096 19.7833C13.7784 20.015 13.7784 20.3987 14.0096 20.6304C14.1252 20.7463 14.2769 20.8042 14.4359 20.8042C14.5876 20.8042 14.7394 20.7463 14.8622 20.6304L16.6757 18.8132C16.8491 18.6394 16.8925 18.3788 16.8058 18.1615L17.0393 17.9275C17.4557 18.2413 17.9847 18.3412 18.469 18.2236L18.469 18.2237L18.4734 18.2225C18.7597 18.1483 19.0347 18.0037 19.2624 17.7761C19.9251 17.1134 19.9251 16.0408 19.2624 15.378Z" fill="#005F9E"/>
</svg>
