<svg width="24" height="24" viewBox="0 0 24 24" fill="none" xmlns="http://www.w3.org/2000/svg">
<path fill-rule="evenodd" clip-rule="evenodd" d="M19.7225 3.5C19.3578 3.5 19.0081 3.64487 18.7502 3.90273L10.9131 11.7399L10.5892 14.009L12.8576 13.6845L20.6948 5.84729C20.8225 5.71961 20.9237 5.56803 20.9928 5.40121C21.0619 5.23438 21.0975 5.05558 21.0975 4.87501C21.0975 4.69444 21.0619 4.51564 20.9928 4.34882C20.9237 4.18199 20.8225 4.03041 20.6948 3.90273C20.5671 3.77505 20.4155 3.67377 20.2487 3.60467C20.0819 3.53557 19.9031 3.5 19.7225 3.5ZM18.0431 3.19562C18.4885 2.75022 19.0926 2.5 19.7225 2.5C20.0344 2.5 20.3432 2.56143 20.6314 2.68079C20.9195 2.80014 21.1813 2.97509 21.4019 3.19562C21.6224 3.41617 21.7974 3.67798 21.9167 3.96613C22.0361 4.25428 22.0975 4.56312 22.0975 4.87501C22.0975 5.1869 22.0361 5.49574 21.9167 5.78389C21.7974 6.07204 21.6224 6.33386 21.4019 6.5544L13.4469 14.5094C13.3704 14.5859 13.2712 14.6355 13.1641 14.6508L10.0708 15.0933C9.91501 15.1156 9.75781 15.0632 9.64651 14.952C9.5352 14.8407 9.48278 14.6835 9.50502 14.5277L9.94669 11.4335C9.96198 11.3264 10.0116 11.2271 10.0881 11.1506L18.0431 3.19562Z" fill="#0E416C"/>
<path fill-rule="evenodd" clip-rule="evenodd" d="M17.1589 4.0798C17.3542 3.88453 17.6707 3.88453 17.866 4.0798L20.5177 6.73146C20.7129 6.92672 20.7129 7.24331 20.5177 7.43857C20.3224 7.63383 20.0058 7.63383 19.8106 7.43857L17.1589 4.7869C16.9636 4.59164 16.9636 4.27506 17.1589 4.0798Z" fill="#0E416C"/>
<path d="M11 5.5H3.75C3.05964 5.5 2.5 6.05964 2.5 6.75V20.25C2.5 20.9404 3.05964 21.5 3.75 21.5H17.25C17.9404 21.5 18.5 20.9404 18.5 20.25V13" stroke="#0E416C" stroke-linecap="round"/>
</svg>
