<?xml version="1.0" encoding="UTF-8" standalone="no"?>
<svg width="512px" height="512px" viewBox="0 0 512 512" version="1.1" xmlns="http://www.w3.org/2000/svg" xmlns:xlink="http://www.w3.org/1999/xlink" xmlns:sketch="http://www.bohemiancoding.com/sketch/ns">
    <!-- Generator: Sketch 3.3.1 (12002) - http://www.bohemiancoding.com/sketch -->
    <title>SOI_RG_Plane</title>
    <desc>Created with Sketch.</desc>
    <defs></defs>
    <g id="Page-1" stroke="none" stroke-width="1" fill="none" fill-rule="evenodd" sketch:type="MSPage">
        <g id="SOI_RG_Plane" sketch:type="MSArtboardGroup">
            <path d="M243.168442,79.7264799 L243.16844,255.999994 L89.9912113,343.790048 L82.0683594,133.470704 L243.168442,79.7264799 Z" id="Path-2470" stroke="#000000" stroke-width="10" fill="#FFFFFF" sketch:type="MSShapeGroup"></path>
            <path d="M248.0039,262.759766 L399.886062,347.048498 L255.815678,434.120284 L95.6152344,351.923828 L248.0039,262.759766 Z" id="Path-2471" stroke="#000000" stroke-width="10" fill="#00FF00" sketch:type="MSShapeGroup"></path>
            <path d="M251.027609,255.999998 L251.027609,79.3954298 L410.94912,125.947888 L404.815006,338.90878 L251.027609,255.999998 Z" id="Path-2472" stroke="#000000" stroke-width="10" fill="#FFFFFF" sketch:type="MSShapeGroup"></path>
            <path d="M294.533203,344.986328 L349.522461,372.739258 L303.976562,399.668945 L252.082031,372.739258 L294.533203,344.986328 Z" id="Path-2477" fill="#D0011B" sketch:type="MSShapeGroup"></path>
            <path d="M200.22168,295.973633 L241.810547,317.045898 L198.3125,344.855468 L156.15918,322.300781 L200.22168,295.973633 Z" id="Path-2477-Copy" fill="#D0021B" sketch:type="MSShapeGroup"></path>
            <path d="M288.041992,290.264649 L334.69043,316.125 L294.412771,342.088978 L245.905273,317.185547 L288.041992,290.264649 Z" id="Path-2479" fill="#D0021B" sketch:type="MSShapeGroup"></path>
            <path d="M197.717773,345.933594 L248.883789,372.575195 L203.683594,402.202148 L150.642578,375.28125 L197.717773,345.933594 Z" id="Path-2480" fill="#D0021B" sketch:type="MSShapeGroup"></path>
            <path d="M196,292.649845 L353.84375,373.800777" id="Path-2473" stroke="#000000" stroke-width="3" sketch:type="MSShapeGroup"></path>
            <path d="M143,317.039073 L306.585938,402.61719" id="Path-2474" stroke="#000000" stroke-width="3" sketch:type="MSShapeGroup"></path>
            <path d="M248.06125,73.7675781 L415.437935,122.183187 L409.083977,345.050781 L256.399224,439 L85.9785156,352.005859 L78.7021484,132.8125 L248.06125,73.7675781 Z" id="Path-2481" stroke="#000000" stroke-width="8" sketch:type="MSShapeGroup"></path>
            <path d="M149.556641,375.69043 L289.753906,288.296875" id="Path-2500" stroke="#000000" stroke-width="3" sketch:type="MSShapeGroup"></path>
            <path d="M203.683594,402.202148 L338.979492,315.020508 L203.683594,402.202148 Z" id="Path-2501" stroke="#000000" stroke-width="3" sketch:type="MSShapeGroup"></path>
        </g>
    </g>
</svg>