<?xml version="1.0" encoding="UTF-8" standalone="no"?>
<svg width="24px" height="24px" viewBox="0 0 24 24" version="1.1" xmlns="http://www.w3.org/2000/svg" xmlns:xlink="http://www.w3.org/1999/xlink" xmlns:sketch="http://www.bohemiancoding.com/sketch/ns">
    <!-- Generator: Sketch 3.3.2 (12043) - http://www.bohemiancoding.com/sketch -->
    <title>dlg_instructor</title>
    <desc>Created with Sketch.</desc>
    <defs></defs>
    <g id="Page-1" stroke="none" stroke-width="1" fill="none" fill-rule="evenodd" sketch:type="MSPage">
        <g id="dlg_instructor" sketch:type="MSArtboardGroup">
            <g id="Group" sketch:type="MSLayerGroup" transform="translate(3.000000, 3.000000)">
                <path d="M0.421875,9.04646767 C0.421875,4.08085856 4.45602749,0.046875 9.42198509,0.046875 C14.3879427,0.046875 18.421875,4.08085856 18.421875,9.04646767 C18.421875,14.0125612 14.3879427,18.046875 9.42198509,18.046875 C4.45602749,18.046875 0.421875,14.0125612 0.421875,9.04646767 L0.421875,9.04646767 Z" id="Fill-31054" fill="#144689" sketch:type="MSShapeGroup"></path>
                <path d="M0.421875,9.04654473 C0.421875,4.08080731 4.45602749,0.046875 9.42198509,0.046875 C14.3879427,0.046875 18.421875,4.08080731 18.421875,9.04654473 C18.421875,14.0125023 14.3879427,18.046875 9.42198509,18.046875 C4.45602749,18.046875 0.421875,14.0125023 0.421875,9.04654473 L0.421875,9.04654473 Z" id="Stroke-31055" stroke="#000000" stroke-width="1.5" stroke-linecap="round" stroke-linejoin="round" sketch:type="MSShapeGroup"></path>
                <path d="M8.2453125,12.115625 L8.2453125,14.28125 L10.453125,14.28125 L10.453125,12.115625 L8.2453125,12.115625 Z M5.98125,7.475 L8.0484375,7.475 C8.0484375,7.22187373 8.07656222,6.98515735 8.1328125,6.76484375 C8.18906278,6.54453015 8.27578066,6.35234457 8.39296875,6.18828125 C8.51015684,6.02421793 8.66015534,5.89296924 8.84296875,5.79453125 C9.02578216,5.69609326 9.24374873,5.646875 9.496875,5.646875 C9.87187688,5.646875 10.1648427,5.74999897 10.3757813,5.95625 C10.5867198,6.16250103 10.6921875,6.48124784 10.6921875,6.9125 C10.7015625,7.16562627 10.6570317,7.37656166 10.5585938,7.5453125 C10.4601558,7.71406334 10.3312508,7.8687493 10.171875,8.009375 C10.0124992,8.1500007 9.83906344,8.2906243 9.6515625,8.43125 C9.46406156,8.5718757 9.28593834,8.73828029 9.1171875,8.93046875 C8.94843666,9.12265721 8.80078188,9.35468614 8.67421875,9.6265625 C8.54765562,9.89843886 8.47031264,10.2359355 8.4421875,10.6390625 L8.4421875,11.271875 L10.340625,11.271875 L10.340625,10.7375 C10.3781252,10.4562486 10.4695305,10.2218759 10.6148438,10.034375 C10.760157,9.84687406 10.9265616,9.68046948 11.1140625,9.53515625 C11.3015634,9.38984302 11.5007802,9.24453198 11.7117188,9.09921875 C11.9226573,8.95390552 12.1148429,8.77812603 12.2882813,8.571875 C12.4617196,8.36562397 12.6070307,8.11718895 12.7242188,7.8265625 C12.8414068,7.53593605 12.9,7.16562725 12.9,6.715625 C12.9,6.44374864 12.8414068,6.15078282 12.7242188,5.83671875 C12.6070307,5.52265468 12.4125014,5.22968886 12.140625,4.9578125 C11.8687486,4.68593614 11.5101585,4.45859466 11.0648438,4.27578125 C10.619529,4.09296784 10.0640658,4.0015625 9.3984375,4.0015625 C8.88280992,4.0015625 8.41640834,4.08828038 7.99921875,4.26171875 C7.58202916,4.43515712 7.22578273,4.67656095 6.93046875,4.9859375 C6.63515477,5.29531405 6.40546957,5.66093539 6.24140625,6.0828125 C6.07734293,6.50468961 5.99062505,6.96874747 5.98125,7.475 L5.98125,7.475 Z" id="?" stroke="#000000" stroke-width="0.5" fill="#FFFFFF" sketch:type="MSShapeGroup"></path>
            </g>
        </g>
    </g>
</svg>