<svg xmlns="http://www.w3.org/2000/svg" width="31" height="31" viewBox="0 0 31 31">
  <g fill="none" fill-rule="evenodd">
    <g fill="#4A4A4A" transform="translate(10 4)">
      <path d="M4.65006754 12.6638904L6.84293803 14.8718149C6.96266923 14.9923681 7.15679185 14.9923681 7.27652305 14.8718149 7.39625425 14.7512618 7.39625425 14.5558065 7.27652305 14.4352533L5.08365257 12.2273288C4.96392137 12.1067757 4.76979874 12.1067757 4.65006754 12.2273288 4.53033635 12.347882 4.53033635 12.5433373 4.65006754 12.6638904L4.65006754 12.6638904zM13.3218735 3.93255256L15.514744 6.14047707C15.6344752 6.26103022 15.8285979 6.26103022 15.9483291 6.14047707 16.0680603 6.01992392 16.0680603 5.82446864 15.9483291 5.70391549L13.7554586 3.49599098C13.6357274 3.37543783 13.4416047 3.37543783 13.3218735 3.49599098 13.2021423 3.61654413 13.2021423 3.81199941 13.3218735 3.93255256L13.3218735 3.93255256zM14.6176607 2.62786989L16.8105311 4.8357944C16.9302623 4.95634755 17.124385 4.95634755 17.2441162 4.8357944 17.3638474 4.71524125 17.3638474 4.51978598 17.2441162 4.39923282L15.0512457 2.19130831C14.9315145 2.07075516 14.7373918 2.07075516 14.6176607 2.19130831 14.4979295 2.31186146 14.4979295 2.50731674 14.6176607 2.62786989L14.6176607 2.62786989zM16.2489005 1.74325514C17.0277607 1.58857503 17.7758995 2.33288584 17.7053056 3.26593471 17.6795821 3.60592542 17.9324668 3.90253851 18.2701394 3.92843859 18.607812 3.95433866 18.9024027 3.69971789 18.9281262 3.35972718 19.05797 1.64356457 17.6195241.212478821 16.0115801.531813355 15.6793306.597797458 15.4631151.922478622 15.5286493 1.25700903 15.5941835 1.59153944 15.9166509 1.80923924 16.2489005 1.74325514L16.2489005 1.74325514z"/>
      <path d="M6.67060866,14.1895195 L2.35656723,17.1256954 L5.32773789,12.8374511 L16.5750413,1.54146816 C16.8145037,1.30036195 16.8145039,0.909451394 16.5750416,0.668345007 C16.3355792,0.427238621 15.9197229,0.512044908 15.6802604,0.753151125 L4.36481043,12.0892677 L0.0168327124,19.5368434 L7.4136866,15.1590599 L18.7566959,3.73817603 C18.9961582,3.49706968 18.9961581,3.10615913 18.7566957,2.86505288 C18.5172332,2.62394663 18.128988,2.62394671 17.8895256,2.86505307 L6.67060866,14.1895195 Z"/>
    </g>
    <path stroke="#4A4A4A" stroke-width="2" d="M7,20.0212402 L7,9.99855774 C7,8.89478478 7.89933625,8 8.99604249,8 L21.0355225,8 L22.9945323,8 C24.1021215,8 25,8.90027294 25,10.0044911 L25,12.0565186 L25,24.0022391 C25,25.105572 24.1017839,26 22.9997856,26 L13.0496826,26" transform="rotate(180 16 17)"/>
  </g>
</svg>
