<svg width="24" height="24" viewBox="0 0 24 24" fill="none" xmlns="http://www.w3.org/2000/svg">
<rect x="2.5" y="2.5" width="17" height="17" rx="1.5" stroke="#0E416C"/>
<path fill-rule="evenodd" clip-rule="evenodd" d="M20 13.2159V18H4V15.599L7.98392 10.7935L9.9862 13.2159L14.9938 6L20 13.2159Z" fill="#009AD9"/>
<path fill-rule="evenodd" clip-rule="evenodd" d="M7 5.5C7 5.91667 6.85417 6.27083 6.5625 6.5625C6.27083 6.85417 5.91667 7 5.5 7C5.08333 7 4.72917 6.85417 4.4375 6.5625C4.14583 6.27083 4 5.91667 4 5.5C4 5.08333 4.14583 4.72917 4.4375 4.4375C4.72917 4.14583 5.08333 4 5.5 4C5.91667 4 6.27083 4.14583 6.5625 4.4375C6.85417 4.72917 7 5.08333 7 5.5Z" fill="#009AD9"/>
<path fill-rule="evenodd" clip-rule="evenodd" d="M10.958 13.2373V18.3373L15.7719 20.7999V15.158L10.958 13.2373ZM16.2509 20.7904L21.0421 18.2362V13.2465L16.2509 15.1582V20.7904ZM20.8315 12.816L16.0065 11.0187L11.1812 12.8118L16.0116 14.7391L20.8315 12.816ZM22 18.8101V12.2324L16.0068 10L10 12.2321V18.9223L16.0163 22L22 18.8101Z" fill="#0E416C"/>
<path d="M16.249 20.8561L16.249 15.1488L21.0665 13.2271V18.28L16.249 20.8561Z" fill="#F1F1F6"/>
<path d="M10.9578 18.3355V13.2261L15.7875 15.1559V20.8179L10.9578 18.3355Z" fill="#F1F1F6"/>
<path d="M16.0361 11.0063L11.1907 12.8087L16.0361 14.7551L20.8672 12.816L16.0361 11.0063Z" fill="#F1F1F6"/>
</svg>
