<svg xmlns="http://www.w3.org/2000/svg" width="24" height="24" viewBox="0 0 24 24">
  <g fill="#000000">
    <polygon points="12 19 12 5 13 5 13 19"/>
    <path d="M13.4001932 8.86684557C13.9250836 9.01703785 14.404245 9.2969584 14.7990006 9.69171401L15.3293307 9.16138392C14.8328971 8.66495032 14.2376814 8.32638506 13.606518 8.14578379L13.4001932 8.86684557zM13.4291649 15.1077054C13.9540554 14.9575131 14.4332168 14.6775925 14.8279724 14.2828369L15.3583025 14.813167C14.8618689 15.3096006 14.2666532 15.6481659 13.6354897 15.8287671L13.4291649 15.1077054zM15.2343286 13.7729692C15.5319334 13.3152585 15.7099168 12.7896416 15.7488596 12.2327328L16.4970327 12.2850502C16.4480592 12.9854031 16.220963 13.6314182 15.863103 14.1818002L15.2343286 13.7729692zM15.2152664 10.1882182C15.5128712 10.6459289 15.6908545 11.1715458 15.7297974 11.7284546L16.4779704 11.6761372C16.428997 10.9757843 16.2019007 10.3297692 15.8440407 9.77938722L15.2152664 10.1882182zM13 15.2248727L13 17.7510681C13 17.9746576 12.7289301 18.0858043 12.5719634 17.9265758L7.06646729 12.1854248C7.01660537 12.1348444 6.99803949 12.0658903 7 12 7.00181217 11.9390951 7.02037805 11.8557133 7.06646729 11.80896L12.5719634 6.08285411C12.7289301 5.92362565 13 6.03477236 13 6.25836182L13 8.77512727C12.8369756 8.74991802 12.6699917 8.73683824 12.5 8.73683824 10.7027693 8.73683824 9.24165488 10.1989709 9.24165488 12 9.24165488 13.8010291 10.7027693 15.2631618 12.5 15.2631618 12.6699917 15.2631618 12.8369756 15.250082 13 15.2248727L13 15.2248727z"/>
  </g>
</svg>
