<svg width="24" height="25" viewBox="0 0 24 25" fill="none" xmlns="http://www.w3.org/2000/svg">
<path d="M14.25 9C14.25 7.20507 12.7949 5.75 11 5.75H5C3.20507 5.75 1.75 7.20507 1.75 9V15.25H11C12.7949 15.25 14.25 13.7949 14.25 12V9Z" stroke="#0E416C" stroke-width="1.5"/>
<path d="M7 15.4845V17.5C7 19.7091 8.79086 21.5 11 21.5H21V14.5C21 12.2909 19.2091 10.5 17 10.5H14.3402" stroke="#0E416C" stroke-width="1.5"/>
<path fill-rule="evenodd" clip-rule="evenodd" d="M14.6945 4.74353C14.9073 5.0385 15.1616 5.33389 15.4561 5.60902C16.2884 6.38674 17.267 6.84915 18.3912 6.84915C19.5156 6.84915 20.4966 6.38644 21.3324 5.60825C21.6281 5.33295 21.8838 5.03738 22.0979 4.74223C22.1626 4.65312 22.2161 4.57469 22.2582 4.50967C22.22 4.4448 22.1714 4.3667 22.1123 4.27806C21.9138 3.98045 21.6724 3.68235 21.388 3.4047C20.5827 2.61855 19.6018 2.15082 18.4307 2.15082C17.2585 2.15082 16.2637 2.61973 15.4368 3.40778C15.1447 3.68612 14.8952 3.98494 14.6888 4.28328C14.6277 4.37164 14.5772 4.44957 14.5374 4.51444C14.5789 4.57875 14.6313 4.65599 14.6945 4.74353ZM14.1535 3.913C14.3839 3.58002 14.6614 3.24753 14.9877 2.93665C15.9273 2.04119 17.0755 1.5 18.4306 1.5C19.7869 1.5 20.9237 2.04209 21.8425 2.939C22.1615 3.25042 22.4312 3.58346 22.6537 3.91699C22.7885 4.11913 22.8787 4.27894 22.9259 4.37556L23 4.52741L22.9184 4.67538C22.8665 4.76962 22.7685 4.92617 22.6246 5.12444C22.3871 5.45186 22.1043 5.77885 21.7758 6.08462C20.8284 6.9666 19.6976 7.5 18.3911 7.5C17.0845 7.5 15.9556 6.96658 15.0116 6.08458C14.6844 5.77879 14.4028 5.45179 14.1666 5.12436C14.0235 4.92607 13.9261 4.7695 13.8745 4.67522L13.7917 4.52391L13.8705 4.37046C13.9199 4.27421 14.0139 4.11476 14.1535 3.913Z" fill="#0E416C"/>
<path fill-rule="evenodd" clip-rule="evenodd" d="M20.3408 3.83528C20.3408 4.92924 19.4701 5.81607 18.396 5.81607C17.3219 5.81607 16.4512 4.92924 16.4512 3.83528C16.4512 2.74132 17.3219 1.85449 18.396 1.85449C19.4701 1.85449 20.3408 2.74132 20.3408 3.83528ZM18.6955 2.85548C18.6955 3.22013 18.4053 3.51575 18.0472 3.51575C17.6892 3.51575 17.3989 3.22013 17.3989 2.85548C17.3989 2.49083 17.6892 2.19522 18.0472 2.19522C18.4053 2.19522 18.6955 2.49083 18.6955 2.85548Z" fill="#0E416C"/>
</svg>
