<svg xmlns="http://www.w3.org/2000/svg" width="32" height="32" viewBox="0 0 32 32">
  <g fill="#000000" fill-rule="evenodd" transform="translate(5 6)">
    <path fill-rule="nonzero" d="M6.42935929,12.9379311 L16.1933094,8.01219584 C16.3299944,7.94324078 16.3849003,7.77653663 16.3159452,7.6398517 C16.2469902,7.50316677 16.080286,7.44826086 15.9436011,7.51721593 L6.17965092,12.4429512 C6.04296599,12.5119063 5.98806009,12.6786104 6.05701515,12.8152954 C6.12597021,12.9519803 6.29267436,13.0068862 6.42935929,12.9379311 Z"/>
    <path fill-rule="nonzero" d="M7.59232929,17.0161409 L6.57368128,12.8749644 C6.53711337,12.7263025 6.38695495,12.6354324 6.23829306,12.6720003 C6.08963117,12.7085682 5.99876103,12.8587266 6.03532894,13.0073885 L7.05397695,17.148565 C7.09054486,17.2972269 7.24070328,17.388097 7.38936517,17.3515291 C7.53802707,17.3149612 7.6288972,17.1648028 7.59232929,17.0161409 Z"/>
    <path fill-rule="nonzero" d="M.976528202 4.80626326L6.12522692 13.003437C6.20665563 13.1330785 6.3777619 13.1721628 6.50740346 13.0907341 6.63704502 13.0093053 6.67612925 12.8381991 6.59470054 12.7085575L1.44600182 4.51138379C1.36457311 4.38174223 1.19346684 4.342658 1.06382528 4.42408672.934183717 4.50551544.895099485 4.6766217.976528202 4.80626326zM7.13145125 16.6956883C6.92767386 16.8015623 6.8483075 17.0525844 6.95418152 17.2563618 7.06005555 17.4601392 7.31107761 17.5395056 7.514855 17.4336315L15.9000394 13.0770481C16.0295923 13.0097379 16.1143523 12.8794131 16.1233476 12.7336952L16.4285041 7.79032464C16.4426529 7.56112093 16.2683165 7.36384469 16.0391128 7.34969584 15.8099091 7.33554699 15.6126328 7.50988341 15.598484 7.73908712L15.3078257 12.4475936 7.13145125 16.6956883z"/>
    <path fill-rule="nonzero" d="M15.7242041,8.05750462 C15.8638565,8.23980035 16.1248471,8.27436959 16.3071428,8.13471717 C16.4894386,7.99506475 16.5240078,7.73407421 16.3843554,7.55177847 L10.8019625,0.264783986 C10.6866437,0.114252223 10.4840873,0.0608111594 10.3095166,0.134860511 L1.04889472,4.06302848 C0.83748755,4.15270311 0.738803829,4.39677815 0.828478464,4.60818532 C0.918153099,4.81959249 1.16222813,4.91827621 1.3736353,4.82860158 L10.3377075,1.02622395 L15.7242041,8.05750462 Z"/>
    <path fill-rule="nonzero" d="M3.63547378,9.68301743 L1.59817775,4.50654684 C1.51407766,4.29286084 1.27267433,4.1878107 1.05898833,4.2719108 C0.845302325,4.35601089 0.740252188,4.59741421 0.824352278,4.81110021 L2.86164832,9.9875708 C2.94574841,10.2012568 3.18715173,10.3063069 3.40083773,10.2222069 C3.61452374,10.1381068 3.71957387,9.89670344 3.63547378,9.68301743 Z"/>
    <path fill-rule="nonzero" d="M2.88611979,10.0390734 L6.96071187,17.2861322 C7.07325604,17.486303 7.3267616,17.5573384 7.52693238,17.4447942 C7.72710316,17.33225 7.79813856,17.0787445 7.68559438,16.8785737 L3.61100231,9.63151486 C3.49845813,9.43134408 3.24495257,9.36030868 3.04478179,9.47285286 C2.84461101,9.58539704 2.77357561,9.8389026 2.88611979,10.0390734 Z"/>
    <polygon points="9.228 16.255 10.315 17.565 10.988 16.998 10.098 15.934"/>
    <polygon points="11 18.422 12.277 20.007 13.011 19.595 11.66 17.863"/>
    <polygon points="17.413 11.899 18.734 13.637 19.516 13.157 18.164 11.425"/>
    <polygon points="15.59 9.54 16.911 11.278 17.692 10.798 16.341 9.066"/>
    <polygon points="13.747 19.189 15.525 18.217 15.132 17.423 13.319 18.413"/>
    <polygon points="16.568 17.653 18.346 16.68 17.953 15.887 16.14 16.876"/>
    <polygon points="19.315 16.167 21.093 15.194 20.57 14.508 20.117 13.95 19.315 14.442 19.726 14.95 18.887 15.39"/>
  </g>
</svg>
