<svg xmlns="http://www.w3.org/2000/svg" width="32" height="32" viewBox="0 0 32 32">
  <g fill="#000000" transform="translate(7 6)">
    <path d="M7.02868449,14.6673684 L17.8919169,9.06994194 C18.0280068,8.9998198 18.0814842,8.83265193 18.0113621,8.69656205 C17.9412399,8.56047217 17.7740721,8.50699474 17.6379822,8.57711688 L6.77474976,14.1745434 C6.63865988,14.2446655 6.58518246,14.4118334 6.65530459,14.5479232 C6.72542673,14.6840131 6.89259461,14.7374905 7.02868449,14.6673684 Z"/>
    <path d="M8.30454518,19.3468614 L7.17121185,14.640979 C7.13536674,14.4921412 6.98565164,14.4005425 6.83681381,14.4363876 C6.68797598,14.4722327 6.59637729,14.6219478 6.6322224,14.7707857 L7.76555573,19.476668 C7.80140084,19.6255058 7.95111594,19.7171045 8.09995377,19.6812594 C8.24879159,19.6454143 8.34039029,19.4956992 8.30454518,19.3468614 Z"/>
    <path d="M.998926418 5.43932538L6.72729556 14.7542955C6.80749157 14.8847032 6.97821962 14.9254078 7.10862732 14.8452118 7.23903503 14.7650158 7.27973965 14.5942878 7.19954363 14.46388L1.47117449 5.14890992C1.39097848 5.01850221 1.22025043 4.9777976 1.08984273 5.05799361.959435022 5.13818962.918730404 5.30891767.998926418 5.43932538zM7.84014442 19.0243699C7.63729625 19.1320135 7.56011772 19.3837169 7.66776135 19.586565 7.77540498 19.7894132 8.02710832 19.8665917 8.22995649 19.7589481L17.5591937 14.8082851C17.6871853 14.7403649 17.7705889 14.6107133 17.7793303 14.4660806L18.1188431 8.84861408C18.132697 8.61939235 17.9581069 8.42234063 17.7288851 8.40848675 17.4996634 8.39463287 17.3026117 8.56922301 17.2887578 8.79844474L16.9633184 14.1830566 7.84014442 19.0243699z"/>
    <path d="M11.4025229,1.10020037 L17.4165455,9.11840074 C17.5543349,9.30210865 17.81496,9.33933291 17.998668,9.20154344 C18.1823759,9.06375398 18.2196001,8.80312887 18.0818107,8.61942095 L11.8709196,0.338745402 C11.7554796,0.184834935 11.5495265,0.130219847 11.3729901,0.206703378 L1.0697536,4.67053062 C0.859039344,4.76182155 0.762227609,5.00664513 0.853518539,5.21735938 C0.94480947,5.42807364 1.18963305,5.52488538 1.40034731,5.43359445 L11.4025229,1.10020037 Z"/>
    <path d="M3.88970883,11.0269644 L1.62304217,5.14461151 C1.54047221,4.9303296 1.29982622,4.82355598 1.08554432,4.90612594 C0.871262412,4.9886959 0.764488785,5.22934188 0.847058746,5.44362379 L3.11372541,11.3259767 C3.19629537,11.5402586 3.43694136,11.6470323 3.65122326,11.5644623 C3.86550517,11.4818923 3.97227879,11.2412464 3.88970883,11.0269644 Z"/>
    <path d="M3.1374598 11.3769856L7.67079314 19.6122797C7.7815345 19.8134535 8.03439167 19.8867634 8.23556544 19.776022 8.4367392 19.6652807 8.51004914 19.4124235 8.39930778 19.2112497L3.86597444 10.9759556C3.75523308 10.7747818 3.5023759 10.7014719 3.30120214 10.8122133 3.10002838 10.9229546 3.02671844 11.1758118 3.1374598 11.3769856zM2.78806928 4.51246462L3.9392904 6.14791255 4.65888752 5.64137524 3.5076664 4.00592731 2.78806928 4.51246462zM4.51490096 6.96563652L5.66612208 8.60108445 6.38571919 8.09454714 5.23449807 6.4590992 4.51490096 6.96563652zM6.96132975 8.9122711L6.24173264 9.41880841 7.29717577 10.9181922 8.12660038 10.4904728 7.72327066 9.70834417 7.57538282 9.78460727 6.96132975 8.9122711zM9.01538288 10.0321436L10.7929479 9.11548518 10.3896182 8.33335654 8.61205316 9.25001496 9.01538288 10.0321436zM11.6817304 8.65715597L13.4592954 7.74049755 13.0559657 6.95836892 11.2784007 7.87502734 11.6817304 8.65715597zM14.3480779 7.28216834L16.1256429 6.36550993 15.7223132 5.5833813 13.9447482 6.50003971 14.3480779 7.28216834z"/>
  </g>
</svg>
