<?xml version="1.0" encoding="UTF-8" standalone="no"?>
<svg width="512px" height="512px" viewBox="0 0 512 512" version="1.1" xmlns="http://www.w3.org/2000/svg" xmlns:xlink="http://www.w3.org/1999/xlink" xmlns:sketch="http://www.bohemiancoding.com/sketch/ns">
    <!-- Generator: Sketch 3.3.1 (12002) - http://www.bohemiancoding.com/sketch -->
    <title>geo_located</title>
    <desc>Created with Sketch.</desc>
    <defs></defs>
    <g id="Page-1" stroke="none" stroke-width="1" fill="none" fill-rule="evenodd" sketch:type="MSPage">
        <g id="geo_located" sketch:type="MSArtboardGroup">
            <g id="googlemap" sketch:type="MSLayerGroup" transform="translate(152.000000, 151.000000)">
                <path d="M195.379747,198.198155 L195.379747,210 L119.088608,193.046871 L119.088608,154.704142 L195.379747,198.198155" id="Fill-2151" fill="#6083C8" sketch:type="MSShapeGroup"></path>
                <path d="M95.0203008,198.939137 L75.6486246,203.16568 L76.0396098,201.088788 L76.2340196,199.025123 L76.2266897,197.001145 L76.0216182,195.026774 L75.6173058,193.115239 L75.0189169,191.288036 L74.2272843,189.558394 L73.2534029,187.942849 L72.0994385,186.448016 L70.7763858,185.088775 L69.2940738,183.881664 L67.6628308,182.833296 L56.443038,176.789472 L56.443038,142.899408 L71.890702,151.931247 L81.9205471,157.796485 L84.9399791,160.106532 L87.648722,162.702648 L90.0292838,165.56499 L92.0666716,168.665447 L93.7492241,171.984176 L95.0669459,175.494721 L96.0098416,179.160701 L96.5745795,182.965582 L96.7594937,186.872985 L96.5612523,190.858106 L95.9798555,194.889527 L95.0203008,198.939137" id="Fill-2152" fill="#878584" sketch:type="MSShapeGroup"></path>
                <path d="M71.8246874,152.605282 L56.443038,143.552171 L56.443038,139.575896 L119.708861,57.1597633 L119.708861,88.4528326 L95.4973891,120.891215 L119.708861,127.721657 L119.708861,155.946746 L76.9685469,145.713514 L71.8246874,152.605282" id="Fill-2153" fill="#AFA956" sketch:type="MSShapeGroup"></path>
                <path d="M73.1898734,151.660553 L78.3203395,144.763314 L120.949367,155.004669 L120.949367,193.35418 L96.1606625,198.816568 L97.1136288,194.754197 L97.6910337,190.710073 L97.8879139,186.712395 L97.7042693,182.792679 L97.143409,178.975809 L96.2069872,175.298277 L94.898313,171.776671 L93.2273131,168.447484 L91.2039142,165.337257 L88.8396975,162.465895 L86.1495531,159.861599 L83.1508528,157.544272 L73.1898734,151.660553" id="Fill-2154" fill="#38507E" sketch:type="MSShapeGroup"></path>
                <path d="M119.088608,154.875146 L119.088608,126.745562 L195.379747,166.826378 L195.379747,198.195266 L119.088608,154.875146" id="Fill-2155" fill="#EEE773" sketch:type="MSShapeGroup"></path>
                <path d="M119.088608,86.9822485 L119.088608,55.7293556 L124.23634,49.0864606 L124.256202,48.7736006 L142.327887,25.7543882 L160.402882,2.44549076 L189.177215,0.621301775 L119.088608,86.9822485" id="Fill-2156" fill="#EEE773" sketch:type="MSShapeGroup"></path>
                <path d="M119.708861,57.2585656 L56.443038,139.792899 L56.443038,120.570188 L63.3523311,115.658694 L69.3464784,109.940514 L74.3184889,103.563374 L78.1857556,96.6766607 L80.8824252,89.4264401 L82.3693506,81.9637588 L82.6236407,74.4446426 L81.641978,67.0201379 L79.438628,59.8429506 L76.0466001,53.065787 L71.5201364,46.8247546 L65.9342135,41.2708997 L82.1663166,41.4285853 L99.3125703,29.6751943 L56.443038,28.5132999 L56.443038,2.4852071 L119.708861,6.45390616 L119.708861,57.2585656" id="Fill-2157" fill="#577C28" sketch:type="MSShapeGroup"></path>
                <path d="M55.8227848,142.469327 L55.8227848,176.449704 L53.9766331,174.410384 L42.149899,161.32226 L39.0386146,160.254519 L37.9655081,159.884789 L33.812902,158.898288 L29.7232066,158.361101 L25.7262306,158.258306 L21.8499709,158.591561 L18.1206127,159.344286 L14.5610479,160.50819 L11.1923563,162.058405 L8.03578277,163.98664 L5.10829016,166.271342 L2.42486505,168.884324 L0,171.810666 L0,154.536133 L2.49601024,153.353991 L5.08325759,152.357542 L7.75844829,151.53684 L10.5140067,150.905149 L13.3456509,150.462467 L16.2436644,150.212111 L19.204424,150.165688 L22.21986,150.31988 L25.2814085,150.679663 L28.381,151.243377 L31.512541,152.02263 L34.6643386,153.007472 L32.7671336,151.173742 L31.0749652,149.079708 L29.6178064,146.773453 L28.4213486,144.296425 L27.5060131,141.701681 L26.8869511,139.022379 L26.5750322,136.32484 L26.5763497,133.647196 L26.8892568,131.047477 L27.5094715,128.565476 L28.4261245,126.252588 L29.6237351,124.150265 L26.8406738,124.148607 L24.0696348,123.898251 L21.3257692,123.399198 L18.6222522,122.661396 L15.9755525,121.691475 L13.3967042,120.504359 L10.8982236,119.09673 L8.4922977,117.491802 L6.18963109,115.689574 L4.00059915,113.708283 L1.93393034,111.55622 L0,109.249965 L0,45.5402816 L1.92931908,43.0433581 L4.00553979,40.7039431 L6.22042773,38.5270104 L8.56706602,36.5341139 L11.0382084,34.7269117 L13.6243029,33.1170094 L16.3161271,31.7226451 L19.1024822,30.5421607 L21.9720046,29.58882 L24.9162954,28.8709131 L27.9197091,28.3950717 L30.9682474,28.167928 L55.8227848,27.3372781 L55.8227848,86.4642944 L55.720843,84.4912937 L55.3486483,80.5187647 L54.8078131,76.5694474 L54.10229,72.6532898 L53.2332318,68.7868717 L52.2050851,64.980141 L51.0229551,61.2463616 L49.6912886,57.5938235 L48.2138732,54.0407643 L46.596473,50.5905001 L43.4542273,45.6596565 L39.4831073,41.7600787 L34.9227339,39.0857509 L30.0399015,37.756048 L25.1048631,37.8074455 L20.3783195,39.2051257 L16.0965981,41.8479518 L12.4634177,45.5668094 L9.64363101,50.1660563 L7.76305956,55.4052849 L6.89993013,61.0341397 L7.08965062,66.7807114 L7.5591759,70.1116007 L8.12718457,73.4308842 L8.79466474,76.7319298 L9.5619458,80.0130796 L10.4263927,83.2726757 L11.3903112,86.507402 L12.4504074,89.7156005 L13.6099751,92.8922974 L14.8657205,96.0308606 L16.2187965,99.1346062 L17.6677209,102.200218 L19.2128231,105.221064 L21.7551106,109.132248 L24.8853341,112.42832 L28.4877178,114.961719 L32.4231005,116.609755 L36.5307468,117.284554 L40.6405341,116.946326 L44.5724584,115.581805 L48.1438808,113.230784 L51.1876431,109.981136 L53.554538,105.970473 L55.1268136,101.377858 L55.8227848,96.4155128 L55.8227848,119.290715 L54.4308424,120.370062 L53.2165983,121.686501 L52.2027795,123.20853 L51.4083249,124.906305 L50.8487153,126.745009 L50.5331732,128.689824 L50.4692743,130.699301 L50.6565245,132.730331 L51.09163,134.749755 L51.7688268,136.716124 L52.6723047,138.589645 L53.7869126,140.332186 L54.1271579,140.686995 L55.8227848,142.469327" id="Fill-2158" fill="#FFFFFF" sketch:type="MSShapeGroup"></path>
                <path d="M4.00553979,41.7710785 L1.92931908,44.1057609 L0,46.5976331 L0,6.78724415 L55.8227848,2.4852071 L55.8227848,28.4314544 L30.9682474,29.2604238 L27.9197091,29.4871081 L24.9162954,29.9619868 L21.9720046,30.6784414 L19.1024822,31.6298535 L16.3161271,32.8079498 L13.6243029,34.1994933 L11.0382084,35.8061387 L8.56706602,37.609685 L6.22042773,39.5985498 L4.00553979,41.7710785" id="Fill-2159" fill="#9ABB63" sketch:type="MSShapeGroup"></path>
                <path d="M16.6618958,96.7941458 L15.4041702,93.6556568 L14.242774,90.479035 L13.1810061,87.2709122 L12.2155677,84.0362624 L11.3497576,80.7767433 L10.5812667,77.495671 L9.91273397,74.1947034 L9.34382963,70.8754984 L8.87356396,67.5446877 L8.6835443,61.7982518 L9.54803478,56.16953 L11.4315717,50.9304252 L14.2558048,46.3312869 L17.8947143,42.6125173 L22.1831875,39.9697536 L26.9171842,38.5721063 L31.8600046,38.5207101 L36.7505366,39.8503816 L41.3181012,42.5246462 L45.2954831,46.4241318 L48.4426837,51.354859 L50.0626343,54.8050416 L51.5423794,58.3580168 L52.8761459,62.0104687 L54.0601399,65.7441599 L55.0899079,69.5508006 L55.9603365,73.4171274 L56.6669721,77.3331925 L57.2086601,81.2824164 L57.5814417,85.2548516 L57.6835443,87.2278057 L57.6835443,97.178789 L56.9864757,102.141017 L55.4117207,106.733524 L53.0410935,110.744091 L49.9925316,113.993663 L46.4154775,116.344628 L42.477353,117.709117 L38.3610852,118.047337 L34.2469616,117.372554 L30.3053733,115.724557 L26.697309,113.191218 L23.5621496,109.895224 L21.0158532,105.984133 L19.4683146,102.963358 L18.0171054,99.8978181 L16.6618958,96.7941458" id="Fill-2160" fill="#9ABB63" sketch:type="MSShapeGroup"></path>
                <path d="M57.0632911,119.911243 L57.0632911,138.868241 L55.2952061,141.035503 L54.9404214,140.685205 L53.7781837,138.964818 L52.836098,137.115115 L52.129963,135.173746 L51.6762645,133.179995 L51.4810127,131.174787 L51.5476421,129.190858 L51.876668,127.270768 L52.460191,125.45544 L53.2885945,123.779249 L54.3457362,122.27657 L55.6118678,120.976868 L57.0632911,119.911243" id="Fill-2161" fill="#9ABB63" sketch:type="MSShapeGroup"></path>
                <path d="M124.286558,48.9420731 L124.266578,49.2558026 L119.088608,55.9171598 L119.088608,5.10957931 L160.64557,2.4852071 L142.464399,25.8588852 L124.286558,48.9420731" id="Fill-2162" fill="#9ABB63" sketch:type="MSShapeGroup"></path>
                <path d="M78.149206,95.4234656 L74.2884401,102.302382 L69.3247876,108.672302 L63.3407166,114.384008 L56.443038,119.289941 L56.443038,96.4149316 L56.443038,86.4637969 L56.443038,27.3372781 L99.2405063,28.497857 L82.1230756,40.2379411 L65.9182588,40.0804339 L71.4947917,45.6280009 L76.0136464,51.8619673 L79.3999722,58.631458 L81.5996184,65.8005193 L82.579631,73.2166182 L82.3257683,80.7272214 L80.8413424,88.1814536 L78.149206,95.4234656" id="Fill-2163" fill="#878584" sketch:type="MSShapeGroup"></path>
                <path d="M29.6774777,147.55096 L31.1375723,149.860722 L32.83315,151.95794 L34.7341772,153.794458 L31.5760297,152.808118 L28.4381796,152.027681 L25.3323433,151.463109 L22.2646266,151.10278 L19.2431154,150.948353 L16.2763907,150.994847 L13.3725386,151.245583 L10.5351894,151.688938 L7.77407933,152.321591 L5.09349889,153.14354 L2.50103898,154.141504 L0,155.325444 L0,109.970414 L1.93782665,112.280176 L4.00865921,114.435512 L6.20210142,116.419815 L8.50940724,118.224784 L10.9201804,119.832153 L13.4236947,121.241921 L16.0077386,122.430843 L18.6597706,123.402238 L21.3687345,124.141163 L24.1181281,124.640975 L26.8947501,124.891711 L29.6834184,124.893371 L28.483395,126.998891 L27.5648952,129.315296 L26.9434309,131.801072 L26.6298934,134.404743 L26.6285732,137.086458 L26.9411206,139.7881 L27.5614298,142.471476 L28.4786094,145.070166 L29.6774777,147.55096" id="Fill-2164" fill="#9ABB63" sketch:type="MSShapeGroup"></path>
                <path d="M195.379747,0.621301775 L195.379747,167.130178 L119.088608,126.873388 L119.088608,87.5656135 L189.26744,1.00787579 L195.379747,0.621301775" id="Fill-2166" fill="#E5D6CA" sketch:type="MSShapeGroup"></path>
                <path d="M33.8452391,158.444931 L38.0018166,159.422643 L39.0759494,159.78908 L12.0683338,194.467456 L0,191.230325 L0,171.242277 L2.42718408,168.342006 L5.11317549,165.752301 L8.04346782,163.487953 L11.2030601,161.576896 L14.5749734,160.040491 L18.1379425,158.886956 L21.8708672,158.140937 L25.750834,157.810651 L29.7516326,157.91253 L33.8452391,158.444931" id="Fill-2167" fill="#9ABB63" sketch:type="MSShapeGroup"></path>
                <path d="M39.9415175,160.207881 L55.8227848,173.779848 L34.2252324,200.059172 L13.6455696,194.539638 L39.9415175,160.207881 Z" id="Fill-2168" fill="#EEE773" sketch:type="MSShapeGroup"></path>
                <path d="M69.3311637,183.513071 L70.817754,184.715276 L72.1446251,186.068992 L73.3019201,187.55775 L74.2786122,189.166729 L75.0725295,190.889341 L75.6726455,192.709117 L76.0781248,194.612883 L76.2837882,196.57923 L76.2911392,198.594982 L76.0961684,200.650259 L75.7040547,202.71871 L56.443038,206.893491 L56.443038,176.449704 L67.6952128,182.468964 L69.3311637,183.513071" id="Fill-2169" fill="#3E5787" sketch:type="MSShapeGroup"></path>
                <path d="M57.0632911,176.640103 L57.0632911,207.514793 L33.4936709,201.15313 L55.1967301,174.585799 L57.0632911,176.640103" id="Fill-2170" fill="#6083C8" sketch:type="MSShapeGroup"></path>
                <path d="M96.1392405,120.55848 L120.329114,88.2248521 L120.329114,127.366864 L96.1392405,120.55848" id="Fill-2171" fill="#A79386" sketch:type="MSShapeGroup"></path>
                <path d="M195.760136,0.381032729 L118.579806,6.13778199 L56.5726612,2.07262389 L0.291955103,7.05881333 L0.628733188,191.252947 L56.4381922,207.224771 L120.284291,192.994291 L195.246489,209.426024 L195.760136,0.381032729 Z" id="Path-3345" stroke="#000000" stroke-width="15" sketch:type="MSShapeGroup"></path>
                <path d="M56.6526157,3.52637297 L56.2625346,206.30374" id="Path-3346" stroke="#000000" stroke-width="4" sketch:type="MSShapeGroup"></path>
                <path d="M195.45001,198.537468 L119.557432,154.389851 L77.345085,144.684437 L73.045713,151.834262" id="Path-3348" stroke="#000000" stroke-width="4" sketch:type="MSShapeGroup"></path>
                <path d="M159.337223,4.47410087 L119.515032,57.6524362 L56.7277245,139.478608" id="Path-3349" stroke="#000000" stroke-width="4" sketch:type="MSShapeGroup"></path>
                <path d="M188.552116,1.72071468 L119.519877,88.1423354 L97.0478145,120.545893 L119.579238,126.854775 L195.290101,167.216335" id="Path-3351" stroke="#000000" stroke-width="4" sketch:type="MSShapeGroup"></path>
                <path d="M119.637386,7.4738235 L119.937821,191.826923" id="Path-3347" stroke="#000000" stroke-width="4" sketch:type="MSShapeGroup"></path>
                <path d="M95.4305528,197.614616 C96.1392405,197.614616 97.6305133,187.996573 96.8848769,179.875965 C96.1392405,171.755357 93.1282264,166.750358 85.8384345,160.388689 C78.5486427,154.02702 67.6808866,149.133055 64.2906942,147.400812 C60.9005019,145.66857 56.5726612,142.289635 55.2624975,140.631414 C53.9523339,138.973194 50.313798,132.851794 51.1587718,128.644658 C52.0037455,124.437523 55.4520867,119.821445 58.5612268,117.973315 C61.6703668,116.125185 68.0649105,110.481896 73.4654742,103.160364 C78.8660379,95.8388325 82.2047444,89.9904655 83.0575925,79.8208961 C83.9104406,69.6513267 81.6220456,62.4851204 77.9544353,55.1799706 C74.2868251,47.8748209 66.4240259,40.3160538 66.4240259,40.3160538 L82.7638202,40.5059634 L100.162406,28.7151847 L56.5030039,27.2128964 C56.5030039,27.2128964 37.4865507,27.7486478 30.7419032,28.5598592 C23.9972556,29.3710706 21.4974659,29.5688679 13.5704608,33.7875312 C5.6434558,38.0061945 0.679613331,44.3969871 0.679613331,44.3969871" id="Path-3351" stroke="#000000" stroke-width="4" sketch:type="MSShapeGroup"></path>
                <path d="M0.615407437,109.915808 C2.11031448,112.033937 6.81067049,117.592889 13.6940269,121.327374 C20.5773833,125.061859 29.5601513,125.309712 29.5601513,125.309712 C29.5601513,125.309712 26.2941307,131.487235 27.219059,138.658902 C28.1439873,145.830569 33.0354467,152.047227 33.0354467,152.047227 C33.0354467,152.047227 25.8743696,149.42429 16.0520792,150.310738 C6.22978886,151.197185 0.615407437,155.361848 0.615407437,155.361848" id="Path-3352" stroke="#000000" stroke-width="4" sketch:type="MSShapeGroup"></path>
                <path d="M0.454892702,171.03637 C0.454892702,171.03637 4.85239072,165.002947 11.6194497,161.895225 C18.3865086,158.787502 23.4478713,156.930878 29.9344838,157.788808 C36.4210962,158.646739 40.2728441,160.183611 40.2728441,160.183611 L56.9306393,176.619591 C56.9306393,176.619591 64.0811165,180.564009 66.8165299,182.296858 C69.5519432,184.029706 74.0348472,188.325427 75.0348843,190.218455 C76.0349214,192.111483 76.7648091,194.563928 76.7648091,195.881767 C76.7648091,197.199605 76.7751063,202.386626 76.7751063,202.386626" id="Path-3353" stroke="#000000" stroke-width="4" sketch:type="MSShapeGroup"></path>
                <path d="M39.6259395,160.051949 L13.8648388,193.466335" id="Path-3354" stroke="#000000" stroke-width="4" sketch:type="MSShapeGroup"></path>
                <path d="M54.6676844,175.290831 L35.1890699,199.011938" id="Path-3329" stroke="#000000" stroke-width="4" sketch:type="MSShapeGroup"></path>
                <path d="M56.5635755,104.566181 C56.5635755,104.566181 52.5906843,111.665646 50.2756379,113.668495 C47.9605914,115.671343 42.4085987,118.089809 38.7882343,118.089809 C35.1678699,118.089809 31.4893567,116.932756 28.3802166,114.744851 C25.2710764,112.556947 21.0976933,106.975545 19.2987169,103.074207 C17.4997404,99.1728689 14.1313538,91.8592248 12.2172913,83.8629981 C10.3032288,75.8667714 9.01365954,67.484658 9.70296431,60.7201138 C10.3922691,53.9555697 12.7618305,46.3749596 17.3101513,43.080968 C21.8584721,39.7869764 25.0863337,37.7628918 31.2809904,38.4588226 C37.4756471,39.1547534 42.1990196,42.4596665 45.0676912,46.5272514 C47.9363627,50.5948364 51.9710375,58.6317145 52.930491,61.7515717 C53.8899445,64.871429 56.5635748,72.3428256 56.5635748,72.3428256" id="Path-3330" stroke="#000000" stroke-width="4" sketch:type="MSShapeGroup"></path>
            </g>
            <circle id="Oval-30" stroke="#000000" stroke-width="30" sketch:type="MSShapeGroup" cx="256" cy="256" r="170"></circle>
            <path d="M255.521023,384.762695 C255.521023,384.762695 276.246126,307.25 290.559653,281.905273 C304.873181,256 321.429654,247.36914 323.768514,214.38086 C326.107373,181.392579 314.363273,168.027344 304.244198,155.640625 C294.125123,143.253906 275.577229,134.564453 253.748433,134.564453 C231.919636,134.564453 215.588863,143.287109 205.19311,155.640625 C194.797356,167.99414 184.012409,183.822266 186.087501,214.38086 C188.162594,244.939453 205.471633,256 218.049461,281.905273 C230.627289,307.810546 253.748433,384.762695 253.748433,384.762695 L255.521023,384.762695 Z" id="Path-2091" stroke="#000000" stroke-width="15" fill="#D1351A" sketch:type="MSShapeGroup"></path>
            <circle id="Oval-72" stroke="#000000" stroke-width="11" fill="#FFFFFF" sketch:type="MSShapeGroup" cx="255.5" cy="208.5" r="27.5"></circle>
        </g>
    </g>
</svg>