<?xml version="1.0" encoding="UTF-8" standalone="no"?>
<svg width="24px" height="24px" viewBox="0 0 24 24" version="1.1" xmlns="http://www.w3.org/2000/svg" xmlns:xlink="http://www.w3.org/1999/xlink" xmlns:sketch="http://www.bohemiancoding.com/sketch/ns">
    <!-- Generator: Sketch 3.3.2 (12043) - http://www.bohemiancoding.com/sketch -->
    <title>geo_active</title>
    <desc>Created with Sketch.</desc>
    <defs></defs>
    <g id="Page-1" stroke="none" stroke-width="1" fill="none" fill-rule="evenodd" sketch:type="MSPage">
        <g id="geo_active" sketch:type="MSArtboardGroup" stroke="#000000">
            <g id="Group" sketch:type="MSLayerGroup" transform="translate(4.000000, 4.000000)">
                <circle id="Oval-30" stroke-width="1.40625" sketch:type="MSShapeGroup" cx="8" cy="8" r="7.96875"></circle>
                <path d="M7.97754794,14.0357513 C7.97754794,14.0357513 8.94903714,10.4023438 9.61998376,9.21430969 C10.2909304,8 11.0670151,7.59542846 11.1766491,6.04910279 C11.2862831,4.50277713 10.7357784,3.87628173 10.2614468,3.29565429 C9.78711512,2.71502685 8.91768263,2.30770873 7.89445777,2.30770873 C6.87123292,2.30770873 6.10572797,2.71658324 5.61842701,3.29565429 C5.13112606,3.87472533 4.62558165,4.61666873 4.72285162,6.04910279 C4.82012159,7.48153686 5.6314828,8.00000002 6.2210685,9.21430969 C6.81065419,10.4286194 7.89445777,14.0357513 7.89445777,14.0357513 L7.97754794,14.0357513 Z" id="Path-2091" stroke-width="0.703125" fill="#D1351A" sketch:type="MSShapeGroup"></path>
                <circle id="Oval-72" stroke-width="0.515625" fill="#FFFFFF" sketch:type="MSShapeGroup" cx="7.9765625" cy="5.7734375" r="1.2890625"></circle>
            </g>
        </g>
    </g>
</svg>