<svg width="25" height="24" viewBox="0 0 25 24" fill="none" xmlns="http://www.w3.org/2000/svg">
<path fill-rule="evenodd" clip-rule="evenodd" d="M9.18333 5C8.94077 5 8.74414 4.77614 8.74414 4.5C8.74414 4.22386 8.94077 4 9.18333 4H22.3591C22.6016 4 22.7983 4.22386 22.7983 4.5C22.7983 4.77614 22.6016 5 22.3591 5H9.18333ZM9.18333 12C8.94077 12 8.74414 11.7761 8.74414 11.5C8.74414 11.2239 8.94077 11 9.18333 11H22.3591C22.6016 11 22.7983 11.2239 22.7983 11.5C22.7983 11.7761 22.6016 12 22.3591 12H9.18333ZM8.74414 18.5C8.74414 18.7761 8.94077 19 9.18333 19H22.3591C22.6016 19 22.7983 18.7761 22.7983 18.5C22.7983 18.2239 22.6016 18 22.3591 18H9.18333C8.94077 18 8.74414 18.2239 8.74414 18.5ZM6.74414 6V3H3.74414V6H6.74414ZM7.24414 7H3.24414C2.968 7 2.74414 6.77614 2.74414 6.5V2.5C2.74414 2.22386 2.968 2 3.24414 2H7.24414C7.52028 2 7.74414 2.22386 7.74414 2.5V6.5C7.74414 6.77614 7.52028 7 7.24414 7ZM6.74414 13V10H3.74414V13H6.74414ZM7.24414 14H3.24414C2.968 14 2.74414 13.7761 2.74414 13.5V9.5C2.74414 9.22386 2.968 9 3.24414 9H7.24414C7.52028 9 7.74414 9.22386 7.74414 9.5V13.5C7.74414 13.7761 7.52028 14 7.24414 14ZM6.74414 20V17H3.74414V20H6.74414ZM7.24414 21H3.24414C2.968 21 2.74414 20.7761 2.74414 20.5V16.5C2.74414 16.2239 2.968 16 3.24414 16H7.24414C7.52028 16 7.74414 16.2239 7.74414 16.5V20.5C7.74414 20.7761 7.52028 21 7.24414 21Z" fill="#0E416C"/>
</svg>
