<svg width="25" height="25" viewBox="0 0 25 25" fill="none" xmlns="http://www.w3.org/2000/svg">
<path fill-rule="evenodd" clip-rule="evenodd" d="M12.5 8.4375C13.0523 8.4375 13.5 7.98978 13.5 7.4375C13.5 6.88522 13.0523 6.4375 12.5 6.4375C11.9477 6.4375 11.5 6.88522 11.5 7.4375C11.5 7.98978 11.9477 8.4375 12.5 8.4375ZM12.5 13.9375C13.0523 13.9375 13.5 13.4898 13.5 12.9375C13.5 12.3852 13.0523 11.9375 12.5 11.9375C11.9477 11.9375 11.5 12.3852 11.5 12.9375C11.5 13.4898 11.9477 13.9375 12.5 13.9375ZM13.5 18.4375C13.5 18.9898 13.0523 19.4375 12.5 19.4375C11.9477 19.4375 11.5 18.9898 11.5 18.4375C11.5 17.8852 11.9477 17.4375 12.5 17.4375C13.0523 17.4375 13.5 17.8852 13.5 18.4375Z" fill="#0E416C"/>
</svg>
