<svg xmlns="http://www.w3.org/2000/svg" width="24" height="24" viewBox="0 0 24 24"><path d="M12.49,17.75l7.32-7.34.05-.05a.5.5,0,0,0,.08-.26.46.46,0,0,0-.13-.33L14.19,4.13a.46.46,0,0,0-.64,0L6.23,11.47a1.23,1.23,0,0,0-.36.87v5.45a.32.32,0,0,0,.33.32h5.43A1.2,1.2,0,0,0,12.49,17.75Zm-5-2.49a1.28,1.28,0,0,1,2.56,0,1.28,1.28,0,1,1-2.56,0Z" fill="#a09f88" stroke="#000" stroke-miterlimit="10" stroke-width="0.68" fill-rule="evenodd"/><path d="M8.84,15.69,4.64,19.9a.34.34,0,0,1-.48,0h0a.33.33,0,0,1,0-.48l4.2-4.22a.34.34,0,0,1,.48,0h0A.36.36,0,0,1,8.84,15.69Z"/></svg>