<svg width="24" height="24" viewBox="0 0 24 24" fill="none" xmlns="http://www.w3.org/2000/svg">
<g id="tb-tag-default">
<g id="tag_tool_panel_inactive 1" clip-path="url(#clip0_24547_10254)">
<path id="Vector" fill-rule="evenodd" clip-rule="evenodd" d="M12.3104 17.7969L19.5266 10.6097L19.5759 10.5607C19.6254 10.4847 19.6527 10.3966 19.6548 10.3061C19.656 10.2465 19.6453 10.1873 19.6233 10.1318C19.6013 10.0763 19.5685 10.0257 19.5266 9.98299L13.9863 4.46035C13.9017 4.37899 13.7886 4.3335 13.6708 4.3335C13.5531 4.3335 13.4399 4.37899 13.3553 4.46035L6.13908 11.6476C6.0265 11.7595 5.93721 11.8923 5.87631 12.0385C5.81542 12.1847 5.78411 12.3413 5.78418 12.4995V17.8361C5.78416 17.8781 5.79263 17.9197 5.8091 17.9583C5.82557 17.997 5.84969 18.032 5.88004 18.0612C5.91038 18.0904 5.94633 18.1133 5.98575 18.1285C6.02517 18.1436 6.06725 18.1508 6.1095 18.1495H11.4626C11.6204 18.1498 11.7767 18.1189 11.9223 18.0583C12.0679 17.9978 12.1999 17.9089 12.3104 17.7969ZM7.38122 15.3588C7.38122 15.0263 7.51417 14.7075 7.75081 14.4725C7.98746 14.2374 8.30842 14.1054 8.64308 14.1054C8.97775 14.1054 9.29871 14.2374 9.53535 14.4725C9.772 14.7075 9.90494 15.0263 9.90494 15.3588C9.90494 15.6912 9.772 16.01 9.53535 16.245C9.29871 16.4801 8.97775 16.6121 8.64308 16.6121C8.30842 16.6121 7.98746 16.4801 7.75081 16.245C7.51417 16.01 7.38122 15.6912 7.38122 15.3588Z" stroke="#231F20" stroke-width="0.68" stroke-miterlimit="10"/>
<path id="Vector_2" fill-rule="evenodd" clip-rule="evenodd" d="M8.71181 15.7795L4.57133 19.9019C4.5085 19.9641 4.42343 19.999 4.33473 19.999C4.24604 19.999 4.16096 19.9641 4.09813 19.9019C4.06591 19.8717 4.04024 19.8353 4.02269 19.7949C4.00514 19.7545 3.99609 19.7109 3.99609 19.6669C3.99609 19.6229 4.00514 19.5794 4.02269 19.539C4.04024 19.4986 4.06591 19.4621 4.09813 19.4319L8.23861 15.2997C8.30144 15.2376 8.38652 15.2026 8.47521 15.2026C8.56391 15.2026 8.64899 15.2376 8.71181 15.2997C8.77279 15.3649 8.80668 15.4506 8.80668 15.5396C8.80668 15.6286 8.77279 15.7143 8.71181 15.7795Z" fill="#231F20"/>
</g>
</g>
<defs>
<clipPath id="clip0_24547_10254">
<rect width="16" height="16" fill="white" transform="translate(4 4)"/>
</clipPath>
</defs>
</svg>
