<svg xmlns="http://www.w3.org/2000/svg" width="24" height="24" viewBox="0 0 24 24"><path d="M10.51,3.44A1.64,1.64,0,0,1,11.62,3h4.25a.86.86,0,0,1,.87.85V6h.63a.86.86,0,0,1,.87.85V9h.63a.86.86,0,0,1,.87.85v4.06A1.48,1.48,0,0,1,19.27,15l-5.71,5.46a1,1,0,0,1-1.37,0l-4.4-4.19a.94.94,0,0,1,0-1.36.39.39,0,0,1,.14-.08L6.29,13.26a.94.94,0,0,1,0-1.36.39.39,0,0,1,.14-.08L4.79,10.26a.94.94,0,0,1,0-1.36ZM16,3.85V7.91a.74.74,0,0,1-.23.54L10,13.91a.24.24,0,0,1-.17.07.28.28,0,0,1-.17-.07L5.31,9.72a.19.19,0,0,1,0-.28L11,4a.84.84,0,0,1,.59-.23h4.25A.11.11,0,0,1,16,3.85Zm1.38,2.9h-.63V7.91A1.48,1.48,0,0,1,16.27,9l-5.71,5.46a1,1,0,0,1-1.37,0L6.91,12.28a.34.34,0,0,1-.1.16.19.19,0,0,0,0,.28l4.39,4.19a.28.28,0,0,0,.17.07.24.24,0,0,0,.17-.07l5.72-5.46a.74.74,0,0,0,.23-.54V6.85A.11.11,0,0,0,17.37,6.75Zm.87,3v1.16A1.48,1.48,0,0,1,17.77,12l-5.71,5.46a1,1,0,0,1-1.37,0L8.41,15.28a.34.34,0,0,1-.1.16.19.19,0,0,0,0,.28l4.39,4.19a.28.28,0,0,0,.17.07.24.24,0,0,0,.17-.07l5.72-5.46a.74.74,0,0,0,.23-.54V9.85a.11.11,0,0,0-.12-.1ZM13,5.52a1.12,1.12,0,1,0,1.12-1.09A1.1,1.1,0,0,0,13,5.52Zm1.49,0a.37.37,0,0,1-.74,0,.37.37,0,0,1,.74,0Z" fill="#363545" fill-rule="evenodd"/></svg>