<?xml version="1.0" encoding="utf-8"?>
<!-- Generator: Adobe Illustrator 28.3.0, SVG Export Plug-In . SVG Version: 6.00 Build 0)  -->
<svg version="1.2" baseProfile="tiny" id="emM02BiZo5n1"
	 xmlns="http://www.w3.org/2000/svg" xmlns:xlink="http://www.w3.org/1999/xlink" x="0px" y="0px" viewBox="0 0 44 44"
	 overflow="visible" xml:space="preserve">
<circle id="spinner-hole" fill="none" cx="21" cy="21" r="15.9"/>
<circle id="spinner-ring" fill="none" stroke="#DCEDF9" stroke-width="3" cx="21" cy="21" r="15.9"/>
<circle id="spinner-segment" fill="none" stroke="#009AD9" stroke-width="3" stroke-linecap="round" stroke-dasharray="75" cx="21" cy="21" r="15.9">
<animateTransform  accumulate="none" additive="replace" attributeName="transform" attributeType="XML" calcMode="linear" dur="3s" fill="remove" from="0 21 21" repeatCount="indefinite" restart="always" to="360 21 21" type="rotate">
	</animateTransform>
</circle>
<g transform="matrix(.399466 0 0 0.399466 11.214103 10.000317)">
	<path fill="#0063A3" d="M48.3,13.1L31.5,3.3c0,0-2.6-1.6-6.9-1.6c-4.4,0-7,1.6-7,1.6L2,12.3l23.7,13.6v27.5l15.5-8.9
		c0,0,2.8-1.5,4.9-5.2c1.9-3.2,2.1-6.4,2.1-6.4V13.1L48.3,13.1z M22.9,17.6c0,0,3.4-0.6,6.4,1.1c3,1.7,4.7,2.6,4.7,2.6s0,2.4,0,5.9
		c0,2.8-2.4,5.7-2.4,5.7V22.6C31.6,22.6,22.9,17.6,22.9,17.6z M36.7,40.2l-5.1,2.9v-2.7l4-2.3c3.8-2.7,4.4-6.7,4.4-8.1V17.7
		l-10.8-6.2c0,0-1.7-1.1-4.6-1.1s-4.5,1-4.5,1l-3.8,2.2l-2.4-1.4l5.2-3c0,0,2-1.1,5.5-1.1c3.2,0,5.6,1.2,5.6,1.2l12.2,7.1v13.4
		C42.4,31.9,41.4,37,36.7,40.2z"/>
	<path fill="#0063A3" d="M0.8,21.3l16.6,9.5v2.8l-9.4-5.4L2,31.6l15.4,8.8v2.7L1,33.7c0,1.1,1.1,4.5,3,7.1c1.9,2.6,4.1,3.8,4.1,3.8
		l15.2,8.7v-26l-22.5-13V21.3z"/>
</g>
</svg>
