<svg width="602" height="132" viewBox="0 0 602 132" fill="none" xmlns="http://www.w3.org/2000/svg">
<path d="M148.545 87.3729L158.888 81.9403C163.487 91.0279 170.586 95.405 180.185 95.405C189.583 95.405 195.949 92.3721 195.949 85.3843C195.949 78.6964 191.15 75.5635 178.407 71.8085C163.476 67.4202 151.467 63.3542 151.467 48.623C151.467 35.4694 162.221 26.804 177.885 26.804C193.127 26.804 202.115 34.3251 206.814 43.4015L197.316 49.9783C192.716 42.2461 186.139 38.7022 177.785 38.7022C169.22 38.7022 164.309 41.8351 164.309 47.4787C164.309 54.6888 169.842 57.0884 182.473 60.8434C197.093 65.1206 208.792 69.931 208.792 84.44C208.792 97.0715 198.038 106.992 179.663 106.992C164.32 107.003 153.455 99.0712 148.545 87.3729Z" fill="#363545"/>
<path d="M214.235 105.537V28.2705H227.078V74.3193L248.064 50.0895H262.162L244.098 70.3532L263.728 105.548H250.252L235.943 79.863L227.067 89.5727V105.548H214.235V105.537Z" fill="#363545"/>
<path d="M263.006 77.8742C263.006 56.7772 277.937 49.0562 289.424 49.0562C301.856 49.0562 313.754 56.4662 313.754 79.0295V82.0624H275.848C276.371 92.0832 282.536 96.4714 290.68 96.4714C297.89 96.4714 302.067 94.0718 306.244 89.9946L313.032 96.6825C307.288 103.048 299.667 106.703 289.746 106.703C275.848 106.692 263.006 98.2267 263.006 77.8742ZM301.956 72.4416C301.223 63.9873 297.045 59.488 289.324 59.488C283.059 59.488 277.315 63.043 276.06 72.4416H301.956V72.4416Z" fill="#363545"/>
<path d="M327.641 91.0279V60.3213H318.031V50.0894H327.641V30.77H340.484V50.0894H354.793V60.3213H340.484V87.7839C340.484 93.7386 342.261 96.1382 348.627 96.1382C350.504 96.1382 352.904 95.8272 354.159 95.405V105.537C352.804 105.848 347.994 106.27 344.761 106.27C330.674 106.27 327.641 101.049 327.641 91.0279Z" fill="#363545"/>
<path d="M359.803 77.8742C359.803 56.6773 374.112 49.0562 386.433 49.0562C400.22 49.0562 406.063 56.6773 409.407 65.2427L398.542 69.1088C396.353 62.843 392.376 59.8101 386.222 59.8101C378.912 59.8101 372.746 64.6094 372.746 77.8742C372.746 89.6724 377.545 96.1493 386.01 96.1493C391.854 96.1493 395.931 94.3717 398.964 86.5396L409.618 90.4057C405.652 99.2821 399.075 106.692 385.711 106.692C372.857 106.692 359.803 98.1268 359.803 77.8742Z" fill="#363545"/>
<path d="M417.339 105.537V28.2705H430.293V57.6107C433.848 53.8557 440.525 49.0452 450.546 49.0452C460.255 49.0452 466.521 54.7889 466.521 65.7539V105.537H453.578V68.9868C453.578 62.8321 450.968 60.0103 445.324 60.0103C439.681 60.0103 434.981 62.9321 430.282 67.2204V105.548H417.339V105.537Z" fill="#363545"/>
<path d="M476.341 77.3411V28.2705H489.395V76.1968C489.395 87.9951 494.516 94.9941 506.415 94.9941C518.213 94.9941 523.334 88.2062 523.334 76.2968V28.2705H536.177V77.2411C536.177 94.783 526.256 106.792 506.315 106.792C485.007 106.792 476.341 94.8941 476.341 77.3411Z" fill="#363545"/>
<path d="M544.631 126.423V50.0895H557.474V57.3995C561.129 53.0113 566.873 49.0452 575.127 49.0452C587.758 49.0452 597.057 58.5438 597.057 77.7632C597.057 96.9826 587.558 106.37 573.349 106.37C567.395 106.37 561.551 103.97 557.474 99.3711V126.412H544.631V126.423ZM584.214 77.8743C584.214 66.176 579.204 60.0213 570.95 60.0213C565.628 60.0213 560.507 63.3653 557.474 67.0203V89.2615C560.918 93.7497 565.928 96.1494 570.528 96.1494C580.248 96.1383 584.214 90.1947 584.214 77.8743Z" fill="#363545"/>
<path d="M111.306 34.4583L71.9677 11.7838C71.9677 11.7838 65.7353 8.13989 55.7923 8.13989C45.4382 8.13989 39.4391 11.8949 39.4391 11.8949L3 32.7474L58.4363 64.6094V129L94.9199 108.17C94.9199 108.17 101.441 104.57 106.396 96.0159C110.762 88.4837 111.306 81.1959 111.306 81.1959V34.4583V34.4583ZM51.9928 44.9345C51.9928 44.9345 60.125 43.4347 67.0018 47.4008C73.8785 51.3669 77.9335 53.6999 77.9335 53.6999C77.9335 53.6999 77.9446 59.2213 77.9446 67.4757C77.9446 74.0858 72.3454 80.9404 72.3454 80.9404L72.3565 56.6884L51.9928 44.9345ZM84.2215 98.1267L72.3454 104.937V98.5489L81.5885 93.2608C90.3872 86.9173 91.8426 77.5631 91.8426 74.3191L91.8092 45.59L66.6129 31.0921C66.6129 31.0921 62.7801 28.5814 55.8923 28.5814C49.0044 28.5814 45.2494 30.9032 45.2494 30.9032L36.3951 35.9914L30.807 32.7585L43.0386 25.7706C43.0386 25.7706 47.8268 23.1155 55.8478 23.1155C63.2134 23.1155 68.9459 25.9928 68.9459 25.9928L97.4306 42.4238L97.3973 73.7747C97.564 78.5963 95.3198 90.3834 84.2215 98.1267Z" fill="#005F9E"/>
<path d="M0.200195 53.5998L39.0612 75.8966L39.0279 82.5401L16.9311 69.8641L3.0109 77.763L39.0056 98.5044L39.0279 104.903L0.466823 82.7178C0.566808 85.3174 2.92202 93.3274 7.43247 99.5265C12.0096 105.803 17.231 108.47 17.231 108.47L52.8703 128.989V67.8089L0.244633 37.5688L0.200195 53.5998Z" fill="#005F9E"/>
</svg>
