<svg width="25" height="25" viewBox="0 0 25 25" fill="none" xmlns="http://www.w3.org/2000/svg">
<path fill-rule="evenodd" clip-rule="evenodd" d="M9.24414 5.63184C9.24414 5.35569 9.468 5.13184 9.74414 5.13184H20.7441C21.0203 5.13184 21.2441 5.35569 21.2441 5.63184C21.2441 5.90798 21.0203 6.13184 20.7441 6.13184H9.74414C9.468 6.13184 9.24414 5.90798 9.24414 5.63184ZM9.24414 9.63184C9.24414 9.35569 9.468 9.13184 9.74414 9.13184H18.7441C19.0203 9.13184 19.2441 9.35569 19.2441 9.63184C19.2441 9.90798 19.0203 10.1318 18.7441 10.1318H9.74414C9.468 10.1318 9.24414 9.90798 9.24414 9.63184ZM9.24414 13.6318C9.24414 13.3557 9.468 13.1318 9.74414 13.1318H16.7441C17.0203 13.1318 17.2441 13.3557 17.2441 13.6318C17.2441 13.908 17.0203 14.1318 16.7441 14.1318H9.74414C9.468 14.1318 9.24414 13.908 9.24414 13.6318Z" fill="#0E416C"/>
<path d="M5.74414 2.13184C5.9896 2.13184 6.19375 2.30871 6.23608 2.54196L6.24414 2.63184V21.1318C6.24414 21.408 6.02028 21.6318 5.74414 21.6318C5.49868 21.6318 5.29453 21.455 5.2522 21.2217L5.24414 21.1318V2.63184C5.24414 2.35569 5.468 2.13184 5.74414 2.13184Z" fill="#0E416C"/>
<path d="M8.36452 17.3064C8.54423 17.0968 8.85988 17.0725 9.06955 17.2522C9.25591 17.412 9.2958 17.6791 9.17615 17.8838L9.12378 17.9572L6.12378 21.4572C5.9464 21.6642 5.64212 21.6872 5.43655 21.5262L5.36452 21.4572L2.36452 17.9572C2.18481 17.7476 2.20909 17.4319 2.41875 17.2522C2.60512 17.0925 2.87523 17.0939 3.05917 17.2435L3.12378 17.3064L5.74415 20.3638L8.36452 17.3064Z" fill="#0E416C"/>
</svg>
