<?xml version="1.0" encoding="UTF-8" standalone="no"?>
<svg
   width="32"
   height="32"
   viewBox="0 0 32 32"
   fill="none"
   version="1.1"
   id="svg16"
   xmlns="http://www.w3.org/2000/svg"
   xmlns:svg="http://www.w3.org/2000/svg">
  <defs
     id="defs20" />
  <path
     d="M 21.9999,24.8633 19.8553,26.3047 14.7733,6.00391 17.1757,6 Z"
     fill="#009ad9"
     id="path2" />
  <path
     d="m 12.88269,21.8633 -2.65625,1.0937 0.95313,-4.0937 2.07812,0.5312 z"
     fill="#009ad9"
     id="path4" />
  <path
     d="m 13.72882,16.311 1.70598,0.3847 0.1745,0.7379 -3.92192,-0.8516 z"
     fill="#009ad9"
     id="path6" />
  <path
     d="m 13.74554,16.311 -2.00347,0.2632 1.78906,-7.54686 0.71097,2.80469 z"
     fill="#ffffff"
     id="path8" />
  <path
     d="m 13.74554,16.311 -2.00347,0.2632 1.78906,-7.54686 0.71097,2.80469 z"
     fill="#009ad9"
     id="path10" />
  <path
     fill-rule="evenodd"
     clip-rule="evenodd"
     d="M 10.15137,22.7958 8.64832,22.2677 12.3044,6.12671 h 2.3697 L 19.6843,26.1133 17.4771,25.355 16.1636,20.0198 11.08571,18.7199 Z M 15.7812,17.5936 11.59363,16.6796 13.53,8.48047 Z"
     fill="#dcedf9"
     id="path12" />
  <path
     d="M 8.64832,22.2677 8.5264,22.2401 8.5018,22.3487 8.60688,22.3856 Z m 1.50305,0.5281 -0.04143,0.1179 0.13201,0.0464 0.03126,-0.1364 z M 12.3044,6.12671 v -0.125 h -0.09985 l -0.02206,0.09738 z m 2.3697,0 0.1212,-0.0304 -0.0237,-0.0946 h -0.0975 z m 5.0102,19.98659 -0.0406,0.1183 0.2179,0.0748 -0.0561,-0.2235 z m -2.2072,-0.7583 -0.1214,0.0299 0.0163,0.0662 0.0645,0.0221 z M 16.1636,20.0198 16.285,19.99 16.2671,19.9173 16.1946,19.8988 Z m -5.07789,-1.2999 0.031,-0.1211 -0.1242,-0.0318 -0.02864,0.125 z m 0.50792,-2.0403 -0.12166,-0.0287 -0.02922,0.1237 0.12422,0.0271 z m 4.18757,0.914 -0.0267,0.1221 0.1962,0.0429 -0.0481,-0.195 z M 13.53,8.48047 13.65135,8.45049 13.40835,8.45174 Z M 8.60688,22.3856 10.10994,22.9137 10.19281,22.6778 8.68975,22.1497 Z M 12.18249,6.09909 8.5264,22.2401 8.77023,22.2953 12.42632,6.15432 Z M 14.6741,6.00171 h -2.3697 v 0.25 h 2.3697 z M 19.8055,26.0829 14.7953,6.09631 14.5528,6.1571 19.563,26.1437 Z m -2.369,-0.6097 2.2072,0.7584 0.0812,-0.2365 -2.2072,-0.7583 z m -1.3943,-5.4235 1.3135,5.3352 0.2428,-0.0598 L 16.285,19.99 Z m -4.98749,-1.2087 5.07789,1.2999 0.062,-0.2421 -5.07789,-1.3 z m -0.7815,3.9827 0.93434,-4.0759 -0.24368,-0.0558 -0.93434,4.0758 z m 1.29376,-6.022 4.18753,0.914 0.0534,-0.2442 -4.18762,-0.914 z m 1.84138,-8.34996 -1.93638,8.19916 0.24331,0.0574 1.93637,-8.1991 z m 2.49425,9.11186 -2.25125,-9.11311 -0.2427,0.05996 2.25125,9.11315 z"
     fill="#0e416c"
     id="path14" />
</svg>
