<?xml version="1.0" encoding="UTF-8" standalone="no"?>
<svg
   width="32"
   height="32"
   viewBox="0 0 32 32"
   fill="none"
   version="1.1"
   id="svg18"
   xmlns="http://www.w3.org/2000/svg"
   xmlns:svg="http://www.w3.org/2000/svg">
  <defs
     id="defs22" />
  <path
     d="m 24.1257,9.189 c 0,1.9299 -0.3945,3.84089 -1.1609,5.6239 -0.7665,1.783 -1.8899,3.403 -3.3061,4.7677 -1.4162,1.3646 -3.0975,2.4471 -4.9479,3.1856 -1.85037,0.7386 -3.8336,1.1187 -5.83643,1.1187 V 9.189 Z"
     fill="#dcedf9"
     id="path2" />
  <path
     d="M 24.5632,8.50153 H 7.82227"
     stroke="#009ad9"
     stroke-width="1.25"
     id="path4" />
  <path
     d="M 8.14258,24.9133 V 8.32672"
     stroke="#0e416c"
     stroke-width="1.25"
     id="path6" />
  <path
     d="M 7.82227,24.1974 23.4155,8.4574"
     stroke="#0e416c"
     stroke-width="0.75"
     id="path8" />
  <path
     d="m 23.8197,8.97949 c 0,1.9299 -0.3945,3.84089 -1.161,5.62391 -0.7664,1.783 -1.8898,3.403 -3.306,4.7677 -1.4162,1.3646 -3.0975,2.4471 -4.9479,3.1856 -1.85039,0.7386 -3.83361,1.1187 -5.83644,1.1187"
     stroke="#009ad9"
     stroke-width="1.25"
     id="path10" />
  <circle
     cx="8.125"
     cy="8.5015297"
     r="2.5"
     fill="#0e416c"
     stroke="#ffffff"
     id="circle12" />
  <circle
     cx="8.125"
     cy="23.501499"
     r="2.5"
     fill="#0e416c"
     stroke="#ffffff"
     id="circle14" />
  <circle
     cx="23.5625"
     cy="8.9794903"
     r="3"
     fill="#ff0404"
     stroke="#ffffff"
     id="circle16" />
</svg>
