<?xml version="1.0" encoding="UTF-8" standalone="no"?>
<svg
   width="33"
   height="32"
   viewBox="0 0 33 32"
   fill="none"
   version="1.1"
   id="svg14"
   xmlns="http://www.w3.org/2000/svg"
   xmlns:svg="http://www.w3.org/2000/svg">
  <defs
     id="defs18" />
  <path
     d="M 10.46369,24.8551 C 9.48977,23.8812 8.71722,22.725 8.19015,21.4525 7.66307,20.1801 7.39178,18.8162 7.39178,17.4389 c 0,-1.3773 0.27129,-2.7412 0.79837,-4.01363 0.52707,-1.27248 1.29962,-2.42868 2.27354,-3.4026 C 11.4376,9.04876 12.5938,8.27621 13.86628,7.74913 15.1388,7.22206 16.5026,6.95077 17.8799,6.95077 c 1.3773,0 2.7412,0.27129 4.0137,0.79836 1.2724,0.52708 2.4286,1.29963 3.4025,2.27354"
     stroke="#009ad9"
     stroke-width="1.25"
     id="path2" />
  <path
     d="m 10.12061,9.6886 7.73809,7.7382"
     stroke="#0e416c"
     stroke-width="0.75"
     id="path4" />
  <path
     d="M 25.7144,9.58301 10.03467,25.2783"
     stroke="#0e416c"
     stroke-width="0.75"
     id="path6" />
  <circle
     cx="10.12061"
     cy="23.9688"
     r="2.5"
     fill="#0e416c"
     stroke="#ffffff"
     id="circle8" />
  <path
     d="m 26.5503,9.58301 c 0,1.38071 -1.1193,2.5 -2.5,2.5 -1.3807,0 -2.5,-1.11929 -2.5,-2.5 0,-1.38071 1.1193,-2.5 2.5,-2.5 1.3807,0 2.5,1.11929 2.5,2.5 z"
     fill="#0e416c"
     stroke="#ffffff"
     id="path10" />
  <circle
     cx="9.6206102"
     cy="9.0830097"
     r="3"
     fill="#ff0404"
     stroke="#ffffff"
     id="circle12" />
</svg>
