<?xml version="1.0" encoding="UTF-8" standalone="no"?>
<svg
   width="32"
   height="32"
   viewBox="0 0 32 32"
   fill="none"
   version="1.1"
   id="svg28"
   xmlns="http://www.w3.org/2000/svg"
   xmlns:svg="http://www.w3.org/2000/svg">
  <defs
     id="defs32" />
  <path
     fill-rule="evenodd"
     clip-rule="evenodd"
     d="m 18.8067,12.73805 7.1935,-2.08705 -4.7665,5.6889 -0.8732,-1.3197 -4.6538,2.9003 -0.576,-0.907 4.5832,-2.9001 z"
     fill="#349c44"
     id="path2" />
  <path
     fill-rule="evenodd"
     clip-rule="evenodd"
     d="m 12.01519,12.65828 1.79636,-7.29766 2.52425,6.98854 -1.575,0.09925 0.175,5.49619 -1.07033,0.0473 -0.21024,-5.43471 z"
     fill="#009ad9"
     id="path4" />
  <path
     fill-rule="evenodd"
     clip-rule="evenodd"
     d="m 21.2755,20.0484 4.7243,5.8321 -7.0787,-2.1819 0.869,-1.3226 -4.4777,-3.1673 0.6065,-0.8867 4.45,3.1022 z"
     fill="#ff0404"
     id="path6" />
  <rect
     width="1.114"
     height="1.0854305"
     transform="matrix(0.55769199,-0.83004798,0.8280226,0.56069473,0,0)"
     fill="#ff0404"
     id="rect8"
     x="-7.3773971"
     y="18.038704" />
  <rect
     width="1.1139994"
     height="1.0854305"
     transform="matrix(0.5576913,-0.83004844,0.8280226,0.56069473,0,0)"
     fill="#ff0404"
     id="rect10"
     x="-7.4945998"
     y="15.643127" />
  <rect
     width="1.114"
     height="1.0854299"
     transform="matrix(0.55769199,-0.83004798,0.82802306,0.56069404,0,0)"
     fill="#ff0404"
     id="rect12"
     x="-7.5938683"
     y="13.150853" />
  <rect
     width="1.1139994"
     height="1.0854297"
     transform="matrix(-0.5576913,-0.83004844,-0.82802228,0.56069519,0,0)"
     fill="#349c44"
     id="rect14"
     x="-23.389425"
     y="5.6908717" />
  <rect
     width="1.114"
     height="1.0854299"
     transform="matrix(-0.55769199,-0.83004798,-0.82802306,0.56069404,0,0)"
     fill="#349c44"
     id="rect16"
     x="-23.448334"
     y="3.2585657" />
  <rect
     width="1.114"
     height="1.0854299"
     transform="matrix(-0.55769199,-0.83004798,-0.82802306,0.56069404,0,0)"
     fill="#009ad9"
     id="rect18"
     x="-23.604889"
     y="0.80473328" />
  <rect
     x="14.035"
     y="21.556801"
     width="1.11048"
     height="1.08887"
     fill="#009ad9"
     id="rect20" />
  <rect
     x="14.035"
     y="23.558001"
     width="1.11048"
     height="1.08886"
     fill="#009ad9"
     id="rect22" />
  <rect
     x="14.035"
     y="25.9111"
     width="1.11048"
     height="1.08887"
     fill="#009ad9"
     id="rect24" />
  <path
     d="m 18.1522,18.6614 c 0,1.933 -1.567,3.5 -3.5,3.5 -1.93297,0 -3.49998,-1.567 -3.49998,-3.5 0,-1.933 1.56701,-3.5 3.49998,-3.5 1.933,0 3.5,1.567 3.5,3.5 z"
     fill="#0e416c"
     stroke="#ffffff"
     id="path26" />
</svg>
