<?xml version="1.0" encoding="UTF-8" standalone="no"?>
<svg
   width="32"
   height="32"
   viewBox="0 0 32 32"
   version="1.1"
   id="svg15"
   xmlns="http://www.w3.org/2000/svg"
   xmlns:svg="http://www.w3.org/2000/svg"
   xmlns:sketch="http://www.bohemiancoding.com/sketch/ns">
  <!-- Generator: Sketch 3.3.1 (12002) - http://www.bohemiancoding.com/sketch -->
  <title
     id="title2">tb_browserback</title>
  <desc
     id="desc4">Created with Sketch.</desc>
  <defs
     id="defs6" />
  <g
     id="Page-1"
     stroke="none"
     stroke-width="1"
     fill="none"
     fill-rule="evenodd"
     sketch:type="MSPage"
     transform="translate(4,4)">
    <g
       id="tb_browserback"
       sketch:type="MSArtboardGroup">
      <g
         id="Group"
         sketch:type="MSLayerGroup"
         transform="translate(3,5)">
        <path
           d="M 17.101535,6.8709855 17.10161,3.4944656 8.2379237,3.4946159 8.2378862,0.11773266 0.85148953,6.8711108 8.2379612,13.624326 8.2378238,10.247781 17.10146,10.247531 Z"
           id="Fill-24742"
           fill="#3e3e3e"
           sketch:type="MSShapeGroup" />
        <path
           d="M 17.101535,6.8710294 17.10161,3.4945063 8.2379237,3.4946316 8.2378862,0.11773266 0.85148953,6.8710294 8.2379612,13.624326 8.2378238,10.247803 17.10146,10.247552 Z"
           id="Stroke-24743"
           stroke="#ffffff"
           stroke-width="1.22222"
           stroke-linecap="round"
           stroke-linejoin="round"
           sketch:type="MSShapeGroup" />
        <path
           d="M 17.101535,6.8709855 17.10161,3.4944656 8.2379237,3.4946159 8.2378862,0.11773266 0.85148953,6.8711108 8.2379612,13.624326 8.2378238,10.247781 17.10146,10.247531 Z"
           id="Fill-24744"
           fill="#3e3e3e"
           sketch:type="MSShapeGroup" />
        <path
           d="M 17.101535,6.8710294 17.10161,3.4945063 8.2379237,3.4946316 8.2378862,0.11773266 0.85148953,6.8710294 8.2379612,13.624326 8.2378238,10.247803 17.10146,10.247552 Z"
           id="Stroke-24745"
           stroke="#000000"
           stroke-width="0.5"
           stroke-linecap="round"
           stroke-linejoin="round"
           sketch:type="MSShapeGroup" />
      </g>
    </g>
  </g>
</svg>
