<?xml version="1.0" encoding="UTF-8" standalone="no"?>
<svg
   width="32"
   height="32"
   viewBox="0 0 32 32"
   version="1.1"
   id="svg15"
   xmlns="http://www.w3.org/2000/svg"
   xmlns:svg="http://www.w3.org/2000/svg"
   xmlns:sketch="http://www.bohemiancoding.com/sketch/ns">
  <!-- Generator: Sketch 3.3.1 (12002) - http://www.bohemiancoding.com/sketch -->
  <title
     id="title2">tb_browsernext</title>
  <desc
     id="desc4">Created with Sketch.</desc>
  <defs
     id="defs6" />
  <g
     id="Page-1"
     stroke="none"
     stroke-width="1"
     fill="none"
     fill-rule="evenodd"
     sketch:type="MSPage"
     transform="translate(4,4)">
    <g
       id="tb_browsernext"
       sketch:type="MSArtboardGroup">
      <g
         id="Group"
         sketch:type="MSLayerGroup"
         transform="translate(3,5)">
        <path
           d="m 0.82851262,6.8549727 -1.0002e-4,3.3793543 8.8712638,-2.76e-4 3.75e-5,3.379818 L 17.092415,6.85491 9.6996264,0.09573747 9.6997389,3.4750917 0.82846261,3.4751795 Z"
           id="Fill-24738"
           fill="#3e3e3e"
           sketch:type="MSShapeGroup" />
        <path
           d="m 0.82851262,6.8549915 -1.0002e-4,3.3793135 8.8712638,-2.51e-4 3.75e-5,3.379815 L 17.092415,6.8548661 9.6996264,0.09573747 9.6997389,3.475051 0.82846261,3.4751764 Z"
           id="Stroke-24739"
           stroke="#ffffff"
           stroke-width="1.22222"
           stroke-linecap="round"
           stroke-linejoin="round"
           sketch:type="MSShapeGroup" />
        <path
           d="m 0.82851262,6.8549727 -1.0002e-4,3.3793543 8.8712638,-2.76e-4 3.75e-5,3.379818 L 17.092415,6.85491 9.6996264,0.09573747 9.6997389,3.4750917 0.82846261,3.4751795 Z"
           id="Fill-24740"
           fill="#3e3e3e"
           sketch:type="MSShapeGroup" />
        <path
           d="m 0.82851262,6.8549915 -1.0002e-4,3.3793135 8.8712638,-2.51e-4 3.75e-5,3.379815 L 17.092415,6.8548661 9.6996264,0.09573747 9.6997389,3.475051 0.82846261,3.4751764 Z"
           id="Stroke-24741"
           stroke="#000000"
           stroke-width="0.5"
           stroke-linecap="round"
           stroke-linejoin="round"
           sketch:type="MSShapeGroup" />
      </g>
    </g>
  </g>
</svg>
