<?xml version="1.0" encoding="UTF-8" standalone="no"?>
<svg
   width="32"
   height="32"
   viewBox="0 0 32 32"
   fill="none"
   version="1.1"
   id="svg6"
   xmlns="http://www.w3.org/2000/svg"
   xmlns:svg="http://www.w3.org/2000/svg">
  <defs
     id="defs10" />
  <line
     x1="22.346901"
     y1="6.25843"
     x2="10.97193"
     y2="25.960501"
     stroke="#009ad9"
     stroke-width="1.25"
     stroke-linecap="round"
     id="line2" />
  <path
     fill-rule="evenodd"
     clip-rule="evenodd"
     d="m 15.1342,10.48604 c 1.0083,-1.21272 2.8827,-2.06746 4.5845,-2.06746 l -0.6094,0.9375 c -1.5171,0 -2.6029,0.89422 -3.4189,2.04626 l -0.2573,0.36336 -0.3907,-0.21369 c -0.4974,-0.27214 -1.06834,-0.42704 -1.67692,-0.42704 -1.933,0 -3.5,1.567 -3.5,3.50003 0,0.114 0.00544,0.2266 0.01604,0.3376 l 0.04873,0.51 -0.51097,0.0363 c -1.81484,0.1292 -3.2474,1.643 -3.2474,3.4911 0,1.933 1.567,3.5 3.5,3.5 h 1.92181 l -0.60938,1 H 9.67188 c -2.48529,0 -4.5,-2.0147 -4.5,-4.5 0,-2.2102 1.59309,-4.0479 3.6939,-4.428 0.02837,-2.46086 2.03209,-4.44703 4.4997,-4.44703 0.62722,0 1.22542,0.1286 1.76872,0.36107 z m 6.9244,-1.2826 c 1.6742,0.94184 2.8069,2.73658 2.8069,4.79653 0,0.94453 -0.2385,1.83423 -0.6584,2.61133 1.5076,0.39 2.621,1.7593 2.621,3.3887 0,1.93 -1.5622,3.4951 -3.4911,3.5 h -0.0083 -0.0013 -0.007 -9.49234 l 0.56254,-1 h 8.9298 0.007 0.0013 0.0058 m 0,0 c 1.3774,-0.0038 2.4936,-1.1217 2.4936,-2.5 0,-1.3702 -1.1024,-2.483 -2.4686,-2.4998 l -0.9857,-0.0121 0.5921,-0.7882 c 0.565,-0.7521 0.8996,-1.6862 0.8996,-2.69993 0,-1.68423 -0.9251,-3.15306 -2.2972,-3.92498 l 0.4903,-0.87155"
     fill="#0e416c"
     id="path4" />
</svg>
