<?xml version="1.0" encoding="UTF-8" standalone="no"?>
<svg
   width="32"
   height="32"
   viewBox="0 0 32 32"
   fill="none"
   version="1.1"
   id="svg18"
   xmlns="http://www.w3.org/2000/svg"
   xmlns:svg="http://www.w3.org/2000/svg">
  <defs
     id="defs22" />
  <path
     d="m 17,25.5 h 7 c 0.8284,0 1.5,-0.6716 1.5,-1.5 v -8.4772 c 0,-0.3877 -0.1501,-0.7603 -0.4188,-1.0397 L 22.6555,11.96034 C 22.3727,11.66622 21.9823,11.5 21.5743,11.5 H 17 c -0.8284,0 -1.5,0.67157 -1.5,1.5 v 11 c 0,0.8284 0.6716,1.5 1.5,1.5 z"
     stroke="#0e416c"
     id="path2" />
  <path
     d="m 15.5,20.4956 h -8 c -0.55228,0 -1,-0.4477 -1,-1 V 7.49561 c 0,-0.55229 0.44772,-1 1,-1 h 5.56393 c 0.27807,0 0.54358,0.11578 0.73279,0.31954 L 16.2328,9.43861 C 16.4045,9.62358 16.5,9.86665 16.5,10.11907 v 1.22269"
     stroke="#0e416c"
     id="path4" />
  <path
     d="m 8.48438,10.5 h 5.04687"
     stroke="#0e416c"
     stroke-width="0.5"
     stroke-linecap="round"
     id="path6" />
  <path
     d="m 8.48438,13.51562 h 5.04687"
     stroke="#0e416c"
     stroke-width="0.5"
     stroke-linecap="round"
     id="path8" />
  <path
     d="m 8.48438,16.5312 h 5.04687"
     stroke="#0e416c"
     stroke-width="0.5"
     stroke-linecap="round"
     id="path10" />
  <path
     d="M 17.9531,15.5156 H 23"
     stroke="#0e416c"
     stroke-width="0.5"
     stroke-linecap="round"
     id="path12" />
  <path
     d="M 17.9531,18.5312 H 23"
     stroke="#0e416c"
     stroke-width="0.5"
     stroke-linecap="round"
     id="path14" />
  <path
     d="M 17.9531,21.5469 H 23"
     stroke="#0e416c"
     stroke-width="0.5"
     stroke-linecap="round"
     id="path16" />
</svg>
