<?xml version="1.0" encoding="UTF-8" standalone="no"?>
<svg
   width="32"
   height="32"
   viewBox="0 0 32 32"
   fill="none"
   version="1.1"
   id="svg12"
   xmlns="http://www.w3.org/2000/svg"
   xmlns:svg="http://www.w3.org/2000/svg">
  <defs
     id="defs16" />
  <path
     fill-rule="evenodd"
     clip-rule="evenodd"
     d="m 10.15111,16.823 c 0.60161,0.6556 0.5683,1.6847 -0.07441,2.2984 -0.64271,0.6137 -1.65143,0.5797 -2.25304,-0.0759 -0.60161,-0.6557 -0.5683,-1.6847 0.07441,-2.2984 0.64271,-0.6138 1.65143,-0.5798 2.25304,0.0759 z m -0.41134,0.3928 c 0.38897,0.4239 0.36743,1.0892 -0.04811,1.486 -0.41553,0.3968 -1.0677,0.3748 -1.45667,-0.0491 -0.38896,-0.4239 -0.36742,-1.0892 0.04811,-1.486 0.41554,-0.3968 1.06771,-0.3748 1.45667,0.0491 z"
     fill="#0e416c"
     id="path2" />
  <path
     d="m 15.8638,16.7482 c 0.1944,-0.1856 0.2044,-0.4967 0.0225,-0.695 -0.1819,-0.1982 -0.4869,-0.2085 -0.6813,-0.0229 -0.1943,0.1856 -0.2044,0.4967 -0.0225,0.695 0.182,0.1982 0.487,0.2085 0.6813,0.0229 z"
     fill="#0e416c"
     id="path4" />
  <path
     fill-rule="evenodd"
     clip-rule="evenodd"
     d="m 7.58646,15.2714 c -0.89848,0.5095 -1.72869,1.6515 -1.56591,3.1707 0.07743,0.7226 0.49075,1.3471 0.99662,1.7866 0.50412,0.4379 1.14957,0.7357 1.7622,0.7563 1.12102,0.0378 1.89161,-0.4256 2.27525,-0.7919 0.18725,-0.1788 0.36462,-0.4131 0.5176,-0.6225 0.03777,-0.0517 0.07405,-0.1019 0.10912,-0.1504 0.11622,-0.1607 0.21908,-0.303 0.31848,-0.4213 0.21521,-0.2563 0.40175,-0.3267 0.57461,-0.3556 0.14544,-0.0243 2.75847,-0.5597 5.46217,-1.179 1.3542,-0.3102 2.7385,-0.6431 3.8543,-0.9454 0.5575,-0.151 1.0526,-0.2957 1.4455,-0.4272 0.3753,-0.1256 0.7063,-0.2545 0.8966,-0.3837 0.5098,-0.3461 0.8806,-0.8493 1.1361,-1.3144 0.2562,-0.4666 0.4132,-0.92563 0.4809,-1.22042 L 26,12.52107 17.725,14.3055 20.0163,6 19.3686,6.10961 C 19.0758,6.15916 18.6164,6.28864 18.1431,6.5187 17.6713,6.74802 17.1546,7.09231 16.7825,7.58832 16.6436,7.7735 16.4957,8.10196 16.348,8.47569 c -0.1545,0.39125 -0.3287,0.88575 -0.5132,1.44323 -0.3693,1.11584 -0.7862,2.50292 -1.179,3.86099 -0.1235,0.42709 -0.2448,0.85199 -0.3617,1.26539 l -2.4443,0.5271 c -0.06545,0.0126 -0.12428,0.0259 -0.17921,0.0384 -0.16878,0.0384 -0.30087,0.0684 -0.47591,0.0427 C 11.17079,15.65 11.11244,15.6333 11.00899,15.5874 10.91141,15.5442 10.79909,15.4867 10.6727,15.4199 L 10.56695,15.3638 C 10.34929,15.2478 10.09603,15.1129 9.87632,15.0299 9.32177,14.8203 8.47643,14.7666 7.58646,15.2714 Z M 18.8342,7.14285 16.8034,14.5042 15.2193,14.8458 c 0.0776,-0.2723 0.1567,-0.5482 0.2368,-0.825 0.3916,-1.35432 0.805,-2.7292 1.1692,-3.82959 0.1823,-0.55064 0.3507,-1.02782 0.4966,-1.3974 0.1529,-0.3871 0.2635,-0.60862 0.3232,-0.68816 0.2634,-0.35107 0.6535,-0.62243 1.0569,-0.81854 0.1133,-0.05505 0.2251,-0.10298 0.3322,-0.14426 z M 6.84999,18.3496 c -0.121,-1.1292 0.49166,-1.9655 1.1419,-2.3343 0.65874,-0.3736 1.248,-0.3182 1.59459,-0.1873 0.16562,0.0626 0.36312,0.1676 0.58547,0.2857 l 0.11718,0.0621 c 0.12779,0.0675 0.26173,0.1366 0.38732,0.1923 0.11973,0.0531 0.26147,0.1077 0.39944,0.1279 0.34518,0.0507 0.66859,-0.0263 0.84528,-0.0683 0.03523,-0.0084 0.06465,-0.0152 0.08722,-0.0196 L 24.8041,13.64893 c -0.0474,0.1063 -0.1017,0.217 -0.163,0.32865 -0.2184,0.39772 -0.5096,0.77692 -0.8703,1.02182 -0.0818,0.0555 -0.3057,0.1535 -0.6945,0.2836 -0.3711,0.1242 -0.849,0.2641 -1.3996,0.4132 -1.1003,0.2982 -2.4724,0.6282 -3.8229,0.9376 -1.3497,0.3091 -2.6741,0.5967 -3.6776,0.8098 -0.50177,0.1065 -0.92303,0.1943 -1.22684,0.2569 -0.15194,0.0312 -0.27427,0.0561 -0.36247,0.0739 l -0.10532,0.0209 -0.03098,0.006 -0.01114,0.002 c -0.35407,0.0592 -0.72185,0.2234 -1.07325,0.6418 -0.12125,0.1443 -0.24921,0.3214 -0.36868,0.4868 -0.03212,0.0444 -0.06376,0.0882 -0.09437,0.1301 -0.1545,0.2116 -0.29222,0.3889 -0.41873,0.5097 -0.24387,0.2328 -0.8058,0.592 -1.67751,0.5626 C 8.42317,20.1214 7.95248,19.9232 7.55815,19.5807 7.16558,19.2396 6.89814,18.799 6.84999,18.3496 Z"
     fill="#0e416c"
     id="path6" />
  <path
     d="m 15.4103,24.1001 c -0.4036,0.6376 -1.2621,1.206 -2.35858,1.0083 -0.43637,-0.0786 -0.84971,-0.3799 -1.15739,-0.802 -0.30907,-0.424 -0.47185,-0.9162 -0.45917,-1.3077 0.0288,-0.8892 0.41717,-1.4375 0.66104,-1.6704 0.12651,-0.1208 0.30903,-0.2493 0.52613,-0.3926 0.04303,-0.0284 0.08783,-0.0577 0.13347,-0.0875 0.16962,-0.1107 0.35132,-0.2293 0.50054,-0.3432 0.43244,-0.33 0.61725,-0.6936 0.69852,-1.0501 l 0.0028,-0.0112 0.0079,-0.0311 0.02742,-0.1059 c 0.02318,-0.0886 0.05558,-0.2114 0.09618,-0.364 0.0475,-0.1783 0.106,-0.3968 0.1738,-0.6481 -0.35116,0.0745 -0.6612,0.1394 -0.91688,0.1924 -0.11992,0.448 -0.19352,0.7298 -0.20384,0.7751 -0.03968,0.174 -0.12089,0.3593 -0.38572,0.5614 -0.12232,0.0934 -0.26826,0.1887 -0.43316,0.2964 -0.04955,0.0324 -0.10142,0.0663 -0.15428,0.1012 -0.21495,0.1419 -0.45576,0.307 -0.64301,0.4858 -0.38364,0.3663 -0.88774,1.1201 -0.92477,2.2637 -0.02024,0.625 0.22842,1.3016 0.62354,1.8437 0.39649,0.5439 0.98007,1.0058 1.68174,1.1323 1.47518,0.266 2.64698,-0.5038 3.20468,-1.3847 0.5525,-0.8726 0.5557,-1.7366 0.3873,-2.3149 -0.0667,-0.2291 -0.1819,-0.4958 -0.281,-0.725 l -0.048,-0.1114 C 16.1126,21.2775 16.0638,21.1594 16.0279,21.0572 15.9899,20.9489 15.9774,20.8884 15.9755,20.8638 15.962,20.684 16,20.5515 16.0487,20.3822 c 0.0158,-0.055 0.0328,-0.1141 0.0494,-0.1799 l 0.6768,-2.4532 c -0.3158,0.0703 -0.6248,0.1384 -0.9229,0.2035 l -0.5609,2.0331 c -0.0057,0.0227 -0.0144,0.0522 -0.0249,0.0875 -0.0528,0.1771 -0.1494,0.5012 -0.1226,0.856 0.0107,0.1417 0.0548,0.2896 0.0988,0.415 0.0462,0.1315 0.1049,0.2724 0.1625,0.4069 l 0.053,0.1234 c 0.1009,0.2341 0.1905,0.4421 0.2408,0.6148 0.1052,0.3615 0.1205,0.9649 -0.2884,1.6108 z"
     fill="#0e416c"
     id="path8" />
  <path
     fill-rule="evenodd"
     clip-rule="evenodd"
     d="m 14.7627,21.849 c -0.6016,-0.6557 -1.61029,-0.6897 -2.253,-0.0759 -0.6427,0.6137 -0.67602,1.6427 -0.07441,2.2984 0.60162,0.6556 1.61031,0.6896 2.25301,0.0759 0.6427,-0.6137 0.6761,-1.6428 0.0744,-2.2984 z m -0.4113,0.3928 c -0.38895,-0.4239 -1.04113,-0.4459 -1.45666,-0.0491 -0.41553,0.3968 -0.43707,1.0621 -0.04811,1.486 0.38896,0.4239 1.04114,0.4459 1.45667,0.0491 0.4155,-0.3968 0.4371,-1.0621 0.0481,-1.486 z"
     fill="#0e416c"
     id="path10" />
</svg>
