<?xml version="1.0" encoding="UTF-8" standalone="no"?>
<svg
   width="32"
   height="32"
   viewBox="0 0 32 32"
   fill="none"
   version="1.1"
   id="svg12"
   xmlns="http://www.w3.org/2000/svg"
   xmlns:svg="http://www.w3.org/2000/svg">
  <defs
     id="defs16" />
  <circle
     cx="7"
     cy="25"
     r="1.75"
     stroke="#ff0404"
     stroke-width="0.5"
     id="circle2" />
  <path
     d="m 23.5564,15.529 1.7524,6.5398 c 0.0412,0.154 0.0196,0.3181 -0.0601,0.4561 -0.08,0.1386 -0.2121,0.2396 -0.3668,0.2805 l -8.6603,2.2904 c -0.1191,0.0314 -0.2443,0.0315 -0.3634,2e-4 l -0.5113,-0.1346 c -0.0612,-0.0161 -0.12,-0.0403 -0.1748,-0.072 l -3.7238,-2.1499 c -0.05245,-0.0303 -0.10129,-0.0667 -0.14094,-0.1125 -0.0476,-0.0549 -0.10794,-0.1336 -0.12463,-0.1959 -0.01669,-0.0623 -0.0038,-0.1606 0.01,-0.232 0.01144,-0.0595 0.03554,-0.1154 0.06582,-0.1679 l 2.33906,-4.0514 c 0.0703,-0.1217 0.17506,-0.2199 0.30109,-0.2823 l 0.43573,-0.2154 c 0.0409,-0.0202 0.0837,-0.0365 0.1277,-0.0485 l 8.4064,-2.2994 c 0.1441,-0.0394 0.2979,-0.0196 0.4273,0.0551 0.1285,0.0742 0.2222,0.1964 0.2606,0.3397 z"
     fill="#dcedf9"
     stroke="#0e416c"
     stroke-width="0.890172"
     stroke-miterlimit="10"
     id="path4" />
  <path
     d="m 17.7825,22.7915 -0.382,0.1024 -0.6546,-2.4431 C 16.721,20.358 16.6997,20.2786 16.682,20.2126 c -0.0165,-0.068 -0.0314,-0.1298 -0.0445,-0.1852 -0.0121,-0.0575 -0.0235,-0.1159 -0.0344,-0.1753 -0.0352,0.0633 -0.0692,0.1188 -0.102,0.1663 -0.0332,0.046 -0.0743,0.1033 -0.1232,0.1721 l -0.3092,0.4215 -0.2766,-0.2115 0.7412,-0.9695 0.3254,-0.0872 z m 3.5656,-0.9554 -2.2591,0.6054 -0.0879,-0.3278 0.6712,-1.1833 c 0.1251,-0.2189 0.2276,-0.4115 0.3078,-0.5779 0.0816,-0.1668 0.1356,-0.3236 0.162,-0.4705 0.0259,-0.1485 0.0178,-0.3014 -0.0243,-0.4586 -0.0522,-0.1949 -0.1502,-0.3279 -0.2939,-0.3989 -0.1426,-0.073 -0.3082,-0.0843 -0.4969,-0.0337 -0.165,0.0442 -0.3037,0.1117 -0.4159,0.2024 -0.1121,0.0907 -0.2211,0.2059 -0.327,0.3454 l -0.2806,-0.2078 c 0.0705,-0.1015 0.1512,-0.1964 0.2421,-0.2848 0.0925,-0.0888 0.1954,-0.167 0.3088,-0.2344 0.1149,-0.0679 0.2423,-0.1206 0.3823,-0.158 0.2122,-0.0569 0.4053,-0.069 0.5791,-0.0364 0.1739,0.0326 0.3208,0.1061 0.4408,0.2205 0.1215,0.1141 0.2076,0.2654 0.2581,0.4541 0.0489,0.1823 0.0582,0.3618 0.028,0.5384 -0.0306,0.175 -0.0905,0.3571 -0.1797,0.5461 -0.0896,0.1875 -0.1987,0.3903 -0.3273,0.6084 l -0.5496,0.9485 0.0044,0.0165 1.7616,-0.472 z m 1.9282,-3.35 c 0.0413,0.1541 0.0472,0.2957 0.0178,0.4249 -0.0294,0.1292 -0.0879,0.2443 -0.1754,0.3453 -0.088,0.0994 -0.2005,0.1826 -0.3375,0.2496 l 0.005,0.0189 c 0.2829,-0.0387 0.5116,-0.0056 0.6863,0.0992 0.1763,0.1044 0.2951,0.2714 0.3567,0.5009 0.0535,0.1997 0.0537,0.3892 6e-4,0.5685 -0.0514,0.179 -0.1621,0.3384 -0.3319,0.4782 -0.1686,0.1379 -0.403,0.247 -0.7033,0.3275 -0.1824,0.0489 -0.3554,0.0792 -0.519,0.091 -0.1617,0.013 -0.3223,0.0047 -0.4819,-0.025 l -0.0986,-0.3679 c 0.162,0.0324 0.3326,0.0465 0.5118,0.0423 0.1787,-0.0058 0.3467,-0.0297 0.5039,-0.0718 0.3145,-0.0843 0.525,-0.2072 0.6316,-0.3689 0.1063,-0.1633 0.1303,-0.3534 0.0722,-0.5704 -0.0401,-0.1493 -0.1116,-0.2591 -0.2146,-0.3292 -0.1019,-0.0721 -0.2316,-0.1098 -0.3892,-0.1131 -0.1565,-0.0052 -0.3369,0.0195 -0.5412,0.0743 l -0.3443,0.0922 -0.0898,-0.3348 0.3467,-0.0929 c 0.1871,-0.0501 0.3385,-0.1202 0.4542,-0.2102 0.1158,-0.09 0.1942,-0.1936 0.2352,-0.3107 0.0423,-0.1192 0.045,-0.2471 0.0084,-0.3839 -0.0468,-0.1745 -0.141,-0.2933 -0.2826,-0.3565 -0.142,-0.0647 -0.3129,-0.0703 -0.5125,-0.0168 -0.1226,0.0328 -0.2309,0.0753 -0.3248,0.1274 -0.0939,0.0521 -0.1789,0.112 -0.2552,0.1796 -0.0762,0.0676 -0.1506,0.1423 -0.223,0.2241 l -0.2701,-0.2158 c 0.0996,-0.1312 0.2304,-0.2564 0.3922,-0.3755 0.1618,-0.1192 0.3575,-0.2096 0.5871,-0.2711 0.3521,-0.0943 0.6377,-0.0849 0.8568,0.0282 0.219,0.1132 0.3618,0.294 0.4284,0.5424 z"
     fill="#0e416c"
     id="path6" />
  <path
     d="M 13.09496,6.62473 19.697,10.4364 c 0.1554,0.08973 0.2688,0.23754 0.3153,0.41089 0.0466,0.1741 0.0219,0.35961 -0.0688,0.5154 L 14.872,20.0813 c -0.0698,0.1198 -0.1694,0.2195 -0.2891,0.2894 l -0.5143,0.3 c -0.0615,0.0359 -0.1276,0.0634 -0.19644,0.0818 L 9.19568,22.0056 C 9.12981,22.0233 9.06194,22.0332 8.99392,22.0283 8.91226,22.0224 8.80156,22.0078 8.73869,21.9715 8.67582,21.9352 8.60783,21.8466 8.56191,21.7789 8.52367,21.7224 8.49831,21.6587 8.48066,21.5928 L 7.11738,16.5049 C 7.0764,16.352 7.08161,16.1904 7.13234,16.0405 L 7.3077,15.5221 c 0.01648,-0.0487 0.0376,-0.0957 0.06307,-0.1404 l 4.86218,-8.52359 c 0.08333,-0.14608 0.22162,-0.25277 0.38407,-0.2963 0.16136,-0.04324 0.33328,-0.0206 0.47794,0.06292 z"
     fill="#dcedf9"
     stroke="#0e416c"
     stroke-width="1.00229"
     stroke-miterlimit="10"
     id="path8" />
  <path
     d="m 10.05583,16.2389 c 0.19141,-0.3315 0.40792,-0.5347 0.64954,-0.6094 0.24163,-0.0748 0.52566,-0.0179 0.85211,0.1706 l 1.89021,1.0913 -0.17725,0.307 -0.4579,-0.1561 -0.01172,0.0203 c 0.05657,0.1364 0.09511,0.2669 0.11563,0.3915 0.01883,0.1236 0.01378,0.2515 -0.01515,0.3837 -0.02965,0.1294 -0.09086,0.2745 -0.18363,0.4352 -0.09766,0.1691 -0.21417,0.3026 -0.34955,0.4003 -0.13439,0.0961 -0.28361,0.1475 -0.44765,0.1543 -0.16306,0.0051 -0.33678,-0.0456 -0.52114,-0.152 -0.2774,-0.1602 -0.42705,-0.3932 -0.44895,-0.699 -0.02189,-0.3058 0.09028,-0.6876 0.33651,-1.1453 L 11.54345,16.34 11.37346,16.2419 c -0.24019,-0.1387 -0.43827,-0.1843 -0.59426,-0.1368 -0.15598,0.0475 -0.28817,0.1652 -0.39657,0.3529 -0.08398,0.1455 -0.14292,0.2964 -0.1768,0.4527 -0.03389,0.1564 -0.05626,0.3104 -0.06711,0.462 L 9.74433,17.3175 c 0.00799,-0.1623 0.03603,-0.3378 0.08411,-0.5265 0.04808,-0.1888 0.12388,-0.3728 0.22739,-0.5521 z m 1.78154,0.2776 -0.22687,0.4339 c -0.18666,0.3546 -0.27111,0.6317 -0.25335,0.8314 0.01777,0.1997 0.11799,0.3523 0.30067,0.4578 0.15899,0.0918 0.30438,0.1114 0.43616,0.059 0.13178,-0.0525 0.24357,-0.1582 0.33537,-0.3172 0.14258,-0.247 0.19077,-0.4887 0.14458,-0.7251 -0.04618,-0.2364 -0.20629,-0.4337 -0.4803,-0.5919 z m -1.5784,-3.21928 0.98696,0.56982 c 0.11333,0.06543 0.22132,0.13229 0.32398,0.20056 0.10363,0.0666 0.18407,0.1187 0.24132,0.1563 l 0.01318,-0.0229 c -0.08122,-0.1484 -0.12346,-0.31934 -0.12672,-0.51291 -0.0032,-0.19358 0.05957,-0.40201 0.18848,-0.62528 0.20117,-0.34844 0.48226,-0.55602 0.84328,-0.62272 0.36031,-0.06938 0.77811,0.03314 1.25341,0.30755 0.31294,0.18066 0.54944,0.38037 0.70954,0.59911 0.1602,0.21875 0.2454,0.44612 0.2557,0.68215 0.0104,0.236 -0.0523,0.4715 -0.1881,0.7067 -0.1269,0.2198 -0.272,0.3774 -0.4353,0.4726 -0.1639,0.0925 -0.32703,0.1427 -0.48937,0.1504 l -0.01905,0.033 0.32312,0.3016 -0.17574,0.3045 -3.94786,-2.27931 z m 1.94031,0.03771 c -0.11621,0.20128 -0.16874,0.38407 -0.1576,0.54837 0.0094,0.1633 0.07853,0.3171 0.20725,0.4613 0.12801,0.1416 0.31296,0.2822 0.55483,0.4219 l 0.02284,0.0131 c 0.35013,0.2022 0.65192,0.2986 0.90536,0.2893 0.25175,-0.0102 0.46654,-0.1693 0.64424,-0.4771 0.1494,-0.2588 0.1665,-0.5072 0.0513,-0.74512 -0.1143,-0.23961 -0.3473,-0.46098 -0.69913,-0.66411 -0.35859,-0.20703 -0.66549,-0.29852 -0.92069,-0.27446 -0.25423,0.02237 -0.45703,0.16464 -0.6084,0.42682 z m 4.31012,-1.62938 c -0.1445,0.25033 -0.3236,0.44128 -0.5371,0.57285 -0.2135,0.13156 -0.4568,0.18959 -0.7297,0.17408 -0.273,-0.01551 -0.5702,-0.11603 -0.8915,-0.30158 -0.3366,-0.19434 -0.57927,-0.40885 -0.72794,-0.64353 -0.14938,-0.23735 -0.21854,-0.48476 -0.20746,-0.74223 0.01108,-0.25747 0.08937,-0.51222 0.23488,-0.76425 0.08008,-0.1387 0.17161,-0.26402 0.27458,-0.37597 C 14.0274,9.5103 14.1236,9.42376 14.2138,9.36529 l 0.2794,0.33048 c -0.0827,0.06504 -0.1698,0.14556 -0.2613,0.24157 -0.0905,0.09432 -0.1636,0.18969 -0.2193,0.2861 -0.11131,0.19283 -0.16265,0.37744 -0.15398,0.55385 0.0096,0.17471 0.07624,0.34059 0.19978,0.49763 0.1246,0.15536 0.3044,0.30091 0.5395,0.43665 0.225,0.12989 0.4346,0.21028 0.6287,0.24118 0.1952,0.02922 0.3702,0.0074 0.525,-0.06561 0.1542,-0.07563 0.2845,-0.20562 0.391,-0.38999 0.0849,-0.14716 0.1464,-0.28873 0.1843,-0.42471 0.0362,-0.13695 0.061,-0.26584 0.0744,-0.38667 l 0.3755,0.2168 c -0.0064,0.12037 -0.0301,0.24539 -0.0711,0.37506 -0.0401,0.12797 -0.1055,0.27061 -0.1963,0.42792 z"
     fill="#0e416c"
     id="path10" />
</svg>
