<svg width="100%" height="100%" viewBox="0 0 42 42" class="cloud-spinner">
  <circle id="spinner-hole" cx="21" cy="21" r="15.91549430918954" fill="transparent"></circle>
  <circle id="spinner-ring" cx="21" cy="21" r="15.91549430918954" fill="transparent"
    stroke="#dcedf9" stroke-width="3"></circle>

  <circle id="spinner-segment" cx="21" cy="21" r="15.91549430918954" fill="transparent"
    stroke="#009ad9" stroke-width="3" stroke-dasharray="75" stroke-dashoffset="0"
    stroke-linecap="round">
    <animateTransform
      attributeName="transform"
      attributeType="XML"
      type="rotate"
      from="0 21 21"
      to="360 21 21"
      dur="8s"
      repeatCount="indefinite" />
  </circle>
  <g id="cloud" transform="translate(9 8.5)">
    <g transform="translate(0 0.000001)">
      <g transform="translate(0 0.000001)">
        <path
          d="M19.3657,13.0002l-.3998-.3003-.5921.7882.9858.0121.0061-.5ZM19.3358,19l.0006.5h.0006l-.0012-.5Zm-.0077,0l-.0006.5h.0012l-.0006-.5Zm-.0077,0l.0007-.5h-.0007v.5ZM5.38382,11.0102l.03549.4988.51097-.0364-.04873-.5099-.49773.0475ZM11.2824,7.11339l-.2399.43865.3906.21369.2574-.36336-.4081-.28898Zm8.4831,6.18721c.6906-.9194,1.1-2.0629,1.1-3.3006h-1c0,1.0137-.3346,1.9478-.8996,2.6999l.7996.6007ZM22.8281,16c0-1.9184-1.5434-3.4762-3.4563-3.4997l-.0122.9999c1.3661.0168,2.4685,1.1296,2.4685,2.4998h1ZM19.337,19.5c1.9289-.0049,3.4911-1.57,3.4911-3.5h-1c0,1.3786-1.1158,2.4965-2.4936,2.5l.0025,1Zm-.0083,0h.0077l-.0012-1h-.0077l.0012,1Zm-.0089,0h.0077l.0012-1h-.0076l-.0013,1Zm-13.64789,0h13.64849v-1h-13.64849v1Zm0-1c-1.933,0-3.5-1.567-3.5-3.5h-1c0,2.4853,2.01471,4.5,4.5,4.5v-1Zm-3.5-3.5c0-1.848,1.43256-3.3619,3.2474-3.491l-.07099-.9975C3.01383,10.6776,1.17191,12.6235,1.17191,15h1Zm2.6936-4.375c0,.1458.00695.2902.02058.4328l.99546-.0951c-.0106-.111-.01604-.2237-.01604-.3377h-1Zm4.5-4.5c-2.48528,0-4.5,2.01472-4.5,4.5h1c0-1.933,1.567-3.5,3.5-3.5v-1Zm2.15689.54973C10.8815,6.32412,10.146,6.125,9.36551,6.125v1c.60858,0,1.17949.1549,1.67699.42704l.4799-.87731ZM15.3655,4.5c-1.8552,0-3.4957.91902-4.4911,2.3244l.8161.57797C12.5064,6.25033,13.8483,5.5,15.3655,5.5v-1Zm5.5,5.5c0-3.03757-2.4624-5.5-5.5-5.5v1c2.4853,0,4.5,2.01472,4.5,4.5h1Z"
          fill="#0e416c" />
      </g>
    </g>
  </g>
</svg>