<?xml version="1.0" encoding="UTF-8" standalone="no"?>
<svg
   width="32"
   height="32"
   viewBox="0 0 32 32"
   fill="none"
   version="1.1"
   id="svg8"
   xmlns="http://www.w3.org/2000/svg"
   xmlns:svg="http://www.w3.org/2000/svg">
  <defs
     id="defs12" />
  <path
     d="m 23.3657,17.0002 -0.3998,-0.3003 -0.5921,0.7882 0.9857,0.0121 z M 23.3358,23 l 6e-4,0.5 h 6e-4 z m -0.0077,0 -7e-4,0.5 h 0.0013 z m -0.0077,0 6e-4,-0.5 h -6e-4 z M 9.38379,15.0102 9.41928,15.509 9.93025,15.4726 9.88152,14.9627 Z m 5.89861,-3.89681 -0.24,0.43865 0.3907,0.21369 0.2573,-0.36336 z m 8.483,6.18721 C 24.456,16.3812 24.8655,15.2377 24.8655,14 h -1 c 0,1.0137 -0.3346,1.9478 -0.8996,2.6999 z M 26.8281,20 c 0,-1.9184 -1.5434,-3.4762 -3.4563,-3.4997 l -0.0123,0.9999 c 1.3662,0.0168 2.4686,1.1296 2.4686,2.4998 z m -3.4911,3.5 c 1.9289,-0.0049 3.4911,-1.57 3.4911,-3.5 h -1 c 0,1.3786 -1.1159,2.4965 -2.4936,2.5 z m -0.0083,0 h 0.0077 l -0.0013,-1 h -0.0077 z m -0.0089,0 h 0.0076 l 0.0013,-1 H 23.321 Z m -13.64792,0 H 23.3204 v -1 H 9.67188 Z m 0,-1 c -1.933,0 -3.5,-1.567 -3.5,-3.5 h -1 c 0,2.4853 2.01471,4.5 4.5,4.5 z m -3.5,-3.5 c 0,-1.848 1.43256,-3.3619 3.2474,-3.491 L 9.34829,14.5115 C 7.0138,14.6776 5.17188,16.6235 5.17188,19 Z m 2.6936,-4.375 c 0,0.1458 0.00695,0.2902 0.02058,0.4328 L 9.88152,14.9627 C 9.87092,14.8517 9.86548,14.739 9.86548,14.625 Z m 4.5,-4.5 c -2.48528,0 -4.5,2.01472 -4.5,4.5 h 1 c 0,-1.933 1.567,-3.5 3.5,-3.5 z m 2.15692,0.54973 C 14.8814,10.32412 14.146,10.125 13.36548,10.125 v 1 c 0.60858,0 1.17952,0.1549 1.67692,0.42704 z M 19.3655,8.5 c -1.8552,0 -3.4958,0.91902 -4.4911,2.3244 l 0.816,0.57797 C 16.5064,10.25033 17.8483,9.5 19.3655,9.5 Z m 5.5,5.5 c 0,-3.03757 -2.4625,-5.5 -5.5,-5.5 v 1 c 2.4853,0 4.5,2.01472 4.5,4.5 z"
     fill="#0e416c"
     id="path2" />
  <circle
     cx="16.800701"
     cy="21.800699"
     r="5.8007202"
     fill="#ffffff"
     id="circle4" />
  <path
     d="m 17.2422,22.5156 h -1.3828 l -0.375,-7.9375 h 2.1328 z m -1.8516,2.5156 c 0,-0.427 0.1094,-0.7265 0.3282,-0.8984 0.2239,-0.1771 0.4973,-0.2656 0.8203,-0.2656 0.3177,0 0.5885,0.0885 0.8125,0.2656 0.2239,0.1719 0.3359,0.4714 0.3359,0.8984 0,0.4167 -0.112,0.7188 -0.3359,0.9063 -0.224,0.1823 -0.4948,0.2734 -0.8125,0.2734 -0.323,0 -0.5964,-0.0911 -0.8203,-0.2734 C 15.5,25.75 15.3906,25.4479 15.3906,25.0312 Z"
     fill="#ff0404"
     id="path6" />
</svg>
