<?xml version="1.0" encoding="UTF-8" standalone="no"?>
<svg
   width="32"
   height="32"
   viewBox="0 0 32 32"
   fill="none"
   version="1.1"
   id="svg14"
   xmlns="http://www.w3.org/2000/svg"
   xmlns:svg="http://www.w3.org/2000/svg">
  <defs
     id="defs18" />
  <path
     d="M 13.72644,6.48438 22.0625,14.7879"
     stroke="#0e416c"
     stroke-width="1.25"
     stroke-linecap="round"
     id="path2" />
  <path
     d="M 6.30261,13.87891 14.6387,22.1825"
     stroke="#0e416c"
     stroke-width="1.25"
     stroke-linecap="round"
     id="path4" />
  <path
     d="m 18.5532,23.0766 c 0,1.6952 -1.3801,3.0722 -3.0859,3.0722 -1.70584,0 -3.08591,-1.377 -3.08591,-3.0722 0,-1.6953 1.38007,-3.0723 3.08591,-3.0723 1.7058,0 3.0859,1.377 3.0859,3.0723 z"
     fill="#ff0404"
     stroke="#ffffff"
     stroke-width="0.833333"
     id="path6" />
  <path
     d="m 26.0122,15.6471 c 0,1.6953 -1.3801,3.0723 -3.0859,3.0723 -1.7059,0 -3.0859,-1.377 -3.0859,-3.0723 0,-1.6952 1.38,-3.07223 3.0859,-3.07223 1.7058,0 3.0859,1.37703 3.0859,3.07223 z"
     fill="#ff0404"
     stroke="#ffffff"
     stroke-width="0.833333"
     id="path8" />
  <path
     fill-rule="evenodd"
     clip-rule="evenodd"
     d="M 9.65689,10.32068 9.66775,8.12447 8.43689,9.35533 C 8.29894,9.49328 8.21591,9.59416 8.18778,9.658 8.12793,9.77499 8.15334,9.88883 8.26404,9.99953 c 0.03571,0.03571 0.09102,0.08395 0.16594,0.14472 0.07492,0.06077 0.13024,0.10901 0.16595,0.14472 0.18568,0.18569 0.21663,0.34042 0.09283,0.46422 C 8.5685,10.87344 8.4316,10.8568 8.27806,10.70325 8.23521,10.6604 8.17269,10.59258 8.09051,10.49979 8.00833,10.407 7.94582,10.33918 7.90297,10.29633 7.80298,10.19634 7.72623,10.12313 7.6727,10.07667 7.61917,10.03022 7.56205,9.97664 7.50135,9.91593 7.40493,9.81952 7.36281,9.74202 7.37497,9.68344 7.38713,9.62486 7.46394,9.52483 7.60542,9.38336 L 8.91056,8.07822 C 8.9813,8.00748 9.09799,7.88365 9.26062,7.70673 9.34194,7.61827 9.43919,7.51745 9.55237,7.40427 9.76105,7.19559 9.92967,7.15552 10.05822,7.28408 c 0.08213,0.08213 0.12183,0.21025 0.11911,0.38438 L 10.14918,9.59272 C 10.1704,9.57149 10.19691,9.54141 10.22871,9.50247 L 10.29768,9.4335 c 0.30065,-0.30064 0.64465,-0.45004 1.03203,-0.44819 0.38738,0.00185 0.73282,0.15453 1.03635,0.45805 0.37851,0.37851 0.55033,0.82444 0.51546,1.33781 -0.03487,0.51336 -0.26806,0.98579 -0.69957,1.4173 -0.39614,0.39615 -0.82415,0.62954 -1.28403,0.70021 C 10.43803,12.96934 10.06169,12.85826 9.76888,12.56545 9.60105,12.39762 9.50686,12.20794 9.4863,11.99638 9.46575,11.78483 9.52621,11.60832 9.66769,11.46684 c 0.09196,-0.09196 0.19479,-0.13945 0.3085,-0.14246 0.11371,-0.003 0.2152,0.04012 0.30447,0.12939 0.17854,0.17854 0.16347,0.37215 -0.04521,0.58083 l -0.05836,0.05836 0.0375,0.0375 c 0.17497,0.17497 0.42311,0.23035 0.74442,0.16613 0.32132,-0.06421 0.61284,-0.22718 0.87458,-0.48892 0.29357,-0.29357 0.44927,-0.61889 0.46712,-0.97596 0.01784,-0.35708 -0.10536,-0.66773 -0.3696,-0.93198 -0.46421,-0.46421 -0.95805,-0.43458 -1.48152,0.08889 -0.13794,0.13795 -0.26512,0.29726 -0.38153,0.47795 -0.0247,0.03898 -0.05119,0.07261 -0.07948,0.10091 C 9.90369,10.65236 9.81482,10.64839 9.72198,10.55554 9.67913,10.51269 9.65744,10.43441 9.65689,10.32068 Z"
     fill="#0e416c"
     id="path10" />
  <path
     d="M 18.453,7.41455 7.28643,18.5376"
     stroke="#0e416c"
     stroke-width="1.25"
     stroke-linecap="round"
     id="path12" />
</svg>
