<svg width="24" height="24" viewBox="0 0 24 24" fill="none" xmlns="http://www.w3.org/2000/svg">
<path d="M19.6137 5.15603L17.6253 4.01276L16.0228 4.92164L18.008 6.07767L19.6137 5.15603Z" fill="#005F9E"/>
<path d="M14.0377 8.34031L17.1996 6.53052L15.2097 5.38724L13.6327 6.29134C12.6664 6.7968 11.4099 6.7968 10.4452 6.28815L6.46846 4L4.47211 5.14009L10.0258 8.33552C11.1755 8.99406 12.9151 8.93985 14.0377 8.34031Z" fill="#005F9E"/>
<path d="M13.6273 14.6311C12.6626 14.1224 11.4061 14.1208 10.4398 14.6279L6.44714 17.1636L4.06173 15.77C4.06173 15.77 3.93576 17.921 6.10591 19.2572L6.44714 19.4502L10.4398 17.1716C11.4061 16.6661 12.6626 16.6661 13.6273 17.1748L15.6157 18.3188L17.6041 19.4629L16.2191 18.3188C16 17.5 16 17 16 17L16.5 16.5L13.6273 14.6311Z" fill="#005F9E"/>
<path d="M18.3412 7.56541L18.3982 10.0193L19.9944 9.11518V6.66132L18.3412 7.56541Z" fill="#005F9E"/>
<path fill-rule="evenodd" clip-rule="evenodd" d="M6.23388 15.3581L4.45722 14.3685L8.84706 12.0037L4.05706 9.09763L4 6.64377L9.5665 9.84717C11.0143 10.611 12.9007 10.611 14.3485 9.85196L17.5439 8.01985L17.601 10.4753L14.9216 12.0109L17.6667 13.4039L17.5456 13.9316C17.2284 14.0222 16.91 14.148 16.5918 14.3289L15.9105 13.8702C15.8198 13.7798 15.6833 13.8224 15.5928 13.8676L15.4713 13.9966L14.0115 13.1499C12.814 12.5216 11.2546 12.5216 10.0539 13.1451L6.23388 15.3581Z" fill="#005F9E"/>
<path d="M17 21.4118C19.4365 21.4118 21.4118 19.4365 21.4118 17C21.4118 14.5634 19.4365 12.5882 17 12.5882C14.5634 12.5882 12.5882 14.5634 12.5882 17C12.5882 19.4365 14.5634 21.4118 17 21.4118Z" fill="white" stroke="#005F9E" stroke-miterlimit="10" stroke-linejoin="round"/>
<path d="M15.5176 16.3412L14.9765 16.1059C15.2706 15.4235 15.8824 14.9412 16.6 14.8118C17.2824 14.6823 17.9765 14.8823 18.4941 15.3412L18.8 15.0353C18.8235 15.0118 18.8706 14.9882 18.9176 15C18.9529 15.0118 18.9882 15.0353 19 15.0823L19.5176 16.6235C19.5294 16.6706 19.5176 16.7176 19.4941 16.7412C19.4588 16.7647 19.4353 16.7765 19.4 16.7765C19.3882 16.7765 19.3765 16.7765 19.3647 16.7647L17.8235 16.2588C17.7882 16.247 17.7529 16.2118 17.7412 16.1765C17.7294 16.1412 17.7412 16.0941 17.7765 16.0588L18.0706 15.7647C17.6941 15.447 17.2 15.3059 16.7176 15.4C16.1882 15.5059 15.7412 15.847 15.5176 16.3412Z" fill="#005F9E"/>
<path d="M18.4824 17.6588L19.0353 17.9059C18.7294 18.5765 18.1177 19.0588 17.4 19.1882C16.7177 19.3177 16.0235 19.1177 15.5059 18.6588L15.2 18.9647C15.1765 18.9882 15.1294 19.0118 15.0824 19C15.0471 18.9882 15.0118 18.953 15 18.9177L14.4824 17.3765C14.4706 17.3294 14.4824 17.2824 14.5059 17.2588C14.5294 17.2353 14.5647 17.2235 14.5883 17.2235C14.6 17.2235 14.6118 17.2235 14.6235 17.2353L16.1647 17.753C16.2 17.7647 16.2353 17.8 16.2471 17.8353C16.2588 17.8706 16.2471 17.9177 16.2118 17.953L15.9294 18.2353C16.3059 18.553 16.8 18.6941 17.2824 18.6C17.8118 18.4941 18.2588 18.153 18.4824 17.6588Z" fill="#005F9E"/>
</svg>
