<svg width="24" height="24" viewBox="0 0 24 24" fill="none" xmlns="http://www.w3.org/2000/svg">
<path d="M13.6273 14.6311C12.6626 14.1224 11.4061 14.1208 10.4398 14.6279L6.44714 17.1636L4.06173 15.77C4.06173 15.77 3.93576 17.921 6.10591 19.2572L6.44714 19.4502L10.4398 17.1716C11.4061 16.6661 12.6626 16.6661 13.6273 17.1748L17.6041 19.4629L17.9595 19.2084C20.1115 17.7729 19.999 15.77 19.999 15.77L17.6041 17.1748L13.6273 14.6311Z" fill="#005F9E"/>
<path d="M19.6137 5.15603L17.6253 4.01276L16.0228 4.92164L18.008 6.07767L19.6137 5.15603Z" fill="#005F9E"/>
<path d="M14.0377 8.34031L17.1996 6.53052L15.2097 5.38724L13.6327 6.29134C12.6664 6.7968 11.4099 6.7968 10.4452 6.28815L6.46846 4L4.47211 5.14009L10.0258 8.33552C11.1755 8.99406 12.9151 8.93985 14.0377 8.34031Z" fill="#005F9E"/>
<path d="M4.45722 14.3685L6.23388 15.3581L10.0539 13.1451C11.2546 12.5216 12.814 12.5216 14.0115 13.1499L17.8183 15.3579L19.5989 14.3845L14.9216 12.0109L17.601 10.4753L17.5439 8.01985L14.3485 9.85196C12.9007 10.611 11.0143 10.611 9.5665 9.84717L4 6.64377L4.05706 9.09763L8.84706 12.0037L4.45722 14.3685Z" fill="#005F9E"/>
<path d="M18.3412 7.56541L18.3982 10.0193L19.9944 9.11518V6.66132L18.3412 7.56541Z" fill="#005F9E"/>
</svg>
