<svg width="24" height="24" viewBox="0 0 24 24" fill="none" xmlns="http://www.w3.org/2000/svg">
<path d="M19.6137 5.15603L17.6253 4.01276L16.0228 4.92164L18.008 6.07767L19.6137 5.15603Z" fill="#005F9E"/>
<path d="M14.0377 8.34031L17.1996 6.53052L15.2097 5.38724L13.6327 6.29134C12.6664 6.7968 11.4099 6.7968 10.4452 6.28815L6.46846 4L4.47211 5.14009L10.0258 8.33552C11.1755 8.99406 12.9151 8.93985 14.0377 8.34031Z" fill="#005F9E"/>
<path d="M13.6273 14.6311C12.6626 14.1224 11.4061 14.1208 10.4398 14.6279L6.44714 17.1636L4.06173 15.77C4.06173 15.77 3.93576 17.921 6.10591 19.2572L6.44714 19.4502L10.4398 17.1716C11.4061 16.6661 12.6626 16.6661 13.6273 17.1748L15.6157 18.3188L17.6041 19.4629L16.2191 18.3188C15.3793 17.8303 15.2405 16.8896 15.2405 16.8896L15.6157 15.972L13.6273 14.6311Z" fill="#005F9E"/>
<path d="M18.3412 7.56541L18.3982 10.0193L19.9944 9.11518V6.66132L18.3412 7.56541Z" fill="#005F9E"/>
<path fill-rule="evenodd" clip-rule="evenodd" d="M6.23388 15.3581L4.45722 14.3685L8.84706 12.0037L4.05706 9.09763L4 6.64377L9.5665 9.84717C11.0143 10.611 12.9007 10.611 14.3485 9.85196L17.5439 8.01985L17.601 10.4753L14.9216 12.0109L16.8707 13H15.9547C15.8188 13 15.7731 13.0022 15.7277 13.138L15.5456 13.9316C15.5047 13.9433 15.4637 13.9555 15.4228 13.9685L14.0115 13.1499C12.814 12.5216 11.2546 12.5216 10.0539 13.1451L6.23388 15.3581ZM18.8412 14L17.2895 13.2125L17.4535 13.9098C17.7712 14.0007 18.1346 14.1369 18.4068 14.3178L18.8412 14Z" fill="#005F9E"/>
<path fill-rule="evenodd" clip-rule="evenodd" d="M21.2186 16.2058L20.4232 16.0244C20.3323 15.6618 20.207 15.3444 20.0249 15.0275L20.4846 14.3478C20.5303 14.2573 20.533 14.1669 20.4876 14.0307L19.8076 13.3511C19.7624 13.2607 19.5812 13.2607 19.5358 13.3058L18.8547 13.804C18.5824 13.6231 18.219 13.4869 17.9013 13.396L17.7198 12.624C17.6286 12.4884 17.5382 12.4862 17.4018 12.4862H16.4026C16.2667 12.4862 16.221 12.4884 16.1755 12.6242L15.9935 13.4178C15.6763 13.5084 15.3579 13.6342 15.0397 13.8151L14.3584 13.3564C14.2677 13.266 14.1311 13.3087 14.0407 13.3538L13.3594 14.0775C13.2685 14.1227 13.2685 14.2582 13.3141 14.3487L13.8139 15.0278C13.6316 15.3451 13.4957 15.7075 13.4048 16.0247L12.631 16.2058C12.4949 16.2058 12.4479 16.2962 12.4479 16.4322V17.4291C12.4479 17.5649 12.4947 17.61 12.5858 17.6555L13.3814 17.8369C13.4719 18.1995 13.5974 18.5169 13.7792 18.8338L13.2741 19.5135C13.2741 19.604 13.2714 19.6944 13.3623 19.7849L14.0877 20.4651C14.1784 20.5102 14.2686 20.5555 14.4052 20.4651L15.0861 20.012C15.3585 20.1929 15.7217 20.3289 16.0851 20.4198L16.2671 21.2373C16.3117 21.3729 16.4026 21.3751 16.4933 21.3751H17.4925C17.6286 21.3751 17.6743 21.3729 17.7198 21.2371L17.9013 20.398C18.2647 20.3073 18.5827 20.1822 18.9006 20.0013L19.5817 20.4598C19.6726 20.5051 19.8089 20.5078 19.8544 20.4622L20.5357 19.784C20.5805 19.7389 20.6262 19.5582 20.5357 19.5131L20.0812 18.8338C20.2632 18.5615 20.3993 18.1995 20.49 17.882L21.3093 17.7013C21.4459 17.6555 21.4479 17.5649 21.4479 17.4744V16.4773C21.4479 16.2964 21.3552 16.2058 21.2186 16.2058ZM16.9021 18.7429C15.9031 18.7429 15.0854 17.9273 15.0854 16.9307C15.0854 15.934 15.9031 15.1184 16.9021 15.1184C17.9016 15.1184 18.7188 15.934 18.7188 16.9307C18.7188 17.9273 17.9016 18.7429 16.9021 18.7429Z" fill="white" stroke="#005F9E" stroke-width="0.7"/>
</svg>
