<?xml version="1.0" encoding="UTF-8" standalone="no"?>
<svg
   width="32"
   height="32"
   viewBox="0 0 32 32"
   fill="none"
   version="1.1"
   id="svg19"
   xmlns="http://www.w3.org/2000/svg"
   xmlns:svg="http://www.w3.org/2000/svg">
  <g
     clip-path="url(#clip0_25113_12351)"
     id="g12"
     transform="translate(4,4)">
    <path
       d="M 20.416,8.10278 C 12.9785,-3.08472 6.82227,7.19653 6.82227,7.19653"
       stroke="#0e416c"
       stroke-width="1.25"
       id="path2" />
    <path
       d="M 5.2946,3.89846 C -3.225,11.7739 4.91234,18.5472 7.16424,20.9833 L 12.6107,16.4891 C 9.91771,13.5757 6.6068,11.1637 10.1097,7.92568 11.8268,6.33842 7.0292,2.29502 5.2946,3.89846 Z"
       fill="#dcedf9"
       stroke="#009ad9"
       id="path4" />
    <path
       d="m 9.39388,18.0426 c -1.76513,1.4697 -2.04999,2.6976 -1.65439,3.1256 0.39561,0.4279 1.60942,0.1937 3.28931,-1.1538 1.6799,-1.3475 2.0102,-2.3091 1.6146,-2.737 -0.3956,-0.428 -1.4844,-0.7045 -3.24952,0.7652 z"
       fill="#dcedf9"
       id="path6" />
    <path
       d="m 9.16863,17.9398 c -0.8142,0.65 -1.41487,1.3902 -1.70405,2.0422 -0.29416,0.6633 -0.22,1.0946 0.03141,1.346 0.3496,0.3496 0.78744,0.5086 1.36299,0.4004 0.60706,-0.114 1.39692,-0.5333 2.36692,-1.4377 1.0016,-0.9339 1.6083,-1.6478 1.8636,-2.221 0.1225,-0.2749 0.1514,-0.4903 0.1251,-0.6685 -0.0258,-0.1757 -0.1125,-0.3649 -0.3082,-0.5766 -0.3229,-0.3494 -0.7716,-0.4427 -1.4283,-0.2458 -0.6738,0.2021 -1.4693,0.6903 -2.30947,1.361 z"
       stroke="#009ad9"
       id="path8" />
    <circle
       r="3"
       transform="matrix(-0.645066,-0.764127,-0.764127,0.645066,19.5683,6.93216)"
       fill="#ff0404"
       stroke="#ffffff"
       id="circle10"
       cx="0"
       cy="0" />
  </g>
  <defs
     id="defs17">
    <clipPath
       id="clip0_25113_12351">
      <rect
         width="24"
         height="24"
         fill="#ffffff"
         id="rect14"
         x="0"
         y="0" />
    </clipPath>
  </defs>
</svg>
