<svg width="24" height="25" viewBox="0 0 24 25" fill="none" xmlns="http://www.w3.org/2000/svg">
<path d="M12.9904 16.4946C12.5661 16.0876 12.2128 15.492 11.9671 14.7697C11.7214 14.0473 11.5923 13.2246 11.5933 12.3871C11.5942 11.5496 11.7252 10.7278 11.9726 10.0071C12.22 9.28651 12.5747 8.69334 12.9999 8.28931" stroke="#009AD9" stroke-width="0.75"/>
<path d="M13.0549 6.99485L2.68649 12.9566L13.0331 17.9556" stroke="#0E416C"/>
<path d="M12.6654 7.35899C13.0707 7.85827 13.4082 8.58897 13.6429 9.47514C13.8776 10.3613 14.0009 11.3706 14 12.3981C13.9991 13.4256 13.8739 14.4338 13.6376 15.3178C13.4013 16.2019 13.0625 16.9296 12.6562 17.4253" stroke="#0E416C"/>
<path d="M17 7.11279C17 7.11279 18.5625 7.95871 18.5625 12.3003C18.5625 16.6419 17 17.1753 17 17.1753" stroke="#009AD9"/>
<path d="M19.0252 17.2589C19.1194 17.2259 19.1396 17.1015 19.0605 17.0405L18.6455 16.7196L17.4171 15.7701L17.0268 15.4684C16.9483 15.4077 16.8337 15.4575 16.8245 15.5563L16.6039 17.9176C16.5954 18.0089 16.6842 18.0784 16.7708 18.0481L19.0252 17.2589Z" fill="#009AD9"/>
<path d="M16.8987 8.89876C16.9061 8.99835 17.0209 9.05016 17.1004 8.98976L17.5182 8.67251L18.7547 7.73347L19.1475 7.43513C19.2265 7.37512 19.2083 7.25152 19.1153 7.2169L16.8927 6.3895C16.8068 6.35749 16.7165 6.42524 16.7233 6.51673L16.8987 8.89876Z" fill="#009AD9"/>
<rect x="14.0879" y="17.9565" width="2" height="1" transform="rotate(26.0459 14.0879 17.9565)" fill="#0E416C"/>
<rect x="16.7271" y="19.2463" width="2" height="1" transform="rotate(26.0459 16.7271 19.2463)" fill="#0E416C"/>
<rect x="13.748" y="6.09058" width="2" height="1" transform="rotate(-30 13.748 6.09058)" fill="#0E416C"/>
<rect x="16.292" y="4.62183" width="2" height="1" transform="rotate(-30 16.292 4.62183)" fill="#0E416C"/>
</svg>
