<svg width="24" height="24" viewBox="0 0 24 24" fill="none" xmlns="http://www.w3.org/2000/svg">
<path d="M14.1758 12.74V11.0348L12.7221 11.8741L12.722 13.5601L14.1758 12.74Z" fill="#005F9E"/>
<path d="M9.8146 12.74V11.0348L11.2683 11.8741L11.2684 13.5601L9.8146 12.74Z" fill="#005F9E"/>
<path fill-rule="evenodd" clip-rule="evenodd" d="M17.0982 8.56692L17.1257 13.4158C17.1257 13.424 17.1257 13.4323 17.1257 13.4406C17.1262 13.8734 17.1267 14.4362 15.9488 15.1084L12.0325 17.408C12.0325 17.408 8.72399 15.5815 7.83267 14.9815C6.94135 14.3816 6.90436 13.7674 6.90436 13.4158V8.56692L10.9405 6.2096C11.2513 6.03992 11.7096 5.9527 11.9951 5.9527C12.2805 5.9527 12.7198 6.02406 13.0306 6.19374L17.0982 8.56692ZM11.9814 15.6788L15.6391 13.5601V9.38393L11.9698 7.4801L8.37079 9.38393V13.5601L11.9814 15.6788Z" fill="#005F9E"/>
<path d="M10.478 9.84403L11.9951 10.7246L13.4489 9.80232L11.9951 8.96341L10.478 9.84403Z" fill="#005F9E"/>
<path d="M18.5464 12.742V8.50857L20 7.78174L19.9903 13.8058C19.9903 13.8058 19.7949 14.5741 19.1748 15.6477C18.5548 16.7213 17.6646 17.1014 17.6646 17.1014L12.3587 20.1962V18.4919L16.3461 16.1531C18.0159 15.173 18.5464 13.4746 18.5464 12.742Z" fill="#005F9E"/>
<path d="M5.45366 12.7388V8.50539L4 7.77856C4 7.77856 4.00015 13.1696 4.00015 13.5601C4.00015 13.9506 4.08254 14.5932 4.73644 15.5436C5.39034 16.494 6.33544 17.0982 6.33544 17.0982L11.6413 20.193V18.4888L7.65396 16.1499C6.88565 15.699 6.27376 15.1887 5.92855 14.5976C5.52348 13.9041 5.45366 13.1343 5.45366 12.7388Z" fill="#005F9E"/>
<path d="M10.4703 4.83479C10.9698 4.54459 11.5407 4.43992 12.018 4.42407C12.4954 4.43992 13.0234 4.54934 13.5214 4.83796L17.8097 7.2845L19.2634 6.44574L14.0815 3.4583C14.0815 3.4583 13.2061 3 11.9676 3C10.7291 3 9.81091 3.47574 9.81091 3.47574L4.73642 6.44574L6.19022 7.2956L10.4703 4.83479Z" fill="#005F9E"/>
<path fill-rule="evenodd" clip-rule="evenodd" d="M18.2 13H16.6V17.4H15L18.2 21L21.4 17.4H19.8V13H18.2Z" stroke="#005F9E" stroke-width="2" stroke-linecap="round" stroke-linejoin="round"/>
<path fill-rule="evenodd" clip-rule="evenodd" d="M18.1184 13.0008L16.8001 13.0001C16.6896 13 16.6 13.0896 16.6 13.2001V17.1368C16.6 17.2473 16.5105 17.3368 16.4 17.3368H15.4368C15.2656 17.3368 15.1735 17.5379 15.2853 17.6675L17.9721 20.7809C18.0501 20.8712 18.1894 20.8736 18.2704 20.786L21.0897 17.7358C21.208 17.6077 21.1172 17.4 20.9428 17.4H20C19.8895 17.4 19.8 17.3105 19.8 17.2V13.2001C19.8 13.0896 19.7104 13 19.5999 13.0001L18.1184 13.0008Z" fill="white"/>
</svg>
