<?xml version="1.0" encoding="UTF-8" standalone="no"?>
<svg
   width="33"
   height="33"
   viewBox="0 0 33 33"
   fill="none"
   version="1.1"
   id="svg18"
   xmlns="http://www.w3.org/2000/svg"
   xmlns:svg="http://www.w3.org/2000/svg">
  <defs
     id="defs22" />
  <path
     fill-rule="evenodd"
     clip-rule="evenodd"
     d="m 25.1087,14.0467 -3.8749,-6.23484 -4.7506,1.5416 -3.89624,2.11322 V 7.74064 L 10.60735,6.56288 9.3913,7.32253 V 13.7271 L 9,14.1345 v 7.4272 l 7.8673,4.8401 8.2414,-4.8499 z m -8.6255,-6.15955 5.3917,-1.88553 4.7338,7.61698 v 8.7911 L 16.8501,28.1524 7.5,22.4 v -8.86918 l 0.3913,-0.4074 V 6.49094 l 2.697,-1.684788 3.4987,2.081508 v 2.38551 z"
     fill="#0e416c"
     id="path2" />
  <path
     fill-rule="evenodd"
     clip-rule="evenodd"
     d="m 8.75676,7.09229 -0.23088,0.4435 2.46326,1.28232 2.46327,-1.28232 -0.23088,-0.4435 -2.23239,1.16212 z"
     fill="#0e416c"
     id="path4" />
  <path
     fill-rule="evenodd"
     clip-rule="evenodd"
     d="M 11.35864,12.20304 V 8.53638 h -0.5 v 3.66666 z"
     fill="#0e416c"
     id="path6" />
  <path
     fill-rule="evenodd"
     clip-rule="evenodd"
     d="M 8.75676,13.647 16.0959,9.51849 15.6331,9.38208 8.52588,13.2035 Z"
     fill="#0e416c"
     id="path8" />
  <path
     fill-rule="evenodd"
     clip-rule="evenodd"
     d="m 16.6087,19.2002 v 7.6694 h 0.5 v -7.7407 l -0.0377,-0.132 -4.42202,-7.11531 -4.50591,2.13241 0.21388,0.452 4.10278,-1.94168 z"
     fill="#0e416c"
     id="path10" />
  <path
     fill-rule="evenodd"
     clip-rule="evenodd"
     d="m 18.6738,22.7634 2.2392,-1.3322 v -2.6774 l -2.2392,1.3321 z m 2.7392,-4.8889 v 3.8411 l -3.2392,1.9271 v -3.8411 z"
     fill="#0e416c"
     id="path12" />
  <path
     fill-rule="evenodd"
     clip-rule="evenodd"
     d="m 16.9855,19.3444 9,-5.2963 -0.2536,-0.43091 -9,5.29631 z"
     fill="#0e416c"
     id="path14" />
  <path
     fill-rule="evenodd"
     clip-rule="evenodd"
     d="M 12.68108,12.41838 22.1777,7.40309 21.9241,6.97217 12.42749,11.98746 Z"
     fill="#0e416c"
     id="path16" />
</svg>
