<?xml version="1.0" encoding="UTF-8" standalone="no"?>
<svg
   width="32"
   height="32"
   viewBox="0 0 32 32"
   fill="none"
   version="1.1"
   id="svg16"
   xmlns="http://www.w3.org/2000/svg"
   xmlns:svg="http://www.w3.org/2000/svg">
  <defs
     id="defs20" />
  <circle
     cx="18.344"
     cy="16.6558"
     r="6.95397"
     fill="#ffffff"
     stroke="#0e416c"
     stroke-width="1.40368"
     id="circle2" />
  <path
     d="m 23.2998,17.625 c 0,2.3086 -1.8714,4.1801 -4.18,4.1801 -2.3086,0 -4.1801,-1.8715 -4.1801,-4.1801 0,-2.3086 1.8715,-4.18005 4.1801,-4.18005 2.3086,0 4.18,1.87145 4.18,4.18005 z"
     fill="#009ad9"
     id="path4" />
  <circle
     cx="18.0746"
     cy="17.015301"
     r="1.5"
     fill="#ffffff"
     id="circle6" />
  <path
     d="m 11.59069,16.2559 v 0.5312 l 0.40897,-0.3383 9e-5,-10e-5 1.1e-4,-10e-5 1.6e-4,-10e-5 h 6e-5 l 0.0032,-0.0026 0.01573,-0.0124 c 0.01465,-0.0113 0.03763,-0.0287 0.06894,-0.0514 0.06264,-0.0452 0.15862,-0.1113 0.28804,-0.1913 0.25884,-0.1601 0.65138,-0.3758 1.1785,-0.5924 1.05362,-0.4329 2.64732,-0.87 4.78952,-0.87 1.799,0 3.3684,0.4351 4.4898,0.8717 0.5602,0.2181 1.0069,0.436 1.3126,0.5987 0.1528,0.0814 0.2702,0.1488 0.3488,0.1956 0.0393,0.0233 0.0689,0.0415 0.0883,0.0536 l 0.0214,0.0135 0.0049,0.0032 0.001,6e-4 c 10e-5,0 10e-5,0 10e-5,0 0,10e-5 0,10e-5 0,10e-5 0,0 0,0 0,0 l 0.3864,0.2519 v -0.4614 c 0,-0.826 -0.2686,-1.631 -0.5684,-2.35481 -0.3113,-0.75149 -0.8666,-1.529 -1.4338,-2.09628 -0.5811,-0.58101 -1.5656,-1.13118 -2.2963,-1.43387 -0.7635,-0.31624 -1.5721,-0.36839 -2.3548,-0.36839 -0.8081,0 -1.6082,0.15916 -2.3548,0.46839 -0.7307,0.30269 -1.7152,0.85286 -2.29625,1.43387 -0.54129,0.54129 -1.21491,1.22623 -1.53387,1.99628 -0.2998,0.72381 -0.56839,1.52881 -0.56839,2.35481 z"
     fill="#0e416c"
     stroke="#0e416c"
     stroke-width="0.5"
     id="path8" />
  <path
     d="M 12.5375,15.4448 6.41309,14.9363"
     stroke="#0e416c"
     stroke-width="1.40368"
     stroke-linecap="round"
     id="path10" />
  <path
     d="M 13.54596,14.8595 7.84277,12.61257"
     stroke="#0e416c"
     stroke-width="1.40368"
     stroke-linecap="round"
     id="path12" />
  <path
     d="M 14.5964,14.4803 9.79614,10.63481"
     stroke="#0e416c"
     stroke-width="1.40368"
     stroke-linecap="round"
     id="path14" />
</svg>
