<?xml version="1.0" encoding="UTF-8" standalone="no"?>
<svg
   width="32"
   height="32"
   viewBox="0 0 32 32"
   fill="none"
   version="1.1"
   id="svg4"
   xmlns="http://www.w3.org/2000/svg"
   xmlns:svg="http://www.w3.org/2000/svg">
  <defs
     id="defs8" />
  <path
     fill-rule="evenodd"
     clip-rule="evenodd"
     d="m 6,16 c 0,5.5228 4.47715,10 10,10 5.5228,0 10,-4.4772 10,-10 C 26,10.47715 21.5228,6 16,6 10.47715,6 6,10.47715 6,16 Z m 14.5329,7.5719 c -1.3248,0.7947 -2.8754,1.2517 -4.5328,1.2517 -1.6574,0 -3.20803,-0.457 -4.53283,-1.2517 0.10362,-2.1725 2.09338,-3.9053 4.53283,-3.9053 2.4394,0 4.4292,1.7328 4.5328,3.9053 z m 1.1878,-0.8538 C 21.1881,20.3127 18.8293,18.5 16.0001,18.5 c -2.82924,0 -5.18801,1.8127 -5.72071,4.2181 -1.89873,-1.6185 -3.10284,-4.0276 -3.10284,-6.718 0,-4.87313 3.95042,-8.82355 8.82355,-8.82355 4.8731,0 8.8235,3.95042 8.8235,8.82355 0,2.6904 -1.2041,5.0995 -3.1029,6.718 z m -9.05396,-8.3847 c 0,1.8409 1.49236,3.3332 3.33336,3.3332 1.8409,0 3.3333,-1.4923 3.3333,-3.3332 C 19.3334,12.49238 17.841,11 16.0001,11 c -1.841,0 -3.33336,1.49238 -3.33336,3.3334 z m 5.49016,0 c 0,1.1912 -0.9656,2.1569 -2.1568,2.1569 -1.1912,0 -2.15689,-0.9657 -2.15689,-2.1569 0,-1.19119 0.96569,-2.15685 2.15689,-2.15685 1.1912,0 2.1568,0.96566 2.1568,2.15685 z"
     fill="#0e416c"
     id="path2" />
</svg>
