<?xml version="1.0" encoding="UTF-8" standalone="no"?>
<svg
   width="32"
   height="32"
   viewBox="0 0 32 32"
   fill="none"
   version="1.1"
   id="svg8"
   xmlns="http://www.w3.org/2000/svg"
   xmlns:svg="http://www.w3.org/2000/svg">
  <defs
     id="defs12" />
  <path
     fill-rule="evenodd"
     clip-rule="evenodd"
     d="M 16,26 C 10.47715,26 6,21.5228 6,16 6,10.47715 10.47715,6 16,6 c 5.5228,0 10,4.47715 10,10 0,1.2128 -0.2159,2.3752 -0.6114,3.4507 -0.1053,-0.1057 -0.225,-0.2124 -0.3421,-0.3094 -0.2041,-0.1693 -0.4382,-0.3399 -0.6399,-0.453 0.2709,-0.8476 0.417,-1.7508 0.417,-2.6882 0,-4.87313 -3.9504,-8.82355 -8.8235,-8.82355 -4.87313,0 -8.82355,3.95042 -8.82355,8.82355 0,2.6904 1.20411,5.0995 3.10284,6.718 0.5327,-2.4054 2.89147,-4.2181 5.72071,-4.2181 1.2059,0 2.3264,0.3294 3.2564,0.8935 l -0.0233,0.024 c -0.13,0.1345 -0.2994,0.3225 -0.4367,0.5207 -0.1153,0.1666 -0.1981,0.3125 -0.256,0.4281 -0.7249,-0.4417 -1.5992,-0.6997 -2.5404,-0.6997 -2.43945,0 -4.42921,1.7328 -4.53283,3.9053 1.3248,0.7947 2.87543,1.2517 4.53283,1.2517 0.9007,0 1.77,-0.135 2.5886,-0.3858 0.0216,0.0388 0.0474,0.0844 0.0769,0.1342 0.0912,0.154 0.2225,0.3585 0.3749,0.5417 0.1021,0.1226 0.202,0.2296 0.2904,0.3181 C 18.289,25.7998 17.1679,26 16,26 Z m 4.0323,-0.8463 c 2.2614,-0.9976 4.0834,-2.8086 5.0952,-5.0623 l -0.0537,0.0343 c -0.0579,-0.0903 -0.231,-0.2677 -0.4623,-0.4594 -0.154,-0.1278 -0.311,-0.2429 -0.4421,-0.3258 -0.5381,1.3145 -1.3842,2.4703 -2.4487,3.3776 -0.257,-1.1606 -0.9391,-2.1831 -1.8939,-2.9306 -0.03,0.0292 -0.0652,0.0643 -0.1034,0.104 -0.1189,0.123 -0.2595,0.2806 -0.3663,0.4349 -0.1149,0.1658 -0.1876,0.3022 -0.2306,0.3937 -0.009,0.0191 -0.0166,0.0362 -0.0231,0.0512 0.8376,0.7071 1.3769,1.6971 1.4295,2.8006 -0.4096,0.2456 -0.8408,0.4591 -1.29,0.6367 0.0031,0.0053 0.0062,0.0107 0.0095,0.016 0.0821,0.1389 0.1924,0.309 0.3121,0.4529 0.1331,0.1598 0.263,0.2896 0.3591,0.379 0.045,0.042 0.0824,0.0748 0.1087,0.0972 z m -4.0322,-7.4871 c -1.841,0 -3.33336,-1.4923 -3.33336,-3.3332 0,-1.84102 1.49236,-3.3334 3.33336,-3.3334 1.8409,0 3.3333,1.49238 3.3333,3.3334 0,1.8409 -1.4924,3.3332 -3.3333,3.3332 z m 0,-1.1763 c 1.1912,0 2.1568,-0.9657 2.1568,-2.1569 0,-1.19119 -0.9656,-2.15685 -2.1568,-2.15685 -1.1912,0 -2.15689,0.96566 -2.15689,2.15685 0,1.1912 0.96569,2.1569 2.15689,2.1569 z"
     fill="#0e416c"
     id="path2" />
  <path
     d="m 22.2419,26.1505 c 2.0756,0 3.7581,-1.6825 3.7581,-3.758 0,-2.0756 -1.6825,-3.7581 -3.7581,-3.7581 -2.0755,0 -3.758,1.6825 -3.758,3.7581 0,2.0755 1.6825,3.758 3.758,3.758 z"
     fill="#349c44"
     id="path4" />
  <path
     d="M 20.454,22.513 21.8682,23.9272 24,21"
     stroke="#ffffff"
     stroke-linecap="round"
     id="path6" />
</svg>
