<?xml version="1.0" encoding="UTF-8" standalone="no"?>
<svg
   width="33"
   height="32"
   viewBox="0 0 33 32"
   fill="none"
   version="1.1"
   id="svg12"
   xmlns="http://www.w3.org/2000/svg"
   xmlns:svg="http://www.w3.org/2000/svg">
  <defs
     id="defs16" />
  <path
     fill-rule="evenodd"
     clip-rule="evenodd"
     d="M 13.7315,21.5433 25.474,9.75229 25.8977,9.32858 C 26.8216,8.40463 23.6637,5.24166 22.7372,6.16808 22.343,6.5622 22.354,6.55122 22.354,6.55122 L 10.51709,18.3289 Z M 23.6341,9.81511 24.5838,8.863 C 25.008,8.43885 23.6241,7.04996 23.1979,7.47617 l -0.9526,0.95016 z m -0.4566,0.4577 -1.3899,-1.38993 -0.9101,0.90787 1.3922,1.39222 z m -2.7577,-0.02551 -8.6965,8.6745 1.41529,1.4153 8.67451,-8.69643 z"
     fill="#ff0404"
     id="path2" />
  <path
     d="m 11.7233,18.9218 8.6965,-8.6745 1.3933,1.39337 -8.67451,8.69643 z"
     fill="#ffffff"
     id="path4" />
  <path
     d="m 21.7876,8.88288 1.3899,1.38993 -0.9078,0.91016 -1.3922,-1.39222 z"
     fill="#ffffff"
     id="path6" />
  <path
     d="M 24.5838,8.863 23.6341,9.81511 22.2453,8.42633 23.1979,7.47617 C 23.6241,7.04996 25.008,8.43885 24.5838,8.863 Z"
     fill="#ffffff"
     id="path8" />
  <path
     d="M 6.07959,26 13.3638,21.7152 10.36442,18.7158 Z"
     fill="#0e416c"
     id="path10" />
</svg>
