<?xml version="1.0" encoding="UTF-8" standalone="no"?>
<svg
   width="32"
   height="32"
   viewBox="0 0 32 32"
   version="1.1"
   id="svg38"
   xmlns="http://www.w3.org/2000/svg"
   xmlns:svg="http://www.w3.org/2000/svg"
   xmlns:sketch="http://www.bohemiancoding.com/sketch/ns">
  <!-- Generator: Sketch 3.3.1 (12002) - http://www.bohemiancoding.com/sketch -->
  <title
     id="title2">tb_layerinfo</title>
  <desc
     id="desc4">Created with Sketch.</desc>
  <defs
     id="defs6" />
  <g
     id="Page-1"
     stroke="none"
     stroke-width="1"
     fill="none"
     fill-rule="evenodd"
     sketch:type="MSPage"
     transform="translate(4,4)">
    <g
       id="tb_layerinfo"
       sketch:type="MSArtboardGroup">
      <g
         id="Group"
         sketch:type="MSLayerGroup"
         transform="translate(3,3)">
        <path
           d="M 17.015625,7.7450974 14.756119,8.9111857 6.6816107,13.078125 3.2608301,7.2125221 1.640625,4.4342955 10.959087,0.515625 17.015625,7.7450974"
           id="Fill-26099"
           fill="#ffffff"
           sketch:type="MSShapeGroup" />
        <path
           d="M 14.671875,8.8125 10.734375,3.75"
           id="Stroke-26111"
           stroke="#7d7d7d"
           stroke-width="0.5"
           stroke-linecap="round"
           stroke-linejoin="round"
           sketch:type="MSShapeGroup" />
        <path
           d="m 13.078125,9.84375 -2.4375,-3.328125"
           id="Stroke-26115"
           stroke="#7d7d7d"
           stroke-width="0.5"
           stroke-linecap="round"
           stroke-linejoin="round"
           sketch:type="MSShapeGroup" />
        <path
           d="M 10.78125,3.75 3.234375,7.125"
           id="Stroke-26112"
           stroke="#7d7d7d"
           stroke-width="0.5"
           stroke-linecap="round"
           stroke-linejoin="round"
           sketch:type="MSShapeGroup" />
        <path
           d="m 3.2926746,7.265625 3.4187541,5.864904 8.0697253,-4.1664429 1.296971,1.6683499 -1.6855,0.908395 L 7.104583,15.46875 3.8614669,9.7477919 2.625,7.5664744 3.2926746,7.265625"
           id="Fill-26100"
           fill="#ffffff"
           sketch:type="MSShapeGroup" />
        <path
           d="M 3.86496,9.609375 7.1050904,15.30396 14.386423,11.394149 15.328125,12.670375 7.401839,17.0625 3.375,9.8409166 3.86496,9.609375"
           id="Fill-26101"
           fill="#ffffff"
           sketch:type="MSShapeGroup" />
        <path
           d="M 10.96875,0.515625 1.640625,4.40625"
           id="Stroke-26102"
           stroke="#000000"
           stroke-width="0.5"
           stroke-linecap="round"
           stroke-linejoin="round"
           sketch:type="MSShapeGroup" />
        <path
           d="M 17.0625,7.734375 11.015625,0.515625"
           id="Stroke-26103"
           stroke="#000000"
           stroke-width="0.5"
           stroke-linecap="round"
           stroke-linejoin="round"
           sketch:type="MSShapeGroup" />
        <path
           d="m 16.078125,10.546875 -1.3125,-1.6875"
           id="Stroke-26104"
           stroke="#000000"
           stroke-width="0.5"
           stroke-linecap="round"
           stroke-linejoin="round"
           sketch:type="MSShapeGroup" />
        <path
           id="Stroke-26105"
           stroke="#000000"
           stroke-width="0.5"
           stroke-linecap="round"
           stroke-linejoin="round"
           sketch:type="MSShapeGroup"
           d="M 3.28125,7.265625 2.625,7.546875" />
        <path
           d="m 15.328125,12.75 -0.9375,-1.265625"
           id="Stroke-26106"
           stroke="#000000"
           stroke-width="0.5"
           stroke-linecap="round"
           stroke-linejoin="round"
           sketch:type="MSShapeGroup" />
        <path
           d="M 3.86496,9.609375 3.375,9.8409299 7.401839,17.0625 15.328125,12.670311"
           id="Stroke-26107"
           stroke="#000000"
           stroke-width="0.5"
           stroke-linecap="round"
           stroke-linejoin="round"
           sketch:type="MSShapeGroup" />
        <path
           d="M 1.640625,4.359375 3.2608301,7.1316295 6.6816107,12.984375 14.756119,8.826493 17.015625,7.6630158"
           id="Stroke-26108"
           stroke="#000000"
           stroke-width="0.5"
           stroke-linecap="round"
           stroke-linejoin="round"
           sketch:type="MSShapeGroup" />
        <path
           d="M 7.125,15.328125 14.39646,11.406828 16.078125,10.5"
           id="Stroke-26109"
           stroke="#000000"
           stroke-width="0.5"
           stroke-linecap="round"
           stroke-linejoin="round"
           sketch:type="MSShapeGroup" />
        <path
           d="M 2.625,7.5 3.8671025,9.6738723 7.125,15.375"
           id="Stroke-26110"
           stroke="#000000"
           stroke-width="0.5"
           stroke-linecap="round"
           stroke-linejoin="round"
           sketch:type="MSShapeGroup" />
        <path
           d="M 10.640625,6.515625 4.5,9.421875"
           id="Fill-26113"
           fill="#7d7d7d"
           sketch:type="MSShapeGroup" />
        <path
           d="M 10.640625,6.515625 4.5,9.421875"
           id="Stroke-26114"
           stroke="#7d7d7d"
           stroke-width="0.5"
           stroke-linecap="round"
           stroke-linejoin="round"
           sketch:type="MSShapeGroup" />
        <path
           d="M 14.390625,11.484375 13.125,9.75"
           id="Stroke-26116"
           stroke="#000000"
           stroke-width="0.5"
           stroke-linecap="round"
           stroke-linejoin="round"
           sketch:type="MSShapeGroup" />
        <path
           id="Stroke-26117"
           stroke="#000000"
           stroke-width="0.5"
           stroke-linecap="round"
           stroke-linejoin="round"
           sketch:type="MSShapeGroup"
           d="M 4.59375,9.375 3.890625,9.703125" />
        <path
           d="m 0.75,12.374769 c 0,-2.8190179 2.290222,-5.109144 5.1094375,-5.109144 2.8192155,0 5.1093125,2.2901261 5.1093125,5.109144 0,2.819292 -2.290097,5.109606 -5.1093125,5.109606 C 3.040222,17.484375 0.75,15.194061 0.75,12.374769 Z"
           id="Fill-31052"
           fill="#144689"
           sketch:type="MSShapeGroup" />
        <path
           d="m 0.75,12.374813 c 0,-2.819091 2.290222,-5.109188 5.1094375,-5.109188 2.8192155,0 5.1093125,2.290097 5.1093125,5.109188 0,2.819215 -2.290097,5.109562 -5.1093125,5.109562 C 3.040222,17.484375 0.75,15.194028 0.75,12.374813 Z"
           id="Stroke-31053"
           stroke="#ffffff"
           stroke-width="1.25"
           stroke-linecap="round"
           stroke-linejoin="round"
           sketch:type="MSShapeGroup" />
        <path
           d="m 0.75,12.374769 c 0,-2.8190179 2.290222,-5.109144 5.1094375,-5.109144 2.8192155,0 5.1093125,2.2901261 5.1093125,5.109144 0,2.819292 -2.290097,5.109606 -5.1093125,5.109606 C 3.040222,17.484375 0.75,15.194061 0.75,12.374769 Z"
           id="Fill-31054"
           fill="#144689"
           sketch:type="MSShapeGroup" />
        <path
           d="m 0.75,12.374813 c 0,-2.819091 2.290222,-5.109188 5.1094375,-5.109188 2.8192155,0 5.1093125,2.290097 5.1093125,5.109188 0,2.819215 -2.290097,5.109562 -5.1093125,5.109562 C 3.040222,17.484375 0.75,15.194028 0.75,12.374813 Z"
           id="Stroke-31055"
           stroke="#000000"
           stroke-width="0.75"
           stroke-linecap="round"
           stroke-linejoin="round"
           sketch:type="MSShapeGroup" />
        <path
           d="M 5.015625,11.390625 H 6.84375 V 16.03125 H 5.015625 Z"
           id="Fill-31056"
           fill="#ffffff"
           sketch:type="MSShapeGroup" />
        <path
           d="M 5.015625,11.390625 H 6.84375 V 16.03125 H 5.015625 Z"
           id="Stroke-31057"
           stroke="#000000"
           stroke-width="0.5"
           stroke-linecap="round"
           stroke-linejoin="round"
           sketch:type="MSShapeGroup" />
        <path
           d="M 5.015625,8.625 H 6.84375 v 1.828125 H 5.015625 Z"
           id="Fill-31058"
           fill="#ffffff"
           sketch:type="MSShapeGroup" />
        <path
           d="M 5.015625,8.625 H 6.84375 v 1.828125 H 5.015625 Z"
           id="Stroke-31059"
           stroke="#000000"
           stroke-width="0.5"
           stroke-linecap="round"
           stroke-linejoin="round"
           sketch:type="MSShapeGroup" />
      </g>
    </g>
  </g>
</svg>
