<?xml version="1.0" encoding="UTF-8" standalone="no"?>
<svg
   width="32"
   height="32"
   viewBox="0 0 32 32"
   fill="none"
   version="1.1"
   id="svg6"
   xmlns="http://www.w3.org/2000/svg"
   xmlns:svg="http://www.w3.org/2000/svg">
  <defs
     id="defs10" />
  <path
     d="M 6.34375,26.5823 C 13.51986,24.6568 19.3362,23.7364 22.2637,17.3429 22.5215,16.7799 23.2073,9.1055 16.0765,9.00504 8.94562,8.90458 4.570652,13.72938 8.90493,18.1576 c 1.58037,1.2987 0.38029,7.9726 -2.56118,8.4247 z"
     stroke="#009ad9"
     stroke-linecap="round"
     stroke-dasharray="2, 2"
     id="path2" />
  <path
     d="m 10.59326,13.63929 1.04716,-0.60457 1.72423,2.98648 c 0.17914,0.3103 0.57591,0.4166 0.88625,0.2374 l 3.0819,-1.7793 c 0.3103,-0.1792 0.4166,-0.57596 0.2375,-0.88625 L 15.846,10.6066 16.9019,9.99698 c 0.4304,-0.24849 0.433,-0.86881 0.0047,-1.12091 L 10.52745,5.12106 C 10.09259,4.865088 9.54482,5.18175 9.54963,5.68632 l 0.07054,7.39732 c 0.00474,0.49664 0.54297,0.80398 0.97309,0.55565 z"
     fill="#0e416c"
     stroke="#ffffff"
     stroke-width="0.75"
     stroke-linecap="round"
     stroke-linejoin="round"
     id="path4" />
</svg>
