<?xml version="1.0" encoding="UTF-8" standalone="no"?>
<svg
   width="32"
   height="32"
   viewBox="0 0 32 32"
   fill="none"
   version="1.1"
   id="svg14"
   xmlns="http://www.w3.org/2000/svg"
   xmlns:svg="http://www.w3.org/2000/svg">
  <defs
     id="defs18" />
  <rect
     x="10.27722"
     y="5.9677701"
     width="15.7224"
     height="14.0322"
     rx="0.5"
     fill="#ffffff"
     stroke="#0e416c"
     stroke-width="1.25"
     id="rect2" />
  <path
     fill-rule="evenodd"
     clip-rule="evenodd"
     d="m 17.1022,14.0888 c -0.0356,-0.09505 -0.0727,-0.15445 -0.1114,-0.17821 -0.0386,-0.02377 -0.1173,-0.03565 -0.2361,-0.03565 h -1.5862 c -0.1188,0 -0.2005,0.02079 -0.245,0.06238 -0.0446,0.04158 -0.1025,0.15448 -0.1738,0.33858 l -0.2584,0.6862 c -0.0238,0.0653 -0.0356,0.1277 -0.0356,0.1871 0,0.1901 0.1158,0.2852 0.3475,0.2852 0.0594,0 0.1441,-0.006 0.254,-0.0179 0.1099,-0.0118 0.1915,-0.0178 0.245,-0.0178 0.2436,0 0.3654,0.104 0.3654,0.3119 0,0.1961 -0.1337,0.2941 -0.401,0.2941 -0.0476,0 -0.1129,-0.006 -0.1961,-0.0179 L 14.625,15.9245 c -0.0832,-0.0119 -0.2198,-0.0179 -0.4099,-0.0179 -0.208,0 -0.3535,0.006 -0.43667,0.0179 l -0.37427,0.0534 c -0.16634,0.0238 -0.28812,0.0357 -0.36535,0.0357 -0.23168,0 -0.34753,-0.098 -0.34753,-0.2941 0,-0.2079 0.11288,-0.3119 0.33862,-0.3119 0.04753,0 0.08317,0.003 0.10693,0.0089 h 0.11585 c 0.1604,0 0.28218,-0.0623 0.36535,-0.1871 0.03564,-0.0475 0.09505,-0.1871 0.17822,-0.4188 l 1.65745,-4.48224 c 0.095,-0.24951 0.2822,-0.37426 0.5614,-0.37426 0.2733,0 0.4544,0.12475 0.5436,0.37426 l 1.595,4.41984 c 0.101,0.2792 0.1931,0.4634 0.2763,0.5525 0.0831,0.0891 0.2019,0.1337 0.3564,0.1337 0.0475,0 0.0832,-0.003 0.1069,-0.0089 0.1664,-0.0119 0.2495,-0.0179 0.2495,-0.0179 0.2258,0 0.3387,0.0951 0.3387,0.2852 0,0.202 -0.1129,0.303 -0.3387,0.303 -0.0653,0 -0.1514,-0.006 -0.2584,-0.0179 -0.3742,-0.0415 -0.6534,-0.0623 -0.8376,-0.0623 -0.2198,0 -0.5762,0.0237 -1.0693,0.0712 -0.1248,0.0119 -0.2198,0.0179 -0.2852,0.0179 -0.2376,0 -0.3564,-0.101 -0.3564,-0.303 0,-0.202 0.1307,-0.303 0.3921,-0.303 0.0534,0 0.1321,0.006 0.2361,0.0178 0.104,0.0119 0.1827,0.0179 0.2362,0.0179 0.196,0 0.294,-0.0802 0.294,-0.2406 0,-0.0238 -0.0237,-0.101 -0.0713,-0.2317 z"
     fill="#0e416c"
     id="path4" />
  <path
     fill-rule="evenodd"
     clip-rule="evenodd"
     d="m 16.0094,10.65161 -0.8198,2.45944 c -0.0119,0.03564 -0.0178,0.05643 -0.0178,0.06237 0,0.05347 0.0445,0.0802 0.1336,0.0802 h 1.4169 c 0.0713,0 0.1069,-0.02376 0.1069,-0.07128 0,-0.01189 -0.0059,-0.03565 -0.0178,-0.07129 z"
     fill="#ffffff"
     id="path6" />
  <path
     fill-rule="evenodd"
     clip-rule="evenodd"
     d="M 21.7906,11.29124 C 21.7847,10.98826 21.7535,10.78628 21.6971,10.68529 21.6406,10.5843 21.5292,10.5338 21.3629,10.5338 c -0.0594,0 -0.1455,0.0074 -0.2584,0.02228 -0.1129,0.01485 -0.199,0.02228 -0.2584,0.02228 -0.2317,0 -0.3476,-0.10396 -0.3476,-0.31189 0,-0.20792 0.1099,-0.31188 0.3297,-0.31188 0.0713,0 0.1827,0.00743 0.3342,0.02228 0.1515,0.01485 0.2688,0.02227 0.352,0.02227 0.1901,0 0.3475,-0.00594 0.4723,-0.01782 0.1841,-0.01782 0.297,-0.02673 0.3386,-0.02673 0.1307,0 0.2109,0.03861 0.2406,0.11584 0.0237,0.05347 0.0356,0.14555 0.0356,0.27624 0,0.01783 -0.0029,0.08911 -0.0089,0.21387 -0.0297,0.63565 -0.0445,1.21189 -0.0445,1.72873 v 1.00694 c 0,0.18417 0.0029,0.4307 0.0089,0.73959 0.0119,0.3743 0.0178,0.6208 0.0178,0.7396 0.0059,0.4099 0.1426,0.6149 0.4099,0.6149 0.0654,0 0.1634,-0.0074 0.2941,-0.0223 0.1307,-0.0148 0.2287,-0.0223 0.294,-0.0223 0.2852,0 0.4278,0.104 0.4278,0.3119 0,0.208 -0.1307,0.3119 -0.3921,0.3119 -0.101,0 -0.1961,-0.0059 -0.2852,-0.0178 -0.499,-0.0654 -0.8792,-0.098 -1.1406,-0.098 -0.2614,0 -0.5822,0.0267 -0.9624,0.0802 -0.2138,0.0297 -0.3653,0.0445 -0.4544,0.0445 -0.2555,0 -0.3832,-0.1069 -0.3832,-0.3208 0,-0.2079 0.1455,-0.3119 0.4366,-0.3119 0.0891,0 0.1812,0.009 0.2763,0.0268 0.1425,0.0119 0.2317,0.0178 0.2673,0.0178 0.2079,0 0.3356,-0.0817 0.3832,-0.2451 0.0475,-0.1633 0.0713,-0.5866 0.0713,-1.26977 z"
     fill="#0e416c"
     id="path8" />
  <path
     fill-rule="evenodd"
     clip-rule="evenodd"
     d="m 7.02391,26.9563 c 0.11701,0.2633 0.49067,0.2633 0.60768,0 l 1.995,-4.4888 C 9.72432,22.2477 9.56337,22 9.32275,22 h -3.99 c -0.24061,0 -0.401563,0.2477 -0.30384,0.4675 z"
     fill="#0e416c"
     id="path10" />
  <path
     d="M 10.28131,12.21875 H 7.3905 V 25"
     stroke="#0e416c"
     stroke-width="1.25"
     stroke-linecap="square"
     id="path12" />
</svg>
