<?xml version="1.0" encoding="UTF-8" standalone="no"?>
<svg
   width="32"
   height="32"
   viewBox="0 0 32 32"
   fill="none"
   version="1.1"
   id="svg8"
   xmlns="http://www.w3.org/2000/svg"
   xmlns:svg="http://www.w3.org/2000/svg">
  <defs
     id="defs12" />
  <path
     d="M 16,26 C 21.5228,26 26,21.5228 26,16 26,10.47715 21.5228,6 16,6 10.47715,6 6,10.47715 6,16 c 0,5.5228 4.47715,10 10,10 z"
     stroke="#0e416c"
     stroke-linecap="round"
     stroke-linejoin="round"
     id="path2" />
  <path
     d="m 16.5,10 h -1 C 15.2239,10 15,10.22386 15,10.5 v 1 c 0,0.27614 0.2239,0.5 0.5,0.5 h 1 c 0.2761,0 0.5,-0.22386 0.5,-0.5 v -1 C 17,10.22386 16.7761,10 16.5,10 Z"
     fill="#0e416c"
     id="path4" />
  <path
     d="m 16.5,13 h -1 C 15.2239,13 15,13.22386 15,13.5 v 8 c 0,0.2761 0.2239,0.5 0.5,0.5 h 1 c 0.2761,0 0.5,-0.2239 0.5,-0.5 v -8 C 17,13.22386 16.7761,13 16.5,13 Z"
     fill="#0e416c"
     id="path6" />
</svg>
