<?xml version="1.0" encoding="UTF-8" standalone="no"?>
<svg
   width="32"
   height="32"
   viewBox="0 0 32 32"
   fill="none"
   version="1.1"
   id="svg12"
   xmlns="http://www.w3.org/2000/svg"
   xmlns:svg="http://www.w3.org/2000/svg">
  <defs
     id="defs16" />
  <path
     d="m 22.86,16.9147 -8.6873,5.0157 -0.82034,-1.4209 0.52438,-0.8388 C 12.24833,19.2252 10.40054,17.2823 9.83943,16.3312 7.98172,12.43856 9.5516,10.44726 10.56875,9.93819 11.99743,9.28774 15.1931,7.79154 16.5463,7.01029 17.8994,6.22904 18.9599,7.18043 19.321,7.75378 l 4.0313,6.98232 c 0.6812,1.18 -0.0444,1.9441 -0.4923,2.1786 z"
     fill="#dcedf9"
     stroke="#0e416c"
     stroke-width="1.25"
     stroke-linecap="round"
     id="path2" />
  <path
     d="M 13.43422,21.3202 7.66211,24.6526"
     stroke="#0e416c"
     stroke-width="1.25"
     id="path4" />
  <path
     d="m 7.35156,24.1639 1.45313,2.4688"
     stroke="#0e416c"
     stroke-width="0.5"
     stroke-linecap="round"
     id="path6" />
  <circle
     cx="15.7113"
     cy="14.0035"
     r="3.2211399"
     fill="#ff0404"
     id="circle8" />
  <path
     d="M 8.08578,16.5387 8.51319,15.029 c 0,0 0.82039,3.0566 3.18506,4.1852 l -0.71769,0.6509 C 9.34333,19.1793 8.36853,17.3617 8.08578,16.5387 Z"
     stroke="#0e416c"
     stroke-width="0.5"
     stroke-linecap="round"
     id="path10" />
</svg>
