<?xml version="1.0" encoding="UTF-8" standalone="no"?>
<svg
   width="32"
   height="32"
   viewBox="0 0 32 32"
   fill="none"
   version="1.1"
   id="svg16"
   xmlns="http://www.w3.org/2000/svg"
   xmlns:svg="http://www.w3.org/2000/svg">
  <defs
     id="defs20" />
  <path
     d="m 17.3262,6.06543 -9.54349,5 16.43489,2.17391 z"
     fill="#009ad9"
     id="path2" />
  <path
     d="m 14.8915,25.935 9.1087,-5.3696 0.2174,-7.32606 z"
     fill="#009ad9"
     id="path4" />
  <path
     d="M 14.3262,18.7828 7.78271,11.06543 14.8915,25.935 Z"
     fill="#009ad9"
     id="path6" />
  <path
     d="M 14.3262,18.7828 24.2176,13.23934 7.78271,11.06543 Z"
     fill="#acaa94"
     id="path8" />
  <path
     d="m 24.2176,13.23934 -9.8914,5.54346 0.5653,7.1522 z"
     fill="#acaa94"
     id="path10" />
  <path
     d="m 8.67407,18.435 6.21743,7.5 -7.10879,-14.86957 z"
     fill="#acaa94"
     id="path12" />
  <path
     d="m 7.78271,11.06543 -0.17403,-0.33217 -0.22934,0.12016 0.03109,0.25704 z m 9.54349,-5 0.2704,-0.25979 -0.195,-0.20305 -0.2495,0.13067 z m 6.8914,7.17391 0.3748,0.01113 0.0047,-0.15737 -0.1091,-0.11354 z M 8.67407,18.435 8.30179,18.48 l 0.01323,0.1095 0.07035,0.0848 z m 15.32613,2.1304 0.1904,0.3231 0.1783,-0.1051 0.0061,-0.2068 z m -9.1087,5.3696 -0.2887,0.2393 0.2039,0.246 0.2752,-0.1623 z m -6.93475,-14.5374 9.54345,-5 -0.3481,-0.66434 -9.54342,5 z m 9.09895,-5.07238 6.8914,7.17391 0.5409,-0.51957 -6.8914,-7.17392 z m 6.9785,6.58699 -9.8913,5.54349 0.3667,0.6542 9.8913,-5.54343 z M 14.6123,18.5403 8.06874,10.82291 7.49669,11.30795 14.0402,19.0253 Z m 9.1974,1.7021 -9.1087,5.3695 0.3809,0.6461 9.1087,-5.3695 z m -8.6295,5.4533 -6.21743,-7.5 -0.5774,0.4786 6.21743,7.5 z m -1.22779,-6.8833 0.56519,7.1521 0.7477,-0.059 -0.5652,-7.1522 z m 9.89029,-5.58418 -0.2174,7.32608 0.7497,0.0223 0.2174,-7.32613 z M 7.73354,11.43719 24.1684,13.6111 24.2667,12.86758 7.83189,10.69367 Z M 23.9153,13.01733 14.5892,25.713 15.1937,26.157 24.5198,13.46135 Z M 7.41043,11.11046 8.30179,18.48 9.04636,18.39 8.155,11.0204 Z M 7.44439,11.22717 14.5531,26.0967 15.2298,25.7733 8.12104,10.90369 Z"
     fill="#0e416c"
     id="path14" />
</svg>
