<?xml version="1.0" encoding="UTF-8" standalone="no"?>
<svg
   width="32"
   height="32"
   viewBox="0 0 32 32"
   fill="none"
   version="1.1"
   id="svg18"
   xmlns="http://www.w3.org/2000/svg"
   xmlns:svg="http://www.w3.org/2000/svg">
  <defs
     id="defs22" />
  <path
     fill-rule="evenodd"
     clip-rule="evenodd"
     d="M 13.43186,10.14312 C 13.2134,10.14269 13.076,9.90643 13.18402,9.71696 L 15.88,4.988414 c 0.1089,-0.190933 0.3845,-0.190403 0.4941,9.5e-4 l 2.714,4.738956 c 0.1088,0.18989 -0.0277,0.42563 -0.2462,0.42521 l -1.0679,-0.0021 0.0059,3.09673 c 3e-4,0.15714 -0.1268,0.28428 -0.284,0.28398 l -2.705,-0.0051 c -0.1571,-3e-4 -0.2847,-0.12793 -0.285,-0.28506 l -0.006,-3.09677 z"
     fill="#ff0404"
     id="path2" />
  <path
     d="m 13.43186,10.14312 3.3e-4,-0.16768 z M 13.18402,9.71696 13.03835,9.63391 Z M 15.88,4.988414 16.0257,5.07147 Z m 0.4941,9.5e-4 0.1455,-0.083336 v 0 z m 2.714,4.738956 -0.1455,0.08334 z m -0.2462,0.42521 -3e-4,0.16768 z m -1.0679,-0.0021 3e-4,-0.16769 -0.1683,-3.2e-4 3e-4,0.16833 z m 0.0059,3.09673 -0.1677,3.3e-4 z m -0.284,0.28398 4e-4,-0.16769 z m -2.705,-0.0051 -3e-4,0.16769 z m -0.285,-0.28506 -0.1677,3.2e-4 v 0 z m -0.006,-3.09677 0.1677,-3.2e-4 -3e-4,-0.16703 -0.1671,-3.3e-4 z M 13.43219,9.97544 C 13.34163,9.97526 13.28565,9.87727 13.3297,9.80002 L 13.03835,9.63391 c -0.172,0.30167 0.04682,0.67621 0.39318,0.6769 z M 13.3297,9.80002 16.0257,5.07147 15.7343,4.90536 13.03835,9.63391 Z m 2.696,-4.72855 C 16.0696,4.994381 16.1828,4.992807 16.2285,5.0727 L 16.5196,4.906028 C 16.3461,4.603215 15.9081,4.600581 15.7343,4.90536 Z m 0.2028,0.00123 2.7141,4.73896 0.291,-0.16667 -2.714,-4.738962 z m 2.7141,4.73896 c 0.045,0.07852 -0.0115,0.17436 -0.1004,0.17418 l -6e-4,0.33537 c 0.3481,6.8e-4 0.5646,-0.37498 0.392,-0.67622 z m -0.1004,0.17418 -1.0679,-0.00206 -7e-4,0.33537 1.068,0.0021 z m -1.2359,0.16595 0.0059,3.09674 0.3354,-6.5e-4 -0.006,-3.09673 z m 0.0059,3.09674 c 2e-4,0.06427 -0.0517,0.11609 -0.1159,0.11596 l -7e-4,0.33537 c 0.25,4.8e-4 0.4525,-0.20199 0.452,-0.45198 z m -0.1159,0.11596 -2.7051,-0.0051 -6e-4,0.33537 2.705,0.0051 z m -2.7051,-0.0051 c -0.0647,-1.3e-4 -0.1175,-0.05293 -0.1177,-0.11771 l -0.3353,6.5e-4 c 4e-4,0.2495 0.2029,0.45195 0.4524,0.45243 z m -0.1177,-0.11771 -0.0059,-3.09676 -0.3354,6.5e-4 0.006,3.09676 z m -0.1733,-3.26412 -1.06801,-0.0021 -6.6e-4,0.33537 1.06807,0.0021 z"
     fill="#ffffff"
     id="path4" />
  <path
     fill-rule="evenodd"
     clip-rule="evenodd"
     d="m 18.8351,21.8423 c 0.218,0 0.3547,0.2356 0.2465,0.4249 l -2.6998,4.7246 c -0.1091,0.1908 -0.3841,0.1908 -0.4932,0 l -2.69978,-4.7247 c -0.10818,-0.1893 0.02852,-0.4248 0.24657,-0.4248 h 1.06591 v -3.0908 c 0,-0.1568 0.1271,-0.284 0.2839,-0.284 h 2.6999 c 0.1568,0 0.284,0.1271 0.284,0.2839 v 3.0909 z"
     fill="#ff0404"
     id="path6" />
  <path
     d="m 18.8351,21.8423 v 0.1758 z m 0.2465,0.4249 0.1526,0.0872 z m -2.6998,4.7246 -0.1527,-0.0872 z m -0.4932,0 -0.1526,0.0872 z m -2.69978,-4.7247 0.15261,-0.0872 z m 0.24657,-0.4248 v -0.1758 z m 1.06591,0 v 0.1757 l 0.1758,10e-5 v -0.1758 z m 0,-3.0908 h 0.1757 z m 0.2839,-0.284 v 0.1758 z m 2.6999,0 v -0.1758 z m 0.284,0.2839 h 0.1757 v 0 z m 0,3.0909 h -0.1758 v 0.1757 h 0.1758 z m 1.066,0.1758 c 0.083,0 0.1351,0.0897 0.0939,0.1619 l 0.3052,0.1744 c 0.1751,-0.3065 -0.0461,-0.6878 -0.3991,-0.6879 z m 0.0939,0.1619 -2.6999,4.7246 0.3053,0.1744 2.6998,-4.7246 z m -2.6999,4.7246 c -0.0415,0.0727 -0.1463,0.0727 -0.1879,0 L 15.736,27.079 c 0.1765,0.3089 0.6219,0.3089 0.7984,0 z m -0.1879,0 -2.69977,-4.7247 -0.30521,0.1744 2.69978,4.7247 z M 13.34143,22.1799 C 13.3002,22.1078 13.3523,22.018 13.43538,22.018 l 10e-6,-0.3515 c -0.353,0 -0.5743,0.3814 -0.39917,0.6878 z m 0.09395,-0.1619 h 1.06592 v -0.3515 h -1.06591 z m 1.24172,-0.1757 -10e-5,-3.0908 h -0.3515 v 3.0908 z m -10e-5,-3.0908 c 0,-0.0598 0.0485,-0.1082 0.1082,-0.1082 v -0.3515 c -0.2539,0 -0.4597,0.2058 -0.4597,0.4597 z m 0.1082,-0.1082 2.6999,-10e-5 v -0.3515 l -2.6999,10e-5 z m 2.6999,-10e-5 c 0.0597,0 0.1082,0.0485 0.1082,0.1082 h 0.3515 c 0,-0.2539 -0.2058,-0.4597 -0.4597,-0.4597 z m 0.1082,0.1082 v 3.0909 h 0.3515 v -3.0909 z m 0.1758,3.2666 1.066,10e-5 v -0.3516 h -1.066 z"
     fill="#ffffff"
     id="path8" />
  <path
     fill-rule="evenodd"
     clip-rule="evenodd"
     d="m 21.8428,13.43397 c 0,-0.21803 0.2356,-0.35472 0.4249,-0.24654 l 4.7246,2.69987 c 0.1908,0.109 0.1908,0.3841 0,0.4931 l -4.7247,2.6998 c -0.1893,0.1082 -0.4248,-0.0285 -0.4248,-0.2465 V 17.7678 H 18.752 c -0.1569,0 -0.284,-0.1272 -0.284,-0.284 l -10e-5,-2.6998 c 0,-0.1569 0.1272,-0.284 0.284,-0.284 h 3.0908 z"
     fill="#ff0404"
     id="path10" />
  <path
     d="m 21.8428,13.43397 0.1758,10e-6 z m 0.4249,-0.24654 0.0872,-0.1526 z m 4.7246,2.69987 -0.0872,0.1526 z m 0,0.4931 0.0872,0.1526 z m -4.7247,2.6998 -0.0872,-0.1526 z M 21.8428,18.8337 H 21.667 Z m 0,-1.0659 h 0.1757 V 17.592 h -0.1757 z m -3.0908,0 V 17.592 Z m -0.284,-0.284 h 0.1758 z m -10e-5,-2.6998 h -0.1757 z m 0.284,-0.284 v -0.1758 0 z m 3.0908,0 v 0.1757 h 0.1758 V 14.5 Z m 0.1759,-1.06602 c 0,-0.08308 0.0897,-0.13517 0.1619,-0.09395 l 0.1744,-0.3052 c -0.3065,-0.17513 -0.6878,0.04615 -0.6879,0.39913 z m 0.1619,-0.09395 4.7246,2.69987 0.1744,-0.3052 -4.7246,-2.69987 z m 4.7246,2.69987 c 0.0727,0.0415 0.0727,0.1464 0,0.1879 l 0.1744,0.3052 c 0.3089,-0.1765 0.3089,-0.6218 0,-0.7983 z m 0,0.1879 -4.7247,2.6998 0.1744,0.3052 4.7247,-2.6998 z m -4.7247,2.6998 c -0.0721,0.0412 -0.1619,-0.0109 -0.1619,-0.0939 H 21.667 c 0,0.353 0.3813,0.5743 0.6878,0.3991 z M 22.0185,18.8337 V 17.7678 H 21.667 v 1.0659 z M 21.8428,17.592 H 18.752 v 0.3515 h 3.0908 z m -3.0908,0 c -0.0598,0 -0.1082,-0.0484 -0.1082,-0.1082 h -0.3516 c 0,0.2539 0.2059,0.4597 0.4598,0.4597 z m -0.1082,-0.1082 -10e-5,-2.6998 h -0.3515 v 2.6998 z m -10e-5,-2.6998 c 0,-0.0598 0.0485,-0.1083 0.1082,-0.1083 v -0.3515 c -0.2539,0 -0.4597,0.2059 -0.4597,0.4598 z m 0.1082,-0.1083 h 3.0908 v -0.3515 h -3.0908 z m 3.2666,-0.1757 10e-5,-1.06602 -0.3516,-2e-5 v 1.06594 z"
     fill="#ffffff"
     id="path12" />
  <path
     fill-rule="evenodd"
     clip-rule="evenodd"
     d="m 10.1572,18.8336 c -10e-6,0.218 -0.23556,0.3547 -0.42487,0.2465 L 5.00767,16.3803 c -0.190773,-0.109 -0.190772,-0.3841 10e-6,-0.4931 l 4.72469,-2.69984 c 0.18932,-0.10818 0.42487,0.02852 0.42487,0.24656 l -2e-5,1.06588 h 3.0908 c 0.15683,0 0.28397,0.1271 0.28398,0.284 l 5e-5,2.6998 c 10e-6,0.1569 -0.12713,0.284 -0.28397,0.284 h -3.09082 z"
     fill="#ff0404"
     id="path14" />
  <path
     d="M 10.1572,18.8336 H 9.98144 Z m -0.42487,0.2465 -0.0872,0.1527 z M 5.00767,16.3803 5.09488,16.2277 Z m 10e-6,-0.4931 -0.087206,-0.1526 z m 4.72469,-2.69984 0.0872,0.1526 z m 0.42487,0.24656 H 10.333 Z m -2e-5,1.06588 H 9.98146 v 0.1758 h 0.17576 z m 3.0908,0 v 0.1758 z m 0.28398,0.284 h -0.17577 z m 5e-5,2.6998 h 0.17576 z m -0.28397,0.284 v 0.1758 0 z m -3.09082,0 -1e-5,-0.1757 H 9.9815 l -10e-6,0.1757 z m -0.17582,1.066 c 0,0.0831 -0.08976,0.1352 -0.1619,0.0939 l -0.17441,0.3053 c 0.30648,0.1751 0.68781,-0.0462 0.68783,-0.3992 z M 9.81954,18.9275 5.09488,16.2277 4.920469,16.5329 9.64513,19.2328 Z M 5.09488,16.2277 c -0.0727,-0.0416 -0.0727,-0.1464 0,-0.1879 L 4.920474,15.7346 c -0.308857,0.1765 -0.308859,0.6218 -5e-6,0.7983 z m 0,-0.1879 4.72469,-2.69984 -0.1744,-0.3052 -4.724696,2.69984 z m 4.72469,-2.69984 c 0.07214,-0.04122 0.16191,0.01087 0.1619,0.09396 H 10.333 c 0,-0.35299 -0.38134,-0.5743 -0.68783,-0.39916 z m 0.1619,0.09396 -10e-6,1.06588 h 0.35153 l 10e-6,-1.06588 z m 0.17575,1.24168 h 3.0908 V 14.324 l -3.0908,10e-5 z m 3.0908,0 c 0.05976,0 0.10821,0.0484 0.10821,0.1082 h 0.35153 c -10e-6,-0.2539 -0.20584,-0.4598 -0.45974,-0.4598 z m 0.10821,0.1082 6e-5,2.6998 h 0.35152 l -5e-5,-2.6998 z m 6e-5,2.6998 c 0,0.0598 -0.04844,0.1082 -0.10821,0.1082 v 0.3516 c 0.25391,0 0.45974,-0.2059 0.45973,-0.4598 z m -0.10821,0.1082 -3.09083,10e-5 1e-5,0.3515 h 3.09082 z m -3.26659,0.1758 -5e-5,1.066 h 0.35152 l 6e-5,-1.066 z"
     fill="#ffffff"
     id="path16" />
</svg>
