<?xml version="1.0" encoding="UTF-8" standalone="no"?>
<svg
   width="32"
   height="32"
   viewBox="0 0 32 32"
   fill="none"
   version="1.1"
   id="svg10"
   xmlns="http://www.w3.org/2000/svg"
   xmlns:svg="http://www.w3.org/2000/svg">
  <defs
     id="defs14" />
  <path
     fill-rule="evenodd"
     clip-rule="evenodd"
     d="m 10.65234,8.44141 h 2.34849 v 1.55844 h -2.34849 z"
     fill="#0e416c"
     id="path2" />
  <path
     fill-rule="evenodd"
     clip-rule="evenodd"
     d="m 20.0502,10.85774 0.2923,0.47919 h 0.5613 2.4035 c 0.1303,0 0.2358,0.10815 0.2358,0.23338 v 7.01079 c 0,0.1253 -0.1055,0.2334 -0.2358,0.2334 H 10.79827 c -0.13025,0 -0.23577,-0.1081 -0.23577,-0.2334 v -2.9534 h -1 v 2.9534 c 0,0.6799 0.55553,1.2334 1.23577,1.2334 H 23.3073 c 0.6802,0 1.2358,-0.5535 1.2358,-1.2334 v -7.01079 c 0,-0.67987 -0.5556,-1.23338 -1.2358,-1.23338 H 20.9038 L 19.8247,8.56815 19.7854,8.51333 C 19.5061,8.17924 19.0713,8 18.6164,8 h -3.1272 c -0.455,0 -0.8897,0.17924 -1.1691,0.51333 l -0.0393,0.05482 -1.07905,1.76878 h -2.40348 c -0.68024,0 -1.23577,0.55351 -1.23577,1.23338 v 1.01197 h 1 v -1.01197 c 0,-0.12526 0.10549,-0.23338 0.23577,-0.23338 h 2.40348 0.56134 l 0.29231,-0.4792 1.0524,-1.72501 C 15.177,9.06524 15.3056,9 15.4892,9 h 3.1272 c 0.1836,0 0.3122,0.06524 0.3813,0.13272 z"
     fill="#0e416c"
     id="path4" />
  <path
     d="m 15.3483,16.5899 c -0.1502,0.0975 -0.3487,-0.0102 -0.3487,-0.1893 V 15.46 12.67583 11.7913 c 0,-0.17795 0.1963,-0.28593 0.3466,-0.19067 l 3.5919,2.2766 c 0.1389,0.08806 0.14,0.29037 0.0021,0.37997 z"
     fill="#ff0404"
     id="path6" />
  <path
     d="M 14.8785,23.5 H 10.75 C 8.12664,23.5 6,21.3734 6,18.75 v 0 C 6,16.1266 8.12665,14 10.75,14 H 16"
     stroke="#ff0404"
     stroke-linecap="round"
     id="path8" />
</svg>
