<?xml version="1.0" encoding="UTF-8" standalone="no"?>
<svg
   width="32"
   height="32"
   viewBox="0 0 32 32"
   fill="none"
   version="1.1"
   id="svg4"
   xmlns="http://www.w3.org/2000/svg"
   xmlns:svg="http://www.w3.org/2000/svg">
  <defs
     id="defs8" />
  <path
     fill-rule="evenodd"
     clip-rule="evenodd"
     d="M 19.8536,6.14645 C 19.7631,6.05597 19.6381,6 19.5,6 H 9.5 L 9.41012,6.00806 C 9.17688,6.05039 9,6.25454 9,6.5 v 19 l 0.00806,0.0899 C 9.05039,25.8231 9.25454,26 9.5,26 h 7 l 0.0899,-0.0081 C 16.8231,25.9496 17,25.7455 17,25.5 L 16.9919,25.4101 C 16.9496,25.1769 16.7455,25 16.5,25 H 10 V 7 h 9 v 3.5 l 0.0081,0.08988 C 19.0504,10.82312 19.2545,11 19.5,11 H 23 v 4.5 l 0.0081,0.0899 C 23.0504,15.8231 23.2545,16 23.5,16 23.7761,16 24,15.7761 24,15.5 v -5 l -0.0062,-0.07869 -0.0018,-0.01025 -10e-5,-9.4e-4 c -0.0183,-0.10119 -0.0671,-0.19178 -0.1366,-0.26191 l -0.0017,-0.0018 z M 20,10 V 7.707 L 22.293,10 Z m 2.5,7.5 c -2.7614,0 -5,2.2386 -5,5 0,2.7614 2.2386,5 5,5 2.7614,0 5,-2.2386 5,-5 0,-2.7614 -2.2386,-5 -5,-5 z m 0,1 c 2.2091,0 4,1.7909 4,4 0,2.2091 -1.7909,4 -4,4 -2.2091,0 -4,-1.7909 -4,-4 0,-2.2091 1.7909,-4 4,-4 z m 2.5,4 C 25,22.2239 24.7761,22 24.5,22 H 23 V 20.5 L 22.9919,20.4101 C 22.9496,20.1769 22.7455,20 22.5,20 22.2239,20 22,20.2239 22,20.5 V 22 h -1.5 l -0.0899,0.0081 C 20.1769,22.0504 20,22.2545 20,22.5 20,22.7761 20.2239,23 20.5,23 H 22 v 1.5 l 0.0081,0.0899 C 22.0504,24.8231 22.2545,25 22.5,25 22.7761,25 23,24.7761 23,24.5 V 23 h 1.5 l 0.0899,-0.0081 C 24.8231,22.9496 25,22.7455 25,22.5 Z"
     fill="#0e416c"
     id="path2" />
</svg>
