<?xml version="1.0" encoding="UTF-8" standalone="no"?>
<svg
   width="32"
   height="32"
   viewBox="0 0 32 32"
   fill="none"
   version="1.1"
   id="svg8"
   xmlns="http://www.w3.org/2000/svg"
   xmlns:svg="http://www.w3.org/2000/svg">
  <defs
     id="defs12" />
  <path
     d="m 20,20 5.6569,5.6569"
     stroke="#0e416c"
     stroke-width="2"
     stroke-linecap="round"
     id="path2" />
  <circle
     cx="12.5"
     cy="12.5"
     r="7"
     stroke="#0e416c"
     id="circle4" />
  <path
     d="m 12.50021,7.8866 c 0,-0.34899 -0.28391,-0.63582 -0.63037,-0.59388 -0.47229,0.05717 -0.9356,0.17846 -1.37693,0.36126 C 9.85652,7.91758 9.27828,8.30395 8.7912,8.79103 8.30413,9.2781 7.91776,9.85634 7.65416,10.49273 7.47135,10.93407 7.35007,11.39737 7.2929,11.86967 c -0.04194,0.34645 0.24489,0.63036 0.59387,0.63036 v 0 c 0.34899,0 0.62678,-0.28464 0.68193,-0.62924 0.04902,-0.30629 0.13378,-0.60652 0.25304,-0.89443 0.20009,-0.48306 0.49337,-0.92199 0.86309,-1.29171 0.36972,-0.36972 0.80864,-0.663 1.29171,-0.86309 0.28791,-0.11925 0.58814,-0.20401 0.89443,-0.25304 0.34459,-0.05515 0.62924,-0.33294 0.62924,-0.68192 z"
     fill="#009ad9"
     id="path6" />
</svg>
