<?xml version="1.0" encoding="UTF-8" standalone="no"?>
<svg
   width="32"
   height="32"
   viewBox="0 0 32 32"
   fill="none"
   version="1.1"
   id="svg15"
   xmlns="http://www.w3.org/2000/svg"
   xmlns:svg="http://www.w3.org/2000/svg">
  <g
     clip-path="url(#clip0_24833_14942)"
     id="g8"
     transform="translate(4,4)">
    <path
       d="m 9.84766,21.5156 c 1.23764,0 2.44754,-0.367 3.47664,-1.0546 1.0291,-0.6876 1.8312,-1.665 2.3048,-2.8084 0.4737,-1.1435 0.5976,-2.4017 0.3561,-3.6156 C 15.7438,12.8231 15.1478,11.708 14.2726,10.8329 13.3974,9.9577 12.2824,9.3617 11.0685,9.12024 9.8546,8.87878 8.59636,9.00271 7.4529,9.47635 6.30943,9.94999 5.33209,10.7521 4.64447,11.7812 3.95686,12.8102 3.58984,14.0201 3.58984,15.2578"
       stroke="#0e416c"
       id="path2" />
    <path
       d="m 18.6135,21.5106 c 2.1333,-2.1332 3.3317,-5.0265 3.3317,-8.0433 0,-3.0168 -1.1984,-5.91012 -3.3317,-8.04334 -2.1332,-2.13323 -5.0265,-3.33167 -8.0433,-3.33167 -3.01685,0 -5.91012,1.19844 -8.04335,3.33166"
       stroke="#009ad9"
       stroke-width="1.25"
       id="path4" />
    <path
       d="m 15.0383,3.66034 c -0.6634,0.141 -0.9064,0.96131 -0.4268,1.44089 l 0.6924,0.69243 -3.1091,3.10911 c -0.3339,0.3339 -0.3339,0.87527 0,1.20913 l 2.5939,2.5938 c 0.3339,0.3339 0.8753,0.3339 1.2092,0 l 3.1091,-3.10897 0.63,0.63007 c 0.4766,0.4766 1.2915,0.2401 1.4389,-0.41759 L 22.6385,3.28342 C 22.7748,2.67546 22.2359,2.13059 21.6265,2.26011 Z"
       fill="#ff0404"
       stroke="#ffffff"
       id="path6" />
  </g>
  <defs
     id="defs13">
    <clipPath
       id="clip0_24833_14942">
      <rect
         width="24"
         height="24"
         fill="#ffffff"
         id="rect10"
         x="0"
         y="0" />
    </clipPath>
  </defs>
</svg>
