<?xml version="1.0" encoding="UTF-8" standalone="no"?>
<svg
   width="32"
   height="32"
   viewBox="0 0 32 32"
   fill="none"
   version="1.1"
   id="svg12"
   xmlns="http://www.w3.org/2000/svg"
   xmlns:svg="http://www.w3.org/2000/svg">
  <defs
     id="defs16" />
  <line
     x1="15.6718"
     y1="5.6852999"
     x2="15.6718"
     y2="24.685301"
     stroke="#0e416c"
     id="line2" />
  <path
     d="m 11.48151,16.2583 v 3.9869 C 10.40686,19.8911 8.02267,19.0468 7.08318,18.5023 6.14368,17.9578 5.95373,17.1484 5.9762,16.8118 v -3.93103 c -9e-5,-0.0086 -9e-5,-0.01726 0,-0.02591 v 0.02591 c 0.01782,1.76333 3.67169,2.98553 5.50531,3.37753 z"
     fill="#ff0404"
     id="path4" />
  <path
     d="M 14.4585,13.30367 V 9.75064 C 9.773,9.6908 7.41504,11.1328 7.3562,12.20168 c -0.07181,1.30452 0.98825,1.70107 1.58416,1.84822 1.69947,-0.83182 4.28393,-0.68639 5.51814,-0.74623 z"
     fill="#ff0404"
     id="path6" />
  <path
     d="M 16.8746,13.30367 V 9.75064 c 6.5076,0.4787 6.9524,1.27227 7.4012,1.64627 0.2671,0.22261 0.3294,1.29559 -0.0782,1.70313 L 23.0101,14.1 C 21.294,13.01061 18.2808,13.34106 16.8746,13.30367 Z"
     fill="#ff0404"
     id="path8" />
  <path
     d="m 19.5375,16.2732 c 4.6555,-0.2872 6.2483,-2.30383 6.4627,-3.27624 v 4.17384 c 0,2.3458 -4.4681,2.9222 -6.7021,2.9172 v 1.6307 l -2.4235,-3.5755 2.6629,-3.5306 z"
     fill="#ff0404"
     id="path10" />
</svg>
