<?xml version="1.0" encoding="UTF-8" standalone="no"?>
<svg
   width="32"
   height="32"
   viewBox="0 0 32 32"
   fill="none"
   version="1.1"
   id="svg6"
   xmlns="http://www.w3.org/2000/svg"
   xmlns:svg="http://www.w3.org/2000/svg">
  <defs
     id="defs10" />
  <path
     d="m 12.5,8 c 0.10609,0 0.2087,0.03371 0.29351,0.09521 L 12.85355,8.14645 15.207,10.5 H 25.5 c 0.2455,0 0.4496,0.17688 0.4919,0.41012 L 26,11 v 2.5 c 0,0.27614 -0.2239,0.5 -0.5,0.5 -0.2455,0 -0.4496,-0.17688 -0.4919,-0.41012 L 25,13.5 v -2 H 15 c -0.1061,0 -0.2087,-0.03371 -0.2935,-0.09521 L 14.6464,11.35355 12.293,9 H 7 v 4.5 c 0,0.24546 -0.17688,0.44961 -0.41012,0.49194 L 6.5,14 C 6.25454,14 6.05039,13.82312 6.00806,13.58988 L 6,13.5 v -5 C 6,8.25454 6.17688,8.05039 6.41012,8.00806 L 6.5,8 Z"
     fill="#0e416c"
     id="path2" />
  <path
     fill-rule="evenodd"
     clip-rule="evenodd"
     d="M 5.50007,15 H 26.5001 c 0.3007,0 0.5334,0.2636 0.4961,0.562 l -1,8 C 25.9649,23.8122 25.7522,24 25.5001,24 H 6.50007 C 6.24791,24 6.03521,23.8122 6.00393,23.562 l -1,-8 C 4.966631,15.2636 5.19932,15 5.50007,15 Z m 19.55803,8 0.875,-7 H 6.06607 l 0.875,7 z"
     fill="#0e416c"
     id="path4" />
</svg>
