<?xml version="1.0" encoding="UTF-8" standalone="no"?>
<svg
   width="32"
   height="32"
   viewBox="0 0 32 32"
   fill="none"
   version="1.1"
   id="svg8"
   xmlns="http://www.w3.org/2000/svg"
   xmlns:svg="http://www.w3.org/2000/svg">
  <defs
     id="defs12" />
  <path
     fill-rule="evenodd"
     clip-rule="evenodd"
     d="M 20,6 H 6 v 14 h 6 v 6 H 26 V 12 h -6 z"
     fill="#dcedf9"
     id="path2" />
  <path
     d="M 6,6 V 5.5 H 5.5 V 6 Z m 14,0 h 0.5 V 5.5 H 20 Z M 6,20 H 5.5 v 0.5 H 6 Z m 6,0 h 0.5 V 19.5 H 12 Z m 0,6 h -0.5 v 0.5 H 12 Z m 14,0 v 0.5 h 0.5 V 26 Z m 0,-14 h 0.5 V 11.5 H 26 Z m -6,0 h -0.5 v 0.5 H 20 Z M 6,6.5 h 14 v -1 H 6 Z M 6.5,20 V 6 h -1 V 20 Z M 12,19.5 H 6 v 1 h 6 z m 0.5,6.5 v -6 h -1 v 6 z M 26,25.5 H 12 v 1 H 26 Z M 25.5,12 v 14 h 1 V 12 Z M 20,12.5 h 6 v -1 H 20 Z M 19.5,6 v 6 h 1 V 6 Z"
     fill="#009ad9"
     id="path4" />
  <path
     d="m 12,12 h 8 v 8 h -8 z"
     stroke="#0e416c"
     stroke-dasharray="1, 1"
     id="path6" />
</svg>
