<?xml version="1.0" encoding="UTF-8" standalone="no"?>
<svg
   width="32"
   height="32"
   viewBox="0 0 32 32"
   fill="none"
   version="1.1"
   id="svg16"
   xmlns="http://www.w3.org/2000/svg"
   xmlns:svg="http://www.w3.org/2000/svg">
  <defs
     id="defs20" />
  <path
     d="m 23.8846,16.1416 -7.5,-7.6875 c -0.6875,1.45833 -1.3625,3.56875 -2.1875,4.46875 -0.82496,0.9 -3.34371,3.36455 -4.40621,3.93755 2.17709,2.4687 6.18691,6.8004 6.81191,7.0504 0.7812,0.3125 2.7122,-0.3176 4.9935,-2.4426 1.825,-1.7 2.4863,-4.1287 2.2883,-5.3266 z"
     fill="#dcedf9"
     id="path2" />
  <path
     d="m 15.3261,11.31633 c -1.4125,-1.45461 -6.075,0.18021 -8.125,3.08947 0,0 -2.912365,5.2906 -0.79987,7.9939 0.6875,0.8624 2.03751,0.9525 2.50001,-0.8496 0.6433,-2.7454 1.41981,-5.6925 3.32216,-7.72664 0.33015,-0.26648 0.81691,-0.80974 1.11111,-1.11765 0.61481,-0.61975 1.54389,-0.63293 1.99159,-1.38948 z"
     fill="#6a6e79"
     id="path4" />
  <path
     d="M 13.73499,13.39495 C 15.9707,11.09255 16.877,8.29278 15.7592,7.14158 14.6413,5.99038 11.92256,6.92369 9.68681,9.22608 7.45105,11.52848 6.54477,14.3283 7.66264,15.4795 c 1.11788,1.1512 3.8366,0.2178 6.07235,-2.08455 z"
     fill="#ffffff"
     id="path6" />
  <path
     d="M 13.73499,13.39495 C 15.9707,11.09255 16.877,8.29278 15.7592,7.14158 14.6413,5.99038 11.92256,6.92369 9.68681,9.22608 7.45105,11.52848 6.54477,14.3283 7.66264,15.4795 c 1.11788,1.1512 3.8366,0.2178 6.07235,-2.08455 z"
     stroke="#0e416c"
     stroke-linecap="round"
     stroke-linejoin="round"
     id="path8" />
  <path
     d="m 15.762,7.13281 1.8875,1.94377 0.4126,0.4248 5.8374,6.01152 c 1.125,1.1585 0.2123,3.9519 -2.0252,6.2561 -2.2375,2.3042 -4.9998,3.2439 -6.0748,2.0854 L 9.5495,17.418 7.66199,15.4485"
     stroke="#0e416c"
     stroke-linecap="round"
     stroke-linejoin="round"
     id="path10" />
  <path
     d="m 15.0012,11.02938 c -1.41252,-1.4546 -5.7501,0.46713 -7.8001,3.37632 0,0 -2.912365,5.2907 -0.79987,7.9939 0.6875,0.8625 2.0375,0.9526 2.5,-0.8496 0.64331,-2.7453 1.41981,-5.1336 3.32217,-7.1678 0.33015,-0.2665 0.81691,-0.80973 1.11111,-1.11764 0.61481,-0.61975 0.55556,-0.55871 1.66669,-2.23518 z"
     fill="#009ad9"
     id="path12" />
  <path
     d="m 17.7128,9.14092 c 2.0875,-1.85366 4.4123,-2.57452 5.4248,-1.48035 1.0125,1.09417 0.3751,3.43699 -1.4249,5.59959 -0.1917,0.21455 -0.3916,0.43338 -0.6,0.65651 -0.4915,0.51723 -1.0317,0.98293 -1.6125,1.39023 -0.4689,0.3198 -0.9671,0.5914 -1.4874,0.811"
     stroke="#0e416c"
     stroke-linecap="round"
     stroke-linejoin="round"
     id="path14" />
</svg>
