<?xml version="1.0" encoding="UTF-8" standalone="no"?>
<svg
   width="32"
   height="32"
   viewBox="0 0 32 32"
   fill="none"
   version="1.1"
   id="svg18"
   xmlns="http://www.w3.org/2000/svg"
   xmlns:svg="http://www.w3.org/2000/svg">
  <defs
     id="defs22" />
  <path
     fill-rule="evenodd"
     clip-rule="evenodd"
     d="m 19.3005,8.88312 h 2.0604 c 0.5832,0 1.0594,0.47404 1.0594,1.0563 V 15.9436 C 22.4203,16.5259 21.9441,17 21.3609,17 H 10.63739 C 10.05424,17 9.578,16.5259 9.578,15.9436 V 9.93942 c 0,-0.58226 0.47624,-1.0563 1.05939,-1.0563 h 2.06042 l 0.92505,-1.51483 0.0337,-0.04695 C 13.89603,7.03522 14.2687,6.88171 14.6587,6.88171 h 2.6809 c 0.39,0 0.7627,0.15351 1.0022,0.43963 l 0.0337,0.04695 z"
     fill="#0e416c"
     id="path2" />
  <path
     fill-rule="evenodd"
     clip-rule="evenodd"
     d="m 13.13351,9.66144 h -2.4971 c -0.1541,0 -0.28106,0.12638 -0.28106,0.27797 v 6.00419 c 0,0.1516 0.12697,0.278 0.28106,0.278 H 21.36 c 0.1541,0 0.281,-0.1264 0.281,-0.278 V 9.93941 c 0,-0.15158 -0.1269,-0.27797 -0.281,-0.27797 h -2.4971 l -1.1347,-1.858 C 17.6432,7.71517 17.4996,7.66003 17.3386,7.66003 h -2.6809 c -0.1609,0 -0.3045,0.05514 -0.3896,0.14341 z"
     fill="#dcedf9"
     id="path4" />
  <path
     fill-rule="evenodd"
     clip-rule="evenodd"
     d="m 10.6366,7.27087 h 2.01067 V 8.60514 H 10.6366 Z"
     fill="#0e416c"
     id="path6" />
  <circle
     cx="16"
     cy="12.39978"
     r="3"
     fill="#ff0404"
     stroke="#ffffff"
     id="circle8" />
  <path
     d="M 12.66199,16.8197 9.84363,24.5626"
     stroke="#0e416c"
     stroke-linecap="round"
     id="path10" />
  <path
     d="M 21.3437,24.5626 18.9055,16.7381"
     stroke="#0e416c"
     stroke-linecap="round"
     id="path12" />
  <path
     d="m 15.7234,22.3215 -0.002,-5.3059"
     stroke="#0e416c"
     stroke-linecap="round"
     id="path14" />
  <ellipse
     cx="15.6245"
     cy="25.819201"
     rx="4.5"
     ry="0.81923598"
     fill="#b7b9c3"
     id="ellipse16" />
</svg>
