<?xml version="1.0" encoding="UTF-8" standalone="no"?>
<svg
   width="32"
   height="32"
   viewBox="0 0 32 32"
   fill="none"
   version="1.1"
   id="svg12"
   xmlns="http://www.w3.org/2000/svg"
   xmlns:svg="http://www.w3.org/2000/svg">
  <defs
     id="defs16" />
  <path
     fill-rule="evenodd"
     clip-rule="evenodd"
     d="m 10.95834,27 c -0.75808,0 -1.375,-0.6169 -1.375,-1.375 V 20.5834 H 7.29167 C 6.03125,20.5797 5.00367,19.5521 5,18.2926 V 12.79167 C 5.00367,11.53125 6.03125,10.50367 7.29075,10.5 H 24.7084 c 1.2604,0.0037 2.288,1.03125 2.2916,2.29075 v 5.50095 c -0.0036,1.2604 -1.0312,2.288 -2.2907,2.2917 h -2.2926 v 5.0416 c 0,0.7581 -0.6169,1.375 -1.375,1.375 z M 10.5,25.625 c 0,0.253 0.20533,0.4583 0.45833,0.4583 H 21.0417 c 0.253,0 0.4583,-0.2053 0.4583,-0.4583 v -7.7917 h -11 z m 15.5834,-7.3343 c -0.0019,0.7563 -0.6197,1.3741 -1.375,1.376 H 22.4167 V 17.375 c 0,-0.253 -0.2053,-0.4583 -0.4583,-0.4583 H 10.04168 c -0.253,0 -0.45833,0.2062 -0.45833,0.4583 v 2.2917 H 7.2926 C 6.53634,19.6648 5.91943,19.047 5.91668,18.2917 v -5.49822 c 0.00275,-0.75717 0.61966,-1.37408 1.375,-1.37683 H 24.7075 c 0.7562,0.0027 1.374,0.61966 1.3759,1.375 z"
     fill="#0e416c"
     id="path2" />
  <path
     fill-rule="evenodd"
     clip-rule="evenodd"
     d="m 18.2914,9.58237 h 3.6474 c 0.0064,9.1e-4 0.0128,9.1e-4 0.0192,9.1e-4 0.253,0 0.4584,-0.20533 0.4584,-0.45833 V 8.58778 c 0,-0.36667 -0.143,-0.71225 -0.4034,-0.97258 L 19.8002,5.40236 C 19.5399,5.14294 19.1952,4.99994 18.8276,4.99994 h -0.517 c -0.0032,0 -0.0064,-2.29e-4 -0.0096,-4.58e-4 -0.0032,-2.29e-4 -0.0064,-4.59e-4 -0.0096,-4.59e-4 -0.0033,0 -0.0065,2.3e-4 -0.0097,4.59e-4 -0.0032,2.29e-4 -0.0064,4.58e-4 -0.0096,4.58e-4 h -8.23076 c -0.253,0 -0.45833,0.20533 -0.45833,0.45833 v 3.66668 c 0,0.253 0.20533,0.45833 0.45833,0.45833 0.253,0 0.45834,-0.20533 0.45834,-0.45833 V 5.91661 H 17.833 v 3.20742 c 0,0.253 0.2054,0.45834 0.4584,0.45834 z m 3.2083,-0.99461 v 0.07791 h -2.75 V 5.91658 h 0.0788 c 0.1219,0 0.2374,0.04767 0.3245,0.13384 l 2.2129,2.21284 c 0.0861,0.08708 0.1338,0.20258 0.1338,0.3245 z"
     fill="#0e416c"
     id="path4" />
  <path
     fill-rule="evenodd"
     clip-rule="evenodd"
     d="m 6.83301,13.7074 c 0,0.7581 0.61692,1.375 1.375,1.375 0.75808,0 1.375,-0.6169 1.375,-1.375 0,-0.75808 -0.61692,-1.375 -1.375,-1.375 -0.75808,0 -1.375,0.61692 -1.375,1.375 z m 0.91669,0 c 0,-0.253 0.20533,-0.45833 0.45833,-0.45833 0.253,0 0.45833,0.20533 0.45833,0.45833 0,0.253 -0.20533,0.4583 -0.45833,0.4583 -0.253,0 -0.45833,-0.2053 -0.45833,-0.4583 z"
     fill="#0e416c"
     id="path6" />
  <path
     fill-rule="evenodd"
     clip-rule="evenodd"
     d="m 11.59777,24.9457 c 0.0825,0.1357 0.23192,0.22 0.39142,0.22 v 0.0018 H 20.087 c 0.154,0 0.2961,-0.076 0.3814,-0.2035 0.0852,-0.1274 0.1008,-0.2878 0.0431,-0.4299 l -1.9636,-4.7657 c -0.0641,-0.1568 -0.209,-0.265 -0.3831,-0.2824 -0.0034,0 -0.0116,-2e-4 -0.0196,-5e-4 -0.0073,-2e-4 -0.0144,-4e-4 -0.0171,-4e-4 -0.1558,0 -0.2997,0.0752 -0.385,0.2026 l -1.8416,2.7491 -1.8443,-1.5153 c -0.08251,-0.0669 -0.18609,-0.1045 -0.29151,-0.1045 -0.03117,0 -0.06233,0.0028 -0.09258,0.0092 -0.13659,0.0275 -0.25117,0.1146 -0.31534,0.2383 l -1.77558,3.4329 c -0.07334,0.1412 -0.06692,0.3136 0.01558,0.4483 z m 7.80323,-0.6976 4e-4,9e-4 v -9e-4 z m 0,0 -1.3755,-3.3385 -1.6455,2.4557 c -0.0715,0.1073 -0.186,0.1797 -0.3135,0.198 -0.0229,0.0037 -0.0449,0.0046 -0.066,0.0046 -0.1063,0 -0.2099,-0.0366 -0.2915,-0.1045 l -1.79662,-1.4758 -1.16967,2.2605 z"
     fill="#0e416c"
     id="path8" />
  <path
     d="m 12.56251,20.125 c -0.3795,0 -0.6875,-0.308 -0.6875,-0.6875 -9.2e-4,-0.1815 0.06967,-0.3538 0.19892,-0.4849 0.12925,-0.1293 0.30158,-0.2017 0.48491,-0.2026 0.38317,0 0.69117,0.3089 0.69117,0.6875 0,0.3786 -0.308,0.6875 -0.6875,0.6875 z"
     fill="#0e416c"
     id="path10" />
</svg>
