<?xml version="1.0" encoding="UTF-8" standalone="no"?>
<svg
   width="32"
   height="32"
   viewBox="0 0 32 32"
   fill="none"
   version="1.1"
   id="svg12"
   xmlns="http://www.w3.org/2000/svg"
   xmlns:svg="http://www.w3.org/2000/svg">
  <defs
     id="defs16" />
  <path
     fill-rule="evenodd"
     clip-rule="evenodd"
     d="M 25.5039,18.81 14.4778,25.2522 6.68859,18.2794 6.43995,16.5905 16.4845,13.36014 16.4913,11.79688 4.860474,15.6112 5.35858,18.9946 14.3012,27 26.8556,19.6649 27.1397,16.3608 16.4913,11.79688 16.4845,13.36014 25.6307,17.335 Z"
     fill="#009ad9"
     id="path2" />
  <path
     d="M 14.4778,25.2522 25.5039,18.81 25.6307,17.335 16.4845,13.36014 6.43995,16.5905 6.68859,18.2794 Z"
     fill="#dcedf9"
     id="path4" />
  <path
     fill-rule="evenodd"
     clip-rule="evenodd"
     d="m 14.5519,22.9526 0.0997,2.3533 11.2151,-6.4396 0.2589,-1.7736 z m 12.255,-6.3483 -0.364,2.4942 c -0.0134,0.0916 -0.0681,0.172 -0.1484,0.2181 l -11.7729,6.7599 c -0.1963,0.1127 -0.4422,-0.0227 -0.4518,-0.2489 l -0.12898,-3.0437 c -0.005,-0.1182 0.05958,-0.2285 0.16518,-0.282 l 12.266,-6.2104 c 0.2181,-0.1105 0.4702,0.0708 0.4349,0.3128 z"
     fill="#009ad9"
     id="path6" />
  <path
     fill-rule="evenodd"
     clip-rule="evenodd"
     d="m 14.6581,25.9155 c 0.0113,0.2671 -0.3045,0.4159 -0.5032,0.2372 L 5.7321,18.5778 5.63625,18.4032 5.23211,15.9858 c -0.04564,-0.273 0.26968,-0.4582 0.48595,-0.2855 l 8.69824,6.9478 c 0.0682,0.0545 0.1095,0.1358 0.1131,0.223 z m -0.72698,-2.8816 -7.97494,-6.3701 0.25675,1.5358 7.81077,7.0245 z"
     fill="#009ad9"
     id="path8" />
  <path
     d="m 11.63853,11.53797 c -0.3694,0.56881 0.03882,1.32068 0.71706,1.32068 h 0.97923 v 4.39695 c 0,0.4722 0.38282,0.855 0.85508,0.855 l 3.6682,-1e-4 c 0.4722,0 0.8549,-0.3828 0.855,-0.855 l 10e-5,-4.39685 h 0.891 c 0.674,0 1.083,-0.74346 0.7222,-1.31272 L 16.7462,5.89728 C 16.4126,5.37104 15.6463,5.3668 15.307,5.88932 Z"
     fill="#ff0404"
     stroke="#ffffff"
     id="path10" />
</svg>
