<?xml version="1.0" encoding="UTF-8" standalone="no"?>
<svg
   width="32"
   height="32"
   viewBox="0 0 32 32"
   fill="none"
   version="1.1"
   id="svg14"
   xmlns="http://www.w3.org/2000/svg"
   xmlns:svg="http://www.w3.org/2000/svg">
  <defs
     id="defs18" />
  <path
     fill-rule="evenodd"
     clip-rule="evenodd"
     d="m 18.4228,6.42665 c 0,-0.21804 0.2355,-0.35472 0.4248,-0.24654 l 4.7247,2.69986 c 0.1908,0.10901 0.1908,0.3841 0,0.49311 l -4.7247,2.69981 c -0.1893,0.10818 -0.4249,-0.02851 -0.4249,-0.24656 v -1.0659 l -3.0908,2e-5 c -0.1568,0 -0.2839,-0.12714 -0.2839,-0.28397 l -10e-5,-2.69984 c 0,-0.15684 0.1271,-0.28398 0.284,-0.28398 l 3.0908,-3e-5 z"
     fill="#ff0404"
     id="path2" />
  <path
     d="m 18.4228,6.42665 0.1757,10e-6 z M 18.8476,6.18011 18.9348,6.0275 Z m 4.7247,2.69986 -0.0872,0.1526 z m 0,0.49311 0.0872,0.15261 z m -4.7247,2.69981 -0.0872,-0.1526 z M 18.4227,11.82633 H 18.247 Z m 0,-1.0659 h 0.1758 v -0.17576 h -0.1758 z m -3.0908,2e-5 V 10.58469 Z M 15.048,10.47648 h 0.1757 z m -10e-5,-2.69984 h -0.1758 z m 0.284,-0.28398 v -0.17576 0 z m 3.0908,-3e-5 v 0.17576 h 0.1758 V 7.49264 Z m 0.1758,-1.06597 c 0,-0.08309 0.0898,-0.13517 0.1619,-0.09395 L 18.9348,6.0275 C 18.6283,5.85237 18.247,6.07365 18.247,6.42664 Z M 18.7604,6.33271 23.4851,9.03257 23.6595,8.72736 18.9348,6.0275 Z m 4.7247,2.69986 c 0.0727,0.04154 0.0727,0.14637 0,0.18791 l 0.1744,0.30521 c 0.3088,-0.17649 0.3088,-0.62183 0,-0.79833 z m 0,0.18791 -4.7247,2.69981 0.1744,0.30521 4.7247,-2.69981 z m -4.7247,2.69981 c -0.0722,0.04122 -0.1619,-0.01087 -0.1619,-0.09395 l -0.3515,-10e-6 c 0,0.353 0.3813,0.5743 0.6878,0.39917 z M 18.5985,11.82634 V 10.76043 H 18.247 v 1.0659 z m -0.1758,-1.24167 -3.0908,2e-5 v 0.35152 l 3.0908,-2e-5 z m -3.0908,2e-5 c -0.0597,0 -0.1082,-0.04845 -0.1082,-0.10821 h -0.3515 c 0,0.25391 0.2058,0.45973 0.4597,0.45973 z M 15.2237,10.47648 V 7.77664 h -0.3516 l 10e-5,2.69984 z m 0,-2.69984 c 0,-0.05977 0.0484,-0.10822 0.1082,-0.10822 V 7.3169 c -0.2539,0 -0.4598,0.20584 -0.4598,0.45974 z m 0.1082,-0.10822 3.0908,-3e-5 V 7.31687 l -3.0908,3e-5 z M 18.5985,7.49264 V 6.42666 l -0.3515,-2e-5 -10e-5,1.06598 z"
     fill="#ffffff"
     id="path4" />
  <path
     fill-rule="evenodd"
     clip-rule="evenodd"
     d="m 11.77427,11.8264 c -2e-5,0.21804 -0.23556,0.35472 -0.42487,0.24655 L 6.62474,9.37309 c -0.19078,-0.10902 -0.19078,-0.38411 0,-0.49312 l 4.7247,-2.69981 c 0.18931,-0.10818 0.42486,0.02852 0.42486,0.24656 l -10e-6,1.0659 3.09081,-2e-5 c 0.1568,0 0.284,0.12714 0.284,0.28397 v 2.69984 c 0,0.15684 -0.1271,0.28398 -0.284,0.28398 l -3.09078,3e-5 z"
     fill="#ff0404"
     id="path6" />
  <path
     d="m 11.77427,11.8264 -0.17577,-10e-6 z m -0.42487,0.24655 -0.0872,0.1526 z M 6.62474,9.37309 6.71194,9.22048 Z m 0,-0.49312 -0.0872,-0.1526 z m 4.7247,-2.69981 0.0872,0.1526 z m 0.42486,0.24656 h 0.17576 z m -10e-6,1.0659 h -0.17576 v 0.17577 h 0.17576 z m 3.09081,-2e-5 v 0.17577 z m 0.284,0.28397 -0.1758,10e-6 z m 0,2.69984 h 0.1758 z m -0.284,0.28398 v 0.17576 0 z m -3.09078,3e-5 v -0.17576 h -0.17575 l -10e-6,0.17575 z m -0.17582,1.06597 c 0,0.08309 -0.08976,0.13518 -0.1619,0.09395 l -0.1744,0.30521 c 0.30647,0.17513 0.68781,-0.04615 0.68783,-0.39914 z M 11.4366,11.92034 6.71194,9.22048 6.53753,9.52569 11.2622,12.22555 Z M 6.71194,9.22048 c -0.0727,-0.04154 -0.0727,-0.14636 0,-0.18791 L 6.53754,8.72737 C 6.22868,8.90385 6.22868,9.3492 6.53753,9.52569 Z m 0,-0.18791 4.7247,-2.69981 -0.1744,-0.30521 -4.7247,2.69982 z m 4.7247,-2.69981 c 0.07214,-0.04122 0.1619,0.01087 0.1619,0.09396 h 0.35152 c 10e-6,-0.353 -0.38134,-0.5743 -0.68782,-0.39917 z m 0.1619,0.09396 -10e-6,1.0659 0.35152,1e-5 1e-5,-1.06591 z m 0.17575,1.24167 3.09081,-2e-5 V 7.31684 l -3.09081,2e-5 z m 3.09081,-2e-5 c 0.0597,0 0.1082,0.04844 0.1082,0.10821 l 0.3515,-10e-6 c 0,-0.2539 -0.2058,-0.45973 -0.4597,-0.45973 z m 0.1082,0.10821 10e-5,2.69984 0.3515,-10e-6 -10e-5,-2.69984 z m 10e-5,2.69984 c 0,0.05976 -0.0485,0.10821 -0.1083,0.10821 v 0.35152 c 0.254,0 0.4598,-0.20583 0.4598,-0.45974 z m -0.1083,0.10821 -3.09078,3e-5 v 0.35152 l 3.09078,-3e-5 z m -3.26654,0.17578 -6e-5,1.06598 0.35153,2e-5 5e-5,-1.06598 z"
     fill="#ffffff"
     id="path8" />
  <path
     d="m 23.832,21.3861 c 0,1.3369 -2.6745,4.364 -4.8411,4.3639 -3.7029,0 -3.7652,-2.3945 -8.52977,-8.8926 -0.3021,-0.5206 -0.31945,-1.8133 1.30292,-1.2753 0.47655,0.158 2.17761,1.3707 2.17761,1.3707 l 0.14744,-6.25519 c 0,-1.30052 2.2557,-1.30132 2.2557,0 l 0.0434,4.23379 c 0,0 0.5663,-1.16247 1.4922,-1.07578 0.9191,0.08604 1.1131,1.06808 1.1022,1.49048 0.0126,-0.2133 0.4012,-0.7599 1.1405,-0.7599 1.3055,0 1.1981,1.2967 1.2103,2.1671 0.0034,0.2429 0.411,-0.8617 1.2161,-0.8617 0.8051,0 1.2376,0.3956 1.2376,0.9658 z"
     fill="#dcedf9"
     stroke="#0e416c"
     stroke-width="0.75"
     id="path10" />
  <path
     d="m 14.099,10.58594 c 0,-0.10207 0.0242,-0.2055 0.0741,-0.30515 0.0501,-0.10003 0.1262,-0.19598 0.2279,-0.28006 0.1018,-0.08416 0.2262,-0.15381 0.3676,-0.20224 0.1414,-0.04841 0.2947,-0.07388 0.4508,-0.07388 0.156,0 0.3093,0.02547 0.4507,0.07388 0.1414,0.04843 0.2659,0.11808 0.3677,0.20224 0.1017,0.08408 0.1777,0.18003 0.2278,0.28006 0.0499,0.09965 0.0741,0.20308 0.0741,0.30515"
     stroke="#ffffff"
     stroke-width="0.75"
     id="path12" />
</svg>
