<?xml version="1.0" encoding="UTF-8" standalone="no"?>
<svg
   width="32"
   height="32"
   viewBox="0 0 32 32"
   fill="none"
   version="1.1"
   id="svg10"
   xmlns="http://www.w3.org/2000/svg"
   xmlns:svg="http://www.w3.org/2000/svg">
  <defs
     id="defs14" />
  <path
     fill-rule="evenodd"
     clip-rule="evenodd"
     d="m 7.65234,8.44141 h 2.34849 V 9.99985 H 7.65234 Z"
     fill="#0e416c"
     id="path2" />
  <path
     fill-rule="evenodd"
     clip-rule="evenodd"
     d="m 17.0502,10.85774 0.2923,0.47919 h 0.5613 2.4035 c 0.1303,0 0.2358,0.10815 0.2358,0.23338 v 1.01197 h 1 v -1.01197 c 0,-0.67987 -0.5556,-1.23338 -1.2358,-1.23338 H 17.9038 L 16.8247,8.56815 16.7854,8.51333 C 16.5061,8.17924 16.0713,8 15.6164,8 h -3.12724 c -0.45495,0 -0.88969,0.17924 -1.16902,0.51333 l -0.03931,0.05482 -1.07908,1.76878 H 7.79827 c -0.68024,0 -1.23577,0.55351 -1.23577,1.23338 v 7.01079 c 0,0.6799 0.55553,1.2334 1.23577,1.2334 H 20.3073 c 0.6802,0 1.2358,-0.5535 1.2358,-1.2334 v -2.9534 h -1 v 2.9534 c 0,0.1253 -0.1055,0.2334 -0.2358,0.2334 H 7.79827 c -0.13025,0 -0.23577,-0.1081 -0.23577,-0.2334 v -7.01079 c 0,-0.12526 0.10549,-0.23338 0.23577,-0.23338 h 2.40348 0.56134 l 0.29234,-0.4792 1.05237,-1.72501 C 12.177,9.06524 12.30556,9 12.48916,9 h 3.12724 c 0.1836,0 0.3122,0.06524 0.3813,0.13272 z"
     fill="#0e416c"
     id="path4" />
  <path
     d="m 17.6947,16.5899 c 0.1502,0.0975 0.3487,-0.0102 0.3487,-0.1893 V 15.46 12.67583 11.7913 c 0,-0.17795 -0.1963,-0.28593 -0.3466,-0.19067 l -3.5919,2.2766 c -0.13895,0.08806 -0.14007,0.29037 -0.0021,0.37997 z"
     fill="#ff0404"
     id="path6" />
  <path
     d="m 16.559,23.6892 h 4.1285 c 2.6234,0 4.75,-2.1266 4.75,-4.75 v 0 c 0,-2.6233 -2.1266,-4.75 -4.75,-4.75 h -5.25"
     stroke="#ff0404"
     stroke-linecap="round"
     id="path8" />
</svg>
