<?xml version="1.0" encoding="UTF-8" standalone="no"?>
<svg
   width="32"
   height="32"
   viewBox="0 0 32 32"
   fill="none"
   version="1.1"
   id="svg16"
   xmlns="http://www.w3.org/2000/svg"
   xmlns:svg="http://www.w3.org/2000/svg">
  <defs
     id="defs20" />
  <path
     fill-rule="evenodd"
     clip-rule="evenodd"
     d="m 12.74729,6.72601 c 0.46885,-0.46884 1.10473,-0.73224 1.76781,-0.73224 0.663,0 1.2989,0.2634 1.7677,0.73224 0.3538,0.35377 0.5775,0.80069 0.6693,1.27398 H 18.5 c 0.2761,0 0.5,0.22386 0.5,0.5 v 3 c 0,0.27614 -0.2239,0.5 -0.5,0.5 h -8 c -0.27614,0 -0.5,-0.22386 -0.5,-0.5 v -3 c 0,-0.27614 0.22386,-0.5 0.5,-0.5 h 1.55267 c 0.10226,-0.48281 0.34842,-0.92778 0.69462,-1.27398 z m 1.76781,0.26776 c -0.3979,0 -0.77939,0.15804 -1.0607,0.43934 C 13.16743,7.72009 13,8.10997 13,8.49999 c 0,0.27614 -0.22386,0.5 -0.5,0.5 H 11 v 2 h 7 v -2 h -1.5 c -0.2761,0 -0.5,-0.22386 -0.5,-0.5 C 16,8.09065 15.8492,7.70658 15.5757,7.43311 15.2944,7.15181 14.9129,6.99377 14.5151,6.99377 Z"
     fill="#0e416c"
     id="path2" />
  <path
     fill-rule="evenodd"
     clip-rule="evenodd"
     d="m 17.75,18 c 0,-0.1381 0.1119,-0.25 0.25,-0.25 h 4 c 0.1381,0 0.25,0.1119 0.25,0.25 0,0.1381 -0.1119,0.25 -0.25,0.25 h -4 c -0.1381,0 -0.25,-0.1119 -0.25,-0.25 z"
     fill="#0e416c"
     id="path4" />
  <path
     fill-rule="evenodd"
     clip-rule="evenodd"
     d="m 17.75,20 c 0,-0.1381 0.1119,-0.25 0.25,-0.25 h 4 c 0.1381,0 0.25,0.1119 0.25,0.25 0,0.1381 -0.1119,0.25 -0.25,0.25 h -4 c -0.1381,0 -0.25,-0.1119 -0.25,-0.25 z"
     fill="#0e416c"
     id="path6" />
  <path
     fill-rule="evenodd"
     clip-rule="evenodd"
     d="m 17.75,22 c 0,-0.1381 0.1119,-0.25 0.25,-0.25 h 4 c 0.1381,0 0.25,0.1119 0.25,0.25 0,0.1381 -0.1119,0.25 -0.25,0.25 h -4 c -0.1381,0 -0.25,-0.1119 -0.25,-0.25 z"
     fill="#0e416c"
     id="path8" />
  <path
     fill-rule="evenodd"
     clip-rule="evenodd"
     d="M 16.5,14 C 16.2239,14 16,14.2239 16,14.5 v 10.0038 c 0,0.2763 0.224,0.5002 0.5002,0.5 l 7,-0.0033 C 23.7763,25.0003 24,24.7765 24,24.5005 v -7.5863 c 0,-0.1326 -0.0527,-0.2598 -0.1464,-0.3535 L 21.4393,14.1464 C 21.3456,14.0527 21.2184,14 21.0858,14 Z M 15,14.5 C 15,13.67157 15.6716,13 16.5,13 h 4.5858 c 0.3978,0 0.7793,0.15804 1.0606,0.43934 l 2.4143,2.41426 C 24.842,16.1349 25,16.5164 25,16.9142 v 7.5863 c 0,0.8281 -0.6711,1.4996 -1.4993,1.5 l -7,0.0033 C 15.672,26.0042 15,25.3325 15,24.5038 Z"
     fill="#0e416c"
     id="path10" />
  <path
     d="M 9.5,9 C 8.11929,9 7,10.11929 7,11.5 v 11 C 7,23.8807 8.11929,25 9.5,25 h 5.584 C 15.0296,24.8447 15,24.6777 15,24.5038 V 24 H 9.5 C 8.67157,24 8,23.3284 8,22.5 v -11 C 8,10.67157 8.67157,10 9.5,10 h 1 C 10.77614,10 11,9.77614 11,9.5 11,9.22386 10.77614,9 10.5,9 Z"
     fill="#0e416c"
     id="path12" />
  <path
     d="m 21,13 h 0.0858 c 0.3324,0 0.6535,0.11036 0.9142,0.31079 V 11.5 C 22,10.11929 20.8807,9 19.5,9 h -1 C 18.2239,9 18,9.22386 18,9.5 18,9.77614 18.2239,10 18.5,10 h 1 c 0.8284,0 1.5,0.67157 1.5,1.5 z"
     fill="#0e416c"
     id="path14" />
</svg>
