<?xml version="1.0" encoding="UTF-8" standalone="no"?>
<svg
   width="32"
   height="32"
   viewBox="0 0 32 32"
   fill="none"
   version="1.1"
   id="svg10"
   xmlns="http://www.w3.org/2000/svg"
   xmlns:svg="http://www.w3.org/2000/svg">
  <defs
     id="defs14" />
  <path
     d="m 22.9844,17.1562 c 0.4405,-0.4794 1.3173,-1.4658 1.4591,-2.1224 0.1418,-0.6566 0.1529,-1.33465 0.0327,-1.99552 C 24.3559,12.37742 24.1067,11.74671 23.7427,11.18216 23.3787,10.61762 22.9071,10.1303 22.3547,9.74803 21.8024,9.36575 21.1802,9.09601 20.5236,8.95421 19.867,8.8124 19.1889,8.80131 18.5281,8.92156 17.8672,9.04181 17.2365,9.38403 16.672,9.74803 c -0.5646,0.364 -1.268,1.1895 -1.6036,1.75282"
     stroke="#0e416c"
     id="path2" />
  <path
     d="m 23.3609,16.9898 c 1.695,0 3.2052,1.4073 3.2052,3.1022 0,1.695 -1.3741,3.0691 -3.0691,3.0691 H 8.87793"
     stroke="#0e416c"
     id="path4" />
  <path
     d="M 9.36009,15.4488 C 9.29104,14.71 9.29511,13.49192 9.61614,12.82299 c 0.32103,-0.66894 0.81789,-1.238 1.43742,-1.6463 0.61954,-0.40829 1.33843,-0.64046 2.07975,-0.67165 0.74132,-0.0312 1.58169,0.1465 2.16899,0.56599"
     stroke="#0e416c"
     id="path6" />
  <path
     d="M 8.88398,23.1585 C 8.14087,23.1585 7.20001,22.751 6.66665,22.1577 6.0845,21.6116 5.73507,20.8028 5.54824,20.0268 5.36141,19.2508 5.40562,18.437 5.67544,17.6858 5.94525,16.9346 6.42888,16.2787 7.06676,15.7989 7.70465,15.319 8.51288,14.9933 9.30946,14.9424"
     stroke="#0e416c"
     id="path8" />
</svg>
