<?xml version="1.0" encoding="UTF-8" standalone="no"?>
<svg
   width="33"
   height="32"
   viewBox="0 0 33 32"
   fill="none"
   version="1.1"
   id="svg10"
   xmlns="http://www.w3.org/2000/svg"
   xmlns:svg="http://www.w3.org/2000/svg">
  <defs
     id="defs14" />
  <path
     d="m 23.6396,14.9008 c 0.2916,1.3319 0.1982,2.7193 -0.2693,4.0001 -0.4675,1.2809 -1.2898,2.4022 -2.3709,3.2332 -1.081,0.8309 -2.3762,1.3371 -3.7342,1.4594 -1.358,0.1223 -2.7227,-0.1443 -3.93483,-0.7687"
     stroke="#ff0404"
     stroke-width="1.25"
     stroke-linecap="round"
     id="path2" />
  <path
     d="m 13.76185,26.2609 c 0.15571,0.1641 0.43135,0.0902 0.48405,-0.1297 l 0.2773,-1.1554 0.8207,-3.4197 0.2607,-1.0865 c 0.0525,-0.2185 -0.1568,-0.409 -0.3695,-0.3363 l -5.08291,1.7375 C 9.95557,21.938 9.89456,22.1862 10.0376,22.3369 Z"
     fill="#ff0404"
     id="path4" />
  <path
     d="m 9.57983,18.0294 c -0.28988,-1.3323 -0.19469,-2.7196 0.27446,-3.9998 0.46914,-1.28026 1.29287,-2.40057 2.37497,-3.23012 1.0821,-0.82954 2.37794,-1.33407 3.73604,-1.45465 1.3581,-0.12058 2.7226,0.14776 3.9339,0.77369"
     stroke="#ff0404"
     stroke-width="1.25"
     stroke-linecap="round"
     id="path6" />
  <path
     d="M 19.2961,6.56739 C 19.1429,6.40091 18.8662,6.47046 18.81,6.68955 l -0.2953,1.15087 -0.8741,3.40645 -0.2778,1.08224 c -0.0558,0.21772 0.1504,0.41147 0.3642,0.3421 l 5.1096,-1.65773 c 0.1976,-0.06413 0.2625,-0.31133 0.1218,-0.46426 z"
     fill="#ff0404"
     id="path8" />
</svg>
