<?xml version="1.0" encoding="UTF-8" standalone="no"?>
<svg
   width="32"
   height="32"
   viewBox="0 0 32 32"
   fill="none"
   version="1.1"
   id="svg118"
   xmlns="http://www.w3.org/2000/svg"
   xmlns:svg="http://www.w3.org/2000/svg">
  <defs
     id="defs122" />
  <path
     fill-rule="evenodd"
     clip-rule="evenodd"
     d="m 8.86266,20.2612 -0.32018,-5.7713 5.37231,-1.37735 0.01189,5.14415 z"
     fill="#90939f"
     id="path2" />
  <path
     fill-rule="evenodd"
     clip-rule="evenodd"
     d="m 13.86525,13.20648 -5.36486,1.36122 -0.94766,-0.3274 6.00186,-1.44391 0.30983,0.0768 z"
     fill="#7d808d"
     id="path4" />
  <path
     fill-rule="evenodd"
     clip-rule="evenodd"
     d="M 19.5023,6.84985 20.9205,6.95011 18.2814,7.22118 16.8359,7.10265 Z"
     fill="#f1f1f6"
     id="path6" />
  <path
     fill-rule="evenodd"
     clip-rule="evenodd"
     d="M 13.6177,12.77722 7.58853,14.2514 7.55273,13.69355 13.61505,12.29028 Z"
     fill="#90939f"
     id="path8" />
  <path
     fill-rule="evenodd"
     clip-rule="evenodd"
     d="m 13.99596,12.79647 -0.3136,-0.07837 -0.0027,-0.48666 0.69851,-0.63696 0.106,0.14249 -0.48958,0.44239 z"
     fill="#90939f"
     id="path10" />
  <path
     fill-rule="evenodd"
     clip-rule="evenodd"
     d="m 7.55273,13.61863 4.49704,-5.06101 2.24873,3.03421 -0.69229,0.63301 z"
     fill="#90939f"
     id="path12" />
  <path
     fill-rule="evenodd"
     clip-rule="evenodd"
     d="m 24.3246,14.8206 -0.0615,0.6056 -2.2567,0.9921 -3.5611,1.5654 0.0318,-0.7207 z"
     fill="#0e416c"
     id="path14" />
  <path
     fill-rule="evenodd"
     clip-rule="evenodd"
     d="m 18.4697,18.0482 3.5644,-1.5826 -0.3926,4.9933 -4.9916,3.041 0.1339,-4.9998 0.0545,-2.0247 z"
     fill="#dcedf9"
     id="path16" />
  <path
     fill-rule="evenodd"
     clip-rule="evenodd"
     d="m 16.8863,17.4726 -0.0546,2.0296 -2.8284,-1.1396 -0.01189,-5.18079 -8.3e-4,-0.33963 -0.0013,-0.61623 0.48514,-0.44177 3.7851,5.13152 z"
     fill="#90939f"
     id="path18" />
  <path
     fill-rule="evenodd"
     clip-rule="evenodd"
     d="m 16.8359,17.4059 1.3752,-0.5607 0.2958,0.4035 -0.032,0.7352 z"
     fill="#7d808d"
     id="path20" />
  <path
     fill-rule="evenodd"
     clip-rule="evenodd"
     d="M 13.96005,18.3635 16.7738,19.5004 16.6401,24.5 8.91406,20.3773 Z"
     fill="#7d808d"
     id="path22" />
  <path
     fill-rule="evenodd"
     clip-rule="evenodd"
     d="m 18.1216,16.9518 -3.7691,-5.11333 -0.1046,-0.14178 -2.23911,-3.03804 4.76871,-0.60714 -0.0714,2.8944 1.3277,1.71608 2.5219,-0.6895 0.0906,-1.46543 3.6162,4.37734 -5.8467,2.4667 z"
     fill="#dcedf9"
     id="path24" />
  <path
     fill-rule="evenodd"
     clip-rule="evenodd"
     d="M 16.8359,10.82512 16.908,7.927 16.9302,7.03955 18.3831,7.16563 18.1773,12.5434 Z"
     fill="#dcedf9"
     id="path26" />
  <path
     fill-rule="evenodd"
     clip-rule="evenodd"
     d="m 18.1354,12.48023 0.2049,-5.34387 2.6419,-0.28651 -0.218,3.48628 -0.0912,1.45806 z"
     fill="#dcedf9"
     id="path28" />
  <path
     d="M 14.0026,18.3001 13.98921,13.11255"
     stroke="#0e416c"
     stroke-width="0.712496"
     stroke-linecap="round"
     stroke-linejoin="round"
     id="path30" />
  <path
     d="m 13.98926,18.3635 2.84684,1.1388"
     stroke="#0e416c"
     stroke-width="0.712496"
     stroke-linecap="round"
     stroke-linejoin="round"
     id="path32" />
  <path
     d="m 8.91406,20.3879 5.07477,-2.0244"
     stroke="#0e416c"
     stroke-width="0.712496"
     stroke-linecap="round"
     stroke-linejoin="round"
     id="path34" />
  <path
     d="m 18.4453,17.2878 5.8793,-2.4672"
     stroke="#0e416c"
     stroke-width="0.712496"
     stroke-linecap="round"
     stroke-linejoin="round"
     id="path36" />
  <path
     d="M 7.55273,13.68206 13.6177,12.29028"
     stroke="#0e416c"
     stroke-width="0.712496"
     stroke-linecap="round"
     stroke-linejoin="round"
     id="path38" />
  <path
     d="m 7.55273,14.2514 6.00308,-1.45501"
     stroke="#0e416c"
     stroke-width="0.712496"
     stroke-linecap="round"
     stroke-linejoin="round"
     id="path40" />
  <path
     d="m 13.98912,12.85965 -0.30682,-0.07897 -0.0026,-0.4904"
     stroke="#0e416c"
     stroke-width="0.712496"
     stroke-linecap="round"
     stroke-linejoin="round"
     id="path42" />
  <path
     d="m 14.3604,11.59448 -0.68071,0.63263"
     stroke="#0e416c"
     stroke-width="0.712496"
     stroke-linecap="round"
     stroke-linejoin="round"
     id="path44" />
  <path
     d="m 8.54248,14.5043 5.3842,-1.39175"
     stroke="#0e416c"
     stroke-width="0.712496"
     stroke-linecap="round"
     stroke-linejoin="round"
     id="path46" />
  <path
     d="m 16.8359,10.89844 1.3234,1.70809 2.5137,-0.6863"
     stroke="#0e416c"
     stroke-width="0.712496"
     stroke-linecap="round"
     stroke-linejoin="round"
     id="path48" />
  <path
     d="M 18.0578,12.5434 18.2593,7.16563 16.8359,7.03955"
     stroke="#0e416c"
     stroke-width="0.712496"
     stroke-linecap="round"
     stroke-linejoin="round"
     id="path50" />
  <path
     d="M 20.9202,6.8496 18.3209,7.16592"
     stroke="#0e416c"
     stroke-width="0.712496"
     stroke-linecap="round"
     stroke-linejoin="round"
     id="path52" />
  <path
     d="m 21.601,21.4633 0.3713,-4.9977"
     stroke="#0e416c"
     stroke-width="0.712496"
     stroke-linecap="round"
     stroke-linejoin="round"
     id="path54" />
  <path
     d="M 13.98921,12.22677 14.4843,11.78393"
     stroke="#0e416c"
     stroke-width="0.712496"
     stroke-linecap="round"
     stroke-linejoin="round"
     id="path56" />
  <path
     d="m 16.6499,24.4368 5.0129,-3.0367"
     stroke="#0e416c"
     stroke-width="0.712496"
     stroke-linecap="round"
     stroke-linejoin="round"
     id="path58" />
  <path
     d="M 12.00879,8.68438 16.7741,8.05175"
     stroke="#0e416c"
     stroke-width="0.712496"
     stroke-linecap="round"
     stroke-linejoin="round"
     id="path60" />
  <path
     d="m 20.7964,10.39233 3.6513,4.38497 -0.062,0.6128"
     stroke="#0e416c"
     stroke-width="0.712496"
     stroke-linecap="round"
     stroke-linejoin="round"
     id="path62" />
  <path
     d="m 16.8359,17.4146 1.3616,-0.5694"
     stroke="#0e416c"
     stroke-width="0.712496"
     stroke-linecap="round"
     stroke-linejoin="round"
     id="path64" />
  <path
     d="M 19.4971,6.8496 16.8359,7.10265"
     stroke="#0e416c"
     stroke-width="0.712496"
     stroke-linecap="round"
     stroke-linejoin="round"
     id="path66" />
  <path
     d="m 19.4351,6.84985 1.4234,0.11716"
     stroke="#0e416c"
     stroke-width="0.712496"
     stroke-linecap="round"
     stroke-linejoin="round"
     id="path68" />
  <path
     d="m 13.99167,13.23922 -9.3e-4,-0.33716 -0.0015,-0.61178"
     stroke="#0e416c"
     stroke-width="0.712496"
     stroke-linecap="round"
     stroke-linejoin="round"
     id="path70" />
  <path
     d="m 18.4453,18.0469 3.5609,-1.5876 2.2565,-1.0062"
     stroke="#0e416c"
     stroke-width="0.712496"
     stroke-linecap="round"
     stroke-linejoin="round"
     id="path72" />
  <path
     d="m 16.941,7.03955 -0.1051,3.79576"
     stroke="#0e416c"
     stroke-width="0.712496"
     stroke-linecap="round"
     stroke-linejoin="round"
     id="path74" />
  <path
     d="M 20.9207,6.84985 20.6113,11.8476"
     stroke="#0e416c"
     stroke-width="0.712496"
     stroke-linecap="round"
     stroke-linejoin="round"
     id="path76" />
  <path
     d="M 8.85192,20.2613 8.54248,14.4412"
     stroke="#0e416c"
     stroke-width="0.712496"
     stroke-linecap="round"
     stroke-linejoin="round"
     id="path78" />
  <path
     d="m 16.8356,17.478 -0.1857,7.0222"
     stroke="#0e416c"
     stroke-width="0.712496"
     stroke-linecap="round"
     stroke-linejoin="round"
     id="path80" />
  <path
     d="M 18.445,18.0474 16.8359,17.478"
     stroke="#0e416c"
     stroke-width="0.712496"
     stroke-linecap="round"
     stroke-linejoin="round"
     id="path82" />
  <path
     d="m 18.4811,17.3513 -0.0358,0.6959"
     stroke="#0e416c"
     stroke-width="0.712496"
     stroke-linecap="round"
     stroke-linejoin="round"
     id="path84" />
  <path
     d="M 12.00879,8.55762 18.4451,17.2246"
     stroke="#0e416c"
     stroke-width="0.712496"
     stroke-linecap="round"
     stroke-linejoin="round"
     id="path86" />
  <path
     d="m 7.55273,13.61863 4.4559,-5.06101"
     stroke="#0e416c"
     stroke-width="0.712496"
     stroke-linecap="round"
     stroke-linejoin="round"
     id="path88" />
  <path
     d="M 7.59284,14.188 7.55273,13.61865"
     stroke="#0e416c"
     stroke-width="0.712496"
     stroke-linecap="round"
     stroke-linejoin="round"
     id="path90" />
  <path
     d="M 8.48105,14.4342 7.55273,14.1248"
     stroke="#0e416c"
     stroke-width="0.712496"
     stroke-linecap="round"
     stroke-linejoin="round"
     id="path92" />
  <path
     d="M 16.65,24.4998 8.91406,20.3877"
     stroke="#0e416c"
     stroke-width="0.712496"
     stroke-linecap="round"
     stroke-linejoin="round"
     id="path94" />
  <path
     d="M 8.85192,20.2613 8.54248,14.4412"
     stroke="#0e416c"
     stroke-width="0.712496"
     stroke-linecap="round"
     stroke-linejoin="round"
     id="path96" />
  <path
     d="M 18.445,18.0474 16.8359,17.478"
     stroke="#0e416c"
     stroke-width="0.712496"
     stroke-linecap="round"
     stroke-linejoin="round"
     id="path98" />
  <path
     d="m 18.4811,17.3513 -0.0358,0.6959"
     stroke="#0e416c"
     stroke-width="0.712496"
     stroke-linecap="round"
     stroke-linejoin="round"
     id="path100" />
  <path
     d="m 7.55273,13.61863 4.4559,-5.06101"
     stroke="#0e416c"
     stroke-width="0.712496"
     stroke-linecap="round"
     stroke-linejoin="round"
     id="path102" />
  <path
     d="M 7.59284,14.188 7.55273,13.61865"
     stroke="#0e416c"
     stroke-width="0.712496"
     stroke-linecap="round"
     stroke-linejoin="round"
     id="path104" />
  <path
     d="M 8.48105,14.4342 7.55273,14.1248"
     stroke="#0e416c"
     stroke-width="0.712496"
     stroke-linecap="round"
     stroke-linejoin="round"
     id="path106" />
  <path
     d="M 16.65,24.4998 8.91406,20.3877"
     stroke="#0e416c"
     stroke-width="0.712496"
     stroke-linecap="round"
     stroke-linejoin="round"
     id="path108" />
  <path
     d="m 16.8356,17.478 -0.0537,2.024 -0.132,4.9982"
     stroke="#0e416c"
     stroke-width="0.712496"
     stroke-linecap="round"
     stroke-linejoin="round"
     id="path110" />
  <path
     d="m 12.00879,8.55762 2.24931,3.02912 0.1051,0.14137 3.7864,5.09829 0.2955,0.3982"
     stroke="#0e416c"
     stroke-width="0.712496"
     stroke-linecap="round"
     stroke-linejoin="round"
     id="path112" />
  <path
     fill-rule="evenodd"
     clip-rule="evenodd"
     d="m 8.85491,20.3145 -0.3194,-5.7969 -0.94732,-0.3328 -0.03546,-0.55535 4.48088,-5.07183 6.41129,8.69998 -0.0318,0.7287 -1.631,-0.5728 -0.1881,7.023 z"
     stroke="#dcedf9"
     stroke-width="2.13749"
     id="path114" />
  <path
     fill-rule="evenodd"
     clip-rule="evenodd"
     d="M 8.53551,14.5176 7.58819,14.1848 7.55273,13.62945 12.03361,8.55762 c 0,0 2.96499,4.02342 4.44749,6.03518 0.6546,0.8882 1.9638,2.6648 1.9638,2.6648 l -0.0318,0.7287 -1.631,-0.5728 -0.1881,7.023 -7.73909,-4.122 z"
     stroke="#009ad9"
     stroke-width="0.712496"
     id="path116" />
</svg>
