<?xml version="1.0" encoding="UTF-8" standalone="no"?>
<svg
   width="32"
   height="32"
   viewBox="0 0 32 32"
   fill="none"
   version="1.1"
   id="svg120"
   xmlns="http://www.w3.org/2000/svg"
   xmlns:svg="http://www.w3.org/2000/svg">
  <defs
     id="defs124" />
  <path
     fill-rule="evenodd"
     clip-rule="evenodd"
     d="M 10.09529,19.6363 9.80713,14.4986 14.644,13.27271 14.6547,17.8519 Z"
     fill="#90939f"
     id="path2" />
  <path
     fill-rule="evenodd"
     clip-rule="evenodd"
     d="m 14.7804,17.8909 -0.0107,-4.57677 -8e-4,-0.30006 -0.0013,-0.54446 0.4356,-0.39002 3.3974,4.53331 -1.2325,0.4919 -0.049,1.793 z"
     fill="#90939f"
     id="path4" />
  <path
     fill-rule="evenodd"
     clip-rule="evenodd"
     d="m 14.7726,12.43451 0.0014,0.55422 -0.2857,-0.07042 -0.0025,-0.43701 0.6363,-0.57212 0.0965,0.12832 z"
     fill="#90939f"
     id="path6" />
  <path
     fill-rule="evenodd"
     clip-rule="evenodd"
     d="m 14.7053,17.8181 2.5425,1.0105 -0.1208,4.4441 -6.98149,-3.6646 z"
     fill="#7d808d"
     id="path8" />
  <path
     fill-rule="evenodd"
     clip-rule="evenodd"
     d="m 9.929,14.409 -0.85478,-0.2939 5.41288,-1.29698 0.2795,0.06901 7e-4,0.29939 z"
     fill="#7d808d"
     id="path10" />
  <path
     fill-rule="evenodd"
     clip-rule="evenodd"
     d="m 9.10615,14.2387 -0.03193,-0.48492 5.40888,-1.2196 0.0024,0.42318 z"
     fill="#90939f"
     id="path12" />
  <path
     fill-rule="evenodd"
     clip-rule="evenodd"
     d="m 9.07422,13.67052 4.02076,-4.48864 2.01052,2.69085 -0.619,0.56157 z"
     fill="#6a6e79"
     id="path14" />
  <path
     fill-rule="evenodd"
     clip-rule="evenodd"
     d="m 17.312,18.8527 0.0489,-1.7896 1.469,0.5063 3.2091,-1.399 -0.3535,4.414 -4.4941,2.6883 z"
     fill="#dcedf9"
     id="path16" />
  <path
     fill-rule="evenodd"
     clip-rule="evenodd"
     d="m 22.0354,16.2419 -3.2094,1.4059 0.0287,-0.6473 5.2699,-2.1936 -0.0553,0.5441 z"
     fill="#0e416c"
     id="path18" />
  <path
     fill-rule="evenodd"
     clip-rule="evenodd"
     d="m 18.8823,16.9872 -0.0291,0.6605 -1.4928,-0.5192 1.2523,-0.5035 z"
     fill="#7d808d"
     id="path20" />
  <path
     fill-rule="evenodd"
     clip-rule="evenodd"
     d="m 15.0765,12.08238 -0.0943,-0.12597 -2.01882,-2.69113 4.29952,-0.53799 -0.0645,2.56426 1.1971,1.52012 2.2736,-0.61074 0.0818,-1.2982 3.2605,3.87787 -5.2715,2.1853 -0.2653,-0.3536 z"
     fill="#dcedf9"
     id="path22" />
  <path
     fill-rule="evenodd"
     clip-rule="evenodd"
     d="m 20.7171,10.74377 -0.0813,1.29479 -2.2608,0.60915 0.1827,-4.74555 2.3538,-0.25445 z"
     fill="#dcedf9"
     id="path24" />
  <path
     fill-rule="evenodd"
     clip-rule="evenodd"
     d="M 19.752,7.64771 21.0242,7.7397 18.657,7.98861 17.3604,7.87991 Z"
     fill="#b7b9c3"
     id="path26" />
  <path
     fill-rule="evenodd"
     clip-rule="evenodd"
     d="m 18.5331,12.70448 -1.1727,-1.5254 0.0631,-2.57317 0.0193,-0.78779 1.2704,0.1118 z"
     fill="#dcedf9"
     id="path28" />
  <path
     d="m 14.7796,17.8182 -0.012,-4.54549"
     stroke="#0e416c"
     stroke-width="0.72"
     stroke-linecap="round"
     stroke-linejoin="round"
     id="path30" />
  <path
     d="m 14.7676,17.8181 2.5365,1.0227"
     stroke="#0e416c"
     stroke-width="0.72"
     stroke-linecap="round"
     stroke-linejoin="round"
     id="path32" />
  <path
     d="M 10.14551,19.5795 14.7113,17.8181"
     stroke="#0e416c"
     stroke-width="0.72"
     stroke-linecap="round"
     stroke-linejoin="round"
     id="path34" />
  <path
     d="m 18.826,16.966 5.2422,-2.1591"
     stroke="#0e416c"
     stroke-width="0.72"
     stroke-linecap="round"
     stroke-linejoin="round"
     id="path36" />
  <path
     d="m 9.07422,13.78418 5.41128,-1.25"
     stroke="#0e416c"
     stroke-width="0.72"
     stroke-linecap="round"
     stroke-linejoin="round"
     id="path38" />
  <path
     d="M 9.07422,14.1249 14.4855,12.81812"
     stroke="#0e416c"
     stroke-width="0.72"
     stroke-linecap="round"
     stroke-linejoin="round"
     id="path40" />
  <path
     d="m 14.7677,13.04554 -0.2794,-0.07096 -0.0025,-0.4404"
     stroke="#0e416c"
     stroke-width="0.72"
     stroke-linecap="round"
     stroke-linejoin="round"
     id="path42" />
  <path
     d="m 15.1059,11.90918 -0.6201,0.56818"
     stroke="#0e416c"
     stroke-width="0.72"
     stroke-linecap="round"
     stroke-linejoin="round"
     id="path44" />
  <path
     d="M 9.80713,14.5227 14.6547,13.27271"
     stroke="#0e416c"
     stroke-width="0.72"
     stroke-linecap="round"
     stroke-linejoin="round"
     id="path46" />
  <path
     d="m 17.3604,11.28418 1.1859,1.53409 2.2525,-0.61636"
     stroke="#0e416c"
     stroke-width="0.72"
     stroke-linecap="round"
     stroke-linejoin="round"
     id="path48" />
  <path
     d="M 18.4731,12.70448 18.6568,7.92992 17.3604,7.81812"
     stroke="#0e416c"
     stroke-width="0.72"
     stroke-linecap="round"
     stroke-linejoin="round"
     id="path50" />
  <path
     d="M 21.0808,7.64771 18.7134,7.87498"
     stroke="#0e416c"
     stroke-width="0.72"
     stroke-linecap="round"
     stroke-linejoin="round"
     id="path52" />
  <path
     d="m 21.7005,20.6022 0.3383,-4.4318"
     stroke="#0e416c"
     stroke-width="0.72"
     stroke-linecap="round"
     stroke-linejoin="round"
     id="path54" />
  <path
     d="m 14.7676,12.47732 0.4509,-0.39773"
     stroke="#0e416c"
     stroke-width="0.72"
     stroke-linecap="round"
     stroke-linejoin="round"
     id="path56" />
  <path
     d="m 17.1914,23.2159 4.5094,-2.6705"
     stroke="#0e416c"
     stroke-width="0.72"
     stroke-linecap="round"
     stroke-linejoin="round"
     id="path58" />
  <path
     d="M 12.96338,9.23866 17.2473,8.72729"
     stroke="#0e416c"
     stroke-width="0.72"
     stroke-linecap="round"
     stroke-linejoin="round"
     id="path60" />
  <path
     d="m 20.7988,10.82959 3.2693,3.88831 -0.0554,0.5435"
     stroke="#0e416c"
     stroke-width="0.72"
     stroke-linecap="round"
     stroke-linejoin="round"
     id="path62" />
  <path
     d="m 17.3604,17.1364 1.24,-0.5114"
     stroke="#0e416c"
     stroke-width="0.72"
     stroke-linecap="round"
     stroke-linejoin="round"
     id="path64" />
  <path
     d="M 19.7278,7.64771 17.3604,7.87498"
     stroke="#0e416c"
     stroke-width="0.72"
     stroke-linecap="round"
     stroke-linejoin="round"
     id="path66" />
  <path
     d="M 19.7275,7.64771 21.024,7.75373"
     stroke="#0e416c"
     stroke-width="0.72"
     stroke-linecap="round"
     stroke-linejoin="round"
     id="path68" />
  <path
     d="m 14.7701,13.2158 -9e-4,-0.30282 -0.0016,-0.54945"
     stroke="#0e416c"
     stroke-width="0.72"
     stroke-linecap="round"
     stroke-linejoin="round"
     id="path70" />
  <path
     d="m 18.826,17.5342 3.2087,-1.3911 2.0335,-0.8816"
     stroke="#0e416c"
     stroke-width="0.72"
     stroke-linecap="round"
     stroke-linejoin="round"
     id="path72" />
  <path
     d="m 17.4549,7.81812 -0.0222,0.78576 -0.0723,2.56651"
     stroke="#0e416c"
     stroke-width="0.72"
     stroke-linecap="round"
     stroke-linejoin="round"
     id="path74" />
  <path
     d="m 21.0807,7.64771 -0.1987,3.08488 -0.0832,1.29012"
     stroke="#0e416c"
     stroke-width="0.72"
     stroke-linecap="round"
     stroke-linejoin="round"
     id="path76" />
  <path
     d="M 10.08897,19.5795 9.80713,14.4658"
     stroke="#0e416c"
     stroke-width="0.72"
     stroke-linecap="round"
     stroke-linejoin="round"
     id="path78" />
  <path
     d="m 17.3605,17.0796 -0.1691,6.1932"
     stroke="#0e416c"
     stroke-width="0.72"
     stroke-linecap="round"
     stroke-linejoin="round"
     id="path80" />
  <path
     d="M 18.8259,17.591 17.3604,17.0796"
     stroke="#0e416c"
     stroke-width="0.72"
     stroke-linecap="round"
     stroke-linejoin="round"
     id="path82" />
  <path
     d="m 18.8582,16.9092 -0.0322,0.625"
     stroke="#0e416c"
     stroke-width="0.72"
     stroke-linecap="round"
     stroke-linejoin="round"
     id="path84" />
  <path
     d="M 12.96338,9.18188 18.7128,16.8523"
     stroke="#0e416c"
     stroke-width="0.72"
     stroke-linecap="round"
     stroke-linejoin="round"
     id="path86" />
  <path
     d="M 9.07422,13.67052 13.07629,9.18188"
     stroke="#0e416c"
     stroke-width="0.72"
     stroke-linecap="round"
     stroke-linejoin="round"
     id="path88" />
  <path
     d="M 9.11024,14.2387 9.07422,13.72729"
     stroke="#0e416c"
     stroke-width="0.72"
     stroke-linecap="round"
     stroke-linejoin="round"
     id="path90" />
  <path
     d="M 9.91973,14.466 9.07422,14.1819"
     stroke="#0e416c"
     stroke-width="0.72"
     stroke-linecap="round"
     stroke-linejoin="round"
     id="path92" />
  <path
     d="M 17.0787,23.2728 10.14551,19.6365"
     stroke="#0e416c"
     stroke-width="0.72"
     stroke-linecap="round"
     stroke-linejoin="round"
     id="path94" />
  <path
     d="M 10.08897,19.5795 9.80713,14.4658"
     stroke="#0e416c"
     stroke-width="0.72"
     stroke-linecap="round"
     stroke-linejoin="round"
     id="path96" />
  <path
     d="M 18.8259,17.591 17.3604,17.0796"
     stroke="#0e416c"
     stroke-width="0.72"
     stroke-linecap="round"
     stroke-linejoin="round"
     id="path98" />
  <path
     d="m 18.8582,16.9092 -0.0322,0.625"
     stroke="#0e416c"
     stroke-width="0.72"
     stroke-linecap="round"
     stroke-linejoin="round"
     id="path100" />
  <path
     d="M 9.07422,13.67052 13.07629,9.18188"
     stroke="#0e416c"
     stroke-width="0.72"
     stroke-linecap="round"
     stroke-linejoin="round"
     id="path102" />
  <path
     d="M 9.11024,14.2387 9.07422,13.72729"
     stroke="#0e416c"
     stroke-width="0.72"
     stroke-linecap="round"
     stroke-linejoin="round"
     id="path104" />
  <path
     d="M 9.91973,14.466 9.07422,14.1819"
     stroke="#0e416c"
     stroke-width="0.72"
     stroke-linecap="round"
     stroke-linejoin="round"
     id="path106" />
  <path
     d="M 17.0787,23.2728 10.14551,19.6365"
     stroke="#0e416c"
     stroke-width="0.72"
     stroke-linecap="round"
     stroke-linejoin="round"
     id="path108" />
  <path
     d="m 17.3605,17.0796 -0.0488,1.7849 -0.1203,4.4083"
     stroke="#0e416c"
     stroke-width="0.72"
     stroke-linecap="round"
     stroke-linejoin="round"
     id="path110" />
  <path
     d="m 13.15479,9.19532 c 0,0 2.68261,-0.3126 4.02391,-0.4689 l 0.1545,-0.95274 h 3.0839 v 3.93954"
     stroke="#0e416c"
     stroke-width="0.72"
     stroke-linecap="round"
     stroke-linejoin="round"
     id="path112" />
  <path
     fill-rule="evenodd"
     clip-rule="evenodd"
     d="M 19.7456,26 20.8552,6.75121 7.72168,6 8.6508,19.9183 Z"
     fill="#dcedf9"
     fill-opacity="0.5"
     id="path114" />
  <path
     fill-rule="evenodd"
     clip-rule="evenodd"
     d="M 19.7456,26 20.8552,6.75121 7.72168,6 8.6508,19.9183 Z"
     stroke="#009ad9"
     stroke-width="0.72"
     id="path116" />
  <path
     fill-rule="evenodd"
     clip-rule="evenodd"
     d="M 10.2604,19.7432 9.96949,14.6197 9.10666,14.3258 9.07422,13.83507 13.15556,9.35229 18.9949,17.0417 18.966,17.6854 17.4805,17.1793 17.3091,23.3864 Z"
     stroke="#009ad9"
     stroke-width="0.72"
     id="path118" />
</svg>
