<?xml version="1.0" encoding="UTF-8" standalone="no"?>
<svg
   width="32"
   height="32"
   viewBox="0 0 32 32"
   fill="none"
   version="1.1"
   id="svg10"
   xmlns="http://www.w3.org/2000/svg"
   xmlns:svg="http://www.w3.org/2000/svg">
  <defs
     id="defs14" />
  <rect
     x="5.8427701"
     y="6.50488"
     width="20.3125"
     height="18.990299"
     fill="#dcedf9"
     stroke="#009ad9"
     stroke-width="1.25"
     id="rect2" />
  <rect
     x="5.8427701"
     y="12.50488"
     width="13.3125"
     height="12.9903"
     stroke="#0e416c"
     stroke-width="1.25"
     id="rect4" />
  <path
     fill-rule="evenodd"
     clip-rule="evenodd"
     d="M 16.4148,10.38096 C 16.1841,10.15021 16.2887,9.75629 16.6035,9.67043 l 7.8571,-2.14278 c 0.3173,-0.08652 0.6084,0.20459 0.5219,0.52185 l -2.1429,7.8571 c -0.0858,0.3148 -0.4798,0.4195 -0.7105,0.1887 l -1.128,-1.128 -3.2709,3.2709 c -0.166,0.166 -0.4351,0.166 -0.601,0 l -2.8573,-2.8571 c -0.1659,-0.166 -0.1659,-0.4351 0,-0.601 l 3.2709,-3.27098 z"
     fill="#ff0404"
     id="path6" />
  <path
     d="m 16.4148,10.38096 0.1768,-0.17676 v -10e-6 z M 16.6035,9.67043 16.5377,9.42924 Z m 7.8571,-2.14278 0.0658,0.24119 z m 0.5219,0.52185 0.2412,0.06578 z m -2.1429,7.8571 -0.2412,-0.0658 z m -0.7105,0.1887 -0.1768,0.1768 z m -1.128,-1.128 0.1767,-0.1768 -0.1767,-0.1768 -0.1768,0.1768 z m -3.2709,3.2709 -0.1768,-0.1768 z m -0.601,0 0.1767,-0.1768 z m -2.8573,-2.8571 -0.1767,0.1768 z m 0,-0.601 -0.1767,-0.1768 v 0 z m 3.2709,-3.27098 0.1768,0.17677 0.1768,-0.17677 -0.1768,-0.17677 z M 16.5916,10.20419 C 16.4966,10.10918 16.5397,9.94698 16.6693,9.91162 L 16.5377,9.42924 c -0.5,0.13636 -0.6661,0.762 -0.2997,1.12849 z M 16.6693,9.91162 24.5264,7.76884 24.3949,7.28646 16.5377,9.42924 Z m 7.8571,-2.14278 c 0.1307,-0.03562 0.2505,0.08425 0.2149,0.21488 l 0.4824,0.13156 C 25.3611,7.6114 24.8987,7.14904 24.3949,7.28646 Z m 0.2149,0.21488 -2.1429,7.85708 0.4824,0.1316 2.1429,-7.85712 z m -2.1429,7.85708 c -0.0353,0.1297 -0.1975,0.1728 -0.2926,0.0777 l -0.3535,0.3536 c 0.3665,0.3665 0.9921,0.2003 1.1285,-0.2997 z m -0.2926,0.0777 -1.128,-1.128 -0.3535,0.3536 1.128,1.128 z m -1.4815,-1.128 -3.2709,3.2709 0.3536,0.3536 3.2708,-3.2709 z m -3.2709,3.2709 c -0.0683,0.0684 -0.1791,0.0684 -0.2475,0 l -0.3535,0.3536 c 0.2636,0.2636 0.691,0.2636 0.9546,0 z m -0.2475,0 -2.8572,-2.8571 -0.3535,0.3536 2.8572,2.8571 z m -2.8572,-2.8571 c -0.0683,-0.0683 -0.0683,-0.1791 0,-0.2475 l -0.3535,-0.3535 c -0.26364,0.2636 -0.26364,0.691 0,0.9546 z m 0,-0.2475 3.2709,-3.27091 -0.3535,-0.35355 -3.2709,3.27096 z m 3.2709,-3.62445 -1.128,-1.12815 -0.3536,0.35353 1.128,1.12815 z"
     fill="#ffffff"
     id="path8" />
</svg>
