<svg width="24" height="24" viewBox="0 0 24 24" fill="none" xmlns="http://www.w3.org/2000/svg">
<path d="M15.6017 19.9616L21.0241 18.3544V12.9654L17.4594 10.5073L11.9868 12.1146V17.5035L15.6017 19.9616Z" stroke="#0063A3" stroke-width="0.5" stroke-miterlimit="10" stroke-linejoin="round"/>
<path d="M15.6021 19.9617V14.5728" stroke="#0063A3" stroke-width="0.5" stroke-miterlimit="10" stroke-linecap="round" stroke-linejoin="round"/>
<path d="M11.9868 12.1143L15.6017 14.5724" stroke="#0063A3" stroke-width="0.5" stroke-miterlimit="10" stroke-linecap="round" stroke-linejoin="round"/>
<path d="M15.6021 14.5726L21.0244 12.9653" stroke="#0063A3" stroke-width="0.5" stroke-miterlimit="10" stroke-linecap="round" stroke-linejoin="round"/>
<path d="M11.9875 12.3327L17.4098 10.7255V5.33653L13.8451 2.87842L8.37256 4.48564V9.87458L11.9875 12.3327Z" stroke="#0063A3" stroke-width="0.5" stroke-miterlimit="10" stroke-linejoin="round"/>
<path d="M11.9868 12.3328V6.94385" stroke="#0063A3" stroke-width="0.5" stroke-miterlimit="10" stroke-linecap="round" stroke-linejoin="round"/>
<path d="M8.37256 4.48584L11.9875 6.94395" stroke="#0063A3" stroke-width="0.5" stroke-miterlimit="10" stroke-linecap="round" stroke-linejoin="round"/>
<path d="M11.9868 6.94414L17.4092 5.33691" stroke="#0063A3" stroke-width="0.5" stroke-miterlimit="10" stroke-linecap="round" stroke-linejoin="round"/>
<path d="M6.5358 19.1579L11.9582 17.5507V12.1617L8.39346 9.70361L2.9209 11.3108V16.6998L6.5358 19.1579Z" stroke="#0063A3" stroke-width="0.5" stroke-miterlimit="10" stroke-linejoin="round"/>
<path d="M6.53564 19.158V13.769" stroke="#0063A3" stroke-width="0.5" stroke-miterlimit="10" stroke-linecap="round" stroke-linejoin="round"/>
<path d="M2.9209 11.311L6.5358 13.7691" stroke="#0063A3" stroke-width="0.5" stroke-miterlimit="10" stroke-linecap="round" stroke-linejoin="round"/>
<path d="M6.53564 13.7693L11.958 12.1621" stroke="#0063A3" stroke-width="0.5" stroke-miterlimit="10" stroke-linecap="round" stroke-linejoin="round"/>
<path d="M17.872 5.18523L13.8812 2.51172L7.95194 4.32867V9.44207L2.50732 11.0773V16.7877L6.55518 19.5391L11.9713 17.826L15.5631 20.3438L21.4923 18.5528V12.6866L17.872 10.4284V5.18523Z" stroke="#0063A3" stroke-linejoin="round"/>
<path d="M13.4171 16.5331C13.1411 16.9875 13.4083 17.6904 14.0464 17.6904H14.5499V20.7425C14.5499 21.1288 14.8506 21.5 15.2908 21.5L17.7793 21.4999C18.2194 21.4999 18.5201 21.1287 18.5201 20.7424L18.5202 17.6904H18.9639C19.5979 17.6904 19.8669 16.9949 19.5974 16.5401L17.1686 12.4428C16.8825 11.9602 16.1976 11.9552 15.9057 12.4358L13.4171 16.5331Z" fill="white" stroke="#0063A3"/>
</svg>
