<?xml version="1.0" encoding="UTF-8" standalone="no"?>
<svg
   width="32"
   height="32"
   viewBox="0 0 32 32"
   fill="none"
   version="1.1"
   id="svg10"
   xmlns="http://www.w3.org/2000/svg"
   xmlns:svg="http://www.w3.org/2000/svg">
  <defs
     id="defs14" />
  <path
     d="m 17.1086,6.06543 -9.54341,5 L 14.1087,18.7828 24,13.23934 Z"
     fill="#acaa94"
     id="path2" />
  <path
     d="m 24,13.23934 -9.8913,5.54346 0.5652,7.1522 9.1087,-5.3696 z"
     fill="#7a7969"
     id="path4" />
  <path
     d="m 14.1087,18.7828 -6.54351,-7.71737 0.89135,7.36957 6.21736,7.5 z"
     fill="#616054"
     id="path6" />
  <path
     d="m 7.56519,11.06543 -0.23205,-0.4429 -0.30579,0.16021 0.04145,0.34273 z m 9.54341,-5 0.3606,-0.34638 -0.2601,-0.27074 -0.3325,0.17422 z M 24,13.23934 24.4998,13.25417 24.506,13.04435 24.3606,12.89296 Z M 8.45654,18.435 l -0.49638,0.06 0.01765,0.1459 0.0938,0.1132 z m 15.32606,2.1304 0.2539,0.4308 0.2377,-0.1402 0.0082,-0.2757 z m -9.1087,5.3696 -0.3849,0.3191 0.2719,0.328 0.3669,-0.2164 z m -6.87667,-14.42667 9.54347,-5 -0.4641,-0.8858 -9.54346,5 z m 8.95087,-5.09652 6.8913,7.17391 0.7212,-0.69276 -6.8914,-7.17391 z m 7.0075,6.39136 -9.89133,5.54343 0.48893,0.8724 9.8913,-5.54349 z m -9.2655,5.65633 -6.54355,-7.71743 -0.76273,0.64672 6.54353,7.71741 z m 9.0386,1.6752 -9.1087,5.3696 0.5078,0.8614 9.1087,-5.3695 z m -8.4698,5.4812 -6.21742,-7.5 -0.76987,0.6382 6.21739,7.5 z M 7.0688,11.12547 7.96016,18.495 8.95293,18.375 8.06157,11.00539 Z m 6.54147,7.69673 0.56523,7.1522 0.9969,-0.0788 -0.5652,-7.1522 z m 9.88993,-5.59769 -0.2174,7.32609 0.9996,0.0297 0.2174,-7.32613 z"
     fill="#0e416c"
     id="path8" />
</svg>
