<svg width="24" height="24" viewBox="0 0 24 24" fill="none" xmlns="http://www.w3.org/2000/svg">
<path d="M14.1757 12.74V11.0348L12.7221 11.8741L12.7219 13.5601L14.1757 12.74Z" fill="#005F9E"/>
<path d="M9.81463 12.74V11.0348L11.2683 11.8741L11.2684 13.5601L9.81463 12.74Z" fill="#005F9E"/>
<path fill-rule="evenodd" clip-rule="evenodd" d="M17.0982 8.56692L17.1257 13.4158C17.1257 13.424 17.1257 13.4323 17.1257 13.4406C17.1262 13.8734 17.1267 14.4362 15.9488 15.1084L12.0325 17.408C12.0325 17.408 8.72399 15.5815 7.83267 14.9815C6.94135 14.3816 6.90436 13.7674 6.90436 13.4158V8.56692L10.9405 6.2096C11.2513 6.03992 11.7096 5.9527 11.9951 5.9527C12.2805 5.9527 12.7198 6.02406 13.0306 6.19374L17.0982 8.56692ZM11.9814 15.6788L15.6391 13.5601V9.38393L11.9698 7.4801L8.37079 9.38393V13.5601L11.9814 15.6788Z" fill="#005F9E"/>
<path d="M10.478 9.84403L11.9951 10.7246L13.4489 9.80232L11.9951 8.96341L10.478 9.84403Z" fill="#005F9E"/>
<path d="M18.5464 12.742V8.50857L20.0001 7.78174L19.9903 13.8058C19.9903 13.8058 19.7949 14.5741 19.1748 15.6477C18.5548 16.7213 17.6646 17.1014 17.6646 17.1014L12.3587 20.1962V18.4919L16.3461 16.1531C18.016 15.173 18.5464 13.4746 18.5464 12.742Z" fill="#005F9E"/>
<path d="M5.45366 12.7388V8.50539L4 7.77856C4 7.77856 4.00015 13.1696 4.00015 13.5601C4.00015 13.9506 4.08254 14.5932 4.73644 15.5436C5.39034 16.494 6.33544 17.0982 6.33544 17.0982L11.6413 20.193V18.4888L7.65396 16.1499C6.88565 15.699 6.27376 15.1887 5.92855 14.5976C5.52348 13.9041 5.45366 13.1343 5.45366 12.7388Z" fill="#005F9E"/>
<path d="M10.4703 4.83479C10.9698 4.54459 11.5407 4.43992 12.0181 4.42407C12.4954 4.43992 13.0235 4.54934 13.5214 4.83796L17.8098 7.2845L19.2634 6.44574L14.0815 3.4583C14.0815 3.4583 13.2062 3 11.9676 3C10.7291 3 9.81094 3.47574 9.81094 3.47574L4.73645 6.44574L6.19025 7.2956L10.4703 4.83479Z" fill="#005F9E"/>
<path fill-rule="evenodd" clip-rule="evenodd" d="M18.2 21H19.8V16.6H21.4L18.2 13L15 16.6H16.6V21H18.2Z" stroke="#005F9E" stroke-width="2" stroke-linecap="round" stroke-linejoin="round"/>
<path fill-rule="evenodd" clip-rule="evenodd" d="M18.2816 20.9992L19.5999 20.9999C19.7104 21 19.8 20.9104 19.8 20.7999V16.8632C19.8 16.7527 19.8895 16.6632 20 16.6632H20.9632C21.1344 16.6632 21.2265 16.4621 21.1146 16.3325L18.4279 13.2191C18.3499 13.1288 18.2106 13.1264 18.1296 13.214L15.3103 16.2642C15.1919 16.3923 15.2828 16.6 15.4572 16.6H16.4C16.5105 16.6 16.6 16.6895 16.6 16.8V20.7999C16.6 20.9104 16.6896 21 16.8001 20.9999L18.2816 20.9992Z" fill="white"/>
</svg>
