<?xml version="1.0" encoding="UTF-8" standalone="no"?>
<svg
   width="32"
   height="32"
   viewBox="0 0 32 32"
   fill="none"
   version="1.1"
   id="svg6"
   xmlns="http://www.w3.org/2000/svg"
   xmlns:svg="http://www.w3.org/2000/svg">
  <defs
     id="defs10" />
  <path
     fill-rule="evenodd"
     clip-rule="evenodd"
     d="M 11.64905,21.1845 11.5,9 l 9,8.3048 -3.4814,0.0701 1.6926,4.0629 L 15.2975,23 13.77826,18.8357 Z"
     fill="#0e416c"
     id="path2" />
  <path
     d="m 11.64905,21.1845 -0.37497,0.0045 0.01168,0.9546 0.64113,-0.7073 z M 11.5,9 11.75431,8.72441 11.11438,8.1339 11.12503,9.00459 Z m 9,8.3048 0.0075,0.375 0.9315,-0.0188 -0.6847,-0.6318 z M 17.0186,17.3749 17.0111,17 l -0.5503,0.011 0.2116,0.5081 z m 1.6926,4.0629 0.156,0.341 0.3294,-0.1507 -0.1393,-0.3345 z M 15.2975,23 l -0.3522,0.1285 0.1391,0.3814 0.3692,-0.1689 z m -1.51924,-4.1643 0.35224,-0.1286 -0.21286,-0.5835 -0.41722,0.4602 z M 12.02403,21.1799 11.87497,8.99541 11.12503,9.00459 11.27408,21.189 Z M 11.24569,9.27559 20.2457,17.5804 20.7543,17.0292 11.75431,8.72441 Z M 20.4925,16.9299 17.0111,17 l 0.0151,0.7498 3.4813,-0.07 z m -3.8201,0.5892 1.6926,4.0629 0.6923,-0.2884 -1.6925,-4.0629 z m 1.8827,3.5777 -3.4136,1.5622 0.3121,0.682 3.4136,-1.5622 z m -2.9053,1.7747 -1.5193,-4.1644 -0.70453,0.2571 1.51933,4.1643 z m -2.14938,-4.2877 -2.1292,2.3488 0.55567,0.5037 2.12921,-2.3488 z"
     fill="#ffffff"
     id="path4" />
</svg>
