<?xml version="1.0" encoding="UTF-8" standalone="no"?>
<svg
   width="32"
   height="32"
   viewBox="0 0 32 32"
   fill="none"
   version="1.1"
   id="svg12"
   xmlns="http://www.w3.org/2000/svg"
   xmlns:svg="http://www.w3.org/2000/svg">
  <defs
     id="defs16" />
  <path
     d="M 26.9999,15.6807 16.6805,5.36132 V 26 Z"
     fill="#0e416c"
     id="path2" />
  <circle
     cx="15.5702"
     cy="15.6807"
     r="7.5"
     fill="#ffffff"
     stroke="#0e416c"
     id="circle4" />
  <path
     fill-rule="evenodd"
     clip-rule="evenodd"
     d="M 16.7615,10.17516 16.755,10.10159 c 0,-0.02229 0,-0.04682 0,-0.07357 C 16.7506,10.00127 16.7484,9.98567 16.7484,9.98121 16.7397,9.88312 16.7353,9.83853 16.7353,9.84745 c 0,-0.15159 0.07,-0.22738 0.2098,-0.22738 0.1487,0 0.223,0.09362 0.223,0.28088 0,0.03567 -0.0087,0.14268 -0.0262,0.32102 -0.0219,0.22293 -0.0328,0.37675 -0.0328,0.46146 0,0.12038 0.0065,0.24299 0.0197,0.36783 l 0.0262,0.25414 v 0.06688 c 0,0.20064 -0.0787,0.30095 -0.2361,0.30095 -0.1705,0 -0.2535,-0.09586 -0.2492,-0.28757 l 0.0066,-0.24077 c 0.0087,-0.32101 -0.0896,-0.58184 -0.2951,-0.78247 -0.2055,-0.20064 -0.4743,-0.30096 -0.8066,-0.30096 -0.4328,0 -0.7716,0.16943 -1.0164,0.50828 -0.2449,0.33885 -0.3673,0.807 -0.3673,1.40445 0,0.61082 0.1257,1.08677 0.3771,1.42785 0.2514,0.34108 0.6022,0.51162 1.0525,0.51162 0.2448,0 0.4645,-0.06019 0.659,-0.18057 0.1946,-0.12038 0.3312,-0.27866 0.4099,-0.47484 0.0525,-0.1293 0.0787,-0.30318 0.0787,-0.52165 0,-0.2051 0.0831,-0.30764 0.2492,-0.30764 0.1792,0 0.2688,0.10254 0.2688,0.30764 0,0.47707 -0.1617,0.86719 -0.4852,1.17037 -0.3235,0.30323 -0.741,0.45473 -1.2525,0.45473 -0.5902,0 -1.0613,-0.2117 -1.4132,-0.6353 -0.35194,-0.42357 -0.5279,-0.98757 -0.5279,-1.69202 0,-0.72675 0.18033,-1.31305 0.541,-1.75891 0.3607,-0.44585 0.8361,-0.66878 1.4263,-0.66878 0.4853,0 0.8809,0.18949 1.1869,0.56847 z"
     fill="#0e416c"
     id="path6" />
  <path
     fill-rule="evenodd"
     clip-rule="evenodd"
     d="m 12.57815,19.7678 0.71876,-2.4493 c 0.03718,-0.1158 0.06816,-0.1892 0.09294,-0.2201 C 13.43529,17.0328 13.50552,17 13.60053,17 c 0.11566,0 0.19414,0.0261 0.23545,0.0782 0.04131,0.0521 0.09294,0.1959 0.15491,0.4314 l 0.71261,2.6461 c 0.0495,0.166 0.0908,0.2751 0.1239,0.3272 0.033,0.0521 0.0785,0.0782 0.1363,0.0782 0.0165,0 0.0537,-0.0039 0.1115,-0.0116 0.0124,0 0.0269,-0.0019 0.0434,-0.0058 0.0165,0 0.0268,0 0.031,0 0.1322,0 0.1983,0.0656 0.1983,0.1969 0,0.1505 -0.0703,0.2258 -0.2107,0.2258 -0.0165,0 -0.1115,-0.0155 -0.285,-0.0463 -0.0868,-0.0155 -0.1777,-0.0232 -0.2727,-0.0232 -0.0743,0 -0.1766,0.0116 -0.3067,0.0347 -0.1301,0.0232 -0.2179,0.0348 -0.2633,0.0348 -0.05786,0 -0.10949,-0.0212 -0.15493,-0.0637 -0.04544,-0.0425 -0.06816,-0.0946 -0.06816,-0.1563 0,-0.1352 0.06816,-0.2027 0.20448,-0.2027 0.02481,0 0.04341,0.0019 0.05581,0.0058 0.0123,0 0.0268,0 0.0433,0 0.0165,0.0038 0.0269,0.0058 0.031,0.0058 0.095,0 0.1425,-0.0618 0.1425,-0.1853 0,-0.0656 -0.0124,-0.1467 -0.0372,-0.2432 l -0.1115,-0.4285 c -0.0165,-0.0618 -0.033,-0.0994 -0.0496,-0.1129 -0.0165,-0.0135 -0.0516,-0.0203 -0.10529,-0.0203 h -0.74975 c -0.08674,0 -0.14871,0.0676 -0.18588,0.2027 l -0.11153,0.4111 c -0.02892,0.1081 -0.04338,0.1949 -0.04338,0.2606 0,0.0733 0.03718,0.11 0.11153,0.11 0.02892,0 0.04957,-10e-4 0.06197,-0.0029 0.01239,-0.0019 0.02685,-0.0048 0.04337,-0.0087 0.02065,0 0.03305,0 0.03718,0 0.13218,0 0.19828,0.0695 0.19828,0.2085 0,0.1466 -0.06816,0.22 -0.20448,0.22 -0.0537,0 -0.13838,-0.0116 -0.25404,-0.0348 -0.11567,-0.0231 -0.20654,-0.0347 -0.27264,-0.0347 -0.09088,0 -0.19828,0.0116 -0.3222,0.0347 -0.12393,0.0232 -0.21067,0.0348 -0.26024,0.0348 -0.14871,0 -0.22307,-0.0714 -0.22307,-0.2143 0,-0.1389 0.06403,-0.2084 0.19209,-0.2084 0.02478,0 0.05783,0.0039 0.09914,0.0116 0.0413,0.0077 0.07229,0.0116 0.09294,0.0116 0.06609,0 0.12909,-0.058 0.18898,-0.1738 0.0599,-0.1158 0.13322,-0.3242 0.21997,-0.6253 z M 13.96004,19.044 13.61948,17.6138 13.2232,19.044 c -0.0083,0.0309 -0.01238,0.0521 -0.01238,0.0637 0,0.0502 0.03921,0.0753 0.11764,0.0753 h 0.5387 c 0.07017,0 0.10526,-0.0232 0.10526,-0.0695 0,-0.0116 -0.0041,-0.0348 -0.01238,-0.0695 z m 1.35036,0.2201 c 0,-0.139 0.0723,-0.2065 0.2167,-0.2027 l 0.1734,0.0058 c 0.1156,0.0039 0.2023,0.0058 0.2601,0.0058 0.0413,0 0.1032,-0.0019 0.1857,-0.0058 0.0826,-0.0038 0.1445,-0.0058 0.1858,-0.0058 0.1486,0 0.2229,0.0676 0.2229,0.2027 0,0.1351 -0.0743,0.2027 -0.2229,0.2027 -0.0124,0 -0.0372,-0.002 -0.0743,-0.0058 -0.0372,-0.0039 -0.0681,-0.0058 -0.0929,-0.0058 -0.0578,-0.0039 -0.1341,-0.0058 -0.2291,-0.0058 -0.0991,0 -0.1775,0.0019 -0.2353,0.0058 -0.0248,0 -0.0557,0.0019 -0.0929,0.0058 -0.0371,0.0038 -0.0619,0.0058 -0.0743,0.0058 -0.1486,0 -0.2229,-0.0676 -0.2229,-0.2027 z m 2.2066,-1.5519 -0.0868,0.9091 c 0.2438,-0.2046 0.5081,-0.3069 0.7932,-0.3069 0.3387,0 0.6124,0.1187 0.821,0.3561 0.2086,0.2374 0.3129,0.5453 0.3129,0.9236 0,0.413 -0.1209,0.7527 -0.3625,1.0191 -0.2417,0.2663 -0.5504,0.3995 -0.9263,0.3995 -0.3305,0 -0.6114,-0.0946 -0.8427,-0.2837 -0.2314,-0.1892 -0.347,-0.4208 -0.347,-0.6949 0,-0.1544 0.0351,-0.2808 0.1053,-0.3792 0.0702,-0.0985 0.1611,-0.1477 0.2727,-0.1477 0.0908,0 0.1662,0.0309 0.2261,0.0927 0.0599,0.0617 0.0899,0.1389 0.0899,0.2316 0,0.1775 -0.0889,0.2683 -0.2665,0.2721 0.1116,0.3397 0.3594,0.5096 0.7436,0.5096 0.2519,0 0.4575,-0.0946 0.6165,-0.2838 0.159,-0.1891 0.2385,-0.4323 0.2385,-0.7295 0,-0.2625 -0.0702,-0.4748 -0.2106,-0.637 -0.1405,-0.1621 -0.3264,-0.2432 -0.5577,-0.2432 -0.2809,0 -0.5019,0.1197 -0.663,0.359 -0.0495,0.0734 -0.0867,0.1178 -0.1115,0.1332 -0.0248,0.0154 -0.0702,0.0232 -0.1363,0.0232 -0.1446,0 -0.2169,-0.0734 -0.2169,-0.2201 0,-0.0733 0.0083,-0.1698 0.0248,-0.2895 0.0165,-0.1467 0.0268,-0.2451 0.031,-0.2953 0.0082,-0.0888 0.0186,-0.222 0.031,-0.3995 0.0206,-0.2702 0.0309,-0.4961 0.0309,-0.6775 v -0.139 c 0,-0.0656 0.0062,-0.1109 0.0186,-0.136 0.0124,-0.0251 0.0475,-0.0377 0.1054,-0.0377 0.033,0 0.0578,0.002 0.0743,0.0058 0.3222,0.0232 0.5453,0.0348 0.6692,0.0348 l 0.0496,-0.0058 0.4895,-0.0058 c 0.0454,0 0.1146,-0.0039 0.2075,-0.0116 0.093,-0.0077 0.1642,-0.0116 0.2138,-0.0116 0.0537,0 0.0888,0.0087 0.1054,0.0261 0.0165,0.0173 0.0247,0.055 0.0247,0.1129 0,0.0502 -0.002,0.0888 -0.0062,0.1158 v 0.1216 c 0,0.0618 0.0104,0.1505 0.031,0.2663 0.0207,0.1159 0.031,0.2027 0.031,0.2606 0,0.112 -0.0599,0.1679 -0.1797,0.1679 -0.1198,0 -0.1838,-0.0598 -0.1921,-0.1795 l -0.0124,-0.1853 c -0.0082,-0.1042 -0.0433,-0.1756 -0.1053,-0.2142 -0.062,-0.0386 -0.1714,-0.0579 -0.3284,-0.0579 h -0.5948 c -0.0827,0 -0.1364,0.0125 -0.1611,0.0376 -0.0248,0.0251 -0.0413,0.0898 -0.0496,0.194 z"
     fill="#0e416c"
     id="path8" />
  <path
     d="M 5.02134,15.6807 H 23.1964"
     stroke="#0e416c"
     stroke-width="1.25"
     id="path10" />
</svg>
