<?xml version="1.0" encoding="UTF-8" standalone="no"?>
<svg
   width="33"
   height="32"
   viewBox="0 0 33 32"
   fill="none"
   version="1.1"
   id="svg18"
   xmlns="http://www.w3.org/2000/svg"
   xmlns:svg="http://www.w3.org/2000/svg">
  <defs
     id="defs22" />
  <path
     fill-rule="evenodd"
     clip-rule="evenodd"
     d="m 14.4089,21.8982 3.2168,4 8.8462,-4.8 -5.6294,-7.20001 v 4.80001 z"
     fill="#0e416c"
     id="path2" />
  <path
     fill-rule="evenodd"
     clip-rule="evenodd"
     d="m 11.7964,18.8361 9.764,-4.92573 c 0.1366,-0.06896 0.1915,-0.23566 0.1226,-0.37234 -0.069,-0.13669 -0.2357,-0.19159 -0.3724,-0.12264 l -9.76391,4.92571 c -0.13668,0.069 -0.19159,0.2357 -0.12263,0.3724 0.06895,0.1367 0.23566,0.1916 0.37234,0.1226 z"
     fill="#0e416c"
     id="path4" />
  <path
     fill-rule="evenodd"
     clip-rule="evenodd"
     d="m 12.95938,22.9143 -1.01865,-4.1412 c -0.03657,-0.1486 -0.18673,-0.2395 -0.33539,-0.2029 -0.14866,0.0365 -0.23953,0.1867 -0.20296,0.3353 l 1.01864,4.1412 c 0.03657,0.1487 0.18673,0.2396 0.33539,0.203 0.14866,-0.0366 0.23953,-0.1867 0.20297,-0.3354 z"
     fill="#0e416c"
     id="path6" />
  <path
     fill-rule="evenodd"
     clip-rule="evenodd"
     d="m 6.34353,10.70446 5.14869,8.19714 c 0.08143,0.1297 0.25254,0.1688 0.38218,0.0873 0.12964,-0.0814 0.16873,-0.2525 0.0873,-0.3821 L 6.813,10.40958 C 6.73157,10.27994 6.56046,10.24086 6.43082,10.32228 6.30118,10.40371 6.2621,10.57482 6.34353,10.70446 Z"
     fill="#0e416c"
     id="path8" />
  <path
     fill-rule="evenodd"
     clip-rule="evenodd"
     d="m 12.49835,22.5939 c -0.20377,0.1058 -0.28314,0.3569 -0.17727,0.5606 0.10588,0.2038 0.3569,0.2832 0.56068,0.1773 l 8.38514,-4.3566 c 0.1296,-0.0673 0.2144,-0.1976 0.2234,-0.3433 l 0.3051,-4.9434 c 0.0142,-0.2292 -0.1602,-0.42648 -0.3894,-0.44063 -0.2292,-0.01414 -0.4265,0.16019 -0.4406,0.3894 l -0.2907,4.70853 z"
     fill="#0e416c"
     id="path10" />
  <path
     fill-rule="evenodd"
     clip-rule="evenodd"
     d="m 21.0912,13.95569 c 0.1397,0.18231 0.4006,0.21691 0.5829,0.07721 0.1823,-0.13965 0.2169,-0.40064 0.0773,-0.58294 L 16.169,6.16297 C 16.0536,6.01244 15.8511,5.95899 15.6765,6.03304 L 6.41589,9.96121 c -0.21141,0.08968 -0.31009,0.33375 -0.22042,0.54516 0.08968,0.21141 0.33375,0.31009 0.54516,0.22041 L 15.7047,6.92441 Z"
     fill="#0e416c"
     id="path12" />
  <path
     fill-rule="evenodd"
     clip-rule="evenodd"
     d="M 9.00247,15.5812 6.96518,10.40475 C 6.88108,10.19106 6.63967,10.08601 6.42599,10.17011 6.2123,10.25421 6.10725,10.49562 6.19135,10.7093 l 2.0373,5.1765 c 0.0841,0.2137 0.3255,0.3187 0.53919,0.2346 0.21368,-0.0841 0.31873,-0.3255 0.23463,-0.5392 z"
     fill="#0e416c"
     id="path14" />
  <path
     fill-rule="evenodd"
     clip-rule="evenodd"
     d="m 8.25314,15.9373 4.07459,7.247 c 0.11255,0.2002 0.36605,0.2712 0.56622,0.1587 0.20017,-0.1125 0.27121,-0.366 0.15866,-0.5662 L 8.97802,15.5297 C 8.86548,15.3296 8.61197,15.2585 8.4118,15.3711 8.21163,15.4836 8.1406,15.7371 8.25314,15.9373 Z"
     fill="#0e416c"
     id="path16" />
</svg>
