<svg width="24" height="24" viewBox="0 0 24 24" fill="none" xmlns="http://www.w3.org/2000/svg">
<path opacity="0.938942" d="M11.8952 18.4102L5.0119 14.4311C5.19893 15.7932 5.87706 16.4459 6.95043 17.1746L11.8766 20L16.7286 17.1835C17.8047 16.4593 18.6079 15.7932 18.7962 14.4311L11.8952 18.4102Z" fill="#005F9E"/>
<path opacity="0.938942" d="M18.7871 11.2179L11.8979 15.2268L5.00277 11.2179L5 11.872L6.14182 12.5798L5.33997 13.0552L11.891 16.848L18.4457 13.0537L17.6561 12.5753L18.7843 11.8571L18.7871 11.2179Z" fill="#005F9E"/>
<path opacity="0.938942" d="M18.7899 8.09049L11.9018 12.014L5.00558 8.07559L5.00281 8.72969L6.14462 9.43753L5.34278 9.91291L11.895 13.6352L18.4485 9.92632L17.6589 9.44796L18.7871 8.72969L18.7899 8.09049Z" fill="#005F9E"/>
<path fill-rule="evenodd" clip-rule="evenodd" d="M11.8995 4.00104C12.4555 3.99551 13.0141 4.00104 13.7011 4.30448L18.107 6.87124L11.8936 10.4517L5.69202 6.87124L10.1553 4.3015C10.8035 4.01175 11.3405 4.0065 11.8702 4.00133C11.88 4.00124 11.8898 4.00114 11.8995 4.00104ZM13.4191 6.60031L13.5011 6.64378L14.725 7.31284L15.4185 6.88852L13.8305 6.0144C13.2745 5.72278 12.5863 5.36862 11.8971 5.36652C11.1951 5.36437 10.492 5.71964 9.92504 6.0144L8.30248 6.94566L8.99678 7.34003L10.2662 6.64378L10.3437 6.60306C10.7869 6.36979 11.3412 6.07807 11.8949 6.07915C12.4393 6.08022 12.9831 6.36889 13.4191 6.60031ZM10.5166 8.0643L11.8949 8.86048L13.2734 8.0643C12.7979 7.78452 12.3468 7.52489 11.8963 7.52469C11.4446 7.5245 10.9934 7.78451 10.5166 8.0643Z" fill="#005F9E"/>
<path fill-rule="evenodd" clip-rule="evenodd" d="M15 16.2V17.8H19.4V19.4L23 16.2L19.4 13V14.6H15V16.2Z" stroke="#005F9E" stroke-width="2" stroke-linecap="round" stroke-linejoin="round"/>
<path fill-rule="evenodd" clip-rule="evenodd" d="M15.0008 16.2816L15.0001 17.5999C15 17.7104 15.0896 17.8 15.2001 17.8H19.1368C19.2473 17.8 19.3368 17.8895 19.3368 18V18.9632C19.3368 19.1344 19.5379 19.2265 19.6675 19.1146L22.7809 16.4279C22.8712 16.3499 22.8736 16.2106 22.786 16.1296L19.7358 13.3103C19.6077 13.1919 19.4 13.2828 19.4 13.4572V14.4C19.4 14.5105 19.3105 14.6 19.2 14.6H15.2001C15.0896 14.6 15 14.6896 15.0001 14.8001L15.0008 16.2816Z" fill="white"/>
</svg>
