<?xml version="1.0" encoding="UTF-8" standalone="no"?>
<svg
   width="32"
   height="32"
   viewBox="0 0 32 32"
   fill="none"
   version="1.1"
   id="svg22"
   xmlns="http://www.w3.org/2000/svg"
   xmlns:svg="http://www.w3.org/2000/svg">
  <defs
     id="defs26" />
  <path
     d="m 17.3262,6.06543 -9.54349,5 1.84325,2.17391 9.51484,-5.28487 z"
     fill="#0e416c"
     id="path2" />
  <path
     d="m 14.3262,18.7828 9.8914,-5.54346 -2.0883,-2.17391 -9.2543,5.34917 0.04667,0.7117 z"
     fill="#0e416c"
     id="path4" />
  <path
     d="m 24.138,15.9186 -9.6077,5.4459 0.1806,2.2852 9.3582,-5.4077 z"
     fill="#0e416c"
     id="path6" />
  <path
     d="m 14.5303,21.3645 -0.2041,-2.5817 -1.40453,-1.6565 0.45333,6.9133 1.5165,1.8954 -0.1806,-2.2853 z"
     fill="#0e416c"
     id="path8" />
  <path
     d="m 7.78271,11.06543 0.89136,7.36957 1.7661,2.1304 -0.81421,-7.32606 z"
     fill="#0e416c"
     id="path10" />
  <path
     d="M 19.1408,7.95447 9.62596,13.23934 12.92167,17.1263 12.875,16.4146 22.1293,11.06543 Z"
     fill="#acaa94"
     id="path12" />
  <path
     d="m 9.62596,13.23934 0.81421,7.32606 2.93483,3.4742 -0.45333,-6.9133 z"
     fill="#acaa94"
     id="path14" />
  <path
     d="m 24.2176,13.23934 -9.8914,5.54346 0.2041,2.5817 9.6077,-5.4459 z"
     fill="#acaa94"
     id="path16" />
  <path
     d="m 14.8915,25.935 9.1087,-5.3696 0.0689,-2.3234 -9.3582,5.4077 z"
     fill="#acaa94"
     id="path18" />
  <path
     d="m 7.78271,11.06543 -0.23204,-0.4429 -0.30579,0.16021 0.04145,0.34273 z m 9.54349,-5 0.3606,-0.34638 -0.2601,-0.27074 -0.3326,0.17422 z m 6.8914,7.17391 0.4997,0.01483 0.0063,-0.20982 -0.1455,-0.15139 z M 8.67407,18.435 l -0.49638,0.06 0.01765,0.1459 0.0938,0.1132 z m 15.32613,2.1304 0.2539,0.4308 0.2377,-0.1402 0.0081,-0.2757 z m -9.1087,5.3696 -0.3905,0.3124 0.2709,0.3385 0.3735,-0.2202 z m -2.0165,-9.5204 -0.25022,-0.4329 -0.26904,0.1555 0.02033,0.3101 z m 1.6553,4.9499 -0.4985,0.0394 z m 9.6077,-5.4459 0.4998,0.0149 z m -0.0689,2.3234 0.4998,0.0149 z m -13.62893,2.3234 -0.38495,0.3191 0.003,0.0036 z m -2.42541,-9.05707 9.54344,-5 -0.4641,-0.8858 -9.54343,5 z m 15.95834,1.29484 -9.8913,5.54343 0.4889,0.8724 9.8913,-5.54349 z m -0.2269,7.33153 -9.1087,5.3696 0.5079,0.8614 9.1087,-5.3695 z M 7.28633,11.12547 8.17769,18.495 9.17045,18.375 8.2791,11.00539 Z M 16.9656,6.41181 18.7802,8.30085 19.5014,7.60809 17.6868,5.71905 Z M 10.00733,12.91599 8.16408,10.74207 7.40135,11.38879 9.2446,13.5627 Z M 18.898,7.51737 9.38318,12.80224 9.86874,13.67644 19.3836,8.39157 Z m -0.1178,0.78348 2.9885,3.11096 0.7211,-0.69276 -2.9884,-3.11096 z m 2.9885,3.11096 2.0883,2.17391 0.7211,-0.69276 -2.0883,-2.17391 z M 13.12522,16.8474 22.3795,11.49832 21.879,10.63254 12.62478,15.9817 Z m 0.70258,1.9748 0.204,2.5817 0.9969,-0.0788 -0.204,-2.5817 z m 9.89,-5.59769 -0.0795,2.67929 0.9995,0.0297 0.0795,-2.67933 z m -8.941,8.57499 9.6078,-5.4459 -0.4931,-0.8699 -9.6078,5.4458 z m -0.745,-0.3956 0.1806,2.2852 0.9969,-0.0788 -0.1806,-2.2852 z m 0.1806,2.2852 0.1806,2.2853 0.9969,-0.0788 -0.1806,-2.2853 z m 9.4259,-7.7853 -0.069,2.3234 0.9996,0.0297 0.0689,-2.3234 z m -0.069,2.3234 -0.0689,2.3234 0.9995,0.0297 0.069,-2.3234 z m -8.6083,5.8555 9.3583,-5.4077 -0.5004,-0.8659 -9.3582,5.4077 z m -4.1359,-3.8364 -1.7661,-2.1304 -0.76986,0.6382 1.7661,2.1304 z M 9.12902,13.29457 9.94323,20.6207 10.93711,20.5102 10.1229,13.18411 Z m 6.15288,12.32803 -1.51648,-1.8954 -0.78084,0.6247 1.51642,1.8955 z m -1.52495,-1.9057 -2.93482,-3.4741 -0.76391,0.6453 2.93483,3.4741 z m -1.38088,-7.2696 0.04667,0.7117 0.99786,-0.0654 -0.04667,-0.7118 z m 0.16423,1.0023 1.40458,1.6566 0.76272,-0.6467 -1.40456,-1.6566 z m -0.11756,-0.2906 0.45333,6.9133 0.99786,-0.0655 -0.45333,-6.9132 z m 0.8803,-0.3561 -3.29571,-3.88691 -0.76273,0.64671 3.2957,3.8869 z"
     fill="#0e416c"
     id="path20" />
</svg>
