<?xml version="1.0" encoding="UTF-8" standalone="no"?>
<svg
   width="33"
   height="32"
   viewBox="0 0 33 32"
   fill="none"
   version="1.1"
   id="svg8"
   xmlns="http://www.w3.org/2000/svg"
   xmlns:svg="http://www.w3.org/2000/svg">
  <defs
     id="defs12" />
  <path
     d="m 19.3934,9.23007 6.7227,6.72273 c 0.1583,0.1583 0.2472,0.3729 0.2472,0.5968 0,0.2248 -0.0897,0.4402 -0.2491,0.5987 l -8.9237,8.8658 c -0.1227,0.1218 -0.2749,0.2098 -0.4417,0.2553 l -0.7163,0.1954 C 15.9467,26.4881 15.8583,26.5 15.7694,26.5 H 9.73139 C 9.64634,26.5 9.56138,26.49 9.48102,26.4622 9.38454,26.4288 9.25591,26.3754 9.19189,26.3114 9.12787,26.2474 9.07454,26.1188 9.04112,26.0223 9.01328,25.9419 9.0033,25.857 9.0033,25.7719 v -6.5691 c 0,-0.1974 0.05843,-0.3905 0.16795,-0.5547 L 9.54983,18.0802 C 9.58539,18.0269 9.626,17.9771 9.6711,17.9315 L 18.2796,9.23297 C 18.4271,9.08388 18.6282,9 18.8379,9 c 0.2084,0 0.4082,0.08276 0.5555,0.23007 z"
     fill="#dcedf9"
     stroke="#0e416c"
     stroke-width="1.25"
     stroke-miterlimit="10"
     id="path2" />
  <path
     d="m 12.61593,21.2427 c -0.85656,0 -1.55094,0.6971 -1.55094,1.557 0,0.8599 0.69438,1.557 1.55094,1.557 0.85656,0 1.55097,-0.6971 1.55097,-1.557 0,-0.8599 -0.69441,-1.557 -1.55097,-1.557 z"
     fill="#009ad9"
     id="path4" />
  <path
     d="m 12.61552,22.0211 c 0.42828,0 0.77547,0.3486 0.77547,0.7785 0,0.43 -0.34719,0.7785 -0.77547,0.7785 -0.42828,0 -0.77547,-0.3485 -0.77547,-0.7785 0,-0.4299 0.34719,-0.7785 0.77547,-0.7785 z"
     fill="#ffffff"
     id="path6" />
</svg>
