<?xml version="1.0" encoding="UTF-8" standalone="no"?>
<svg
   width="32"
   height="32"
   viewBox="0 0 32 32"
   version="1.1"
   id="svg21"
   xmlns="http://www.w3.org/2000/svg"
   xmlns:svg="http://www.w3.org/2000/svg"
   xmlns:sketch="http://www.bohemiancoding.com/sketch/ns">
  <!-- Generator: Sketch 3.3.1 (12002) - http://www.bohemiancoding.com/sketch -->
  <title
     id="title2">tb_unknown</title>
  <desc
     id="desc4">Created with Sketch.</desc>
  <defs
     id="defs6" />
  <g
     id="Page-1"
     stroke="none"
     stroke-width="1"
     fill="none"
     fill-rule="evenodd"
     sketch:type="MSPage"
     transform="translate(4,4)">
    <g
       id="tb_unknown"
       sketch:type="MSArtboardGroup">
      <g
         id="Group"
         sketch:type="MSLayerGroup"
         transform="translate(4,4)">
        <path
           d="M 0.265625,3.766875 12.190724,0.5 15.265625,12.233125 3.3405256,15.5 Z"
           id="Fill-20883"
           fill="#abffc0"
           sketch:type="MSShapeGroup" />
        <path
           d="M 0.265625,3.766875 12.190724,0.5 15.265625,12.233125 3.3405256,15.5 Z"
           id="Stroke-20884"
           stroke="#000000"
           stroke-width="0.75"
           stroke-linecap="round"
           sketch:type="MSShapeGroup" />
        <path
           d="M 3.640625,5.234375 5.421875,6.21875"
           id="Stroke-20885"
           stroke="#000000"
           stroke-width="0.75"
           stroke-linecap="round"
           sketch:type="MSShapeGroup" />
        <path
           d="m 4.015625,6.640625 1.03125,-1.78125"
           id="Stroke-20886"
           stroke="#000000"
           stroke-width="0.75"
           stroke-linecap="round"
           sketch:type="MSShapeGroup" />
        <path
           d="M 9.125,3.734375 10.90625,4.71875"
           id="Stroke-20887"
           stroke="#000000"
           stroke-width="0.75"
           stroke-linecap="round"
           sketch:type="MSShapeGroup" />
        <path
           d="m 9.5,5.140625 1.03125,-1.78125"
           id="Stroke-20888"
           stroke="#000000"
           stroke-width="0.75"
           stroke-linecap="round"
           sketch:type="MSShapeGroup" />
        <path
           d="M 6.5,7.3180528 C 6.7805251,7.8512861 7.4028036,8.1147924 7.9980916,7.9524337 8.5933797,7.790075 9.0027339,7.2452713 8.9837407,6.640625"
           id="Stroke-20889"
           stroke="#000000"
           stroke-width="0.75"
           stroke-linecap="round"
           sketch:type="MSShapeGroup" />
        <path
           d="m 9.3581571,10.085426 c -0.2340848,0.653803 -0.013269,1.386648 0.5406482,1.793465 0.5536667,0.406816 1.3052417,0.388336 1.8391307,-0.0452 0.533888,-0.433539 0.719904,-1.176497 0.455276,-1.818064"
           id="Fill-20890"
           fill="#e72b2d"
           sketch:type="MSShapeGroup" />
        <path
           d="m 9.3581571,10.085426 c -0.2340848,0.653803 -0.013269,1.386648 0.5406482,1.793465 0.5536667,0.406816 1.3052417,0.388336 1.8391307,-0.0452 0.533888,-0.433539 0.719904,-1.176497 0.455276,-1.818064"
           id="Stroke-20891"
           stroke="#000000"
           stroke-width="0.75"
           stroke-linecap="round"
           sketch:type="MSShapeGroup" />
        <path
           d="M 4.25,13.0625 C 6.3200453,10.472698 9.848844,9.3040233 13.0625,10.144164"
           id="Stroke-20892"
           stroke="#000000"
           stroke-width="0.75"
           stroke-linecap="round"
           sketch:type="MSShapeGroup" />
      </g>
    </g>
  </g>
</svg>
