<?xml version="1.0" encoding="UTF-8" standalone="no"?>
<svg
   width="32"
   height="32"
   viewBox="0 0 32 32"
   fill="none"
   version="1.1"
   id="svg16"
   xmlns="http://www.w3.org/2000/svg"
   xmlns:svg="http://www.w3.org/2000/svg">
  <defs
     id="defs20" />
  <path
     fill-rule="evenodd"
     clip-rule="evenodd"
     d="M 16.913,13.38139 8.73645,16.8941 c -0.15232,0.0654 -0.22275,0.242 -0.15731,0.3943 0.06544,0.1523 0.24197,0.2227 0.39429,0.1573 l 8.17647,-3.51271 c 0.1524,-0.06544 0.2228,-0.24197 0.1574,-0.39429 -0.0655,-0.15232 -0.242,-0.22275 -0.3943,-0.15731 z"
     fill="#0e416c"
     id="path2" />
  <path
     fill-rule="evenodd"
     clip-rule="evenodd"
     d="m 22.7998,19.9748 -5.1955,-6.50501 c -0.1034,-0.12954 -0.2923,-0.15068 -0.4219,-0.04722 -0.1295,0.10346 -0.1506,0.29234 -0.0472,0.42188 l 5.1955,6.50505 c 0.1035,0.1295 0.2924,0.1506 0.4219,0.0472 0.1295,-0.1035 0.1507,-0.2924 0.0472,-0.4219 z"
     fill="#0e416c"
     id="path4" />
  <path
     fill-rule="evenodd"
     clip-rule="evenodd"
     d="m 17.4119,6.34473 -0.3421,7.29836 0.5997,0.02811 0.3421,-7.29836 z"
     fill="#0e416c"
     id="path6" />
  <path
     fill-rule="evenodd"
     clip-rule="evenodd"
     d="M 25.1119,14.7025 22.9088,20.7943 13.3702,25.9999 13.22622,25.737 8.47469,17.057 6.03662,10.66235 17.6424,6 Z m -7.6448,-7.98502 -10.65948,4.28218 2.21086,5.80624 4.59033,8.3799 8.81279,-4.8095 2.0067,-5.5486 z"
     fill="#0e416c"
     id="path8" />
  <path
     fill-rule="evenodd"
     clip-rule="evenodd"
     d="M 6.5148,10.48486 6,10.79374 l 6.14349,10.23916 12.91991,-6.12 -0.257,-0.5425 -12.4281,5.887 z"
     fill="#0e416c"
     id="path10" />
  <path
     fill-rule="evenodd"
     clip-rule="evenodd"
     d="m 11.96973,20.7185 1.21527,4.8388 0.58226,-0.1462 -1.21527,-4.8388 z"
     fill="#0e416c"
     id="path12" />
  <path
     fill-rule="evenodd"
     clip-rule="evenodd"
     d="M 17.6699,13.98903 17.8955,6.36786 17.2954,6.3501 17.0698,13.97127 Z"
     fill="#0e416c"
     id="path14" />
</svg>
