<?xml version="1.0" encoding="UTF-8" standalone="no"?>
<svg
   width="32"
   height="32"
   viewBox="0 0 32 32"
   fill="none"
   version="1.1"
   id="svg21"
   xmlns="http://www.w3.org/2000/svg"
   xmlns:svg="http://www.w3.org/2000/svg">
  <g
     clip-path="url(#clip0_24818_11494)"
     id="g14"
     transform="translate(4,4)">
    <line
       x1="17.496"
       y1="7.4397001"
       x2="17.496"
       y2="22.0334"
       stroke="#009ad9"
       stroke-width="0.5"
       id="line2" />
    <path
       d="m 9.65821,5.10938 c 0.20794,-0.2452 2.12169,0.141 2.65979,0.25535 0.0901,0.01914 0.1658,0.07643 0.2104,0.15697 l 0.5733,1.03353 1.0295,2.4888 c 0.0178,0.04306 0.0438,0.08096 0.0784,0.11222 0.2906,0.26279 1.765,1.56845 3.1811,2.31785 0.0444,0.0235 0.0837,0.0564 0.1106,0.0989 0.511,0.8078 -0.3585,1.6313 -0.9431,1.4364 -1.5,-0.7002 -3.2335,-2.0997 -3.5,-2.3 -0.2664,-0.2002 -0.5259,-0.3726 -0.5259,-0.3726 v 1.9014 c 0,0.0643 0.0193,0.1271 0.0553,0.1804 l 1.9394,2.8701 0.519,0.8995 c 0.0081,0.0141 0.0142,0.0264 0.0201,0.0415 0.1141,0.2925 1.427,3.6648 1.988,5.2751 0.0585,0.1681 -0.0328,0.3503 -0.2016,0.4066 l -1.5224,0.5075 C 15.175,22.4706 15.0059,22.398 14.9364,22.2501 L 12.7733,17.6415 C 12.7633,17.6201 12.751,17.6 12.7365,17.5813 l -1.6783,-2.1718 c 0,1.9497 -1.95987,3.051 -2.9272,6.9897 -0.04201,0.171 -0.21125,0.2815 -0.38367,0.2456 L 5.97115,22.2747 c -0.17324,-0.0361 -0.2855,-0.2049 -0.24373,-0.3769 0.43413,-1.7872 1.5389,-3.839 1.70873,-4.1485 0.01511,-0.0275 0.02552,-0.0554 0.03233,-0.0861 l 0.98971,-4.4537 0.09961,-0.9959 5.2e-4,-0.005 C 8.56937,12.1209 9.41752,5.3932 9.65821,5.10938 Z"
       fill="#0e416c"
       id="path4" />
    <path
       d="m 8.45819,13.2095 1.0953,1.1948 c 0.00315,0.0035 0.00615,0.0066 0.0095,0.0099 0.05321,0.0517 0.55161,0.5235 1.49521,0.9953 m -2.60001,-2.2 -0.98971,4.4537 c -0.00681,0.0307 -0.01722,0.0586 -0.03233,0.0861 -0.16983,0.3095 -1.2746,2.3613 -1.70873,4.1485 -0.04177,0.172 0.07049,0.3408 0.24374,0.3769 l 1.77617,0.3701 c 0.17242,0.0359 0.34166,-0.0746 0.38367,-0.2457 0.96733,-3.9386 2.9272,-5.0399 2.9272,-6.9896 m -2.60001,-2.2 0.09961,-0.9959 c 2.7e-4,-0.0028 1.7e-4,-0.0023 5.2e-4,-0.005 0.01105,-0.0877 0.8592,-6.8154 1.09989,-7.09922 0.20794,-0.2452 2.12169,0.141 2.65979,0.25535 0.0901,0.01914 0.1658,0.07643 0.2104,0.15697 l 0.5733,1.03353 m 0,0 -0.0435,0.85417 -0.5259,2.9274 m 0.5694,-3.78157 1.0295,2.4888 c 0.0178,0.04306 0.0438,0.08096 0.0784,0.11222 0.2906,0.26279 1.765,1.56845 3.1811,2.31785 0.0444,0.0235 0.0837,0.0564 0.1106,0.0989 0.511,0.8078 -0.3585,1.6313 -0.9431,1.4364 -1.5,-0.7002 -3.2335,-2.0997 -3.5,-2.3 -0.2664,-0.2002 -0.5259,-0.3726 -0.5259,-0.3726 m 0,0 v 1.9014 c 0,0.0643 0.0193,0.1271 0.0553,0.1804 l 1.9394,2.8701 0.519,0.8995 c 0.0081,0.0141 0.0142,0.0264 0.0201,0.0415 0.1141,0.2925 1.427,3.6648 1.988,5.2751 0.0585,0.1681 -0.0328,0.3503 -0.2016,0.4066 l -1.5224,0.5075 C 15.175,22.4706 15.0059,22.398 14.9364,22.2501 L 12.7733,17.6415 C 12.7633,17.6201 12.751,17.6 12.7365,17.5813 l -1.6783,-2.1718"
       stroke="#ffffff"
       stroke-width="0.5"
       id="path6" />
    <circle
       cx="11.6709"
       cy="3.1709399"
       r="1.99871"
       transform="rotate(-16.3858,11.6709,3.17094)"
       fill="#0e416c"
       stroke="#ffffff"
       stroke-width="0.5"
       id="circle8" />
    <path
       d="M 8.22817,5.86927 C 7.68305,5.79204 7.165,6.13042 7.01665,6.66062 L 5.9598,10.4378 c -0.22499,0.8041 0.33554,1.6149 1.16727,1.6885 0.70083,0.062 1.32938,-0.4308 1.43631,-1.1262 L 9.15946,7.12338 C 9.2524,6.51895 8.83365,5.95506 8.22817,5.86927 Z"
       fill="#ff0404"
       stroke="#ffffff"
       stroke-width="0.25"
       id="path10" />
    <path
       d="M 4.99988,22.342 H 19.9999"
       stroke="#0e416c"
       stroke-width="0.61147"
       stroke-linecap="round"
       id="path12" />
  </g>
  <defs
     id="defs19">
    <clipPath
       id="clip0_24818_11494">
      <rect
         width="24"
         height="24"
         fill="#ffffff"
         id="rect16"
         x="0"
         y="0" />
    </clipPath>
  </defs>
</svg>
