<?xml version="1.0" encoding="UTF-8" standalone="no"?>
<svg
   width="32"
   height="32"
   viewBox="0 0 32 32"
   fill="none"
   version="1.1"
   id="svg35"
   sodipodi:docname="tb_xray2.svg"
   inkscape:version="1.1.2 (b8e25be833, 2022-02-05)"
   xmlns:inkscape="http://www.inkscape.org/namespaces/inkscape"
   xmlns:sodipodi="http://sodipodi.sourceforge.net/DTD/sodipodi-0.dtd"
   xmlns="http://www.w3.org/2000/svg"
   xmlns:svg="http://www.w3.org/2000/svg">
  <defs
     id="defs39" />
  <sodipodi:namedview
     id="namedview37"
     pagecolor="#ffffff"
     bordercolor="#000000"
     borderopacity="0.25"
     inkscape:pageshadow="2"
     inkscape:pageopacity="0.0"
     inkscape:pagecheckerboard="0"
     showgrid="false"
     showguides="false"
     width="25px"
     units="px"
     inkscape:zoom="51.083333"
     inkscape:cx="16.67863"
     inkscape:cy="25.272431"
     inkscape:window-width="2560"
     inkscape:window-height="1506"
     inkscape:window-x="-11"
     inkscape:window-y="-11"
     inkscape:window-maximized="1"
     inkscape:current-layer="svg35" />
  <path
     d="m 17.2734,14.2422 0.0469,-8.16408 6.9063,7.14844 -0.3828,7.33594 z"
     fill="#98afc0"
     id="path25" />
  <path
     d="m 7.77734,11.06641 9.54296,-4.9961 -0.0547,8.16409 6.5782,6.332 -8.9493,5.3555 -0.5664,-7.1407 z"
     fill="#cfe1ee"
     id="path27" />
  <path
     d="M 14.3242,18.7773 7.77734,11.06641 8.67578,18.457 14.8945,25.9375 Z"
     fill="#90a5b5"
     id="path29" />
  <path
     d="m 17.3203,6.07422 -0.0547,8.16018 m 0,0 -8.56248,4.2031 m 8.56248,-4.2031 6.5625,6.3125"
     stroke="#6a6e79"
     stroke-width="0.5"
     id="path31" />
  <path
     d="m 7.78271,11.06543 9.54349,-5 6.8914,7.17391 M 7.78271,11.06543 14.3262,18.7828 m -6.54349,-7.71737 0.89136,7.36957 6.21743,7.5 m 9.3261,-12.69566 -9.8914,5.54346 m 9.8914,-5.54346 -0.2174,7.32606 -9.1087,5.3696 m -0.5653,-7.1522 0.5653,7.1522"
     stroke="#0e416c"
     id="path33" />
</svg>
