<?xml version="1.0" encoding="UTF-8" standalone="no"?>
<svg
   width="32"
   height="32"
   viewBox="0 0 32 32"
   fill="none"
   version="1.1"
   id="svg27"
   xmlns="http://www.w3.org/2000/svg"
   xmlns:svg="http://www.w3.org/2000/svg">
  <g
     clip-path="url(#clip0_24833_14892)"
     id="g20"
     transform="translate(4,4)">
    <path
       fill-rule="evenodd"
       clip-rule="evenodd"
       d="m 3.73195,6.27418 c -0.07811,-0.0781 -0.20474,-0.0781 -0.28285,0 L 2.77213,6.95115 C 2.66386,7.05942 2.47906,7.01085 2.43803,6.86334 L 0.989471,1.65637 C 0.947778,1.5065 1.08563,1.3685 1.23554,1.41002 L 6.4474,2.85368 c 0.14766,0.0409 0.19637,0.22583 0.08804,0.33417 L 5.85327,3.87002 c -0.07811,0.0781 -0.07811,0.20473 0,0.28284 l 1.8338,1.8338 c 0.0781,0.07811 0.07811,0.20474 0,0.28285 L 5.84859,8.10798 c -0.0781,0.07811 -0.20474,0.07811 -0.28284,0 z"
       fill="#ff0404"
       id="path2" />
    <path
       d="M 6.4474,2.85368 6.40069,3.02233 Z M 2.43803,6.86334 2.60662,6.81643 Z M 2.89587,7.0749 3.57285,6.39792 3.32536,6.15044 2.64839,6.82741 Z M 0.820873,1.70327 2.26943,6.91024 2.60662,6.81643 1.15807,1.60947 Z M 6.49412,2.68503 1.28226,1.24137 1.18883,1.57867 6.40069,3.02233 Z M 5.97701,3.99376 6.65918,3.31159 6.41169,3.0641 5.72952,3.74627 Z M 5.72952,4.2766 7.56333,6.11041 7.81081,5.86292 5.97701,4.02912 Z M 7.56333,6.14576 5.72485,7.98424 5.97234,8.23173 7.81081,6.39325 Z M 5.68949,7.98424 3.85569,6.15044 3.6082,6.39792 5.44201,8.23173 Z m 0.03536,0 C 5.71509,7.994 5.69926,7.994 5.68949,7.98424 L 5.44201,8.23173 c 0.14644,0.14644 0.38388,0.14644 0.53033,0 z M 7.56333,6.11041 c 0.00976,0.00976 0.00976,0.02559 0,0.03535 l 0.24748,0.24749 c 0.14645,-0.14645 0.14645,-0.38388 0,-0.53033 z M 5.72952,3.74627 c -0.14644,0.14645 -0.14644,0.38389 0,0.53033 L 5.97701,4.02912 c -0.00976,-0.00977 -0.00976,-0.0256 0,-0.03536 z M 6.40069,3.02233 c 0.01846,0.00512 0.02454,0.02823 0.011,0.04177 L 6.65918,3.31159 C 6.86231,3.10846 6.77097,2.76172 6.49412,2.68503 Z M 1.15807,1.60947 C 1.15286,1.59073 1.17009,1.57348 1.18883,1.57867 L 1.28226,1.24137 C 1.00117,1.16351 0.742699,1.42227 0.820873,1.70327 Z m 2.41478,4.78845 c 0.00976,-0.00976 0.02559,-0.00976 0.03535,0 L 3.85569,6.15044 c -0.14645,-0.14645 -0.38388,-0.14645 -0.53033,0 z M 2.64839,6.82741 C 2.63485,6.84094 2.61175,6.83487 2.60662,6.81643 L 2.26943,6.91024 C 2.34637,7.18682 2.69287,7.2779 2.89587,7.0749 Z"
       fill="#ffffff"
       id="path4" />
    <path
       fill-rule="evenodd"
       clip-rule="evenodd"
       d="m 17.1605,4.50074 c 0.0781,-0.0781 0.0781,-0.20473 0,-0.28284 L 16.4837,3.54105 C 16.3754,3.43278 16.424,3.24798 16.5715,3.20695 l 5.2069,-1.44856 c 0.1499,-0.04169 0.2879,0.09616 0.2464,0.24607 L 20.5811,7.21632 C 20.5402,7.36398 20.3553,7.41269 20.247,7.30436 l -0.6823,-0.6823 c -0.0781,-0.0781 -0.2048,-0.0781 -0.2829,0 l -1.8339,1.83393 c -0.0781,0.07811 -0.2047,0.07811 -0.2828,0 L 15.3266,6.61751 c -0.0781,-0.0781 -0.0781,-0.20473 0,-0.28284 z"
       fill="#ff0404"
       id="path6" />
    <path
       d="m 20.5811,7.21632 0.1687,0.04672 z M 22.0248,2.00446 21.8561,1.95775 Z m -5.4533,1.20249 0.0469,0.16859 z m -0.2116,0.45784 0.6769,0.67686 0.2475,-0.24749 -0.6769,-0.67685 z m 5.3716,-2.075 -5.2069,1.44856 0.0938,0.33719 5.2069,-1.44855 z M 20.7498,7.26304 22.1934,2.05118 21.8561,1.95775 20.4125,7.16961 Z M 19.4409,6.74581 20.1232,7.4281 20.3707,7.18061 19.6884,6.49832 Z M 19.1581,6.49832 17.3242,8.33225 17.5717,8.57973 19.4056,6.74581 Z M 17.2888,8.33225 15.4503,6.49377 15.2028,6.74126 17.0413,8.57974 Z M 15.4503,6.45841 17.2843,4.62449 17.0368,4.377 15.2028,6.21093 Z m 0,0.03536 c -0.0097,-0.00976 -0.0097,-0.02559 0,-0.03536 L 15.2028,6.21093 c -0.1464,0.14644 -0.1464,0.38388 0,0.53033 z m 1.8739,1.83848 c -0.0098,0.00976 -0.0256,0.00976 -0.0354,0 l -0.2475,0.24749 c 0.1465,0.14644 0.3839,0.14644 0.5304,-10e-6 z m 2.3642,-1.83393 c -0.1464,-0.14645 -0.3839,-0.14645 -0.5303,0 l 0.2475,0.24749 c 0.0097,-0.00976 0.0256,-0.00976 0.0353,0 z m 0.7241,0.67129 c -0.0051,0.01846 -0.0282,0.02455 -0.0418,0.011 L 20.1232,7.4281 c 0.2032,0.20313 0.5499,0.11179 0.6266,-0.16506 z m 1.4128,-5.24262 c 0.0188,-0.00521 0.036,0.01202 0.0308,0.03076 l 0.3373,0.09343 C 22.2713,1.77009 22.0125,1.51162 21.7315,1.58979 Z m -4.7885,2.41466 c 0.0097,0.00976 0.0097,0.02559 0,0.03535 l 0.2475,0.24749 c 0.1464,-0.14645 0.1464,-0.38389 0,-0.53033 z M 16.6074,3.41731 C 16.5939,3.40377 16.5999,3.38067 16.6184,3.37554 L 16.5246,3.03835 C 16.248,3.11529 16.1569,3.46179 16.3599,3.66479 Z"
       fill="#ffffff"
       id="path8" />
    <path
       fill-rule="evenodd"
       clip-rule="evenodd"
       d="m 19.8694,17.295 c 0.0781,0.0781 0.2047,0.0781 0.2828,0 l 0.677,-0.6769 c 0.1083,-0.1083 0.2931,-0.0597 0.3341,0.0878 l 1.4485,5.2069 c 0.0417,0.1499 -0.0961,0.2879 -0.246,0.2464 l -5.2119,-1.4437 c -0.1476,-0.0409 -0.1964,-0.2258 -0.088,-0.3341 l 0.6822,-0.6822 c 0.0781,-0.0781 0.0781,-0.2047 0,-0.2828 l -1.8339,-1.8339 c -0.0781,-0.0781 -0.0781,-0.2047 0,-0.2828 l 1.8385,-1.8385 c 0.0781,-0.0781 0.2048,-0.0781 0.2829,0 z"
       fill="#ff0404"
       id="path10" />
    <path
       d="m 15.9142,17.5825 0.1238,-0.1237 z m 1.8339,1.8339 -0.1238,0.1237 z m 2.1213,-2.1214 0.1237,-0.1237 z m 1.2939,-0.5891 -0.1686,0.0469 z m -0.4579,-0.2116 -0.6769,0.677 0.2475,0.2475 0.6769,-0.677 z m 2.075,5.3716 -1.4485,-5.2069 -0.3372,0.0938 1.4486,5.2069 z m -5.6732,-0.9817 5.2119,1.4436 0.0934,-0.3373 -5.2119,-1.4436 z m 0.5171,-1.3087 -0.6822,0.6821 0.2475,0.2475 0.6822,-0.6822 z m 0.2475,-0.2829 -1.8338,-1.8338 -0.2475,0.2475 1.8338,1.8338 z M 16.038,17.4235 17.8765,15.585 17.629,15.3375 15.7905,17.176 Z m 1.8738,-1.8385 1.8338,1.8338 0.2475,-0.2475 -1.8338,-1.8338 z m -0.0353,0 c 0.0097,-0.0098 0.0256,-0.0098 0.0353,0 l 0.2475,-0.2475 c -0.1464,-0.1465 -0.3839,-0.1465 -0.5303,0 z m -1.8385,1.8738 c -0.0098,-0.0098 -0.0098,-0.0256 0,-0.0353 L 15.7905,17.176 c -0.1464,0.1464 -0.1464,0.3838 0,0.5303 z m 1.8338,2.3641 c 0.1464,-0.1464 0.1464,-0.3838 0,-0.5303 l -0.2475,0.2475 c 0.0098,0.0098 0.0098,0.0256 0,0.0354 z m -0.6712,0.724 c -0.0184,-0.0051 -0.0245,-0.0282 -0.011,-0.0418 l -0.2475,-0.2475 c -0.2031,0.2032 -0.1117,0.5499 0.1651,0.6266 z m 5.2427,1.4128 c 0.0052,0.0188 -0.0121,0.036 -0.0308,0.0308 l -0.0934,0.3373 c 0.2811,0.0779 0.5395,-0.1809 0.4613,-0.4619 z m -2.4148,-4.7884 c -0.0098,0.0098 -0.0256,0.0098 -0.0354,0 l -0.2475,0.2475 c 0.1465,0.1464 0.3839,0.1464 0.5304,0 z m 0.9244,-0.4295 c 0.0136,-0.0135 0.0367,-0.0075 0.0418,0.011 l 0.3372,-0.0938 c -0.077,-0.2766 -0.4235,-0.3677 -0.6265,-0.1647 z"
       fill="#ffffff"
       id="path12" />
    <path
       d="M 7.02136,17.0518 8.41871,15.6544"
       stroke="#0e416c"
       stroke-width="0.939394"
       stroke-linecap="square"
       id="path14" />
    <path
       d="M 2.60144,21.4733 7.02301,17.0518"
       stroke="#0e416c"
       stroke-width="1.87879"
       stroke-linecap="round"
       id="path16" />
    <circle
       cx="11.4319"
       cy="12.1491"
       r="4.4330401"
       stroke="#0e416c"
       stroke-width="0.939394"
       id="circle18" />
  </g>
  <defs
     id="defs25">
    <clipPath
       id="clip0_24833_14892">
      <rect
         width="24"
         height="24"
         fill="#ffffff"
         id="rect22"
         x="0"
         y="0" />
    </clipPath>
  </defs>
</svg>
