<svg xmlns="http://www.w3.org/2000/svg" width="32" height="32" viewBox="0 0 32 32">
  <path fill="#000000" d="M12.2105263,15.5652173 L12.2105263,12.9565216 C12.2105263,11.6851828 12.5538298,10.4954829 13.2961196,9.72079021 C14.1609011,8.81825864 14.6208532,8.60869565 15.9999999,8.60869565 C17.3791466,8.60869565 17.8390987,8.81825865 18.7038802,9.72079021 C19.44617,10.4954829 19.7894734,11.6851827 19.7894734,12.9565216 L19.7894734,15.5652173 L12.2105263,15.5652173 Z M18.1052629,13.8260868 L18.1052629,12.9565216 C18.1052629,12.1007121 17.8855988,11.3394779 17.5066458,10.9439826 C16.9500462,10.3630859 16.9165537,10.3478261 15.9999999,10.3478261 C15.0834461,10.3478261 15.0499536,10.3630859 14.493354,10.9439826 C14.1144009,11.339478 13.8947368,12.1007122 13.8947368,12.9565216 L13.8947368,13.8260868 L18.1052629,13.8260868 Z M22.3157895,16.4347826 L22.3157895,15.8912972 C22.3157895,15.7430788 22.3157895,15.6352831 22.3157895,15.5436567 L20.6315787,15.5652174 L20.6315787,12.9565217 C20.6315787,11.4582583 20.1359692,10.1794876 19.1908563,9.19311793 C17.9917821,7.94170092 17.6030674,7.73913043 15.9999999,7.73913043 C14.3969324,7.73913043 14.0082177,7.94170092 12.8091434,9.19311793 C11.8640305,10.1794876 11.368421,11.4582583 11.368421,12.9565217 L11.368421,15.5652174 L9.6842105,15.5652174 L9.6842105,24.2608696 L22.3157895,24.2608696 L22.3157895,16.4347826 Z M24,13.826087 L24,14.6956522 L24,15.8912972 L24,16.4347826 L24,26 L8,26 L8,13.826087 L9.6842105,13.826087 L9.6842105,12.9565217 C9.6842105,11.0059273 10.3507407,9.28614719 11.6119091,7.96992554 C13.1030158,6.41372804 13.896923,6 15.9999999,6 C18.1030768,6 18.896984,6.41372804 20.3880907,7.96992554 C21.649259,9.28614719 22.3157892,11.0059273 22.3157892,12.9565217 L22.3157892,13.826087 L24,13.826087 Z"/>
</svg>
