<svg xmlns="http://www.w3.org/2000/svg" width="32" height="32" viewBox="0 0 32 32">
  <path fill="#000000" d="M2.36294108,8.34152568 C2.89692723,9.0816178 3.5350805,9.82279462 4.27387076,10.5131041 C6.3622955,12.4644826 8.81783097,13.6247337 11.6385488,13.6247337 C14.4596882,13.6247337 16.9209825,12.4637488 19.0183109,10.5111815 C19.7602663,9.82043716 20.4017538,9.07880359 20.9390366,8.33825158 C21.1012468,8.11467273 21.2353769,7.91786765 21.3410974,7.75473465 C21.2452953,7.5919698 21.1233274,7.396016 20.9750166,7.17361308 C20.4770411,6.42686238 19.8712902,5.67890386 19.1576543,4.98226346 C17.1370101,3.00974173 14.6759586,1.83614518 11.7376294,1.83614518 C8.79643964,1.83614518 6.30021807,3.01270375 4.22546965,4.98997602 C3.49264396,5.68837198 2.86671632,6.43813676 2.34881873,7.18670108 C2.19543284,7.40840359 2.0687775,7.603943 1.96883919,7.76669868 C2.07298772,7.92806785 2.20445056,8.12186158 2.36294108,8.34152568 Z M1.00589411,6.25759264 C1.58391359,5.42212872 2.28038344,4.58786525 3.09886801,3.80783485 C5.45643461,1.5610318 8.33736717,0.203145182 11.7376294,0.203145182 C15.1407521,0.203145182 17.9930431,1.5633113 20.2983612,3.81372735 C21.0988121,4.59511517 21.7755764,5.43075831 22.3336358,6.26760927 C22.6718642,6.77480771 22.8982945,7.17578068 23.0166189,7.41820594 L23.2025789,7.79920408 L22.9979218,8.17049397 C22.8675882,8.40694598 22.6217375,8.79973497 22.2608058,9.2972172 C21.6647713,10.1187483 20.9551107,10.9391979 20.1310314,11.7063978 C17.7539753,13.9193856 14.91667,15.2577337 11.6385488,15.2577337 C8.36000612,15.2577337 5.5274408,13.9193343 3.15897895,11.7062953 C2.33785889,10.9390587 1.6314258,10.1185789 1.0386563,9.29701446 C0.679686292,8.79949055 0.435380082,8.4066392 0.305949238,8.1700865 L0.0982218998,7.79043617 L0.295794635,7.40540365 C0.419718318,7.16389944 0.6556436,6.76384145 1.00589411,6.25759264 Z" transform="translate(4.68 8.94)"/>
</svg>
