<svg xmlns="http://www.w3.org/2000/svg" width="32" height="32" viewBox="0 0 32 32">
  <path fill="#000000" d="M24.3333333,11.4015152 C24.3333333,10.0768587 23.9065142,8.96836311 23.0407741,8.03418502 C22.1867329,7.11263069 21.1920018,6.66666667 20.0064103,6.66666667 C18.8799367,6.66666667 17.3197834,7.32647174 16.5892557,8.05699951 C15.8492014,8.79705374 15.1666667,10.4437637 15.1666667,11.6666667 L15.1666667,15 L7.66666667,15 L7.66666667,23.3333333 L17.6666667,23.3333333 L17.6666667,15 L16,15 L16,11.6666665 C16,10.4799194 16.3654068,9.23117841 17.0554475,8.48658903 C17.7556049,7.73108327 18.8405366,7.38636355 20.0064104,7.38636355 C21.0550894,7.38636355 21.9705975,7.79570629 22.7024651,8.58542909 C23.4226252,9.36251884 23.7884615,10.3151971 23.7884615,11.4015152 L23.7884615,15.3787879 L24.3333333,15.3787879 L24.3333333,11.4015152 Z M13.5,11.6666667 C13.5,10.0015978 14.3582272,7.93100531 15.4107443,6.8784882 C16.4507529,5.83847962 18.4333941,5 20.0064103,5 C21.6620455,5 23.0976788,5.64363209 24.2632123,6.90130267 C25.4170469,8.14634949 26,9.66034184 26,11.4015152 L26,15.4166667 C26,15.8419487 25.8478664,16.2307486 25.5590356,16.5424118 C25.2585521,16.866649 24.86609,17.0454545 24.4294872,17.0454545 L23.6923077,17.0454545 C23.2557049,17.0454545 22.8632428,16.866649 22.5627592,16.5424118 C22.2739285,16.2307486 22.1217949,15.8419487 22.1217949,15.4166667 L22.1217949,11.4015152 C22.1217949,10.7311957 21.9117155,10.1841256 21.4800269,9.71831144 C21.0600457,9.26513015 20.5856774,9.05303021 20.0064104,9.05303021 C19.2613431,9.05303021 18.6114699,9.25951705 18.2778858,9.61947139 C17.9162324,10.009714 17.6666667,10.8625797 17.6666667,11.6666665 L17.6666667,13.3333333 L19.3333333,13.3333333 L19.3333333,25 L6,25 L6,13.3333333 L13.5,13.3333333 L13.5,11.6666667 Z"/>
</svg>
