<svg xmlns="http://www.w3.org/2000/svg" width="32" height="32" viewBox="0 0 32 32">
  <g fill="#000000" fill-rule="evenodd" transform="translate(5.68 9.94)">
    <path fill-rule="nonzero" d="M1.36294108,7.34152568 C1.89692723,8.0816178 2.5350805,8.82279462 3.27387076,9.5131041 C5.3622955,11.4644826 7.81783097,12.6247337 10.6385488,12.6247337 C13.4596882,12.6247337 15.9209825,11.4637488 18.0183109,9.51118151 C18.7602663,8.82043716 19.4017538,8.07880359 19.9390366,7.33825158 C20.1012468,7.11467273 20.2353769,6.91786765 20.3410974,6.75473465 C20.2452953,6.5919698 20.1233274,6.396016 19.9750166,6.17361308 C19.4770411,5.42686238 18.8712902,4.67890386 18.1576543,3.98226346 C16.1370101,2.00974173 13.6759586,0.836145182 10.7376294,0.836145182 C7.79643964,0.836145182 5.30021807,2.01270375 3.22546965,3.98997602 C2.49264396,4.68837198 1.86671632,5.43813676 1.34881873,6.18670108 C1.19543284,6.40840359 1.0687775,6.603943 0.968839186,6.76669868 C1.07298772,6.92806785 1.20445056,7.12186158 1.36294108,7.34152568 Z M0.00589411244,5.25759264 C0.583913589,4.42212872 1.28038344,3.58786525 2.09886801,2.80783485 C4.45643461,0.561031804 7.33736717,-0.796854818 10.7376294,-0.796854818 C14.1407521,-0.796854818 16.9930431,0.563311304 19.2983612,2.81372735 C20.0988121,3.59511517 20.7755764,4.43075831 21.3336358,5.26760927 C21.6718642,5.77480771 21.8982945,6.17578068 22.0166189,6.41820594 L22.2025789,6.79920408 L21.9979218,7.17049397 C21.8675882,7.40694598 21.6217375,7.79973497 21.2608058,8.2972172 C20.6647713,9.11874834 19.9551107,9.93919792 19.1310314,10.7063978 C16.7539753,12.9193856 13.91667,14.2577337 10.6385488,14.2577337 C7.36000612,14.2577337 4.5274408,12.9193343 2.15897895,10.7062953 C1.33785889,9.93905866 0.631425798,9.11857891 0.0386563037,8.29701446 C-0.320313708,7.79949055 -0.564619918,7.4066392 -0.694050762,7.1700865 L-0.9017781,6.79043617 L-0.704205365,6.40540365 C-0.580281682,6.16389944 -0.3443564,5.76384145 0.00589411244,5.25759264 Z"/>
    <path d="M10.6343791,10.0336613 C7.93935884,10.0336613 5.75461324,7.8085165 5.75461324,5.0636613 C5.75461324,2.31880609 7.93935884,0.0936612956 10.6343791,0.0936612956 C13.3293994,0.0936612956 15.514145,2.31880609 15.514145,5.0636613 C15.514145,7.8085165 13.3293994,10.0336613 10.6343791,10.0336613 Z M9.75953177,4.26 C10.6578719,4.26 11.3861204,3.51828507 11.3861204,2.60333333 C11.3861204,1.6883816 10.6578719,0.946666667 9.75953177,0.946666667 C8.86119168,0.946666667 8.13294314,1.6883816 8.13294314,2.60333333 C8.13294314,3.51828507 8.86119168,4.26 9.75953177,4.26 Z"/>
  </g>
</svg>
