<?xml version="1.0" encoding="utf-8"?>
<!-- Generator: Adobe Illustrator 26.0.0, SVG Export Plug-In . SVG Version: 6.00 Build 0)  -->
<svg version="1.1" id="图层_1" xmlns="http://www.w3.org/2000/svg" xmlns:xlink="http://www.w3.org/1999/xlink" x="0px" y="0px"
	 viewBox="0 0 226.77 226.77" style="enable-background:new 0 0 226.77 226.77;" xml:space="preserve">
<style type="text/css">
	.st0{fill:#6082BB;}
	.st1{fill:#17336D;}
	.st2{fill:#040000;}
	.st3{fill:none;stroke:#6082BB;stroke-width:10;stroke-linecap:round;stroke-linejoin:round;}
	.st4{fill:none;stroke:#6082BB;stroke-width:10;stroke-linecap:round;stroke-linejoin:round;stroke-dasharray:17.9178,17.9178;}
	.st5{fill:none;stroke:#6082BB;stroke-width:7.5613;stroke-linecap:round;stroke-linejoin:round;stroke-miterlimit:10;}
	
		.st6{opacity:0.42;fill:none;stroke:#6082BB;stroke-width:7.5613;stroke-linecap:round;stroke-linejoin:round;stroke-miterlimit:10;}
	
		.st7{fill:none;stroke:#17336D;stroke-width:6.3011;stroke-linecap:round;stroke-linejoin:round;stroke-miterlimit:10;stroke-dasharray:12.6022;}
	.st8{fill:none;stroke:#6082BB;stroke-width:8.4158;stroke-linecap:round;stroke-linejoin:round;}
	.st9{fill:none;stroke:#6082BB;stroke-width:8.4158;stroke-linecap:round;stroke-linejoin:round;stroke-dasharray:12.3943,12.3943;}
	.st10{fill:none;stroke:#6082BB;stroke-width:5.6082;stroke-miterlimit:10;}
	.st11{fill:none;stroke:#6082BB;stroke-width:7.8662;stroke-linecap:round;stroke-linejoin:round;}
	
		.st12{fill:none;stroke:#6082BB;stroke-width:7.8662;stroke-linecap:round;stroke-linejoin:round;stroke-dasharray:10.4534,10.4534;}
	.st13{fill:none;stroke:#17336D;stroke-width:4.5906;stroke-linecap:round;stroke-linejoin:round;stroke-miterlimit:10;}
	.st14{fill:none;stroke:#17336D;stroke-width:5.284;stroke-linecap:round;stroke-linejoin:round;}
	
		.st15{fill:none;stroke:#17336D;stroke-width:5.284;stroke-linecap:round;stroke-linejoin:round;stroke-miterlimit:10;stroke-dasharray:10.5681;}
	.st16{fill:#FBFBFB;}
	.st17{fill:none;stroke:#17336D;stroke-width:6.0109;stroke-miterlimit:10;}
	.st18{fill:none;stroke:#536FA1;stroke-width:5.4635;stroke-linecap:round;stroke-linejoin:round;stroke-miterlimit:10;}
	.st19{fill:none;stroke:#6082BB;stroke-width:43.2453;stroke-miterlimit:10;}
	.st20{fill:none;stroke:#536FA1;stroke-width:6.1779;stroke-linecap:round;stroke-linejoin:round;stroke-miterlimit:10;}
	
		.st21{fill:none;stroke:#5270A4;stroke-width:9.6986;stroke-linecap:round;stroke-linejoin:round;stroke-miterlimit:10;stroke-dasharray:15.278;}
	.st22{fill:#E83D3D;stroke:#040000;stroke-width:0.6728;stroke-miterlimit:10;}
	.st23{fill:#52B560;stroke:#040000;stroke-width:0.6728;stroke-miterlimit:10;}
	.st24{fill:none;stroke:#17336D;stroke-width:8.0035;stroke-linecap:round;stroke-linejoin:round;stroke-miterlimit:10;}
	.st25{fill:#C1E5F1;}
	.st26{fill:none;stroke:#17336D;stroke-width:7.3915;stroke-linecap:round;stroke-linejoin:round;stroke-miterlimit:10;}
	.st27{fill:none;stroke:#17336D;stroke-width:3.6367;stroke-linecap:round;stroke-linejoin:round;stroke-miterlimit:10;}
	
		.st28{fill:none;stroke:#5270A4;stroke-width:11.5328;stroke-linecap:round;stroke-linejoin:round;stroke-miterlimit:10;stroke-dasharray:18.1673;}
</style>
<g>
	<path class="st0" d="M88.93,42.73l0.56,0.13l73.29,23.69c1.33,0.41,2.31,1.55,2.5,2.94l0.04,0.56V95c0,1.36-0.76,2.62-1.97,3.25
		l-0.54,0.23l-24.95,8.28v56.6c0,1.37-0.76,2.62-1.97,3.26l-0.54,0.22l-27.53,8.76l-24.05-7.8V87.73l-28.96-9.2V53.31l32.42-10.46
		C87.78,42.68,88.36,42.64,88.93,42.73z M107.83,95.37v72.53l22.7-7.19v-58.13L107.83,95.37z M157.99,75.09l-20.12,6.59v17.35
		l20.12-6.68V75.08V75.09z M88.35,50.2l-21.59,6.96l61.71,19.88l21.47-6.95L88.35,50.2z"/>
	<g>
		<path class="st1" d="M176.48,148.07l-21.38,6.88c-0.54,0.17-0.91,0.68-0.91,1.25v31.45c0,0.91,0.91,1.54,1.77,1.22l21.43-8.11
			c0.51-0.2,0.85-0.68,0.85-1.23l-0.06-30.21C178.18,148.42,177.31,147.81,176.48,148.07z"/>
		<path class="st1" d="M127.65,148.07l21.38,6.88c0.54,0.17,0.91,0.68,0.91,1.25v31.45c0,0.91-0.91,1.54-1.77,1.22l-21.43-8.11
			c-0.51-0.2-0.85-0.68-0.85-1.23l0.06-30.21C125.94,148.42,126.81,147.81,127.65,148.07z"/>
		<path class="st1" d="M128.21,145.07l23.82,6.92c0.2,0.21,0.64,0.27,1.09,0.15l20.94-6.53c0.72-0.19,1.11-0.73,0.75-1.05
			l-20.89-6.68c-0.22-0.19-0.63-0.24-1.07-0.13l-23.87,6.3C128.29,144.23,127.9,144.75,128.21,145.07z"/>
	</g>
</g>
</svg>
