<?xml version="1.0" encoding="utf-8"?>
<!-- Generator: Adobe Illustrator 22.1.0, SVG Export Plug-In . SVG Version: 6.00 Build 0)  -->
<svg version="1.1" id="图层_1" xmlns="http://www.w3.org/2000/svg" xmlns:xlink="http://www.w3.org/1999/xlink" x="0px" y="0px"
	 viewBox="0 0 226.8 226.8" style="enable-background:new 0 0 226.8 226.8;" xml:space="preserve">
<style type="text/css">
	.st0{fill:#6082BB;}
	.st1{fill:#17336D;}
	.st2{fill:#040000;}
	.st3{fill:none;stroke:#6082BB;stroke-width:10;stroke-linecap:round;stroke-linejoin:round;}
	.st4{fill:none;stroke:#6082BB;stroke-width:10;stroke-linecap:round;stroke-linejoin:round;stroke-dasharray:17.9178,17.9178;}
	.st5{fill:none;stroke:#6082BB;stroke-width:7.5613;stroke-linecap:round;stroke-linejoin:round;stroke-miterlimit:10;}
	
		.st6{opacity:0.42;fill:none;stroke:#6082BB;stroke-width:7.5613;stroke-linecap:round;stroke-linejoin:round;stroke-miterlimit:10;}
	
		.st7{fill:none;stroke:#17336D;stroke-width:6.3011;stroke-linecap:round;stroke-linejoin:round;stroke-miterlimit:10;stroke-dasharray:12.6022;}
	.st8{fill:none;stroke:#6082BB;stroke-width:8.4158;stroke-linecap:round;stroke-linejoin:round;}
	.st9{fill:none;stroke:#6082BB;stroke-width:8.4158;stroke-linecap:round;stroke-linejoin:round;stroke-dasharray:12.3943,12.3943;}
	.st10{fill:none;stroke:#6082BB;stroke-width:5.6082;stroke-miterlimit:10;}
	.st11{fill:none;stroke:#6082BB;stroke-width:7.8662;stroke-linecap:round;stroke-linejoin:round;}
	
		.st12{fill:none;stroke:#6082BB;stroke-width:7.8662;stroke-linecap:round;stroke-linejoin:round;stroke-dasharray:10.4534,10.4534;}
	.st13{fill:none;stroke:#17336D;stroke-width:4.5906;stroke-linecap:round;stroke-linejoin:round;stroke-miterlimit:10;}
	.st14{fill:none;stroke:#17336D;stroke-width:5.284;stroke-linecap:round;stroke-linejoin:round;}
	
		.st15{fill:none;stroke:#17336D;stroke-width:5.284;stroke-linecap:round;stroke-linejoin:round;stroke-miterlimit:10;stroke-dasharray:10.5681;}
	.st16{fill:#FBFBFB;}
	.st17{fill:none;stroke:#17336D;stroke-width:6.0109;stroke-miterlimit:10;}
	.st18{fill:none;stroke:#536FA1;stroke-width:5.4635;stroke-linecap:round;stroke-linejoin:round;stroke-miterlimit:10;}
	.st19{fill:none;stroke:#6082BB;stroke-width:43.2453;stroke-miterlimit:10;}
	.st20{fill:none;stroke:#536FA1;stroke-width:6.1779;stroke-linecap:round;stroke-linejoin:round;stroke-miterlimit:10;}
	
		.st21{fill:none;stroke:#5270A4;stroke-width:9.6986;stroke-linecap:round;stroke-linejoin:round;stroke-miterlimit:10;stroke-dasharray:15.278;}
	.st22{fill:#E83D3D;stroke:#040000;stroke-width:0.6728;stroke-miterlimit:10;}
	.st23{fill:#52B560;stroke:#040000;stroke-width:0.6728;stroke-miterlimit:10;}
	.st24{fill:none;stroke:#17336D;stroke-width:8.0035;stroke-linecap:round;stroke-linejoin:round;stroke-miterlimit:10;}
	.st25{fill:#C1E5F1;}
	.st26{fill:none;stroke:#17336D;stroke-width:7.3915;stroke-linecap:round;stroke-linejoin:round;stroke-miterlimit:10;}
	.st27{fill:none;stroke:#17336D;stroke-width:3.6367;stroke-linecap:round;stroke-linejoin:round;stroke-miterlimit:10;}
	
		.st28{fill:none;stroke:#5270A4;stroke-width:11.5328;stroke-linecap:round;stroke-linejoin:round;stroke-miterlimit:10;stroke-dasharray:18.1673;}
</style>
<g>
	<g>
		<g>
			<g>
				<g>
					<g>
						<path class="st1" d="M70.4,113.1c31.3,0,56.7,25.4,56.7,56.7l0,0c0,3.1-2.5,5.6-5.6,5.6c-3.1,0-5.6-2.5-5.6-5.6c0,0,0,0,0,0
							c0-25.1-20.4-45.5-45.5-45.5c-3.1,0-5.6-2.5-5.6-5.6C64.7,115.6,67.3,113.1,70.4,113.1C70.4,113.1,70.4,113.1,70.4,113.1z"/>
					</g>
					<path class="st0" d="M170.7,153.2c8.3,0,14.9,6.7,14.9,14.9c0,8.3-6.7,14.9-14.9,14.9c0,0,0,0,0,0c-8.3,0-14.9-6.7-14.9-14.9
						C155.7,159.8,162.4,153.2,170.7,153.2z M170.7,160.6c-4.1,0-7.5,3.3-7.5,7.5s3.3,7.5,7.5,7.5s7.5-3.3,7.5-7.5
						S174.8,160.6,170.7,160.6z"/>
					<path class="st0" d="M66.1,56.1C74.3,56.1,81,62.7,81,71s-6.7,14.9-14.9,14.9c0,0,0,0,0,0c-8.3,0-14.9-6.7-14.9-14.9
						C51.2,62.7,57.9,56.1,66.1,56.1z M66.1,63.5c-4.1,0-7.5,3.3-7.5,7.5s3.3,7.5,7.5,7.5c4.1,0,7.5-3.3,7.5-7.5
						C73.6,66.9,70.2,63.5,66.1,63.5z"/>
					<path class="st0" d="M66.1,100.9c8.3,0,14.9,6.7,14.9,14.9s-6.7,14.9-14.9,14.9c0,0,0,0,0,0c-8.3,0-14.9-6.7-14.9-14.9
						C51.2,107.6,57.9,100.9,66.1,100.9z M66.1,108.3c-4.1,0-7.5,3.3-7.5,7.5c0,4.1,3.3,7.5,7.5,7.5c0,0,0,0,0,0
						c4.1,0,7.5-3.3,7.5-7.5C73.6,111.7,70.2,108.3,66.1,108.3z"/>
					<path class="st0" d="M120,160.6c8.3,0,14.9,6.7,14.9,14.9c0,8.3-6.7,14.9-14.9,14.9c0,0,0,0,0,0c-8.3,0-14.9-6.7-14.9-14.9
						C105.1,167.3,111.8,160.6,120,160.6z M120,168.1c-4.1,0-7.5,3.3-7.5,7.5s3.3,7.5,7.5,7.5c4.1,0,7.5-3.3,7.5-7.5
						S124.2,168.1,120,168.1z"/>
				</g>
			</g>
			<path class="st1" d="M170.7,160.6c-4.1,0-7.5,3.3-7.5,7.5s3.3,7.5,7.5,7.5s7.5-3.3,7.5-7.5S174.8,160.6,170.7,160.6z"/>
			<path class="st1" d="M66.1,63.5c-4.1,0-7.5,3.3-7.5,7.5s3.3,7.5,7.5,7.5c4.1,0,7.5-3.3,7.5-7.5C73.6,66.9,70.2,63.5,66.1,63.5z"
				/>
			<path class="st1" d="M66.1,108.3c-4.1,0-7.5,3.3-7.5,7.5c0,4.1,3.3,7.5,7.5,7.5c0,0,0,0,0,0c4.1,0,7.5-3.3,7.5-7.5
				C73.6,111.7,70.2,108.3,66.1,108.3z"/>
			<path class="st1" d="M120,168.1c-4.1,0-7.5,3.3-7.5,7.5s3.3,7.5,7.5,7.5c4.1,0,7.5-3.3,7.5-7.5S124.2,168.1,120,168.1z"/>
		</g>
		<path class="st21" d="M66.1,71.8c0,0,86.6,0,104.5,95.7"/>
	</g>
	<g>
		<g>
			<g>
				<polygon class="st1" points="103.4,160.8 105.9,134.8 79.9,137.8 88.1,145.8 73.6,153.6 87.7,167.5 95.2,152.8 95.7,153.3 				
					"/>
			</g>
			<g>
				<polygon class="st1" points="103.4,160.8 105.9,134.8 79.9,137.8 88.1,145.8 73.6,153.6 87.7,167.5 95.2,152.8 95.7,153.3 				
					"/>
			</g>
		</g>
	</g>
</g>
</svg>
