<?xml version="1.0" encoding="utf-8"?>
<!-- Generator: Adobe Illustrator 22.1.0, SVG Export Plug-In . SVG Version: 6.00 Build 0)  -->
<svg version="1.1" id="图层_1" xmlns="http://www.w3.org/2000/svg" xmlns:xlink="http://www.w3.org/1999/xlink" x="0px" y="0px"
	 viewBox="0 0 226.8 226.8" style="enable-background:new 0 0 226.8 226.8;" xml:space="preserve">
<style type="text/css">
	.st0{fill:#6082BB;}
	.st1{fill:#17336D;}
	.st2{fill:#040000;}
	.st3{fill:none;stroke:#6082BB;stroke-width:10;stroke-linecap:round;stroke-linejoin:round;}
	.st4{fill:none;stroke:#6082BB;stroke-width:10;stroke-linecap:round;stroke-linejoin:round;stroke-dasharray:17.9178,17.9178;}
	.st5{fill:none;stroke:#6082BB;stroke-width:7.5613;stroke-linecap:round;stroke-linejoin:round;stroke-miterlimit:10;}
	
		.st6{opacity:0.42;fill:none;stroke:#6082BB;stroke-width:7.5613;stroke-linecap:round;stroke-linejoin:round;stroke-miterlimit:10;}
	
		.st7{fill:none;stroke:#17336D;stroke-width:6.3011;stroke-linecap:round;stroke-linejoin:round;stroke-miterlimit:10;stroke-dasharray:12.6022;}
	.st8{fill:none;stroke:#6082BB;stroke-width:8.4158;stroke-linecap:round;stroke-linejoin:round;}
	.st9{fill:none;stroke:#6082BB;stroke-width:8.4158;stroke-linecap:round;stroke-linejoin:round;stroke-dasharray:12.3943,12.3943;}
	.st10{fill:none;stroke:#6082BB;stroke-width:5.6082;stroke-miterlimit:10;}
	.st11{fill:none;stroke:#6082BB;stroke-width:7.8662;stroke-linecap:round;stroke-linejoin:round;}
	
		.st12{fill:none;stroke:#6082BB;stroke-width:7.8662;stroke-linecap:round;stroke-linejoin:round;stroke-dasharray:10.4534,10.4534;}
	.st13{fill:none;stroke:#17336D;stroke-width:4.5906;stroke-linecap:round;stroke-linejoin:round;stroke-miterlimit:10;}
	.st14{fill:none;stroke:#17336D;stroke-width:5.284;stroke-linecap:round;stroke-linejoin:round;}
	
		.st15{fill:none;stroke:#17336D;stroke-width:5.284;stroke-linecap:round;stroke-linejoin:round;stroke-miterlimit:10;stroke-dasharray:10.5681;}
	.st16{fill:#FBFBFB;}
	.st17{fill:none;stroke:#17336D;stroke-width:6.0109;stroke-miterlimit:10;}
	.st18{fill:none;stroke:#536FA1;stroke-width:5.4635;stroke-linecap:round;stroke-linejoin:round;stroke-miterlimit:10;}
	.st19{fill:none;stroke:#6082BB;stroke-width:43.2453;stroke-miterlimit:10;}
	.st20{fill:none;stroke:#536FA1;stroke-width:6.1779;stroke-linecap:round;stroke-linejoin:round;stroke-miterlimit:10;}
	
		.st21{fill:none;stroke:#5270A4;stroke-width:9.6986;stroke-linecap:round;stroke-linejoin:round;stroke-miterlimit:10;stroke-dasharray:15.278;}
	.st22{fill:#E83D3D;stroke:#040000;stroke-width:0.6728;stroke-miterlimit:10;}
	.st23{fill:#52B560;stroke:#040000;stroke-width:0.6728;stroke-miterlimit:10;}
	.st24{fill:none;stroke:#17336D;stroke-width:8.0035;stroke-linecap:round;stroke-linejoin:round;stroke-miterlimit:10;}
	.st25{fill:#C1E5F1;}
	.st26{fill:none;stroke:#17336D;stroke-width:7.3915;stroke-linecap:round;stroke-linejoin:round;stroke-miterlimit:10;}
	.st27{fill:none;stroke:#17336D;stroke-width:3.6367;stroke-linecap:round;stroke-linejoin:round;stroke-miterlimit:10;}
	
		.st28{fill:none;stroke:#5270A4;stroke-width:11.5328;stroke-linecap:round;stroke-linejoin:round;stroke-miterlimit:10;stroke-dasharray:18.1673;}
</style>
<g>
	<g>
		<g>
			<path class="st0" d="M156.2,69.6l-41.4-12.2c-0.4-0.1-0.8-0.2-1.2-0.2c-0.4,0-0.8,0-1.2,0.2L73.2,68.8c-0.5,0-1.1,0.2-1.5,0.4
				l-0.7,0.2c-1.8,0.5-3.1,2.2-3.1,4.1l-0.1,53c0,1.8,1.1,3.4,2.8,4l41.4,15.6c0.5,0.2,1,0.3,1.5,0.3s1-0.1,1.5-0.3l41.5-15.5
				c1.7-0.6,2.8-2.2,2.8-4l0.1-53C159.2,71.9,158,70.2,156.2,69.6L156.2,69.6z M115.4,64.6l24.1,7.1c0.8,0.2,0.8,1.4,0,1.6
				l-24.1,7.6c-1.3,0.4-2.7,0.4-4,0l-24-7.7c-0.8-0.3-0.8-1.4,0-1.6l24.2-7C112.9,64.2,114.2,64.2,115.4,64.6z M77,76.8l31.8,10.2
				c0.8,0.3,1.3,1,1.3,1.9v46.8c0,1.3-1.3,2.3-2.6,1.8l-31.8-12c-0.8-0.3-1.3-1-1.3-1.8l0.1-44.9C74.5,77.4,75.8,76.5,77,76.8z"/>
			<path class="st1" d="M151.4,76.8l-31.8,10.2c-0.8,0.3-1.3,1-1.3,1.9v46.8c0,1.3,1.3,2.3,2.6,1.8l31.8-12c0.8-0.3,1.3-1,1.3-1.8
				l-0.1-44.9C153.9,77.4,152.6,76.5,151.4,76.8z"/>
		</g>
	</g>
	<g>
		<polygon class="st2" points="109,158.3 109.1,158.3 109,158.3 		"/>
		<polygon class="st2" points="119.4,155.7 119.4,155.6 119.3,155.7 		"/>
		<path class="st0" d="M180.9,57.9L115.9,29c-1.6-0.8-3.5-0.8-5.1,0L45.9,57.9c-1.6,1.1-2.5,2.9-2.6,4.7v78.8
			c0.1,1.8,1.1,3.6,2.6,4.7l64.9,27.8c1.6,0.8,3.5,0.8,5.1,0l64.9-27.8c1.6-1.1,2.5-2.9,2.6-4.7V62.6
			C183.4,60.6,182.4,59,180.9,57.9z M174.9,136c0,1.9-1,3.6-2.5,4.7L116,163.3c-1.6,0.8-3.5,0.8-5.1,0l-56.3-22.6
			c-1.5-1-2.4-2.8-2.5-4.6V67.8c0-1.9,1-3.6,2.5-4.7l56.3-23.7c1.6-0.8,3.4-0.8,5.1,0l56.3,23.7c1.5,1.1,2.4,2.9,2.5,4.7V136z"/>
	</g>
</g>
</svg>
