<?xml version="1.0" encoding="utf-8"?>
<!-- Generator: Adobe Illustrator 26.0.0, SVG Export Plug-In . SVG Version: 6.00 Build 0)  -->
<svg version="1.1" id="图层_1" xmlns="http://www.w3.org/2000/svg" xmlns:xlink="http://www.w3.org/1999/xlink" x="0px" y="0px"
	 viewBox="0 0 226.77 226.77" style="enable-background:new 0 0 226.77 226.77;" xml:space="preserve">
<style type="text/css">
	.st0{fill:#6082BB;}
	.st1{fill:#17336D;}
	.st2{fill:#040000;}
	.st3{fill:none;stroke:#6082BB;stroke-width:10;stroke-linecap:round;stroke-linejoin:round;}
	.st4{fill:none;stroke:#6082BB;stroke-width:10;stroke-linecap:round;stroke-linejoin:round;stroke-dasharray:17.9178,17.9178;}
	.st5{fill:none;stroke:#6082BB;stroke-width:7.5613;stroke-linecap:round;stroke-linejoin:round;stroke-miterlimit:10;}
	
		.st6{opacity:0.42;fill:none;stroke:#6082BB;stroke-width:7.5613;stroke-linecap:round;stroke-linejoin:round;stroke-miterlimit:10;}
	
		.st7{fill:none;stroke:#17336D;stroke-width:6.3011;stroke-linecap:round;stroke-linejoin:round;stroke-miterlimit:10;stroke-dasharray:12.6022;}
	.st8{fill:none;stroke:#6082BB;stroke-width:8.4158;stroke-linecap:round;stroke-linejoin:round;}
	.st9{fill:none;stroke:#6082BB;stroke-width:8.4158;stroke-linecap:round;stroke-linejoin:round;stroke-dasharray:12.3943,12.3943;}
	.st10{fill:none;stroke:#6082BB;stroke-width:5.6082;stroke-miterlimit:10;}
	.st11{fill:none;stroke:#6082BB;stroke-width:7.8662;stroke-linecap:round;stroke-linejoin:round;}
	
		.st12{fill:none;stroke:#6082BB;stroke-width:7.8662;stroke-linecap:round;stroke-linejoin:round;stroke-dasharray:10.4534,10.4534;}
	.st13{fill:none;stroke:#17336D;stroke-width:4.5906;stroke-linecap:round;stroke-linejoin:round;stroke-miterlimit:10;}
	.st14{fill:none;stroke:#17336D;stroke-width:5.284;stroke-linecap:round;stroke-linejoin:round;}
	
		.st15{fill:none;stroke:#17336D;stroke-width:5.284;stroke-linecap:round;stroke-linejoin:round;stroke-miterlimit:10;stroke-dasharray:10.5681;}
	.st16{fill:#FBFBFB;}
	.st17{fill:none;stroke:#17336D;stroke-width:6.0109;stroke-miterlimit:10;}
	.st18{fill:none;stroke:#536FA1;stroke-width:5.4635;stroke-linecap:round;stroke-linejoin:round;stroke-miterlimit:10;}
	.st19{fill:none;stroke:#6082BB;stroke-width:43.2453;stroke-miterlimit:10;}
	.st20{fill:none;stroke:#536FA1;stroke-width:6.1779;stroke-linecap:round;stroke-linejoin:round;stroke-miterlimit:10;}
	
		.st21{fill:none;stroke:#5270A4;stroke-width:9.6986;stroke-linecap:round;stroke-linejoin:round;stroke-miterlimit:10;stroke-dasharray:15.278;}
	.st22{fill:#E83D3D;stroke:#040000;stroke-width:0.6728;stroke-miterlimit:10;}
	.st23{fill:#52B560;stroke:#040000;stroke-width:0.6728;stroke-miterlimit:10;}
	.st24{fill:none;stroke:#17336D;stroke-width:8.0035;stroke-linecap:round;stroke-linejoin:round;stroke-miterlimit:10;}
	.st25{fill:#C1E5F1;}
	.st26{fill:none;stroke:#17336D;stroke-width:7.3915;stroke-linecap:round;stroke-linejoin:round;stroke-miterlimit:10;}
	.st27{fill:none;stroke:#17336D;stroke-width:3.6367;stroke-linecap:round;stroke-linejoin:round;stroke-miterlimit:10;}
	
		.st28{fill:none;stroke:#5270A4;stroke-width:11.5328;stroke-linecap:round;stroke-linejoin:round;stroke-miterlimit:10;stroke-dasharray:18.1673;}
</style>
<g>
	<polyline class="st27" points="90.64,72.25 90.64,126.66 72.19,135.85 	"/>
	<polyline class="st27" points="84.7,57.57 57.33,57 57.33,111.41 38.87,120.59 38.87,143.88 	"/>
	<line class="st27" x1="150.68" y1="57" x2="130.66" y2="57"/>
	<line class="st27" x1="58.02" y1="57" x2="90.64" y2="72.25"/>
	<line class="st27" x1="58.02" y1="111.04" x2="90.64" y2="126.29"/>
	<line class="st27" x1="38.87" y1="120.52" x2="71.5" y2="135.77"/>
	<line class="st27" x1="38.87" y1="143.38" x2="72.19" y2="169.77"/>
	<line class="st27" x1="150.68" y1="57" x2="180.87" y2="71.11"/>
	<line class="st27" x1="130.66" y1="57" x2="160.84" y2="71.11"/>
	<line class="st27" x1="120.44" y1="113.47" x2="150.62" y2="127.58"/>
	<line class="st27" x1="121.45" y1="111.04" x2="130.66" y2="57"/>
	<line class="st27" x1="84.7" y1="57.57" x2="112.29" y2="72.25"/>
	<g>
		<polyline class="st27" points="112.24,72.25 123.07,128.63 148.65,128.63 159.47,72.25 		"/>
		<g>
			<g>
				<polygon class="st0" points="101.74,74.05 92.42,82.49 92.42,87.4 107.15,74.05 				"/>
				<polygon class="st0" points="111.97,80.42 92.42,98.12 92.42,103.03 112.77,84.6 				"/>
				<polygon class="st0" points="114.53,93.74 92.42,113.76 92.42,118.66 115.33,97.92 				"/>
				<polygon class="st0" points="117.08,107.06 73.96,146.1 73.96,151.01 117.89,111.24 				"/>
				<polygon class="st0" points="176.21,74.05 170.79,74.05 158.92,84.81 157.78,90.74 				"/>
				<polygon class="st0" points="119.64,120.37 70.99,164.05 72.83,167.38 120.44,124.55 				"/>
				<polygon class="st0" points="154.15,109.67 179.31,86.88 179.31,81.97 155.29,103.73 				"/>
				<polygon class="st0" points="125.8,130.43 84.67,167.38 90.64,167.17 131.22,130.43 				"/>
				<polygon class="st0" points="150.51,128.59 179.31,102.51 179.31,97.61 151.66,122.65 				"/>
				<polygon class="st0" points="143.06,130.43 104.4,165.17 109.81,165.17 148.48,130.43 				"/>
				<polygon class="st0" points="179.31,113.24 122.79,164.05 128.2,164.05 179.31,118.14 				"/>
				<path class="st0" d="M180.32,128.27c-0.07-0.04-0.14-0.08-0.21-0.12l-38.94,34.77h5.42l37-33.02L180.32,128.27z"/>
				<polygon class="st0" points="191.24,133.71 160.69,160.67 166.11,160.67 194.74,135.44 				"/>
				<polygon class="st0" points="185.62,159.55 197.77,148.33 197.77,143.43 180.2,159.55 				"/>
			</g>
		</g>
		<polygon class="st27" points="181.17,126.66 181.17,72.25 159.52,72.25 148.7,128.63 123.12,128.63 112.29,72.25 90.64,72.25 
			90.64,126.66 72.19,135.85 72.19,169.77 199.63,159.13 199.63,135.85 		"/>
	</g>
</g>
</svg>
