<?xml version="1.0" encoding="utf-8"?>
<!-- Generator: Adobe Illustrator 22.1.0, SVG Export Plug-In . SVG Version: 6.00 Build 0)  -->
<svg version="1.1" id="图层_1" xmlns="http://www.w3.org/2000/svg" xmlns:xlink="http://www.w3.org/1999/xlink" x="0px" y="0px"
	 viewBox="0 0 226.8 226.8" style="enable-background:new 0 0 226.8 226.8;" xml:space="preserve">
<style type="text/css">
	.st0{fill:#6082BB;}
	.st1{fill:#17336D;}
	.st2{fill:#040000;}
	.st3{fill:none;stroke:#6082BB;stroke-width:10;stroke-linecap:round;stroke-linejoin:round;}
	.st4{fill:none;stroke:#6082BB;stroke-width:10;stroke-linecap:round;stroke-linejoin:round;stroke-dasharray:17.9178,17.9178;}
	.st5{fill:none;stroke:#6082BB;stroke-width:7.5613;stroke-linecap:round;stroke-linejoin:round;stroke-miterlimit:10;}
	
		.st6{opacity:0.42;fill:none;stroke:#6082BB;stroke-width:7.5613;stroke-linecap:round;stroke-linejoin:round;stroke-miterlimit:10;}
	
		.st7{fill:none;stroke:#17336D;stroke-width:6.3011;stroke-linecap:round;stroke-linejoin:round;stroke-miterlimit:10;stroke-dasharray:12.6022;}
	.st8{fill:none;stroke:#6082BB;stroke-width:8.4158;stroke-linecap:round;stroke-linejoin:round;}
	.st9{fill:none;stroke:#6082BB;stroke-width:8.4158;stroke-linecap:round;stroke-linejoin:round;stroke-dasharray:12.3943,12.3943;}
	.st10{fill:none;stroke:#6082BB;stroke-width:5.6082;stroke-miterlimit:10;}
	.st11{fill:none;stroke:#6082BB;stroke-width:7.8662;stroke-linecap:round;stroke-linejoin:round;}
	
		.st12{fill:none;stroke:#6082BB;stroke-width:7.8662;stroke-linecap:round;stroke-linejoin:round;stroke-dasharray:10.4534,10.4534;}
	.st13{fill:none;stroke:#17336D;stroke-width:4.5906;stroke-linecap:round;stroke-linejoin:round;stroke-miterlimit:10;}
	.st14{fill:none;stroke:#17336D;stroke-width:5.284;stroke-linecap:round;stroke-linejoin:round;}
	
		.st15{fill:none;stroke:#17336D;stroke-width:5.284;stroke-linecap:round;stroke-linejoin:round;stroke-miterlimit:10;stroke-dasharray:10.5681;}
	.st16{fill:#FBFBFB;}
	.st17{fill:none;stroke:#17336D;stroke-width:6.0109;stroke-miterlimit:10;}
	.st18{fill:none;stroke:#536FA1;stroke-width:5.4635;stroke-linecap:round;stroke-linejoin:round;stroke-miterlimit:10;}
	.st19{fill:none;stroke:#6082BB;stroke-width:43.2453;stroke-miterlimit:10;}
	.st20{fill:none;stroke:#536FA1;stroke-width:6.1779;stroke-linecap:round;stroke-linejoin:round;stroke-miterlimit:10;}
	
		.st21{fill:none;stroke:#5270A4;stroke-width:9.6986;stroke-linecap:round;stroke-linejoin:round;stroke-miterlimit:10;stroke-dasharray:15.278;}
	.st22{fill:#E83D3D;stroke:#040000;stroke-width:0.6728;stroke-miterlimit:10;}
	.st23{fill:#52B560;stroke:#040000;stroke-width:0.6728;stroke-miterlimit:10;}
	.st24{fill:none;stroke:#17336D;stroke-width:8.0035;stroke-linecap:round;stroke-linejoin:round;stroke-miterlimit:10;}
	.st25{fill:#C1E5F1;}
	.st26{fill:none;stroke:#17336D;stroke-width:7.3915;stroke-linecap:round;stroke-linejoin:round;stroke-miterlimit:10;}
	.st27{fill:none;stroke:#17336D;stroke-width:3.6367;stroke-linecap:round;stroke-linejoin:round;stroke-miterlimit:10;}
	
		.st28{fill:none;stroke:#5270A4;stroke-width:11.5328;stroke-linecap:round;stroke-linejoin:round;stroke-miterlimit:10;stroke-dasharray:18.1673;}
</style>
<g>
	<path class="st1" d="M127.6,169.7c1.8,0,3.3,1.5,3.3,3.3v13.3c0,1.8-1.5,3.3-3.3,3.3l0,0h-13.3c-1.8,0-3.3-1.5-3.3-3.3V173
		c0-1.8,1.5-3.3,3.3-3.3H127.6z M194.1,103.1c1.8,0,3.3,1.5,3.3,3.3v13.3c0,1.8-1.5,3.3-3.3,3.3c0,0,0,0,0,0h-13.3
		c-1.8,0-3.3-1.5-3.3-3.3c0,0,0,0,0,0v-13.3c0-1.8,1.5-3.3,3.3-3.3L194.1,103.1z M61,103.1c1.8,0,3.3,1.5,3.3,3.3v13.3
		c0,1.8-1.5,3.3-3.3,3.3c0,0,0,0,0,0H47.7c-1.8,0-3.3-1.5-3.3-3.3v-13.3c0-1.8,1.5-3.3,3.3-3.3L61,103.1z M127.6,36.6
		c1.8,0,3.3,1.5,3.3,3.3v13.3c0,1.8-1.5,3.3-3.3,3.3c0,0,0,0,0,0h-13.3c-1.8,0-3.3-1.5-3.3-3.3l0,0V39.9c0-1.8,1.5-3.3,3.3-3.3
		H127.6z"/>
	<path class="st0" d="M127.6,34.1c3,0,5.4,2.2,5.8,5.1l0.1,0.8v5.5c28,5.2,50,27.1,55.2,55.2h5.5c3,0,5.4,2.2,5.8,5.1l0.1,0.8v13.3
		c0,3-2.2,5.4-5.1,5.8l-0.8,0.1h-5.5c-5.2,28-27.1,50-55.2,55.2v5.5c0,3-2.2,5.4-5.1,5.8l-0.8,0.1h-13.3c-2.9,0-5.4-2.2-5.8-5.1
		l-0.1-0.8v-5.5c-28-5.2-50-27.1-55.2-55.2h-5.5c-2.9,0-5.4-2.2-5.8-5.1l-0.1-0.8v-13.3c0-3,2.2-5.4,5.1-5.8l0.8-0.1h5.5
		c5.2-28,27.1-50,55.2-55.2v-5.5c0-3,2.2-5.4,5.1-5.8l0.8-0.1H127.6L127.6,34.1z M127.6,172.2h-13.3c-0.3,0-0.6,0.2-0.7,0.5
		l-0.1,0.3v13.3c0,0.3,0.2,0.6,0.5,0.7l0.3,0.1h13.3c0.3,0,0.6-0.2,0.7-0.5l0.1-0.3V173c0-0.3-0.2-0.6-0.5-0.7L127.6,172.2z
		 M133.5,53.2L133.5,53.2c0,3-2.2,5.5-5.1,5.9l-0.8,0.1h-13.3c-2.9,0-5.4-2.2-5.8-5.1l-0.1-0.8C84.6,58.2,66,76.8,61,100.6h0
		c3,0,5.4,2.2,5.8,5.1l0.1,0.8v13.3c0,3-2.2,5.4-5.1,5.8l-0.8,0.1c5,23.8,23.5,42.4,47.3,47.4v0c0-3,2.2-5.4,5.1-5.8l0.8-0.1h13.3
		c2.9,0,5.4,2.2,5.8,5.1l0.1,0.8c23.8-5,42.4-23.6,47.4-47.4h0c-2.9,0-5.4-2.2-5.8-5.1l-0.1-0.8v-13.3c0-3,2.2-5.4,5.1-5.8l0.8-0.1
		C175.8,76.8,157.2,58.2,133.5,53.2L133.5,53.2z M194.1,105.7h-13.3c-0.3,0-0.6,0.2-0.7,0.5l-0.1,0.3v13.3c0,0.3,0.2,0.6,0.5,0.7
		l0.3,0.1h13.3c0.3,0,0.6-0.2,0.7-0.5l0.1-0.3v-13.3c0-0.3-0.2-0.6-0.5-0.7L194.1,105.7L194.1,105.7z M61,105.7H47.7
		c-0.3,0-0.6,0.2-0.7,0.5l-0.1,0.3v13.3c0,0.3,0.2,0.6,0.5,0.7l0.3,0.1H61c0.3,0,0.6-0.2,0.7-0.5l0.1-0.3v-13.3
		c0-0.3-0.2-0.6-0.5-0.7L61,105.7L61,105.7z M127.6,39.2h-13.3c-0.3,0-0.6,0.2-0.7,0.5l-0.1,0.3v13.3c0,0.3,0.2,0.6,0.5,0.7l0.3,0.1
		h13.3c0.3,0,0.6-0.2,0.7-0.5l0.1-0.3V39.9c0-0.3-0.2-0.6-0.5-0.7C127.9,39.2,127.6,39.2,127.6,39.2z"/>
	<g>
		<g>
			<line class="st8" x1="120.9" y1="112.7" x2="129.3" y2="112.8"/>
			<line class="st9" x1="141.7" y1="113" x2="160.3" y2="113.4"/>
			<line class="st8" x1="166.5" y1="113.5" x2="174.9" y2="113.6"/>
		</g>
	</g>
</g>
<circle class="st0" cx="122.1" cy="112.6" r="7.7"/>
</svg>
