<?xml version="1.0" encoding="utf-8"?>
<!-- Generator: Adobe Illustrator 22.1.0, SVG Export Plug-In . SVG Version: 6.00 Build 0)  -->
<svg version="1.1" id="图层_1" xmlns="http://www.w3.org/2000/svg" xmlns:xlink="http://www.w3.org/1999/xlink" x="0px" y="0px"
	 viewBox="0 0 226.8 226.8" style="enable-background:new 0 0 226.8 226.8;" xml:space="preserve">
<style type="text/css">
	.st0{fill:#6082BB;}
	.st1{fill:#17336D;}
	.st2{fill:#040000;}
	.st3{fill:none;stroke:#6082BB;stroke-width:10;stroke-linecap:round;stroke-linejoin:round;}
	.st4{fill:none;stroke:#6082BB;stroke-width:10;stroke-linecap:round;stroke-linejoin:round;stroke-dasharray:17.9178,17.9178;}
	.st5{fill:none;stroke:#6082BB;stroke-width:7.5613;stroke-linecap:round;stroke-linejoin:round;stroke-miterlimit:10;}
	
		.st6{opacity:0.42;fill:none;stroke:#6082BB;stroke-width:7.5613;stroke-linecap:round;stroke-linejoin:round;stroke-miterlimit:10;}
	
		.st7{fill:none;stroke:#17336D;stroke-width:6.3011;stroke-linecap:round;stroke-linejoin:round;stroke-miterlimit:10;stroke-dasharray:12.6022;}
	.st8{fill:none;stroke:#6082BB;stroke-width:8.4158;stroke-linecap:round;stroke-linejoin:round;}
	.st9{fill:none;stroke:#6082BB;stroke-width:8.4158;stroke-linecap:round;stroke-linejoin:round;stroke-dasharray:12.3943,12.3943;}
	.st10{fill:none;stroke:#6082BB;stroke-width:5.6082;stroke-miterlimit:10;}
	.st11{fill:none;stroke:#6082BB;stroke-width:7.8662;stroke-linecap:round;stroke-linejoin:round;}
	
		.st12{fill:none;stroke:#6082BB;stroke-width:7.8662;stroke-linecap:round;stroke-linejoin:round;stroke-dasharray:10.4534,10.4534;}
	.st13{fill:none;stroke:#17336D;stroke-width:4.5906;stroke-linecap:round;stroke-linejoin:round;stroke-miterlimit:10;}
	.st14{fill:none;stroke:#17336D;stroke-width:5.284;stroke-linecap:round;stroke-linejoin:round;}
	
		.st15{fill:none;stroke:#17336D;stroke-width:5.284;stroke-linecap:round;stroke-linejoin:round;stroke-miterlimit:10;stroke-dasharray:10.5681;}
	.st16{fill:#FBFBFB;}
	.st17{fill:none;stroke:#17336D;stroke-width:6.0109;stroke-miterlimit:10;}
	.st18{fill:none;stroke:#536FA1;stroke-width:5.4635;stroke-linecap:round;stroke-linejoin:round;stroke-miterlimit:10;}
	.st19{fill:none;stroke:#6082BB;stroke-width:43.2453;stroke-miterlimit:10;}
	.st20{fill:none;stroke:#536FA1;stroke-width:6.1779;stroke-linecap:round;stroke-linejoin:round;stroke-miterlimit:10;}
	
		.st21{fill:none;stroke:#5270A4;stroke-width:9.6986;stroke-linecap:round;stroke-linejoin:round;stroke-miterlimit:10;stroke-dasharray:15.278;}
	.st22{fill:#E83D3D;stroke:#040000;stroke-width:0.6728;stroke-miterlimit:10;}
	.st23{fill:#52B560;stroke:#040000;stroke-width:0.6728;stroke-miterlimit:10;}
	.st24{fill:none;stroke:#17336D;stroke-width:8.0035;stroke-linecap:round;stroke-linejoin:round;stroke-miterlimit:10;}
	.st25{fill:#C1E5F1;}
	.st26{fill:none;stroke:#17336D;stroke-width:7.3915;stroke-linecap:round;stroke-linejoin:round;stroke-miterlimit:10;}
	.st27{fill:none;stroke:#17336D;stroke-width:3.6367;stroke-linecap:round;stroke-linejoin:round;stroke-miterlimit:10;}
	
		.st28{fill:none;stroke:#5270A4;stroke-width:11.5328;stroke-linecap:round;stroke-linejoin:round;stroke-miterlimit:10;stroke-dasharray:18.1673;}
</style>
<g>
	<path class="st10" d="M185.5,112.2c1,1.8,1,4,0,5.8l-33.6,58.2c-1,1.8-2.9,2.9-5,2.9H79.7c-2.1,0-4-1.1-5-2.9L41.1,118
		c-1-1.8-1-4,0-5.8L74.7,54c1-1.8,2.9-2.9,5-2.9h67.2c2.1,0,4,1.1,5,2.9L185.5,112.2L185.5,112.2z"/>
	<g>
		<g>
			<line class="st11" x1="119.6" y1="115.5" x2="125.2" y2="115.5"/>
			<line class="st12" x1="135.6" y1="115.5" x2="172.2" y2="115.5"/>
			<line class="st11" x1="177.4" y1="115.5" x2="183" y2="115.5"/>
		</g>
	</g>
	<g>
		<path class="st1" d="M85.1,41.1c2.1,0,3.8,1.7,3.8,3.8v15.2c0,2.1-1.7,3.8-3.8,3.8c0,0,0,0,0,0H70c-2.1,0-3.8-1.7-3.8-3.8V44.9
			c0-2.1,1.7-3.8,3.8-3.8L85.1,41.1z"/>
		<path class="st1" d="M49.7,103.2c2.1,0,3.8,1.7,3.8,3.8v15.2c0,2.1-1.7,3.8-3.8,3.8c0,0,0,0,0,0H34.6c-2.1,0-3.8-1.7-3.8-3.8V107
			c0-2.1,1.7-3.8,3.8-3.8L49.7,103.2z"/>
		<path class="st1" d="M85.1,166.7c2.1,0,3.8,1.7,3.8,3.8v15.2c0,2.1-1.7,3.8-3.8,3.8c0,0,0,0,0,0H70c-2.1,0-3.8-1.7-3.8-3.8v-15.2
			c0-2.1,1.7-3.8,3.8-3.8H85.1z"/>
		<path class="st1" d="M141.9,41.3c-2.1,0-3.8,1.7-3.8,3.8v15.2c0,2.1,1.7,3.8,3.8,3.8c0,0,0,0,0,0H157c2.1,0,3.8-1.7,3.8-3.8V45.1
			c0-2.1-1.7-3.8-3.8-3.8L141.9,41.3z"/>
		<path class="st1" d="M177.3,103.4c-2.1,0-3.8,1.7-3.8,3.8v15.2c0,2.1,1.7,3.8,3.8,3.8c0,0,0,0,0,0h15.2c2.1,0,3.8-1.7,3.8-3.8
			v-15.2c0-2.1-1.7-3.8-3.8-3.8H177.3z"/>
		<path class="st1" d="M141.9,166.9c-2.1,0-3.8,1.7-3.8,3.8v15.2c0,2.1,1.7,3.8,3.8,3.8c0,0,0,0,0,0H157c2.1,0,3.8-1.7,3.8-3.8
			v-15.2c0-2.1-1.7-3.8-3.8-3.8H141.9z"/>
	</g>
	<circle class="st0" cx="120.5" cy="114.5" r="7.2"/>
	<g>
		<g>
			<g>
				<path class="st0" d="M85.1,41.1c2.1,0,3.8,1.7,3.8,3.8v15.2c0,2.1-1.7,3.8-3.8,3.8c0,0,0,0,0,0H70c-2.1,0-3.8-1.7-3.8-3.8V44.9
					c0-2.1,1.7-3.8,3.8-3.8L85.1,41.1z"/>
			</g>
			<g>
				<path class="st0" d="M49.7,103.2c2.1,0,3.8,1.7,3.8,3.8v15.2c0,2.1-1.7,3.8-3.8,3.8c0,0,0,0,0,0H34.6c-2.1,0-3.8-1.7-3.8-3.8
					V107c0-2.1,1.7-3.8,3.8-3.8L49.7,103.2z"/>
			</g>
			<g>
				<path class="st0" d="M85.1,166.7c2.1,0,3.8,1.7,3.8,3.8v15.2c0,2.1-1.7,3.8-3.8,3.8c0,0,0,0,0,0H70c-2.1,0-3.8-1.7-3.8-3.8
					v-15.2c0-2.1,1.7-3.8,3.8-3.8H85.1z"/>
			</g>
			<g>
				<path class="st0" d="M141.9,41.3c-2.1,0-3.8,1.7-3.8,3.8v15.2c0,2.1,1.7,3.8,3.8,3.8c0,0,0,0,0,0H157c2.1,0,3.8-1.7,3.8-3.8
					V45.1c0-2.1-1.7-3.8-3.8-3.8L141.9,41.3z"/>
			</g>
			<g>
				<path class="st0" d="M177.3,103.4c-2.1,0-3.8,1.7-3.8,3.8v15.2c0,2.1,1.7,3.8,3.8,3.8c0,0,0,0,0,0h15.2c2.1,0,3.8-1.7,3.8-3.8
					v-15.2c0-2.1-1.7-3.8-3.8-3.8H177.3z"/>
			</g>
			<g>
				<path class="st0" d="M141.9,166.9c-2.1,0-3.8,1.7-3.8,3.8v15.2c0,2.1,1.7,3.8,3.8,3.8c0,0,0,0,0,0H157c2.1,0,3.8-1.7,3.8-3.8
					v-15.2c0-2.1-1.7-3.8-3.8-3.8H141.9z"/>
			</g>
		</g>
	</g>
	<g>
		<g>
			<g>
				<rect x="70.2" y="45.2" class="st1" width="14.7" height="14.6"/>
			</g>
			<g>
				<rect x="34.8" y="107.3" class="st1" width="14.7" height="14.6"/>
			</g>
			<g>
				<rect x="70.2" y="170.8" class="st1" width="14.7" height="14.6"/>
			</g>
			<g>
				<rect x="142.1" y="45.4" class="st1" width="14.7" height="14.6"/>
			</g>
			<g>
				<rect x="177.5" y="107.5" class="st1" width="14.7" height="14.6"/>
			</g>
			<g>
				<rect x="142.1" y="170.9" class="st1" width="14.7" height="14.6"/>
			</g>
		</g>
	</g>
</g>
</svg>
