<?xml version="1.0" encoding="utf-8"?>
<!-- Generator: Adobe Illustrator 22.1.0, SVG Export Plug-In . SVG Version: 6.00 Build 0)  -->
<svg version="1.1" id="图层_1" xmlns="http://www.w3.org/2000/svg" xmlns:xlink="http://www.w3.org/1999/xlink" x="0px" y="0px"
	 viewBox="0 0 226.8 226.8" style="enable-background:new 0 0 226.8 226.8;" xml:space="preserve">
<style type="text/css">
	.st0{fill:#6082BB;}
	.st1{fill:#17336D;}
	.st2{fill:#040000;}
	.st3{fill:none;stroke:#6082BB;stroke-width:10;stroke-linecap:round;stroke-linejoin:round;}
	.st4{fill:none;stroke:#6082BB;stroke-width:10;stroke-linecap:round;stroke-linejoin:round;stroke-dasharray:17.9178,17.9178;}
	.st5{fill:none;stroke:#6082BB;stroke-width:7.5613;stroke-linecap:round;stroke-linejoin:round;stroke-miterlimit:10;}
	
		.st6{opacity:0.42;fill:none;stroke:#6082BB;stroke-width:7.5613;stroke-linecap:round;stroke-linejoin:round;stroke-miterlimit:10;}
	
		.st7{fill:none;stroke:#17336D;stroke-width:6.3011;stroke-linecap:round;stroke-linejoin:round;stroke-miterlimit:10;stroke-dasharray:12.6022;}
	.st8{fill:none;stroke:#6082BB;stroke-width:8.4158;stroke-linecap:round;stroke-linejoin:round;}
	.st9{fill:none;stroke:#6082BB;stroke-width:8.4158;stroke-linecap:round;stroke-linejoin:round;stroke-dasharray:12.3943,12.3943;}
	.st10{fill:none;stroke:#6082BB;stroke-width:5.6082;stroke-miterlimit:10;}
	.st11{fill:none;stroke:#6082BB;stroke-width:7.8662;stroke-linecap:round;stroke-linejoin:round;}
	
		.st12{fill:none;stroke:#6082BB;stroke-width:7.8662;stroke-linecap:round;stroke-linejoin:round;stroke-dasharray:10.4534,10.4534;}
	.st13{fill:none;stroke:#17336D;stroke-width:4.5906;stroke-linecap:round;stroke-linejoin:round;stroke-miterlimit:10;}
	.st14{fill:none;stroke:#17336D;stroke-width:5.284;stroke-linecap:round;stroke-linejoin:round;}
	
		.st15{fill:none;stroke:#17336D;stroke-width:5.284;stroke-linecap:round;stroke-linejoin:round;stroke-miterlimit:10;stroke-dasharray:10.5681;}
	.st16{fill:#FBFBFB;}
	.st17{fill:none;stroke:#17336D;stroke-width:6.0109;stroke-miterlimit:10;}
	.st18{fill:none;stroke:#536FA1;stroke-width:5.4635;stroke-linecap:round;stroke-linejoin:round;stroke-miterlimit:10;}
	.st19{fill:none;stroke:#6082BB;stroke-width:43.2453;stroke-miterlimit:10;}
	.st20{fill:none;stroke:#536FA1;stroke-width:6.1779;stroke-linecap:round;stroke-linejoin:round;stroke-miterlimit:10;}
	
		.st21{fill:none;stroke:#5270A4;stroke-width:9.6986;stroke-linecap:round;stroke-linejoin:round;stroke-miterlimit:10;stroke-dasharray:15.278;}
	.st22{fill:#E83D3D;stroke:#040000;stroke-width:0.6728;stroke-miterlimit:10;}
	.st23{fill:#52B560;stroke:#040000;stroke-width:0.6728;stroke-miterlimit:10;}
	.st24{fill:none;stroke:#17336D;stroke-width:8.0035;stroke-linecap:round;stroke-linejoin:round;stroke-miterlimit:10;}
	.st25{fill:#C1E5F1;}
	.st26{fill:none;stroke:#17336D;stroke-width:7.3915;stroke-linecap:round;stroke-linejoin:round;stroke-miterlimit:10;}
	.st27{fill:none;stroke:#17336D;stroke-width:3.6367;stroke-linecap:round;stroke-linejoin:round;stroke-miterlimit:10;}
	
		.st28{fill:none;stroke:#5270A4;stroke-width:11.5328;stroke-linecap:round;stroke-linejoin:round;stroke-miterlimit:10;stroke-dasharray:18.1673;}
</style>
<path class="st0" d="M178.5,134.4l8.4,14.8l-1.6,0.9l4.9,4.9l7.1,12.5l-17.5,0l-6.1-6l-3.5,6l-11.2,0v-12.4H176l-8.3-14.7
	L178.5,134.4L178.5,134.4z M141.4,155.2l4.6,12.4l-49.8,0v-12.4L141.4,155.2L141.4,155.2z M62.1,125.5v29.7h21.4v12.4H49.7v-42.1
	H62.1z M157.4,75.1l9.5,7.9l-7.6,9.4l11.6,20.3l-2,1.1l-14.9-5.6L144.3,91L157.4,75.1L157.4,75.1z M75.5,59.5l6.9,10.3L62.1,83.2
	v24.3H49.7V76.6L75.5,59.5L75.5,59.5z M199.7,42.6l-23.9,29.3l-9.5-7.8l7.3-9.1h-14.5V42.6H199.7z M144.9,42.6V55h-40l-10.6,7.2
	l-6.9-10.3l13.8-9.2H144.9z"/>
<path class="st1" d="M207.8,137l-22.4,13.1l22.7,22.8l-11.4,11.3l-22.8-22.7L161,183.8l-27.9-74.5L207.8,137z"/>
</svg>
