<?xml version="1.0" encoding="utf-8"?>
<!-- Generator: Adobe Illustrator 22.1.0, SVG Export Plug-In . SVG Version: 6.00 Build 0)  -->
<svg version="1.1" id="图层_1" xmlns="http://www.w3.org/2000/svg" xmlns:xlink="http://www.w3.org/1999/xlink" x="0px" y="0px"
	 viewBox="0 0 226.8 226.8" style="enable-background:new 0 0 226.8 226.8;" xml:space="preserve">
<style type="text/css">
	.st0{fill:#6082BB;}
	.st1{fill:#17336D;}
	.st2{fill:#040000;}
	.st3{fill:none;stroke:#6082BB;stroke-width:10;stroke-linecap:round;stroke-linejoin:round;}
	.st4{fill:none;stroke:#6082BB;stroke-width:10;stroke-linecap:round;stroke-linejoin:round;stroke-dasharray:17.9178,17.9178;}
	.st5{fill:none;stroke:#6082BB;stroke-width:7.5613;stroke-linecap:round;stroke-linejoin:round;stroke-miterlimit:10;}
	
		.st6{opacity:0.42;fill:none;stroke:#6082BB;stroke-width:7.5613;stroke-linecap:round;stroke-linejoin:round;stroke-miterlimit:10;}
	
		.st7{fill:none;stroke:#17336D;stroke-width:6.3011;stroke-linecap:round;stroke-linejoin:round;stroke-miterlimit:10;stroke-dasharray:12.6022;}
	.st8{fill:none;stroke:#6082BB;stroke-width:8.4158;stroke-linecap:round;stroke-linejoin:round;}
	.st9{fill:none;stroke:#6082BB;stroke-width:8.4158;stroke-linecap:round;stroke-linejoin:round;stroke-dasharray:12.3943,12.3943;}
	.st10{fill:none;stroke:#6082BB;stroke-width:5.6082;stroke-miterlimit:10;}
	.st11{fill:none;stroke:#6082BB;stroke-width:7.8662;stroke-linecap:round;stroke-linejoin:round;}
	
		.st12{fill:none;stroke:#6082BB;stroke-width:7.8662;stroke-linecap:round;stroke-linejoin:round;stroke-dasharray:10.4534,10.4534;}
	.st13{fill:none;stroke:#17336D;stroke-width:4.5906;stroke-linecap:round;stroke-linejoin:round;stroke-miterlimit:10;}
	.st14{fill:none;stroke:#17336D;stroke-width:5.284;stroke-linecap:round;stroke-linejoin:round;}
	
		.st15{fill:none;stroke:#17336D;stroke-width:5.284;stroke-linecap:round;stroke-linejoin:round;stroke-miterlimit:10;stroke-dasharray:10.5681;}
	.st16{fill:#FBFBFB;}
	.st17{fill:none;stroke:#17336D;stroke-width:6.0109;stroke-miterlimit:10;}
	.st18{fill:none;stroke:#536FA1;stroke-width:5.4635;stroke-linecap:round;stroke-linejoin:round;stroke-miterlimit:10;}
	.st19{fill:none;stroke:#6082BB;stroke-width:43.2453;stroke-miterlimit:10;}
	.st20{fill:none;stroke:#536FA1;stroke-width:6.1779;stroke-linecap:round;stroke-linejoin:round;stroke-miterlimit:10;}
	
		.st21{fill:none;stroke:#5270A4;stroke-width:9.6986;stroke-linecap:round;stroke-linejoin:round;stroke-miterlimit:10;stroke-dasharray:15.278;}
	.st22{fill:#E83D3D;stroke:#040000;stroke-width:0.6728;stroke-miterlimit:10;}
	.st23{fill:#52B560;stroke:#040000;stroke-width:0.6728;stroke-miterlimit:10;}
	.st24{fill:none;stroke:#17336D;stroke-width:8.0035;stroke-linecap:round;stroke-linejoin:round;stroke-miterlimit:10;}
	.st25{fill:#C1E5F1;}
	.st26{fill:none;stroke:#17336D;stroke-width:7.3915;stroke-linecap:round;stroke-linejoin:round;stroke-miterlimit:10;}
	.st27{fill:none;stroke:#17336D;stroke-width:3.6367;stroke-linecap:round;stroke-linejoin:round;stroke-miterlimit:10;}
	
		.st28{fill:none;stroke:#5270A4;stroke-width:11.5328;stroke-linecap:round;stroke-linejoin:round;stroke-miterlimit:10;stroke-dasharray:18.1673;}
</style>
<g>
	<g>
		<path class="st1" d="M83.6,96.2c-1.7,0-3.3-0.1-4.7-0.4c-1.4-0.2-2.5-0.7-3.5-1.3c-0.9-0.6-1.7-1.4-2.2-2.4
			c-0.5-1-0.7-2.3-0.7-3.8V63.1c0-2.8,0.8-4.7,2.5-5.8c1.7-1.1,4.3-1.6,7.8-1.6h15.7c1,0,1.8-0.1,2.5-0.4c0.7-0.3,1.2-0.7,1.6-1.2
			c0.4-0.5,0.8-1.1,1.1-1.8c0.3-0.7,0.7-1.4,1-2c0.6-1.3,1.7-2.4,3.3-3.4c1.6-0.9,3.3-1.4,5.3-1.4h8.7c2.3,0,4.2,0.5,5.7,1.5
			c1.5,1,2.5,2.1,3,3.2c0.7,1.5,1.6,2.8,2.7,3.8c1.1,1.1,2.3,1.6,3.6,1.6h11.9c2.7,0,4.9,0.5,6.6,1.8s2.4,3.1,2.4,5.4v25.5
			c0,2.5-0.8,4.5-2.5,5.8s-3.9,2-6.7,2L83.6,96.2L83.6,96.2z M121.9,45.4c0-0.7,0-1.2-0.1-1.6s-0.6-0.6-1.7-0.6h-6.8
			c-1,0-1.6,0.1-1.7,0.5c-0.1,0.4-0.1,1-0.1,1.7c-0.1,0.8,0,1.4,0.2,1.8c0.2,0.3,0.7,0.5,1.6,0.5h6.8c1,0,1.6-0.2,1.7-0.6
			S121.9,46.1,121.9,45.4z"/>
		<g>
			<g>
				<g>
					<path class="st16" d="M82.7,74.7V63.2c0-0.4,0.4-0.8,0.8-0.8h0.2c0.4,0,0.8,0.4,0.8,0.8v11.5c0,0.4-0.4,0.8-0.8,0.8h-0.2
						C83.1,75.5,82.7,75.1,82.7,74.7z"/>
				</g>
				<g>
					<path class="st16" d="M76.1,68.2h15.1c0.4,0,0.7,0.3,0.7,0.7V69c0,0.4-0.3,0.7-0.7,0.7H76.1c-0.4,0-0.7-0.3-0.7-0.7v-0.1
						C75.4,68.5,75.7,68.2,76.1,68.2z"/>
				</g>
				<g>
					<path class="st16" d="M76.1,83.9h15.1c0.4,0,0.7,0.3,0.7,0.7v0.1c0,0.4-0.3,0.7-0.7,0.7H76.1c-0.4,0-0.7-0.3-0.7-0.7v-0.1
						C75.4,84.2,75.7,83.9,76.1,83.9z"/>
				</g>
			</g>
		</g>
		<g>
			<g>
				<g>
					<g>
						<g>
							<path class="st16" d="M99.2,62c4.5-4,11-6.4,17.9-6.4h2.4l-12.9,18.1l-8-11.2L99.2,62z M94.4,80.7
								c-2.3-5.3-1.5-11.1,2.2-15.9l1.2-1.6l7.7,10.8l5.3,7.4h-16L94.4,80.7L94.4,80.7z M134.9,87.3c-4.5,4-11.1,6.4-17.9,6.4h-2.4
								l13-18.1l8,11.2L134.9,87.3L134.9,87.3z M137.5,84.4l-1.2,1.6l-13-18.2h16l0.3,0.7C141.9,73.9,141.2,79.6,137.5,84.4
								L137.5,84.4z"/>
						</g>
					</g>
				</g>
			</g>
			<path class="st16" d="M121.6,56c6.9,1.1,12.8,4.5,16.3,9.4L139,67h-26.4l8-11.1L121.6,56z"/>
			<path class="st16" d="M112.5,93.3c-6.9-1.1-12.8-4.5-16.3-9.4l-1.2-1.6h26.4l-8,11.1L112.5,93.3z"/>
		</g>
	</g>
	<path class="st0" d="M173.9,109H56.5c-2.4,0-4.3-1.9-4.3-4.3V104c0-2.4,1.9-4.3,4.3-4.3h117.4c2.4,0,4.3,1.9,4.3,4.3v0.6
		C178.2,107,176.3,109,173.9,109z"/>
	<path class="st0" d="M73.9,185.6l57.2-78.8c1.6-2.2,5.2-3,8-1.7l0,0c2.8,1.3,3.8,4.1,2.1,6.4l-57.2,78.8c-1.6,2.2-5.2,3-8,1.7l0,0
		C73.3,190.7,72.3,187.9,73.9,185.6z"/>
	<path class="st0" d="M157.7,185.6l-57.2-78.8c-1.6-2.2-5.2-3-8-1.7l0,0c-2.8,1.3-3.8,4.1-2.1,6.4l57.2,78.8c1.6,2.2,5.2,3,8,1.7
		l0,0C158.4,190.7,159.4,187.9,157.7,185.6z"/>
</g>
</svg>
