<?xml version="1.0" encoding="utf-8"?>
<!-- Generator: Adobe Illustrator 22.1.0, SVG Export Plug-In . SVG Version: 6.00 Build 0)  -->
<svg version="1.1" id="图层_1" xmlns="http://www.w3.org/2000/svg" xmlns:xlink="http://www.w3.org/1999/xlink" x="0px" y="0px"
	 viewBox="0 0 226.8 226.8" style="enable-background:new 0 0 226.8 226.8;" xml:space="preserve">
<style type="text/css">
	.st0{fill:#6082BB;}
	.st1{fill:#17336D;}
	.st2{fill:#040000;}
	.st3{fill:none;stroke:#6082BB;stroke-width:10;stroke-linecap:round;stroke-linejoin:round;}
	.st4{fill:none;stroke:#6082BB;stroke-width:10;stroke-linecap:round;stroke-linejoin:round;stroke-dasharray:17.9178,17.9178;}
	.st5{fill:none;stroke:#6082BB;stroke-width:7.5613;stroke-linecap:round;stroke-linejoin:round;stroke-miterlimit:10;}
	
		.st6{opacity:0.42;fill:none;stroke:#6082BB;stroke-width:7.5613;stroke-linecap:round;stroke-linejoin:round;stroke-miterlimit:10;}
	
		.st7{fill:none;stroke:#17336D;stroke-width:6.3011;stroke-linecap:round;stroke-linejoin:round;stroke-miterlimit:10;stroke-dasharray:12.6022;}
	.st8{fill:none;stroke:#6082BB;stroke-width:8.4158;stroke-linecap:round;stroke-linejoin:round;}
	.st9{fill:none;stroke:#6082BB;stroke-width:8.4158;stroke-linecap:round;stroke-linejoin:round;stroke-dasharray:12.3943,12.3943;}
	.st10{fill:none;stroke:#6082BB;stroke-width:5.6082;stroke-miterlimit:10;}
	.st11{fill:none;stroke:#6082BB;stroke-width:7.8662;stroke-linecap:round;stroke-linejoin:round;}
	
		.st12{fill:none;stroke:#6082BB;stroke-width:7.8662;stroke-linecap:round;stroke-linejoin:round;stroke-dasharray:10.4534,10.4534;}
	.st13{fill:none;stroke:#17336D;stroke-width:4.5906;stroke-linecap:round;stroke-linejoin:round;stroke-miterlimit:10;}
	.st14{fill:none;stroke:#17336D;stroke-width:5.284;stroke-linecap:round;stroke-linejoin:round;}
	
		.st15{fill:none;stroke:#17336D;stroke-width:5.284;stroke-linecap:round;stroke-linejoin:round;stroke-miterlimit:10;stroke-dasharray:10.5681;}
	.st16{fill:#FBFBFB;}
	.st17{fill:none;stroke:#17336D;stroke-width:6.0109;stroke-miterlimit:10;}
	.st18{fill:none;stroke:#536FA1;stroke-width:5.4635;stroke-linecap:round;stroke-linejoin:round;stroke-miterlimit:10;}
	.st19{fill:none;stroke:#6082BB;stroke-width:43.2453;stroke-miterlimit:10;}
	.st20{fill:none;stroke:#536FA1;stroke-width:6.1779;stroke-linecap:round;stroke-linejoin:round;stroke-miterlimit:10;}
	
		.st21{fill:none;stroke:#5270A4;stroke-width:9.6986;stroke-linecap:round;stroke-linejoin:round;stroke-miterlimit:10;stroke-dasharray:15.278;}
	.st22{fill:#E83D3D;stroke:#040000;stroke-width:0.6728;stroke-miterlimit:10;}
	.st23{fill:#52B560;stroke:#040000;stroke-width:0.6728;stroke-miterlimit:10;}
	.st24{fill:none;stroke:#17336D;stroke-width:8.0035;stroke-linecap:round;stroke-linejoin:round;stroke-miterlimit:10;}
	.st25{fill:#C1E5F1;}
	.st26{fill:none;stroke:#17336D;stroke-width:7.3915;stroke-linecap:round;stroke-linejoin:round;stroke-miterlimit:10;}
	.st27{fill:none;stroke:#17336D;stroke-width:3.6367;stroke-linecap:round;stroke-linejoin:round;stroke-miterlimit:10;}
	
		.st28{fill:none;stroke:#5270A4;stroke-width:11.5328;stroke-linecap:round;stroke-linejoin:round;stroke-miterlimit:10;stroke-dasharray:18.1673;}
</style>
<g>
	<g>
		<g>
			<g>
				<path class="st1" d="M148.2,87.3c-1.4,0-2.8,0-4.2,0.7v-5.2c0.1-6.5-4.8-11.9-11-11.9h-0.3c-1.4-0.7-3.5,0-4.9,0.7
					c-2.1-3.7-5.6-6.7-9.9-6.7c-4.2,0-8.5,3-10.6,6.7c-1.5-0.8-3.2-1.4-4.9-1.5c-6.2-0.1-11.2,5.1-11.3,11.6v37.6l-4.9-9.7
					c-1.7-2.6-4.2-4.4-7-5.2c-2.8-0.7-5.6,0-8.5,1.5c-4.9,3-7,10.5-4.2,16.4c0.7,2.2,14,49.7,22.7,59c4.9,3,8.5,3,9.2,3h44.1
					c4.2,0,8.5-1.5,12.7-4.5c3.5-3,3.9-8.6,4-10.6c0.6-13.5,0.5-33.4,0.5-50.6V99.3c0.1-6.5-4.8-11.8-11-11.9H148.2L148.2,87.3z"/>
			</g>
		</g>
		<g>
			<path class="st16" d="M151.1,119c0,14.2,1.3,36.6-0.5,48.5c-0.5,3.2-2.3,7.4-10.3,7.4H98.4c-0.6,0-3.1-0.2-5.3-2.9
				c-5.6-6.5-18.1-51-18.8-52.4c-1.3-2.9,0-5.7,2-7.1c0.6-0.7,2-0.7,3.3-0.7c1.3,0,2,1.4,2.7,2.9l7.3,14.2c2,2.1,3.3,3.5,5.3,2.9
				c2,0,2.7-2.1,2.7-5.7V84.3c0.1-2.7,2.3-4.9,4.9-4.8c2.5,0.1,4.5,2.2,4.5,4.8v34c0.1,1.5,1.2,2.7,2.7,2.9c1.3,0,2-1.4,2-2.9v-39
				c0-2.7,2.1-5,4.7-5c2.6,0,4.7,2.2,4.7,5l0,0V119c0,1.6,1.2,2.9,2.7,2.9s2.7-1.2,2.7-2.9V84.3c0-2.7,2.1-5,4.7-5
				c2.6,0,4.7,2.2,4.7,5V124c0.1,1.6,1.3,2.8,2.8,2.7c1.4,0,2.5-1.2,2.6-2.7v-23.4c0.1-2.7,2.3-4.9,4.9-4.8c2.5,0.1,4.5,2.2,4.5,4.8
				L151.1,119L151.1,119L151.1,119z"/>
		</g>
	</g>
</g>
<path class="st0" d="M143.9,136.4c-4,0-7.2,3.4-7.2,7.6c0,4.2,3.2,7.6,7.2,7.6h26.6l-8.1,8.5c-2.8,3-2.8,7.8,0,10.8
	c2.8,3,7.3,3,10.2,0l20.3-21.5c2.8-3,2.8-7.8,0-10.8l-20.3-21.5c-2.8-3-7.3-3-10.2,0s-2.8,7.8,0,10.8l8.1,8.5L143.9,136.4
	L143.9,136.4z"/>
<path class="st0" d="M85,136.4H58.3l8-8.5c2.8-3,2.8-7.8,0-10.8c-2.8-3-7.3-3-10.2,0l-20.3,21.5c-2.8,3-2.8,7.8,0,10.8l20.3,21.5
	c2.8,3,7.3,3,10.2,0c2.8-3,2.8-7.8,0-10.8l-8.1-8.5H85c4,0,7.2-3.4,7.2-7.6S88.9,136.4,85,136.4L85,136.4z"/>
</svg>
