<?xml version="1.0" encoding="utf-8"?>
<!-- Generator: Adobe Illustrator 22.1.0, SVG Export Plug-In . SVG Version: 6.00 Build 0)  -->
<svg version="1.1" id="图层_1" xmlns="http://www.w3.org/2000/svg" xmlns:xlink="http://www.w3.org/1999/xlink" x="0px" y="0px"
	 viewBox="0 0 226.8 226.8" style="enable-background:new 0 0 226.8 226.8;" xml:space="preserve">
<style type="text/css">
	.st0{fill:#6082BB;}
	.st1{fill:#17336D;}
	.st2{fill:#040000;}
	.st3{fill:none;stroke:#6082BB;stroke-width:10;stroke-linecap:round;stroke-linejoin:round;}
	.st4{fill:none;stroke:#6082BB;stroke-width:10;stroke-linecap:round;stroke-linejoin:round;stroke-dasharray:17.9178,17.9178;}
	.st5{fill:none;stroke:#6082BB;stroke-width:7.5613;stroke-linecap:round;stroke-linejoin:round;stroke-miterlimit:10;}
	
		.st6{opacity:0.42;fill:none;stroke:#6082BB;stroke-width:7.5613;stroke-linecap:round;stroke-linejoin:round;stroke-miterlimit:10;}
	
		.st7{fill:none;stroke:#17336D;stroke-width:6.3011;stroke-linecap:round;stroke-linejoin:round;stroke-miterlimit:10;stroke-dasharray:12.6022;}
	.st8{fill:none;stroke:#6082BB;stroke-width:8.4158;stroke-linecap:round;stroke-linejoin:round;}
	.st9{fill:none;stroke:#6082BB;stroke-width:8.4158;stroke-linecap:round;stroke-linejoin:round;stroke-dasharray:12.3943,12.3943;}
	.st10{fill:none;stroke:#6082BB;stroke-width:5.6082;stroke-miterlimit:10;}
	.st11{fill:none;stroke:#6082BB;stroke-width:7.8662;stroke-linecap:round;stroke-linejoin:round;}
	
		.st12{fill:none;stroke:#6082BB;stroke-width:7.8662;stroke-linecap:round;stroke-linejoin:round;stroke-dasharray:10.4534,10.4534;}
	.st13{fill:none;stroke:#17336D;stroke-width:4.5906;stroke-linecap:round;stroke-linejoin:round;stroke-miterlimit:10;}
	.st14{fill:none;stroke:#17336D;stroke-width:5.284;stroke-linecap:round;stroke-linejoin:round;}
	
		.st15{fill:none;stroke:#17336D;stroke-width:5.284;stroke-linecap:round;stroke-linejoin:round;stroke-miterlimit:10;stroke-dasharray:10.5681;}
	.st16{fill:#FBFBFB;}
	.st17{fill:none;stroke:#17336D;stroke-width:6.0109;stroke-miterlimit:10;}
	.st18{fill:none;stroke:#536FA1;stroke-width:5.4635;stroke-linecap:round;stroke-linejoin:round;stroke-miterlimit:10;}
	.st19{fill:none;stroke:#6082BB;stroke-width:43.2453;stroke-miterlimit:10;}
	.st20{fill:none;stroke:#536FA1;stroke-width:6.1779;stroke-linecap:round;stroke-linejoin:round;stroke-miterlimit:10;}
	
		.st21{fill:none;stroke:#5270A4;stroke-width:9.6986;stroke-linecap:round;stroke-linejoin:round;stroke-miterlimit:10;stroke-dasharray:15.278;}
	.st22{fill:#E83D3D;stroke:#040000;stroke-width:0.6728;stroke-miterlimit:10;}
	.st23{fill:#52B560;stroke:#040000;stroke-width:0.6728;stroke-miterlimit:10;}
	.st24{fill:none;stroke:#17336D;stroke-width:8.0035;stroke-linecap:round;stroke-linejoin:round;stroke-miterlimit:10;}
	.st25{fill:#C1E5F1;}
	.st26{fill:none;stroke:#17336D;stroke-width:7.3915;stroke-linecap:round;stroke-linejoin:round;stroke-miterlimit:10;}
	.st27{fill:none;stroke:#17336D;stroke-width:3.6367;stroke-linecap:round;stroke-linejoin:round;stroke-miterlimit:10;}
	
		.st28{fill:none;stroke:#5270A4;stroke-width:11.5328;stroke-linecap:round;stroke-linejoin:round;stroke-miterlimit:10;stroke-dasharray:18.1673;}
</style>
<g>
	<path class="st0" d="M163.1,174.3h-85c-2.4,0-4.4-1.9-4.4-4.4l0,0c0-2.4,1.9-4.4,4.4-4.4h85c2.4,0,4.4,1.9,4.4,4.4l0,0
		C167.4,172.3,165.5,174.3,163.1,174.3z"/>
	<path class="st1" d="M74.1,161.3c-2.5,0-4.6-0.2-6.6-0.7c-1.9-0.4-3.6-1.2-4.9-2.2c-1.3-1.1-2.3-2.5-3-4.3s-1.1-4.1-1.1-6.8v-44.5
		c0-4.9,1.2-8.3,3.5-10.3c2.3-1.9,6-2.9,11-2.9h22.1c1.4,0,2.6-0.3,3.5-0.8s1.7-1.2,2.2-2.1c0.6-0.9,1.1-1.9,1.5-3.1
		c0.4-1.2,0.9-2.4,1.4-3.6c0.9-2.3,2.4-4.3,4.6-5.9s4.7-2.5,7.5-2.5h12.2c3.2,0,5.9,0.9,8,2.7c2.1,1.8,3.4,3.7,4.1,5.7
		c1,2.6,2.2,4.9,3.8,6.8c1.6,1.9,3.2,2.8,5,2.8h16.7c3.9-0.1,6.9,1,9.2,3.2c2.3,2.2,3.4,5.4,3.4,9.6v45.1c0,4.5-1.2,7.9-3.6,10.2
		c-2.4,2.3-5.5,3.5-9.5,3.5L74.1,161.3L74.1,161.3z M127.9,71.6c0-1.2-0.1-2.2-0.2-2.9c-0.1-0.7-0.9-1-2.4-1h-9.5
		c-1.5-0.1-2.2,0.2-2.4,0.9s-0.2,1.7-0.2,3c-0.1,1.5,0,2.5,0.2,3.1c0.2,0.6,1,0.9,2.3,0.9h9.5c1.5,0,2.2-0.3,2.4-1
		S127.9,72.9,127.9,71.6z"/>
	<g>
		<g>
			<path class="st16" d="M114.9,108.4V96.9l-23.2,17.4l23.2,17.4V108.4z M114.9,137.4V149h14.5c11.2,0,20.3-9.1,20.3-20.3
				c0-11.2-9.1-20.3-20.3-20.3h-14.5V120h14.5c4.8,0,8.7,3.9,8.7,8.7c0,4.8-3.9,8.7-8.7,8.7H114.9z"/>
			<path class="st16" d="M114.9,137.4c-3.2,0-5.8,2.6-5.8,5.8c0,3.2,2.6,5.8,5.8,5.8s5.8-2.6,5.8-5.8l0,0
				C120.7,140,118.1,137.4,114.9,137.4L114.9,137.4z"/>
		</g>
	</g>
</g>
</svg>
