<?xml version="1.0" encoding="utf-8"?>
<!-- Generator: Adobe Illustrator 22.1.0, SVG Export Plug-In . SVG Version: 6.00 Build 0)  -->
<svg version="1.1" id="图层_1" xmlns="http://www.w3.org/2000/svg" xmlns:xlink="http://www.w3.org/1999/xlink" x="0px" y="0px"
	 viewBox="0 0 226.8 226.8" style="enable-background:new 0 0 226.8 226.8;" xml:space="preserve">
<style type="text/css">
	.st0{fill:#6082BB;}
	.st1{fill:#17336D;}
	.st2{fill:#040000;}
	.st3{fill:none;stroke:#6082BB;stroke-width:10;stroke-linecap:round;stroke-linejoin:round;}
	.st4{fill:none;stroke:#6082BB;stroke-width:10;stroke-linecap:round;stroke-linejoin:round;stroke-dasharray:17.9178,17.9178;}
	.st5{fill:none;stroke:#6082BB;stroke-width:7.5613;stroke-linecap:round;stroke-linejoin:round;stroke-miterlimit:10;}
	
		.st6{opacity:0.42;fill:none;stroke:#6082BB;stroke-width:7.5613;stroke-linecap:round;stroke-linejoin:round;stroke-miterlimit:10;}
	
		.st7{fill:none;stroke:#17336D;stroke-width:6.3011;stroke-linecap:round;stroke-linejoin:round;stroke-miterlimit:10;stroke-dasharray:12.6022;}
	.st8{fill:none;stroke:#6082BB;stroke-width:8.4158;stroke-linecap:round;stroke-linejoin:round;}
	.st9{fill:none;stroke:#6082BB;stroke-width:8.4158;stroke-linecap:round;stroke-linejoin:round;stroke-dasharray:12.3943,12.3943;}
	.st10{fill:none;stroke:#6082BB;stroke-width:5.6082;stroke-miterlimit:10;}
	.st11{fill:none;stroke:#6082BB;stroke-width:7.8662;stroke-linecap:round;stroke-linejoin:round;}
	
		.st12{fill:none;stroke:#6082BB;stroke-width:7.8662;stroke-linecap:round;stroke-linejoin:round;stroke-dasharray:10.4534,10.4534;}
	.st13{fill:none;stroke:#17336D;stroke-width:4.5906;stroke-linecap:round;stroke-linejoin:round;stroke-miterlimit:10;}
	.st14{fill:none;stroke:#17336D;stroke-width:5.284;stroke-linecap:round;stroke-linejoin:round;}
	
		.st15{fill:none;stroke:#17336D;stroke-width:5.284;stroke-linecap:round;stroke-linejoin:round;stroke-miterlimit:10;stroke-dasharray:10.5681;}
	.st16{fill:#FBFBFB;}
	.st17{fill:none;stroke:#17336D;stroke-width:6.0109;stroke-miterlimit:10;}
	.st18{fill:none;stroke:#536FA1;stroke-width:5.4635;stroke-linecap:round;stroke-linejoin:round;stroke-miterlimit:10;}
	.st19{fill:none;stroke:#6082BB;stroke-width:43.2453;stroke-miterlimit:10;}
	.st20{fill:none;stroke:#536FA1;stroke-width:6.1779;stroke-linecap:round;stroke-linejoin:round;stroke-miterlimit:10;}
	
		.st21{fill:none;stroke:#5270A4;stroke-width:9.6986;stroke-linecap:round;stroke-linejoin:round;stroke-miterlimit:10;stroke-dasharray:15.278;}
	.st22{fill:#E83D3D;stroke:#040000;stroke-width:0.6728;stroke-miterlimit:10;}
	.st23{fill:#52B560;stroke:#040000;stroke-width:0.6728;stroke-miterlimit:10;}
	.st24{fill:none;stroke:#17336D;stroke-width:8.0035;stroke-linecap:round;stroke-linejoin:round;stroke-miterlimit:10;}
	.st25{fill:#C1E5F1;}
	.st26{fill:none;stroke:#17336D;stroke-width:7.3915;stroke-linecap:round;stroke-linejoin:round;stroke-miterlimit:10;}
	.st27{fill:none;stroke:#17336D;stroke-width:3.6367;stroke-linecap:round;stroke-linejoin:round;stroke-miterlimit:10;}
	
		.st28{fill:none;stroke:#5270A4;stroke-width:11.5328;stroke-linecap:round;stroke-linejoin:round;stroke-miterlimit:10;stroke-dasharray:18.1673;}
</style>
<path class="st0" d="M152.3,108.8h-9.9c-0.8-28.9-10.8-66.7-28-66.7c-7.7,0-18.3,5.8-25,33.3c-1,3.9,1.4,7.8,5.3,8.8
	c3.9,1,7.8-1.4,8.8-5.3l0,0c3.9-16.3,8.9-21.3,10.5-22.1c4,3.4,13.3,24.8,13.9,52.4h-12.3c-1.3,0-2.3,1.1-2.3,2.5
	c0,0.6,0.3,1.2,0.7,1.6l18.8,17.7c0.9,0.9,2.4,0.9,3.4,0c0,0,0,0,0,0l17.9-18.4c0.7-1.1,0.4-2.6-0.7-3.3
	C153.1,109,152.7,108.8,152.3,108.8z M114.4,200c-6.2,0-15.3-4-22-23.4c-1.4-3.8,0.6-7.9,4.4-9.3c3.8-1.4,7.9,0.6,9.3,4.4
	c0,0.1,0,0.1,0.1,0.2c3.9,11.2,7.7,13.6,8.3,13.6s6.6-4.2,11-23.1c0.9-3.9,4.8-6.3,8.7-5.4c3.9,0.9,6.3,4.8,5.4,8.7
	C134.3,188.1,125.6,200,114.4,200z"/>
<path class="st1" d="M62,146.5c-1.1,0.1-2.2-0.1-3.2-0.5c-16.2-6.6-19.7-15.1-19.7-20.8c0-19.7,36.2-28,67.3-29.6c4-0.1,7.4,3,7.5,7
	c0.1,3.9-2.9,7.3-6.8,7.5c-37.4,1.9-53.5,12-53.5,15.1c0,0,1.9,3.8,11,7.3c3.8,1.3,5.8,5.4,4.5,9.1C68.1,144.7,65.2,146.6,62,146.5z
	"/>
<path class="st1" d="M164.1,100.3c-3.9-1-7.8,1.4-8.8,5.3c-1,3.9,1.4,7.8,5.3,8.8c17.9,4.4,21.9,9.9,21.9,10.8
	c0,3.9-22.1,15.6-64.4,15.6c-7,0-13.8,0-20.4-1.1l0.7-11.8c0.1-1.3-1-2.4-2.3-2.5c-0.7,0-1.3,0.2-1.8,0.7l-18.9,17.6
	c-0.9,0.9-0.9,2.4,0,3.4c0,0,0,0,0,0l17.6,18.6c0.9,1,2.4,1.1,3.3,0.2c0.5-0.5,0.8-1.1,0.8-1.8v-9.9c6.8,0.6,13.7,1.1,20.8,1.1
	c38,0,78.9-9.4,78.9-29.6C197,117.6,191.3,107.1,164.1,100.3L164.1,100.3z"/>
</svg>
