<?xml version="1.0" encoding="utf-8"?>
<!-- Generator: Adobe Illustrator 22.1.0, SVG Export Plug-In . SVG Version: 6.00 Build 0)  -->
<svg version="1.1" id="图层_1" xmlns="http://www.w3.org/2000/svg" xmlns:xlink="http://www.w3.org/1999/xlink" x="0px" y="0px"
	 viewBox="0 0 226.8 226.8" style="enable-background:new 0 0 226.8 226.8;" xml:space="preserve">
<style type="text/css">
	.st0{fill:#6082BB;}
	.st1{fill:#17336D;}
	.st2{fill:#040000;}
	.st3{fill:none;stroke:#6082BB;stroke-width:10;stroke-linecap:round;stroke-linejoin:round;}
	.st4{fill:none;stroke:#6082BB;stroke-width:10;stroke-linecap:round;stroke-linejoin:round;stroke-dasharray:17.9178,17.9178;}
	.st5{fill:none;stroke:#6082BB;stroke-width:7.5613;stroke-linecap:round;stroke-linejoin:round;stroke-miterlimit:10;}
	
		.st6{opacity:0.42;fill:none;stroke:#6082BB;stroke-width:7.5613;stroke-linecap:round;stroke-linejoin:round;stroke-miterlimit:10;}
	
		.st7{fill:none;stroke:#17336D;stroke-width:6.3011;stroke-linecap:round;stroke-linejoin:round;stroke-miterlimit:10;stroke-dasharray:12.6022;}
	.st8{fill:none;stroke:#6082BB;stroke-width:8.4158;stroke-linecap:round;stroke-linejoin:round;}
	.st9{fill:none;stroke:#6082BB;stroke-width:8.4158;stroke-linecap:round;stroke-linejoin:round;stroke-dasharray:12.3943,12.3943;}
	.st10{fill:none;stroke:#6082BB;stroke-width:5.6082;stroke-miterlimit:10;}
	.st11{fill:none;stroke:#6082BB;stroke-width:7.8662;stroke-linecap:round;stroke-linejoin:round;}
	
		.st12{fill:none;stroke:#6082BB;stroke-width:7.8662;stroke-linecap:round;stroke-linejoin:round;stroke-dasharray:10.4534,10.4534;}
	.st13{fill:none;stroke:#17336D;stroke-width:4.5906;stroke-linecap:round;stroke-linejoin:round;stroke-miterlimit:10;}
	.st14{fill:none;stroke:#17336D;stroke-width:5.284;stroke-linecap:round;stroke-linejoin:round;}
	
		.st15{fill:none;stroke:#17336D;stroke-width:5.284;stroke-linecap:round;stroke-linejoin:round;stroke-miterlimit:10;stroke-dasharray:10.5681;}
	.st16{fill:#FBFBFB;}
	.st17{fill:none;stroke:#17336D;stroke-width:6.0109;stroke-miterlimit:10;}
	.st18{fill:none;stroke:#536FA1;stroke-width:5.4635;stroke-linecap:round;stroke-linejoin:round;stroke-miterlimit:10;}
	.st19{fill:none;stroke:#6082BB;stroke-width:43.2453;stroke-miterlimit:10;}
	.st20{fill:none;stroke:#536FA1;stroke-width:6.1779;stroke-linecap:round;stroke-linejoin:round;stroke-miterlimit:10;}
	
		.st21{fill:none;stroke:#5270A4;stroke-width:9.6986;stroke-linecap:round;stroke-linejoin:round;stroke-miterlimit:10;stroke-dasharray:15.278;}
	.st22{fill:#E83D3D;stroke:#040000;stroke-width:0.6728;stroke-miterlimit:10;}
	.st23{fill:#52B560;stroke:#040000;stroke-width:0.6728;stroke-miterlimit:10;}
	.st24{fill:none;stroke:#17336D;stroke-width:8.0035;stroke-linecap:round;stroke-linejoin:round;stroke-miterlimit:10;}
	.st25{fill:#C1E5F1;}
	.st26{fill:none;stroke:#17336D;stroke-width:7.3915;stroke-linecap:round;stroke-linejoin:round;stroke-miterlimit:10;}
	.st27{fill:none;stroke:#17336D;stroke-width:3.6367;stroke-linecap:round;stroke-linejoin:round;stroke-miterlimit:10;}
	
		.st28{fill:none;stroke:#5270A4;stroke-width:11.5328;stroke-linecap:round;stroke-linejoin:round;stroke-miterlimit:10;stroke-dasharray:18.1673;}
</style>
<path class="st0" d="M180.5,40.7c7.2,0,13,5.8,13,13v119.5c0,7.2-5.8,13-13,13H61c-7.2,0-13-5.8-13-13V53.6c0-7.2,5.8-13,13-13
	H180.5z M180.5,53.6H61v119.5h119.5V53.6z"/>
<path class="st1" d="M111,115.8l7.3,7.3c0.5,0.5,0.5,1.3,0,1.8c0,0,0,0,0,0L99.4,144l16.6,16.6c0.5,0.5,0.5,1.3,0,1.8
	c-0.2,0.2-0.6,0.4-0.9,0.4H74c-1.4,0-2.6-1.2-2.6-2.6v-41c0-0.7,0.6-1.3,1.3-1.3c0.3,0,0.7,0.1,0.9,0.4l16.6,16.6l18.9-18.9
	C109.6,115.3,110.4,115.3,111,115.8C111,115.8,111,115.8,111,115.8L111,115.8z"/>
<path class="st1" d="M126.5,64h41c1.4,0,2.6,1.2,2.6,2.6v41c0,0.7-0.6,1.3-1.3,1.3c-0.3,0-0.7-0.1-0.9-0.4L151.3,92l-18.9,18.9
	c-0.5,0.5-1.3,0.5-1.8,0c0,0,0,0,0,0l-7.3-7.3c-0.5-0.5-0.5-1.3,0-1.8c0,0,0,0,0,0l18.9-18.9l-16.6-16.6c-0.5-0.5-0.5-1.3,0-1.8
	C125.8,64.2,126.1,64,126.5,64L126.5,64z"/>
</svg>
