<?xml version="1.0" encoding="utf-8"?>
<!-- Generator: Adobe Illustrator 22.1.0, SVG Export Plug-In . SVG Version: 6.00 Build 0)  -->
<svg version="1.1" id="图层_1" xmlns="http://www.w3.org/2000/svg" xmlns:xlink="http://www.w3.org/1999/xlink" x="0px" y="0px"
	 viewBox="0 0 226.8 226.8" style="enable-background:new 0 0 226.8 226.8;" xml:space="preserve">
<style type="text/css">
	.st0{fill:#6082BB;}
	.st1{fill:#17336D;}
	.st2{fill:#040000;}
	.st3{fill:none;stroke:#6082BB;stroke-width:10;stroke-linecap:round;stroke-linejoin:round;}
	.st4{fill:none;stroke:#6082BB;stroke-width:10;stroke-linecap:round;stroke-linejoin:round;stroke-dasharray:17.9178,17.9178;}
	.st5{fill:none;stroke:#6082BB;stroke-width:7.5613;stroke-linecap:round;stroke-linejoin:round;stroke-miterlimit:10;}
	
		.st6{opacity:0.42;fill:none;stroke:#6082BB;stroke-width:7.5613;stroke-linecap:round;stroke-linejoin:round;stroke-miterlimit:10;}
	
		.st7{fill:none;stroke:#17336D;stroke-width:6.3011;stroke-linecap:round;stroke-linejoin:round;stroke-miterlimit:10;stroke-dasharray:12.6022;}
	.st8{fill:none;stroke:#6082BB;stroke-width:8.4158;stroke-linecap:round;stroke-linejoin:round;}
	.st9{fill:none;stroke:#6082BB;stroke-width:8.4158;stroke-linecap:round;stroke-linejoin:round;stroke-dasharray:12.3943,12.3943;}
	.st10{fill:none;stroke:#6082BB;stroke-width:5.6082;stroke-miterlimit:10;}
	.st11{fill:none;stroke:#6082BB;stroke-width:7.8662;stroke-linecap:round;stroke-linejoin:round;}
	
		.st12{fill:none;stroke:#6082BB;stroke-width:7.8662;stroke-linecap:round;stroke-linejoin:round;stroke-dasharray:10.4534,10.4534;}
	.st13{fill:none;stroke:#17336D;stroke-width:4.5906;stroke-linecap:round;stroke-linejoin:round;stroke-miterlimit:10;}
	.st14{fill:none;stroke:#17336D;stroke-width:5.284;stroke-linecap:round;stroke-linejoin:round;}
	
		.st15{fill:none;stroke:#17336D;stroke-width:5.284;stroke-linecap:round;stroke-linejoin:round;stroke-miterlimit:10;stroke-dasharray:10.5681;}
	.st16{fill:#FBFBFB;}
	.st17{fill:none;stroke:#17336D;stroke-width:6.0109;stroke-miterlimit:10;}
	.st18{fill:none;stroke:#536FA1;stroke-width:5.4635;stroke-linecap:round;stroke-linejoin:round;stroke-miterlimit:10;}
	.st19{fill:none;stroke:#6082BB;stroke-width:43.2453;stroke-miterlimit:10;}
	.st20{fill:none;stroke:#536FA1;stroke-width:6.1779;stroke-linecap:round;stroke-linejoin:round;stroke-miterlimit:10;}
	
		.st21{fill:none;stroke:#5270A4;stroke-width:9.6986;stroke-linecap:round;stroke-linejoin:round;stroke-miterlimit:10;stroke-dasharray:15.278;}
	.st22{fill:#E83D3D;stroke:#040000;stroke-width:0.6728;stroke-miterlimit:10;}
	.st23{fill:#52B560;stroke:#040000;stroke-width:0.6728;stroke-miterlimit:10;}
	.st24{fill:none;stroke:#17336D;stroke-width:8.0035;stroke-linecap:round;stroke-linejoin:round;stroke-miterlimit:10;}
	.st25{fill:#C1E5F1;}
	.st26{fill:none;stroke:#17336D;stroke-width:7.3915;stroke-linecap:round;stroke-linejoin:round;stroke-miterlimit:10;}
	.st27{fill:none;stroke:#17336D;stroke-width:3.6367;stroke-linecap:round;stroke-linejoin:round;stroke-miterlimit:10;}
	
		.st28{fill:none;stroke:#5270A4;stroke-width:11.5328;stroke-linecap:round;stroke-linejoin:round;stroke-miterlimit:10;stroke-dasharray:18.1673;}
</style>
<g>
	<path class="st0" d="M49.3,151.5c-1.1,0.1-2.2-0.1-3.3-0.5c-16.7-6.8-20.4-15.6-20.4-21.5c0-20.4,37.4-29,69.5-30.6
		c4.1-0.2,7.6,3.1,7.8,7.2c0.2,4.1-3,7.5-7.1,7.8c-38.6,1.9-55.3,12.4-55.3,15.6c0,0,1.9,3.9,11.4,7.5c3.9,1.3,6,5.6,4.6,9.5
		C55.6,149.6,52.6,151.6,49.3,151.5z"/>
	<path class="st0" d="M180.6,109.1c-4-1-8.1,1.5-9.1,5.5c-1,4,1.5,8.1,5.5,9.1c18.5,4.6,22.6,10.2,22.6,11.1
		c0,4.1-22.8,16.1-66.6,16.1c-7.2,0-14.3,0-21.1-1.1l0.7-12.2c0.1-1.4-1-2.5-2.3-2.6c-0.7,0-1.4,0.2-1.8,0.7l-19.6,18.1
		c-1,1-1,2.5,0,3.5c0,0,0,0,0,0l18.1,19.3c0.9,1,2.4,1.1,3.5,0.2c0.5-0.5,0.8-1.1,0.8-1.9v-10.2c7,0.6,14.2,1.1,21.5,1.1
		c39.3,0,81.6-9.7,81.6-30.6C214.6,127,208.7,116.2,180.6,109.1L180.6,109.1z"/>
	<path class="st1" d="M142.7,97.7c0,2.2-0.4,4.3-1.2,6.2s-1.9,3.6-3.4,5c-1.4,1.4-3.1,2.5-5,3.4c-1.9,0.8-3.9,1.2-6.1,1.2
		c-2.2,0-4.3-0.4-6.1-1.2c-1.9-0.8-3.5-1.9-5-3.4s-2.5-3.1-3.4-5c-0.8-1.9-1.2-4-1.2-6.2c0-2.1,0.4-4.2,1.2-6.1
		c0.8-1.9,1.9-3.6,3.4-5c1.4-1.4,3.1-2.5,5-3.4s3.9-1.2,6.1-1.2c2.2,0,4.3,0.4,6.1,1.2c1.9,0.8,3.5,1.9,5,3.4c1.4,1.4,2.5,3.1,3.4,5
		S142.7,95.6,142.7,97.7z M84.2,129.2c-2.2,0-4.2-0.2-5.9-0.6c-1.7-0.4-3.2-1.1-4.4-2c-1.2-0.9-2.1-2.2-2.7-3.8
		c-0.6-1.6-0.9-3.6-0.9-6.1V76.7c0-4.4,1-7.5,3.1-9.2s5.4-2.6,9.9-2.6h19.8c1.3,0,2.3-0.2,3.1-0.7c0.8-0.5,1.5-1.1,2-1.9
		c0.5-0.8,1-1.7,1.4-2.8c0.4-1.1,0.8-2.1,1.3-3.2c0.8-2,2.2-3.8,4.1-5.3c2-1.5,4.2-2.2,6.7-2.2h11c2.9,0,5.3,0.8,7.1,2.4
		c1.9,1.6,3.1,3.3,3.7,5.1c0.9,2.4,2,4.4,3.4,6.1c1.4,1.7,2.9,2.5,4.5,2.5h15c3.5-0.1,6.2,0.9,8.3,2.8c2,2,3.1,4.8,3.1,8.6v40.5
		c0,4-1.1,7.1-3.2,9.2c-2.1,2.1-5,3.1-8.5,3.1L84.2,129.2L84.2,129.2z M126.8,73c-3.5,0-6.7,0.6-9.7,1.9c-3,1.3-5.6,3.1-7.8,5.3
		c-2.2,2.2-4,4.9-5.3,7.9c-1.3,3-1.9,6.2-1.9,9.6c0,3.5,0.6,6.7,1.9,9.7c1.3,3,3.1,5.6,5.3,7.8c2.2,2.2,4.8,4,7.8,5.3
		c3,1.3,6.2,1.9,9.7,1.9c3.4,0,6.6-0.6,9.6-1.9c3-1.3,5.6-3.1,7.8-5.3c2.2-2.2,4-4.8,5.3-7.8c1.3-3,1.9-6.2,1.9-9.7
		c0-3.4-0.6-6.6-1.9-9.6c-1.3-3-3.1-5.6-5.3-7.9c-2.2-2.2-4.8-4-7.8-5.3C133.3,73.7,130.1,73,126.8,73L126.8,73z M135,60.3
		c0-1.3-0.1-2.2-0.2-3c-0.1-0.7-0.9-1.1-2.4-1.1h-9.8c-1.5-0.1-2.3,0.2-2.4,0.9c-0.1,0.7-0.2,1.7-0.2,3.1c-0.1,1.5,0,2.6,0.2,3.2
		c0.2,0.6,1,0.9,2.4,0.9h9.8c1.5,0,2.3-0.4,2.4-1.1C135,62.7,135,61.6,135,60.3z"/>
</g>
</svg>
