<?xml version="1.0" encoding="utf-8"?>
<!-- Generator: Adobe Illustrator 22.1.0, SVG Export Plug-In . SVG Version: 6.00 Build 0)  -->
<svg version="1.1" id="图层_1" xmlns="http://www.w3.org/2000/svg" xmlns:xlink="http://www.w3.org/1999/xlink" x="0px" y="0px"
	 viewBox="0 0 226.8 226.8" style="enable-background:new 0 0 226.8 226.8;" xml:space="preserve">
<style type="text/css">
	.st0{fill:#6082BB;}
	.st1{fill:#17336D;}
	.st2{fill:#040000;}
	.st3{fill:none;stroke:#6082BB;stroke-width:10;stroke-linecap:round;stroke-linejoin:round;}
	.st4{fill:none;stroke:#6082BB;stroke-width:10;stroke-linecap:round;stroke-linejoin:round;stroke-dasharray:17.9178,17.9178;}
	.st5{fill:none;stroke:#6082BB;stroke-width:7.5613;stroke-linecap:round;stroke-linejoin:round;stroke-miterlimit:10;}
	
		.st6{opacity:0.42;fill:none;stroke:#6082BB;stroke-width:7.5613;stroke-linecap:round;stroke-linejoin:round;stroke-miterlimit:10;}
	
		.st7{fill:none;stroke:#17336D;stroke-width:6.3011;stroke-linecap:round;stroke-linejoin:round;stroke-miterlimit:10;stroke-dasharray:12.6022;}
	.st8{fill:none;stroke:#6082BB;stroke-width:8.4158;stroke-linecap:round;stroke-linejoin:round;}
	.st9{fill:none;stroke:#6082BB;stroke-width:8.4158;stroke-linecap:round;stroke-linejoin:round;stroke-dasharray:12.3943,12.3943;}
	.st10{fill:none;stroke:#6082BB;stroke-width:5.6082;stroke-miterlimit:10;}
	.st11{fill:none;stroke:#6082BB;stroke-width:7.8662;stroke-linecap:round;stroke-linejoin:round;}
	
		.st12{fill:none;stroke:#6082BB;stroke-width:7.8662;stroke-linecap:round;stroke-linejoin:round;stroke-dasharray:10.4534,10.4534;}
	.st13{fill:none;stroke:#17336D;stroke-width:4.5906;stroke-linecap:round;stroke-linejoin:round;stroke-miterlimit:10;}
	.st14{fill:none;stroke:#17336D;stroke-width:5.284;stroke-linecap:round;stroke-linejoin:round;}
	
		.st15{fill:none;stroke:#17336D;stroke-width:5.284;stroke-linecap:round;stroke-linejoin:round;stroke-miterlimit:10;stroke-dasharray:10.5681;}
	.st16{fill:#FBFBFB;}
	.st17{fill:none;stroke:#17336D;stroke-width:6.0109;stroke-miterlimit:10;}
	.st18{fill:none;stroke:#536FA1;stroke-width:5.4635;stroke-linecap:round;stroke-linejoin:round;stroke-miterlimit:10;}
	.st19{fill:none;stroke:#6082BB;stroke-width:43.2453;stroke-miterlimit:10;}
	.st20{fill:none;stroke:#536FA1;stroke-width:6.1779;stroke-linecap:round;stroke-linejoin:round;stroke-miterlimit:10;}
	
		.st21{fill:none;stroke:#5270A4;stroke-width:9.6986;stroke-linecap:round;stroke-linejoin:round;stroke-miterlimit:10;stroke-dasharray:15.278;}
	.st22{fill:#E83D3D;stroke:#040000;stroke-width:0.6728;stroke-miterlimit:10;}
	.st23{fill:#52B560;stroke:#040000;stroke-width:0.6728;stroke-miterlimit:10;}
	.st24{fill:none;stroke:#17336D;stroke-width:8.0035;stroke-linecap:round;stroke-linejoin:round;stroke-miterlimit:10;}
	.st25{fill:#C1E5F1;}
	.st26{fill:none;stroke:#17336D;stroke-width:7.3915;stroke-linecap:round;stroke-linejoin:round;stroke-miterlimit:10;}
	.st27{fill:none;stroke:#17336D;stroke-width:3.6367;stroke-linecap:round;stroke-linejoin:round;stroke-miterlimit:10;}
	
		.st28{fill:none;stroke:#5270A4;stroke-width:11.5328;stroke-linecap:round;stroke-linejoin:round;stroke-miterlimit:10;stroke-dasharray:18.1673;}
</style>
<g>
	<path class="st0" d="M65,96.4c0,3.5,2.8,6.3,6.3,6.3c3.5,0,6.3-2.8,6.3-6.3V73.2l7,7c2.5,2.5,6.4,2.5,8.9,0c2.5-2.5,2.5-6.4,0-8.9
		L75.7,53.6c-2.5-2.5-6.4-2.5-8.9,0L49.1,71.3c-2.5,2.5-2.5,6.4,0,8.9c2.5,2.5,6.4,2.5,8.9,0l7-7L65,96.4L65,96.4z"/>
	<path class="st0" d="M65,147.9v23.3l-7-7c-2.5-2.5-6.4-2.5-8.9,0c-2.5,2.5-2.5,6.4,0,8.9l17.7,17.7c2.5,2.5,6.4,2.5,8.9,0L93.4,173
		c2.5-2.5,2.5-6.4,0-8.9c-2.5-2.5-6.4-2.5-8.9,0l-7,7v-23.3c0-3.5-2.8-6.3-6.3-6.3C67.8,141.7,65,144.5,65,147.9L65,147.9z"/>
	<path class="st1" d="M164.8,118.8c0,2-0.4,3.8-1.1,5.6c-0.7,1.7-1.8,3.2-3,4.5c-1.3,1.3-2.8,2.3-4.5,3c-1.7,0.7-3.5,1.1-5.5,1.1
		s-3.8-0.4-5.5-1.1c-1.7-0.7-3.2-1.8-4.5-3c-1.3-1.3-2.3-2.8-3-4.5s-1.1-3.6-1.1-5.6c0-1.9,0.4-3.7,1.1-5.5c0.7-1.7,1.8-3.2,3-4.5
		s2.8-2.3,4.5-3c1.7-0.7,3.5-1.1,5.5-1.1c2,0,3.8,0.4,5.5,1.1c1.7,0.7,3.2,1.8,4.5,3c1.3,1.3,2.3,2.8,3,4.5
		C164.4,115.1,164.8,116.9,164.8,118.8z M112.3,147.1c-2,0-3.8-0.2-5.3-0.5s-2.9-1-3.9-1.8s-1.9-2-2.4-3.4c-0.6-1.5-0.8-3.3-0.8-5.5
		V99.9c0-4,0.9-6.7,2.8-8.3c1.9-1.6,4.8-2.3,8.9-2.3h17.8c1.1,0,2.1-0.2,2.8-0.6s1.3-1,1.8-1.7c0.5-0.7,0.9-1.5,1.2-2.5
		s0.7-1.9,1.2-2.9c0.7-1.8,1.9-3.4,3.7-4.8s3.8-2,6.1-2h9.9c2.6,0,4.8,0.7,6.4,2.2c1.7,1.5,2.8,3,3.3,4.6c0.8,2.1,1.8,3.9,3.1,5.5
		s2.6,2.3,4,2.3h13.5c3.1-0.1,5.6,0.8,7.4,2.5c1.8,1.8,2.8,4.4,2.8,7.7V136c0,3.6-1,6.4-2.9,8.2s-4.5,2.8-7.6,2.8L112.3,147.1
		L112.3,147.1z M150.5,96.6c-3.1,0-6,0.6-8.7,1.8c-2.7,1.2-5,2.8-7,4.8c-2,2-3.6,4.4-4.7,7.1c-1.2,2.7-1.8,5.6-1.8,8.6
		c0,3.1,0.6,6,1.8,8.7c1.2,2.7,2.7,5,4.7,7c2,2,4.3,3.6,7,4.7s5.6,1.8,8.7,1.8c3,0,5.9-0.6,8.6-1.8s5-2.7,7-4.7c2-2,3.6-4.3,4.7-7
		c1.2-2.7,1.8-5.6,1.8-8.7c0-3-0.6-5.9-1.8-8.6c-1.2-2.7-2.7-5-4.7-7.1c-2-2-4.3-3.6-7-4.8C156.4,97.2,153.5,96.6,150.5,96.6
		L150.5,96.6z M157.9,85.2c0-1.1-0.1-2-0.2-2.7s-0.8-1-2.2-1h-8.8c-1.3-0.1-2.1,0.2-2.2,0.8s-0.2,1.6-0.2,2.8
		c-0.1,1.3,0,2.3,0.2,2.9c0.2,0.6,0.9,0.8,2.1,0.8h8.8c1.3,0,2.1-0.3,2.2-1S157.9,86.4,157.9,85.2z"/>
</g>
</svg>
