<?xml version="1.0" encoding="utf-8"?>
<!-- Generator: Adobe Illustrator 22.1.0, SVG Export Plug-In . SVG Version: 6.00 Build 0)  -->
<svg version="1.1" id="图层_1" xmlns="http://www.w3.org/2000/svg" xmlns:xlink="http://www.w3.org/1999/xlink" x="0px" y="0px"
	 viewBox="0 0 226.8 226.8" style="enable-background:new 0 0 226.8 226.8;" xml:space="preserve">
<style type="text/css">
	.st0{fill:#6082BB;}
	.st1{fill:#17336D;}
	.st2{fill:#040000;}
	.st3{fill:none;stroke:#6082BB;stroke-width:10;stroke-linecap:round;stroke-linejoin:round;}
	.st4{fill:none;stroke:#6082BB;stroke-width:10;stroke-linecap:round;stroke-linejoin:round;stroke-dasharray:17.9178,17.9178;}
	.st5{fill:none;stroke:#6082BB;stroke-width:7.5613;stroke-linecap:round;stroke-linejoin:round;stroke-miterlimit:10;}
	
		.st6{opacity:0.42;fill:none;stroke:#6082BB;stroke-width:7.5613;stroke-linecap:round;stroke-linejoin:round;stroke-miterlimit:10;}
	
		.st7{fill:none;stroke:#17336D;stroke-width:6.3011;stroke-linecap:round;stroke-linejoin:round;stroke-miterlimit:10;stroke-dasharray:12.6022;}
	.st8{fill:none;stroke:#6082BB;stroke-width:8.4158;stroke-linecap:round;stroke-linejoin:round;}
	.st9{fill:none;stroke:#6082BB;stroke-width:8.4158;stroke-linecap:round;stroke-linejoin:round;stroke-dasharray:12.3943,12.3943;}
	.st10{fill:none;stroke:#6082BB;stroke-width:5.6082;stroke-miterlimit:10;}
	.st11{fill:none;stroke:#6082BB;stroke-width:7.8662;stroke-linecap:round;stroke-linejoin:round;}
	
		.st12{fill:none;stroke:#6082BB;stroke-width:7.8662;stroke-linecap:round;stroke-linejoin:round;stroke-dasharray:10.4534,10.4534;}
	.st13{fill:none;stroke:#17336D;stroke-width:4.5906;stroke-linecap:round;stroke-linejoin:round;stroke-miterlimit:10;}
	.st14{fill:none;stroke:#17336D;stroke-width:5.284;stroke-linecap:round;stroke-linejoin:round;}
	
		.st15{fill:none;stroke:#17336D;stroke-width:5.284;stroke-linecap:round;stroke-linejoin:round;stroke-miterlimit:10;stroke-dasharray:10.5681;}
	.st16{fill:#FBFBFB;}
	.st17{fill:none;stroke:#17336D;stroke-width:6.0109;stroke-miterlimit:10;}
	.st18{fill:none;stroke:#536FA1;stroke-width:5.4635;stroke-linecap:round;stroke-linejoin:round;stroke-miterlimit:10;}
	.st19{fill:none;stroke:#6082BB;stroke-width:43.2453;stroke-miterlimit:10;}
	.st20{fill:none;stroke:#536FA1;stroke-width:6.1779;stroke-linecap:round;stroke-linejoin:round;stroke-miterlimit:10;}
	
		.st21{fill:none;stroke:#5270A4;stroke-width:9.6986;stroke-linecap:round;stroke-linejoin:round;stroke-miterlimit:10;stroke-dasharray:15.278;}
	.st22{fill:#E83D3D;stroke:#040000;stroke-width:0.6728;stroke-miterlimit:10;}
	.st23{fill:#52B560;stroke:#040000;stroke-width:0.6728;stroke-miterlimit:10;}
	.st24{fill:none;stroke:#17336D;stroke-width:8.0035;stroke-linecap:round;stroke-linejoin:round;stroke-miterlimit:10;}
	.st25{fill:#C1E5F1;}
	.st26{fill:none;stroke:#17336D;stroke-width:7.3915;stroke-linecap:round;stroke-linejoin:round;stroke-miterlimit:10;}
	.st27{fill:none;stroke:#17336D;stroke-width:3.6367;stroke-linecap:round;stroke-linejoin:round;stroke-miterlimit:10;}
	
		.st28{fill:none;stroke:#5270A4;stroke-width:11.5328;stroke-linecap:round;stroke-linejoin:round;stroke-miterlimit:10;stroke-dasharray:18.1673;}
</style>
<g>
	<path class="st1" d="M71.7,109.6c6.5-13.2,23-34.6,48-34.6s41.5,21.4,48,34.6c1,2,1,4.3,0,6.3c-6.5,13.2-23,34.6-48,34.6
		s-41.5-21.4-48-34.6C70.7,113.9,70.7,111.6,71.7,109.6z M119.7,129.5c9.1,0,16.5-7.5,16.5-16.8s-7.4-16.8-16.5-16.8
		s-16.5,7.5-16.5,16.8S110.6,129.5,119.7,129.5z"/>
	<path class="st0" d="M162.6,85.7c2.4,2.4,6.3,2.4,8.7,0l16.2-16.5v10c0,3.5,2.8,6.3,6.2,6.3c3.4,0,6.2-2.8,6.2-6.3V54
		c0-3.5-2.8-6.3-6.2-6.3h-24.7c-3.4,0-6.2,2.8-6.2,6.3c0,3.5,2.8,6.3,6.2,6.3h9.8l-16.2,16.5C160.2,79.3,160.2,83.3,162.6,85.7z"/>
	<path class="st0" d="M68,85.7c2.4,2.5,6.3,2.5,8.7,0c2.4-2.5,2.4-6.5,0-8.9L60.5,60.3h9.8c3.4,0,6.2-2.8,6.2-6.3
		c0-3.5-2.8-6.3-6.2-6.3H45.6c-3.4,0-6.2,2.8-6.2,6.3v25.1c0,3.5,2.8,6.3,6.2,6.3c3.4,0,6.2-2.8,6.2-6.3v-10L68,85.7L68,85.7z"/>
	<path class="st0" d="M162.7,139.8c-2.4,2.5-2.4,6.5,0,8.9l16.2,16.5h-9.8c-3.4,0-6.2,2.8-6.2,6.3c0,3.5,2.8,6.3,6.2,6.3h24.7
		c3.4,0,6.2-2.8,6.2-6.3v-25.2c0-3.5-2.8-6.3-6.2-6.3c-3.4,0-6.2,2.8-6.2,6.3v10l-16.2-16.5C169,137.3,165.1,137.3,162.7,139.8
		L162.7,139.8z"/>
	<path class="st0" d="M68,139.7l-16.2,16.5v-10c0-3.5-2.8-6.3-6.2-6.3c-3.4,0-6.2,2.8-6.2,6.3v25.2c0,3.5,2.8,6.3,6.2,6.3h24.7
		c3.4,0,6.2-2.8,6.2-6.3s-2.8-6.3-6.2-6.3h-9.8l16.2-16.5c2.4-2.5,2.4-6.5,0-8.9C74.3,137.3,70.4,137.3,68,139.7L68,139.7z"/>
</g>
</svg>
