<?xml version="1.0" encoding="utf-8"?>
<!-- Generator: Adobe Illustrator 22.1.0, SVG Export Plug-In . SVG Version: 6.00 Build 0)  -->
<svg version="1.1" id="图层_1" xmlns="http://www.w3.org/2000/svg" xmlns:xlink="http://www.w3.org/1999/xlink" x="0px" y="0px"
	 viewBox="0 0 226.8 226.8" style="enable-background:new 0 0 226.8 226.8;" xml:space="preserve">
<style type="text/css">
	.st0{fill:#6082BB;}
	.st1{fill:#17336D;}
	.st2{fill:#040000;}
	.st3{fill:none;stroke:#6082BB;stroke-width:10;stroke-linecap:round;stroke-linejoin:round;}
	.st4{fill:none;stroke:#6082BB;stroke-width:10;stroke-linecap:round;stroke-linejoin:round;stroke-dasharray:17.9178,17.9178;}
	.st5{fill:none;stroke:#6082BB;stroke-width:7.5613;stroke-linecap:round;stroke-linejoin:round;stroke-miterlimit:10;}
	
		.st6{opacity:0.42;fill:none;stroke:#6082BB;stroke-width:7.5613;stroke-linecap:round;stroke-linejoin:round;stroke-miterlimit:10;}
	
		.st7{fill:none;stroke:#17336D;stroke-width:6.3011;stroke-linecap:round;stroke-linejoin:round;stroke-miterlimit:10;stroke-dasharray:12.6022;}
	.st8{fill:none;stroke:#6082BB;stroke-width:8.4158;stroke-linecap:round;stroke-linejoin:round;}
	.st9{fill:none;stroke:#6082BB;stroke-width:8.4158;stroke-linecap:round;stroke-linejoin:round;stroke-dasharray:12.3943,12.3943;}
	.st10{fill:none;stroke:#6082BB;stroke-width:5.6082;stroke-miterlimit:10;}
	.st11{fill:none;stroke:#6082BB;stroke-width:7.8662;stroke-linecap:round;stroke-linejoin:round;}
	
		.st12{fill:none;stroke:#6082BB;stroke-width:7.8662;stroke-linecap:round;stroke-linejoin:round;stroke-dasharray:10.4534,10.4534;}
	.st13{fill:none;stroke:#17336D;stroke-width:4.5906;stroke-linecap:round;stroke-linejoin:round;stroke-miterlimit:10;}
	.st14{fill:none;stroke:#17336D;stroke-width:5.284;stroke-linecap:round;stroke-linejoin:round;}
	
		.st15{fill:none;stroke:#17336D;stroke-width:5.284;stroke-linecap:round;stroke-linejoin:round;stroke-miterlimit:10;stroke-dasharray:10.5681;}
	.st16{fill:#FBFBFB;}
	.st17{fill:none;stroke:#17336D;stroke-width:6.0109;stroke-miterlimit:10;}
	.st18{fill:none;stroke:#536FA1;stroke-width:5.4635;stroke-linecap:round;stroke-linejoin:round;stroke-miterlimit:10;}
	.st19{fill:none;stroke:#6082BB;stroke-width:43.2453;stroke-miterlimit:10;}
	.st20{fill:none;stroke:#536FA1;stroke-width:6.1779;stroke-linecap:round;stroke-linejoin:round;stroke-miterlimit:10;}
	
		.st21{fill:none;stroke:#5270A4;stroke-width:9.6986;stroke-linecap:round;stroke-linejoin:round;stroke-miterlimit:10;stroke-dasharray:15.278;}
	.st22{fill:#E83D3D;stroke:#040000;stroke-width:0.6728;stroke-miterlimit:10;}
	.st23{fill:#52B560;stroke:#040000;stroke-width:0.6728;stroke-miterlimit:10;}
	.st24{fill:none;stroke:#17336D;stroke-width:8.0035;stroke-linecap:round;stroke-linejoin:round;stroke-miterlimit:10;}
	.st25{fill:#C1E5F1;}
	.st26{fill:none;stroke:#17336D;stroke-width:7.3915;stroke-linecap:round;stroke-linejoin:round;stroke-miterlimit:10;}
	.st27{fill:none;stroke:#17336D;stroke-width:3.6367;stroke-linecap:round;stroke-linejoin:round;stroke-miterlimit:10;}
	
		.st28{fill:none;stroke:#5270A4;stroke-width:11.5328;stroke-linecap:round;stroke-linejoin:round;stroke-miterlimit:10;stroke-dasharray:18.1673;}
</style>
<rect x="37" y="52.4" class="st28" width="152.8" height="133.1"/>
<path class="st1" d="M128.8,120.9c0,1.8-0.3,3.5-1,5.1c-0.7,1.6-1.6,3-2.8,4.2c-1.2,1.2-2.5,2.1-4.1,2.8c-1.6,0.7-3.3,1-5.1,1
	s-3.5-0.3-5.1-1s-2.9-1.6-4.1-2.8s-2.1-2.6-2.8-4.2c-0.7-1.6-1-3.3-1-5.1c0-1.8,0.3-3.4,1-5s1.6-3,2.8-4.2c1.2-1.2,2.5-2.1,4.1-2.8
	c1.6-0.7,3.3-1,5.1-1c1.8,0,3.5,0.3,5.1,1c1.6,0.7,2.9,1.6,4.1,2.8c1.2,1.2,2.1,2.6,2.8,4.2C128.5,117.5,128.8,119.2,128.8,120.9z
	 M80.4,147c-1.8,0-3.5-0.2-4.9-0.5c-1.4-0.3-2.6-0.9-3.6-1.7c-1-0.8-1.7-1.8-2.3-3.2c-0.5-1.3-0.8-3-0.8-5v-33.1
	c0-3.7,0.9-6.2,2.6-7.6c1.7-1.4,4.5-2.2,8.2-2.2H96c1,0,1.9-0.2,2.6-0.6c0.7-0.4,1.2-0.9,1.7-1.6c0.4-0.7,0.8-1.4,1.1-2.3
	s0.7-1.8,1.1-2.7c0.7-1.7,1.8-3.2,3.4-4.4c1.6-1.2,3.5-1.9,5.6-1.9h9.1c2.4,0,4.4,0.7,5.9,2c1.5,1.3,2.6,2.8,3.1,4.3
	c0.7,2,1.7,3.6,2.8,5s2.4,2.1,3.7,2.1h12.4c2.9-0.1,5.2,0.7,6.8,2.3s2.5,4,2.5,7.1v33.6c0,3.3-0.9,5.9-2.6,7.6s-4.1,2.6-7,2.6
	L80.4,147L80.4,147z M115.6,100.5c-2.9,0-5.5,0.5-8,1.6c-2.5,1.1-4.6,2.5-6.5,4.4c-1.8,1.9-3.3,4-4.4,6.5c-1.1,2.5-1.6,5.1-1.6,7.9
	c0,2.9,0.5,5.5,1.6,8c1.1,2.5,2.5,4.6,4.4,6.5s4,3.3,6.5,4.4c2.5,1.1,5.2,1.6,8,1.6c2.8,0,5.4-0.5,7.9-1.6c2.5-1.1,4.6-2.5,6.5-4.4
	s3.3-4,4.4-6.5c1.1-2.5,1.6-5.2,1.6-8c0-2.8-0.5-5.4-1.6-7.9c-1.1-2.5-2.5-4.6-4.4-6.5c-1.8-1.9-4-3.3-6.5-4.4
	C121,101,118.4,100.5,115.6,100.5L115.6,100.5z M122.4,89.9c0-1,0-1.9-0.1-2.4c-0.1-0.6-0.8-0.9-2-0.9h-8.1c-1.2-0.1-1.9,0.2-2,0.8
	c-0.1,0.6-0.1,1.4-0.1,2.5c-0.1,1.2,0,2.1,0.2,2.6c0.2,0.5,0.8,0.8,2,0.8h8.1c1.2,0,1.9-0.3,2-0.9C122.4,91.9,122.4,91,122.4,89.9z"
	/>
</svg>
