<?xml version="1.0" encoding="utf-8"?>
<!-- Generator: Adobe Illustrator 22.1.0, SVG Export Plug-In . SVG Version: 6.00 Build 0)  -->
<svg version="1.1" id="图层_1" xmlns="http://www.w3.org/2000/svg" xmlns:xlink="http://www.w3.org/1999/xlink" x="0px" y="0px"
	 viewBox="0 0 226.8 226.8" style="enable-background:new 0 0 226.8 226.8;" xml:space="preserve">
<style type="text/css">
	.st0{fill:#6082BB;}
	.st1{fill:#17336D;}
	.st2{fill:#040000;}
	.st3{fill:none;stroke:#6082BB;stroke-width:10;stroke-linecap:round;stroke-linejoin:round;}
	.st4{fill:none;stroke:#6082BB;stroke-width:10;stroke-linecap:round;stroke-linejoin:round;stroke-dasharray:17.9178,17.9178;}
	.st5{fill:none;stroke:#6082BB;stroke-width:7.5613;stroke-linecap:round;stroke-linejoin:round;stroke-miterlimit:10;}
	
		.st6{opacity:0.42;fill:none;stroke:#6082BB;stroke-width:7.5613;stroke-linecap:round;stroke-linejoin:round;stroke-miterlimit:10;}
	
		.st7{fill:none;stroke:#17336D;stroke-width:6.3011;stroke-linecap:round;stroke-linejoin:round;stroke-miterlimit:10;stroke-dasharray:12.6022;}
	.st8{fill:none;stroke:#6082BB;stroke-width:8.4158;stroke-linecap:round;stroke-linejoin:round;}
	.st9{fill:none;stroke:#6082BB;stroke-width:8.4158;stroke-linecap:round;stroke-linejoin:round;stroke-dasharray:12.3943,12.3943;}
	.st10{fill:none;stroke:#6082BB;stroke-width:5.6082;stroke-miterlimit:10;}
	.st11{fill:none;stroke:#6082BB;stroke-width:7.8662;stroke-linecap:round;stroke-linejoin:round;}
	
		.st12{fill:none;stroke:#6082BB;stroke-width:7.8662;stroke-linecap:round;stroke-linejoin:round;stroke-dasharray:10.4534,10.4534;}
	.st13{fill:none;stroke:#17336D;stroke-width:4.5906;stroke-linecap:round;stroke-linejoin:round;stroke-miterlimit:10;}
	.st14{fill:none;stroke:#17336D;stroke-width:5.284;stroke-linecap:round;stroke-linejoin:round;}
	
		.st15{fill:none;stroke:#17336D;stroke-width:5.284;stroke-linecap:round;stroke-linejoin:round;stroke-miterlimit:10;stroke-dasharray:10.5681;}
	.st16{fill:#FBFBFB;}
	.st17{fill:none;stroke:#17336D;stroke-width:6.0109;stroke-miterlimit:10;}
	.st18{fill:none;stroke:#536FA1;stroke-width:5.4635;stroke-linecap:round;stroke-linejoin:round;stroke-miterlimit:10;}
	.st19{fill:none;stroke:#6082BB;stroke-width:43.2453;stroke-miterlimit:10;}
	.st20{fill:none;stroke:#536FA1;stroke-width:6.1779;stroke-linecap:round;stroke-linejoin:round;stroke-miterlimit:10;}
	
		.st21{fill:none;stroke:#5270A4;stroke-width:9.6986;stroke-linecap:round;stroke-linejoin:round;stroke-miterlimit:10;stroke-dasharray:15.278;}
	.st22{fill:#E83D3D;stroke:#040000;stroke-width:0.6728;stroke-miterlimit:10;}
	.st23{fill:#52B560;stroke:#040000;stroke-width:0.6728;stroke-miterlimit:10;}
	.st24{fill:none;stroke:#17336D;stroke-width:8.0035;stroke-linecap:round;stroke-linejoin:round;stroke-miterlimit:10;}
	.st25{fill:#C1E5F1;}
	.st26{fill:none;stroke:#17336D;stroke-width:7.3915;stroke-linecap:round;stroke-linejoin:round;stroke-miterlimit:10;}
	.st27{fill:none;stroke:#17336D;stroke-width:3.6367;stroke-linecap:round;stroke-linejoin:round;stroke-miterlimit:10;}
	
		.st28{fill:none;stroke:#5270A4;stroke-width:11.5328;stroke-linecap:round;stroke-linejoin:round;stroke-miterlimit:10;stroke-dasharray:18.1673;}
</style>
<path class="st1" d="M61.2,110.3c6.9-13.4,24.6-35.1,51.4-35.1s44.5,21.7,51.4,35.1c1,2,1,4.4,0,6.4c-6.9,13.4-24.6,35.1-51.4,35.1
	s-44.5-21.7-51.4-35.1C60.2,114.8,60.2,112.4,61.2,110.3z M112.7,130.6c9.7,0,17.6-7.6,17.6-17s-7.9-17-17.6-17s-17.6,7.6-17.6,17
	S102.9,130.6,112.7,130.6z"/>
<g>
	<path class="st0" d="M62,79.5l-21.7,36.3c-0.9,1.6-3,2.1-4.6,1.2l-1.5-0.9c-1.6-0.9-2.2-2.9-1.2-4.4l21.7-36.3
		c0.9-1.6,3-2.1,4.6-1.2l1.5,0.9C62.3,75.9,62.9,77.9,62,79.5z"/>
	<path class="st0" d="M62,147.6l-21.7-36.3c-0.9-1.6-3-2.1-4.6-1.2l-1.5,0.9c-1.6,0.9-2.2,2.9-1.2,4.4l21.7,36.3
		c0.9,1.6,3,2.1,4.6,1.2l1.5-0.9C62.3,151.2,62.9,149.2,62,147.6z"/>
</g>
<g>
	<path class="st0" d="M162,79.5l21.7,36.3c0.9,1.6,3,2.1,4.6,1.2l1.5-0.9c1.6-0.9,2.2-2.9,1.2-4.4l-21.7-36.3
		c-0.9-1.6-3-2.1-4.6-1.2l-1.5,0.9C161.7,75.9,161.1,77.9,162,79.5z"/>
	<path class="st0" d="M162,147.6l21.7-36.3c0.9-1.6,3-2.1,4.6-1.2l1.5,0.9c1.6,0.9,2.2,2.9,1.2,4.4l-21.7,36.3
		c-0.9,1.6-3,2.1-4.6,1.2l-1.5-0.9C161.7,151.2,161.1,149.2,162,147.6z"/>
</g>
</svg>
