<?xml version="1.0" encoding="utf-8"?>
<!-- Generator: Adobe Illustrator 22.1.0, SVG Export Plug-In . SVG Version: 6.00 Build 0)  -->
<svg version="1.1" id="图层_1" xmlns="http://www.w3.org/2000/svg" xmlns:xlink="http://www.w3.org/1999/xlink" x="0px" y="0px"
	 viewBox="0 0 226.8 226.8" style="enable-background:new 0 0 226.8 226.8;" xml:space="preserve">
<style type="text/css">
	.st0{fill:#6082BB;}
	.st1{fill:#17336D;}
	.st2{fill:#040000;}
	.st3{fill:none;stroke:#6082BB;stroke-width:10;stroke-linecap:round;stroke-linejoin:round;}
	.st4{fill:none;stroke:#6082BB;stroke-width:10;stroke-linecap:round;stroke-linejoin:round;stroke-dasharray:17.9178,17.9178;}
	.st5{fill:none;stroke:#6082BB;stroke-width:7.5613;stroke-linecap:round;stroke-linejoin:round;stroke-miterlimit:10;}
	
		.st6{opacity:0.42;fill:none;stroke:#6082BB;stroke-width:7.5613;stroke-linecap:round;stroke-linejoin:round;stroke-miterlimit:10;}
	
		.st7{fill:none;stroke:#17336D;stroke-width:6.3011;stroke-linecap:round;stroke-linejoin:round;stroke-miterlimit:10;stroke-dasharray:12.6022;}
	.st8{fill:none;stroke:#6082BB;stroke-width:8.4158;stroke-linecap:round;stroke-linejoin:round;}
	.st9{fill:none;stroke:#6082BB;stroke-width:8.4158;stroke-linecap:round;stroke-linejoin:round;stroke-dasharray:12.3943,12.3943;}
	.st10{fill:none;stroke:#6082BB;stroke-width:5.6082;stroke-miterlimit:10;}
	.st11{fill:none;stroke:#6082BB;stroke-width:7.8662;stroke-linecap:round;stroke-linejoin:round;}
	
		.st12{fill:none;stroke:#6082BB;stroke-width:7.8662;stroke-linecap:round;stroke-linejoin:round;stroke-dasharray:10.4534,10.4534;}
	.st13{fill:none;stroke:#17336D;stroke-width:4.5906;stroke-linecap:round;stroke-linejoin:round;stroke-miterlimit:10;}
	.st14{fill:none;stroke:#17336D;stroke-width:5.284;stroke-linecap:round;stroke-linejoin:round;}
	
		.st15{fill:none;stroke:#17336D;stroke-width:5.284;stroke-linecap:round;stroke-linejoin:round;stroke-miterlimit:10;stroke-dasharray:10.5681;}
	.st16{fill:#FBFBFB;}
	.st17{fill:none;stroke:#17336D;stroke-width:6.0109;stroke-miterlimit:10;}
	.st18{fill:none;stroke:#536FA1;stroke-width:5.4635;stroke-linecap:round;stroke-linejoin:round;stroke-miterlimit:10;}
	.st19{fill:none;stroke:#6082BB;stroke-width:43.2453;stroke-miterlimit:10;}
	.st20{fill:none;stroke:#536FA1;stroke-width:6.1779;stroke-linecap:round;stroke-linejoin:round;stroke-miterlimit:10;}
	
		.st21{fill:none;stroke:#5270A4;stroke-width:9.6986;stroke-linecap:round;stroke-linejoin:round;stroke-miterlimit:10;stroke-dasharray:15.278;}
	.st22{fill:#E83D3D;stroke:#040000;stroke-width:0.6728;stroke-miterlimit:10;}
	.st23{fill:#52B560;stroke:#040000;stroke-width:0.6728;stroke-miterlimit:10;}
	.st24{fill:none;stroke:#17336D;stroke-width:8.0035;stroke-linecap:round;stroke-linejoin:round;stroke-miterlimit:10;}
	.st25{fill:#C1E5F1;}
	.st26{fill:none;stroke:#17336D;stroke-width:7.3915;stroke-linecap:round;stroke-linejoin:round;stroke-miterlimit:10;}
	.st27{fill:none;stroke:#17336D;stroke-width:3.6367;stroke-linecap:round;stroke-linejoin:round;stroke-miterlimit:10;}
	
		.st28{fill:none;stroke:#5270A4;stroke-width:11.5328;stroke-linecap:round;stroke-linejoin:round;stroke-miterlimit:10;stroke-dasharray:18.1673;}
</style>
<g>
	<path class="st1" d="M66.3,173.7c-2.8,0-5.3-0.2-7.5-0.7c-2.2-0.5-4-1.3-5.5-2.5s-2.6-2.8-3.4-4.8c-0.8-2-1.2-4.6-1.2-7.7v-50.4
		c0-5.6,1.3-9.4,4-11.6s6.8-3.3,12.4-3.3h25c1.6,0,2.9-0.3,4-0.9s1.9-1.4,2.5-2.4c0.6-1,1.2-2.2,1.7-3.5s1-2.7,1.6-4.1
		c1-2.6,2.7-4.8,5.2-6.7c2.5-1.9,5.3-2.8,8.5-2.8h13.9c3.7,0,6.7,1,9,3.1c2.3,2,3.9,4.2,4.7,6.5c1.1,3,2.5,5.5,4.3,7.7
		c1.8,2.1,3.7,3.2,5.7,3.2h18.9c4.4-0.1,7.9,1.1,10.4,3.6c2.6,2.5,3.9,6.1,3.9,10.9v51.1c0,5.1-1.3,8.9-4,11.6
		c-2.7,2.6-6.3,4-10.7,4L66.3,173.7L66.3,173.7z M127.2,72.1c0-1.4-0.1-2.5-0.2-3.3c-0.1-0.8-1-1.2-2.7-1.2h-10.8
		c-1.6-0.1-2.5,0.3-2.7,1c-0.1,0.8-0.2,1.9-0.2,3.4c-0.1,1.6,0,2.8,0.3,3.5s1.1,1,2.6,1h10.8c1.6,0,2.5-0.4,2.7-1.2
		C127.2,74.7,127.2,73.6,127.2,72.1z"/>
	<g>
		<g>
			<g>
				<path class="st16" d="M64.9,130.8v-23.3c0-0.8,0.6-1.4,1.4-1.4h0c0.8,0,1.4,0.6,1.4,1.4v23.3c0,0.8-0.6,1.4-1.4,1.4h0
					C65.5,132.3,64.9,131.6,64.9,130.8z"/>
			</g>
			<g>
				<path class="st16" d="M54.7,117.7H78c0.8,0,1.4,0.6,1.4,1.4v0c0,0.8-0.6,1.4-1.4,1.4H54.7c-0.8,0-1.4-0.6-1.4-1.4v0
					C53.2,118.4,53.9,117.7,54.7,117.7z"/>
			</g>
			<g>
				<path class="st16" d="M54.7,149.2H78c0.8,0,1.4,0.6,1.4,1.4l0,0c0,0.8-0.6,1.4-1.4,1.4H54.7c-0.8,0-1.4-0.6-1.4-1.4l0,0
					C53.2,149.8,53.9,149.2,54.7,149.2z"/>
			</g>
		</g>
	</g>
	<g>
		<g>
			<g>
				<g>
					<g>
						<path class="st16" d="M91.1,105.3c7.2-8.1,17.6-12.7,28.4-12.7h3.9l-20.6,36.2l-12.7-22.3L91.1,105.3z M83.5,142.8
							c-3.6-10.6-2.3-22.1,3.4-31.7l1.9-3.2l12.3,21.7l8.4,14.7H84L83.5,142.8L83.5,142.8z M148,155.9c-7.2,8.1-17.6,12.8-28.5,12.8
							h-3.9l20.7-36.3l12.7,22.3L148,155.9L148,155.9z M152.1,150.2l-1.9,3.2L129.5,117H155l0.5,1.5
							C159.1,129,157.9,140.6,152.1,150.2L152.1,150.2z"/>
					</g>
				</g>
			</g>
		</g>
		<path class="st16" d="M126.7,93.2c11,2.1,20.4,9,25.9,18.7l1.8,3.3h-42L125.2,93L126.7,93.2z"/>
		<path class="st16" d="M112.3,168c-11-2.1-20.4-9-25.9-18.7l-1.8-3.3h42l-12.7,22.3L112.3,168z"/>
	</g>
</g>
</svg>
