<?xml version="1.0" encoding="utf-8"?>
<!-- Generator: Adobe Illustrator 22.1.0, SVG Export Plug-In . SVG Version: 6.00 Build 0)  -->
<svg version="1.1" id="图层_1" xmlns="http://www.w3.org/2000/svg" xmlns:xlink="http://www.w3.org/1999/xlink" x="0px" y="0px"
	 viewBox="0 0 226.8 226.8" style="enable-background:new 0 0 226.8 226.8;" xml:space="preserve">
<style type="text/css">
	.st0{fill:#6082BB;}
	.st1{fill:#17336D;}
	.st2{fill:#040000;}
	.st3{fill:none;stroke:#6082BB;stroke-width:10;stroke-linecap:round;stroke-linejoin:round;}
	.st4{fill:none;stroke:#6082BB;stroke-width:10;stroke-linecap:round;stroke-linejoin:round;stroke-dasharray:17.9178,17.9178;}
	.st5{fill:none;stroke:#6082BB;stroke-width:7.5613;stroke-linecap:round;stroke-linejoin:round;stroke-miterlimit:10;}
	
		.st6{opacity:0.42;fill:none;stroke:#6082BB;stroke-width:7.5613;stroke-linecap:round;stroke-linejoin:round;stroke-miterlimit:10;}
	
		.st7{fill:none;stroke:#17336D;stroke-width:6.3011;stroke-linecap:round;stroke-linejoin:round;stroke-miterlimit:10;stroke-dasharray:12.6022;}
	.st8{fill:none;stroke:#6082BB;stroke-width:8.4158;stroke-linecap:round;stroke-linejoin:round;}
	.st9{fill:none;stroke:#6082BB;stroke-width:8.4158;stroke-linecap:round;stroke-linejoin:round;stroke-dasharray:12.3943,12.3943;}
	.st10{fill:none;stroke:#6082BB;stroke-width:5.6082;stroke-miterlimit:10;}
	.st11{fill:none;stroke:#6082BB;stroke-width:7.8662;stroke-linecap:round;stroke-linejoin:round;}
	
		.st12{fill:none;stroke:#6082BB;stroke-width:7.8662;stroke-linecap:round;stroke-linejoin:round;stroke-dasharray:10.4534,10.4534;}
	.st13{fill:none;stroke:#17336D;stroke-width:4.5906;stroke-linecap:round;stroke-linejoin:round;stroke-miterlimit:10;}
	.st14{fill:none;stroke:#17336D;stroke-width:5.284;stroke-linecap:round;stroke-linejoin:round;}
	
		.st15{fill:none;stroke:#17336D;stroke-width:5.284;stroke-linecap:round;stroke-linejoin:round;stroke-miterlimit:10;stroke-dasharray:10.5681;}
	.st16{fill:#FBFBFB;}
	.st17{fill:none;stroke:#17336D;stroke-width:6.0109;stroke-miterlimit:10;}
	.st18{fill:none;stroke:#536FA1;stroke-width:5.4635;stroke-linecap:round;stroke-linejoin:round;stroke-miterlimit:10;}
	.st19{fill:none;stroke:#6082BB;stroke-width:43.2453;stroke-miterlimit:10;}
	.st20{fill:none;stroke:#536FA1;stroke-width:6.1779;stroke-linecap:round;stroke-linejoin:round;stroke-miterlimit:10;}
	
		.st21{fill:none;stroke:#5270A4;stroke-width:9.6986;stroke-linecap:round;stroke-linejoin:round;stroke-miterlimit:10;stroke-dasharray:15.278;}
	.st22{fill:#E83D3D;stroke:#040000;stroke-width:0.6728;stroke-miterlimit:10;}
	.st23{fill:#52B560;stroke:#040000;stroke-width:0.6728;stroke-miterlimit:10;}
	.st24{fill:none;stroke:#17336D;stroke-width:8.0035;stroke-linecap:round;stroke-linejoin:round;stroke-miterlimit:10;}
	.st25{fill:#C1E5F1;}
	.st26{fill:none;stroke:#17336D;stroke-width:7.3915;stroke-linecap:round;stroke-linejoin:round;stroke-miterlimit:10;}
	.st27{fill:none;stroke:#17336D;stroke-width:3.6367;stroke-linecap:round;stroke-linejoin:round;stroke-miterlimit:10;}
	
		.st28{fill:none;stroke:#5270A4;stroke-width:11.5328;stroke-linecap:round;stroke-linejoin:round;stroke-miterlimit:10;stroke-dasharray:18.1673;}
</style>
<g>
	<path class="st0" d="M187.1,157.8H51.2c-4.1,0-7.4-3.3-7.4-7.4v-11.3v-0.5c0.1-10,2-19.7,5.9-28.8c3.8-9,9.2-17,16.1-23.9
		c6.9-6.9,15-12.3,23.9-16.1c9.2-3.9,19.1-5.9,29.3-5.9c10.1,0,20,2,29.3,5.9c9,3.8,17,9.2,23.9,16.1c6.9,6.9,12.3,15,16.1,23.9
		c4,9.3,5.9,19.1,5.9,29.3v11.3C194.5,154.6,191.2,157.8,187.1,157.8L187.1,157.8z M52.8,148.9h132.8v-9.8c0-9-1.7-17.7-5.2-25.9
		c-3.3-7.9-8.1-15-14.3-21.1c-6.1-6.1-13.2-10.9-21.1-14.3c-8.2-3.5-16.9-5.2-25.9-5.2c-9,0-17.7,1.8-25.8,5.2
		c-7.9,3.3-15,8.1-21.2,14.3c-6.2,6.2-10.9,13.2-14.3,21.1c-3.4,8.1-5.2,16.7-5.2,25.6L52.8,148.9L52.8,148.9z"/>
	<path class="st1" d="M165.7,117.3l-4.5,1.7c-0.2-0.4-0.4-0.9-0.6-1.3l4.4-1.9c0.2-0.1,0.3-0.4,0.2-0.6c-0.1-0.2-0.4-0.3-0.6-0.2
		l-4.5,1.9c-0.2-0.4-0.4-0.8-0.6-1.2l4.4-2.3c0.2-0.2,0.3-0.4,0.2-0.6c-0.2-0.2-0.4-0.3-0.6-0.2l-4.4,2.3l-0.7-1.2l7.1-4.1
		c0.2-0.2,0.3-0.4,0.2-0.6c-0.2-0.2-0.4-0.3-0.6-0.2l-7.1,4.1c-0.2-0.4-0.5-0.8-0.8-1.2l4.3-2.8c0.2-0.2,0.3-0.4,0.2-0.6
		c-0.2-0.2-0.4-0.3-0.6-0.2l-4.3,2.8c-0.2-0.4-0.6-0.7-0.8-1.1l4.2-3.1c0.2-0.2,0.2-0.5,0.1-0.6c-0.2-0.2-0.4-0.2-0.6-0.1l-4.3,3.1
		c-0.3-0.3-0.6-0.7-0.9-1.1l4.1-3.3c0.2-0.2,0.2-0.5,0.1-0.6c-0.2-0.2-0.5-0.2-0.6-0.1l-4.1,3.3c-0.3-0.3-0.6-0.7-1-1.1l4-3.6
		c0.2-0.2,0.2-0.5,0-0.6c-0.2-0.2-0.5-0.2-0.6,0l-4.1,3.6l-0.8-0.8l-0.2-0.2l6.1-6.1c0.2-0.2,0.2-0.5,0-0.6c-0.2-0.2-0.5-0.2-0.6,0
		l-6.1,6.1c-0.3-0.3-0.7-0.6-1.1-1l3.6-4.1c0.2-0.2,0.2-0.5,0-0.6c-0.2-0.2-0.5-0.2-0.6,0l-3.6,4.1c-0.3-0.3-0.7-0.6-1.1-0.9
		l3.5-4.3c0.2-0.2,0.2-0.5-0.1-0.6c-0.2-0.2-0.5-0.2-0.6,0.1l-3.5,4.3c-0.3-0.3-0.7-0.6-1.1-0.8l3.2-4.5c0.2-0.2,0.1-0.5-0.1-0.6
		c-0.2-0.2-0.5-0.1-0.6,0.1l-3.2,4.5c-0.4-0.2-0.7-0.5-1.1-0.8l3-4.7c0.2-0.2,0.1-0.5-0.2-0.6c-0.2-0.2-0.5-0.1-0.6,0.2l-3,4.7
		c-0.4-0.2-0.8-0.5-1.1-0.7l4.4-7.5c0.2-0.2,0.1-0.5-0.2-0.6c-0.2-0.2-0.5-0.1-0.6,0.2l-4.4,7.5l-1.2-0.6l2.5-5
		c0.2-0.2,0-0.5-0.2-0.6c-0.2-0.2-0.5,0-0.6,0.2l-2.6,5c-0.4-0.2-0.8-0.4-1.2-0.6l2.3-5.1c0.1-0.2,0-0.5-0.2-0.6
		c-0.2-0.2-0.5,0-0.6,0.2l-2.3,5.1l-1.3-0.5v-0.1l2-5.3c0.1-0.2,0-0.5-0.2-0.6c-0.2-0.1-0.5,0-0.6,0.2l-2,5.3v0.1
		c-0.4-0.2-0.9-0.3-1.3-0.5v-0.1l1.7-5.3c0.1-0.2-0.1-0.5-0.3-0.6c-0.2-0.1-0.5,0.1-0.6,0.3l-1.7,5.3v0.1c-0.4-0.2-0.9-0.2-1.3-0.4
		v-0.1l2.3-8.4c0.1-0.2-0.1-0.5-0.3-0.6c-0.2-0.1-0.5,0.1-0.6,0.3l-2.4,8.6v0.1c-0.5-0.1-0.9-0.2-1.4-0.3v-0.1l1.1-5.5
		c0.1-0.2-0.1-0.5-0.3-0.6c-0.2-0.1-0.5,0.1-0.6,0.3L128,92v0.1c-0.5-0.1-0.9-0.2-1.4-0.2v-0.1l0.9-5.5c0.1-0.2-0.2-0.5-0.4-0.6
		c-0.2-0.1-0.5,0.2-0.6,0.4l-0.9,5.5v0.2c-0.5-0.1-1-0.2-1.4-0.2v-0.2l0.6-5.6c0-0.2-0.2-0.5-0.4-0.5c-0.2,0-0.5,0.2-0.5,0.4
		l-0.6,5.6v0.2c-0.5-0.1-1-0.1-1.4-0.1v-0.2l0.3-5.6c0-0.2-0.2-0.5-0.4-0.5c-0.2,0-0.5,0.2-0.5,0.4l-0.3,5.6v0.2h-1.4v-8.9
		c0-0.2-0.2-0.5-0.5-0.5c-0.2,0-0.5,0.2-0.5,0.5v8.9h-1.5v-0.2l-0.3-5.6c0-0.2-0.2-0.5-0.5-0.4c-0.2,0-0.5,0.2-0.4,0.5l0.3,5.6v0.2
		c-0.5,0-1,0.1-1.4,0.1v-0.2l-0.6-5.5c0-0.2-0.2-0.4-0.5-0.4c-0.2,0-0.4,0.2-0.4,0.5l0.6,5.6v0.2c-0.5,0.1-1,0.1-1.4,0.2v-0.2
		l-0.9-5.6c-0.1-0.2-0.3-0.4-0.6-0.4c-0.2,0.1-0.4,0.3-0.4,0.6l0.9,5.5v0.1c-0.5,0.1-0.9,0.2-1.4,0.2V92l-1.1-5.5
		c-0.1-0.2-0.3-0.4-0.6-0.3c-0.2,0.1-0.4,0.3-0.3,0.6l1.1,5.5v0.1c-0.4,0.1-0.9,0.2-1.4,0.3v-0.1l-2.3-8.4c-0.1-0.2-0.3-0.4-0.6-0.3
		c-0.2,0.1-0.4,0.3-0.3,0.6l2.3,8.4v0.1c-0.5,0.2-0.9,0.2-1.4,0.4v-0.1l-1.7-5.3c-0.1-0.2-0.3-0.4-0.6-0.3s-0.4,0.3-0.3,0.6l1.7,5.3
		v0.1c-0.4,0.2-0.9,0.3-1.3,0.5V94l-2-5.3c-0.1-0.2-0.3-0.3-0.6-0.2c-0.2,0.1-0.3,0.3-0.2,0.6l2,5.3v0.1c-0.4,0.2-0.9,0.3-1.3,0.5
		l-2.3-5.1c-0.1-0.2-0.4-0.3-0.6-0.2s-0.3,0.4-0.2,0.6l2.3,5.1c-0.4,0.2-0.8,0.4-1.2,0.6l-2.5-5c-0.2-0.2-0.4-0.3-0.6-0.2
		c-0.2,0.2-0.3,0.4-0.2,0.6l2.5,5c-0.4,0.2-0.8,0.4-1.2,0.6L93,89.3c-0.2-0.2-0.4-0.3-0.6-0.2c-0.2,0.2-0.3,0.4-0.2,0.6l4.4,7.5
		l-1.2,0.7l-3.1-4.7c-0.2-0.2-0.4-0.3-0.6-0.2c-0.2,0.2-0.3,0.4-0.2,0.6l3,4.7c-0.4,0.2-0.8,0.5-1.1,0.8l-3.2-4.5
		c-0.2-0.2-0.5-0.2-0.6-0.1c-0.2,0.2-0.2,0.5-0.1,0.6l3.2,4.5c-0.4,0.2-0.7,0.6-1.1,0.8L88,96.5c-0.2-0.2-0.5-0.2-0.6-0.1
		c-0.2,0.2-0.2,0.5-0.1,0.6l3.5,4.3c-0.3,0.3-0.7,0.6-1.1,0.9l-3.6-4.1c-0.2-0.2-0.5-0.2-0.6,0c-0.2,0.2-0.2,0.5,0,0.6l3.6,4.1
		c-0.3,0.3-0.6,0.6-1.1,0.9l-6.1-6.1c-0.2-0.2-0.5-0.2-0.6,0c-0.2,0.2-0.2,0.5,0,0.6l6.1,6.1l-0.2,0.2l-0.8,0.8l-4.1-3.6
		c-0.2-0.2-0.5-0.2-0.6,0c-0.2,0.2-0.2,0.5,0,0.6l4,3.6c-0.3,0.3-0.6,0.6-1,1.1l-4.1-3.3c-0.2-0.2-0.5-0.2-0.6,0.1
		c-0.2,0.2-0.2,0.5,0.1,0.6l4.1,3.3c-0.3,0.3-0.6,0.7-0.9,1.1l-4.3-3.1c-0.2-0.2-0.5-0.1-0.6,0.1c-0.2,0.2-0.1,0.5,0.1,0.6l4.2,3.1
		c-0.3,0.3-0.6,0.7-0.8,1.1l-4.3-2.8c-0.2-0.2-0.5-0.1-0.6,0.2c-0.2,0.2-0.1,0.5,0.2,0.6l4.3,2.8c-0.2,0.4-0.5,0.7-0.8,1.1l-7.1-4.1
		c-0.2-0.2-0.5-0.1-0.6,0.2c-0.2,0.2-0.1,0.5,0.2,0.6l7.1,4.1l-0.7,1.2l-4.4-2c-0.2-0.2-0.5,0-0.6,0.2c-0.2,0.2,0,0.5,0.2,0.6
		l4.4,2.3c-0.2,0.4-0.4,0.8-0.6,1.2l-4.5-1.9c-0.2-0.1-0.5,0-0.6,0.2c-0.1,0.2,0,0.5,0.2,0.6l4.4,1.9c-0.2,0.4-0.4,0.9-0.6,1.3
		l-4.5-1.7c-0.2-0.1-0.5,0-0.6,0.2c-0.2,0.2,0,0.5,0.2,0.6l4.5,1.7c-0.2,0.4-0.3,0.9-0.5,1.3l-4.5-1.5c-0.2-0.1-0.5,0.1-0.6,0.3
		c-0.1,0.2,0.1,0.5,0.3,0.6l4.5,1.5c-0.2,0.4-0.3,0.9-0.4,1.4l-7.5-2c-0.2-0.1-0.5,0.1-0.6,0.3c-0.1,0.2,0.1,0.5,0.3,0.6l7.5,2
		c-0.2,0.5-0.2,1-0.3,1.4l-4.5-1c-0.2-0.1-0.5,0.1-0.6,0.3c-0.1,0.2,0.1,0.5,0.3,0.6l4.5,1c-0.1,0.5-0.2,1-0.2,1.4l-4.5-0.7
		c-0.2-0.1-0.5,0.2-0.6,0.4s0.2,0.5,0.4,0.6l4.5,0.7c-0.1,0.5-0.2,1-0.2,1.5l-4.6-0.5c-0.2,0-0.5,0.2-0.5,0.4c0,0.2,0.2,0.5,0.4,0.5
		l4.5,0.5c-0.1,0.5-0.1,1-0.1,1.5l-4.6-0.2c-0.2,0-0.5,0.2-0.5,0.4c0,0.2,0.2,0.5,0.4,0.5l4.6,0.2v1.4H66c-0.2,0-0.5,0.2-0.5,0.5
		c0,0.2,0.2,0.5,0.5,0.5h7.9c0.3,0.7,1.1,1.2,1.9,1.2h86.9c0.8,0,1.5-0.5,1.9-1.2h7.9c0.2,0,0.5-0.2,0.5-0.5c0-0.2-0.2-0.5-0.5-0.5
		h-7.8v-1.5l4.6-0.2c0.2,0,0.5-0.2,0.4-0.5c0-0.2-0.2-0.5-0.5-0.4l-4.6,0.2c0-0.5-0.1-1-0.1-1.5l4.6-0.5c0.2,0,0.4-0.2,0.4-0.5
		s-0.2-0.4-0.5-0.4l-4.6,0.5c-0.1-0.5-0.1-1-0.2-1.5l4.5-0.7c0.2-0.1,0.4-0.3,0.4-0.6c-0.1-0.2-0.3-0.4-0.6-0.4l-4.5,0.7
		c-0.1-0.5-0.2-1-0.2-1.4l4.5-1c0.2-0.1,0.4-0.3,0.3-0.6c-0.1-0.2-0.3-0.4-0.6-0.3l-4.5,1c-0.1-0.5-0.2-0.9-0.3-1.4l7.5-2
		c0.2-0.1,0.4-0.3,0.3-0.6s-0.3-0.4-0.6-0.3l-7.5,2c-0.2-0.5-0.3-0.9-0.4-1.4l4.5-1.5c0.2-0.1,0.4-0.3,0.3-0.6
		c-0.1-0.2-0.3-0.4-0.6-0.3l-4.5,1.5c-0.2-0.4-0.3-0.9-0.5-1.3l4.5-1.7c0.2-0.1,0.3-0.3,0.2-0.6C166.2,117.4,166,117.2,165.7,117.3
		L165.7,117.3z M77.8,133.4c1.1-21.9,19.2-38,41.4-38s40.3,16.1,41.3,38H77.8z"/>
</g>
</svg>
